<svg width="400" height="400" viewBox="0 0 400 400" fill="none" xmlns="http://www.w3.org/2000/svg">
<path d="M281.599 204.358C309.17 215.329 328.431 238.767 335.442 247.997C335.442 247.997 300.555 226.757 300.986 244.002C301.486 264.021 400 316.817 400 316.817L258.524 316.921C258.524 316.921 221.31 231.724 230.354 212.902C234.121 205.06 240.972 202.199 248.011 200.229C257.684 197.518 272.125 200.589 281.599 204.358Z" fill="#6F7D89"/>
<path d="M27.6272 248.51C30.4077 251.53 32.2339 253.313 32.2339 253.313C32.2339 253.313 30.3345 253.371 27.7865 254.844C25.3303 256.269 22.2817 259.005 19.7449 264.282C15.1269 273.895 29.4271 284.245 32.5189 286.335C32.8864 286.584 33.0964 286.716 33.0964 286.716C33.0964 286.716 24.0516 290.93 24.0516 300.075C24.0516 309.219 40.345 316.817 40.345 316.817H114.066C114.066 316.817 197.62 154.952 138.184 121.468C138.184 121.468 98.0953 69.5451 56.3533 86.4717C32.7514 96.0388 24.1979 110.719 23.0579 125.752C20.958 153.301 43.7386 182.039 44.2861 182.732C44.1548 182.692 42.1149 181.993 38.9706 181.254C28.9565 178.905 7.72833 176.134 1.226 192.696C-5.51632 209.86 17.2849 237.282 27.5147 248.39L27.6272 248.51Z" fill="#6F7D89"/>
<path d="M27.6271 248.51C30.4076 251.53 32.2338 253.313 32.2338 253.313C32.2338 253.313 30.3344 253.371 27.7864 254.844C34.0562 258.943 43.1741 266.741 42.9885 277.371C42.8816 283.559 38.2205 285.857 32.5188 286.335C32.8863 286.584 33.0963 286.716 33.0963 286.716C33.0963 286.716 24.0515 290.93 24.0515 300.075C24.0515 309.219 40.3449 316.817 40.3449 316.817H105.831C102.768 301.195 94.4166 268.381 76.057 251.766C80.6619 251.207 85.0812 250.584 89.1855 250.064C117.606 246.473 129.879 131.566 129.879 131.566C129.879 131.566 116.314 179.187 71.7409 173.991C27.1658 168.795 27.5146 109.917 27.5146 109.917C27.5146 109.917 24.9459 116.515 23.0578 125.752C20.9579 153.301 43.7385 182.039 44.286 182.732C44.1547 182.692 42.1148 181.993 38.9705 181.254C54.872 197.522 68.7823 210.449 40.3449 215.326C6.36329 221.164 1.2259 192.696 1.2259 192.696C-5.51643 209.86 17.2848 237.282 27.5146 248.39L27.6271 248.51Z" fill="#576672"/>
<path d="M75.7946 295.549C75.7946 295.549 70.6291 318.653 100.345 316.817H373.002C373.002 316.817 329.067 309.035 309.682 295.549C290.3 282.07 330.359 286.716 330.359 286.716C330.359 286.716 305.806 275.031 279.964 269.023C254.117 263.017 260.579 231.988 279.964 233.646C279.964 233.646 255.411 200.005 230.857 208.995C206.308 217.982 250.242 125.278 166.25 114.471C114.689 107.839 100.621 147.47 97.4466 179.074C95.4479 198.949 97.7616 215.645 97.7616 215.645C97.7616 215.645 96.6253 213.456 94.6285 210.304C89.3317 201.917 77.9845 186.681 66.0149 187.708C61.0706 188.131 56.0195 191.329 51.2421 198.931C30.5689 231.837 39.6137 277.856 75.7946 295.549Z" fill="#C2CCD4"/>
<path d="M97.09 316.921C98.1268 316.921 99.2086 316.888 100.345 316.817H258.478H307.617C307.617 316.817 281.251 313.318 266.151 296.623C267.039 299.798 264.964 303.315 252.709 304.389C252.066 304.444 251.417 304.472 250.765 304.472C227.165 304.472 198.054 268.522 209.536 255.045C213.753 250.092 219.474 248.501 225.087 248.501C235.013 248.501 244.602 253.477 244.949 253.655C244.03 252.399 231.059 230.787 209.956 230.787C205.593 230.787 200.887 231.71 195.862 233.927C195.862 233.927 210.397 240.804 200.492 252.35C198.795 254.327 192.986 257.648 168.908 259.664C168.37 259.71 167.77 259.733 167.116 259.733C150.969 259.733 100.727 245.309 97.4462 179.074C96.8462 185.05 96.6344 190.742 96.6325 195.777C96.6306 207.482 97.7612 215.645 97.7612 215.645C97.7612 215.645 96.6249 213.456 94.6281 210.304C99.833 232.676 102.242 253.96 118.086 268.131C118.086 268.131 108.231 276.186 93.5988 276.186C85.5646 276.186 76.0905 273.759 66.0145 266.233C37.5921 245 60.2003 197.961 66.0145 187.708C61.0703 188.131 56.0191 191.329 51.2417 198.931C43.9332 210.565 40.339 223.836 40.3446 236.915C40.3559 260.834 52.4043 284.111 75.7943 295.549C75.7943 295.549 75.453 297.08 75.4511 299.322C75.4474 305.114 77.7198 315.66 94.0488 316.817C95.0125 316.886 96.025 316.921 97.09 316.921Z" fill="#98A4AE"/>
</svg>
