<svg width="400" height="400" viewBox="0 0 400 400" fill="none" xmlns="http://www.w3.org/2000/svg">
<path d="M237.211 178.295C276.813 161.785 244.723 131.307 247.516 133.625C249.688 135.433 278.847 112.42 276.698 88.2347C276.085 81.3095 272.906 74.2839 265.788 67.7178C252.505 55.4719 236.919 61.3149 224.812 70.0027C213.128 78.3843 204.684 89.4274 204.684 89.4274C204.684 89.4274 170.342 74.8187 167.316 111.534C164.293 148.256 203.795 192.225 237.211 178.295Z" fill="#6F7D89"/>
<path d="M237.211 178.295C276.813 161.785 244.723 131.307 247.516 133.625C249.688 135.433 278.847 112.42 276.698 88.2347C275.402 92.1518 262.928 126.891 230.933 120.832C197.036 114.416 207.516 80.8751 222.765 71.8307C223.795 71.2155 224.465 70.6054 224.812 70.0027C213.128 78.3843 204.684 89.4274 204.684 89.4274C204.684 89.4274 170.342 74.8187 167.316 111.534C164.293 148.256 203.795 192.225 237.211 178.295Z" fill="#576672"/>
<path d="M252.161 338.018C260.281 342.897 266.709 331.4 262.812 323.691V323.683C262.473 323.018 262.056 322.383 261.562 321.787C255.304 314.29 249.991 317.288 249.991 317.288C249.356 317.471 248.776 317.803 248.269 318.262C244.206 321.898 244.324 333.307 252.161 338.018Z" fill="#C2CCD4"/>
<path d="M256.444 339.274C262.4 339.274 267.033 332.045 262.812 323.691C266.061 330.122 262.129 339.186 256.022 339.186C254.923 339.186 253.75 338.892 252.54 338.234C253.853 338.947 255.179 339.274 256.444 339.274ZM252.467 338.194C252.464 338.194 252.459 338.192 252.457 338.189C252.459 338.192 252.464 338.192 252.467 338.194ZM252.366 338.139C252.364 338.136 252.361 338.136 252.359 338.134C252.361 338.134 252.364 338.136 252.366 338.139ZM252.334 338.118C252.331 338.116 252.329 338.116 252.326 338.113C252.329 338.116 252.331 338.118 252.334 338.118ZM252.301 338.101C252.299 338.099 252.296 338.096 252.291 338.096C252.294 338.096 252.299 338.099 252.301 338.101ZM252.268 338.081C252.266 338.078 252.261 338.078 252.258 338.076C252.261 338.078 252.266 338.081 252.268 338.081Z" fill="#2C3440"/>
<path d="M256.022 339.186C262.129 339.186 266.061 330.122 262.812 323.691C263.369 325.785 262.947 327.997 260.195 329.72C259.289 330.288 258.395 330.541 257.529 330.541C252.888 330.541 249.052 323.267 248.268 318.262C246.586 319.769 245.619 322.606 245.622 325.75C245.627 330.197 247.568 335.256 252.16 338.018C252.17 338.023 252.18 338.031 252.193 338.036C252.195 338.038 252.198 338.041 252.203 338.044C252.211 338.046 252.218 338.051 252.226 338.056C252.228 338.059 252.233 338.061 252.238 338.064C252.243 338.068 252.251 338.071 252.258 338.076C252.261 338.078 252.266 338.078 252.268 338.081C252.276 338.086 252.283 338.091 252.291 338.096C252.296 338.096 252.298 338.099 252.301 338.101C252.308 338.107 252.316 338.109 252.326 338.114C252.329 338.117 252.331 338.117 252.334 338.119C252.341 338.123 252.351 338.129 252.359 338.134C252.361 338.136 252.364 338.136 252.366 338.139C252.376 338.144 252.384 338.149 252.391 338.152C252.394 338.154 252.396 338.157 252.399 338.157C252.406 338.162 252.416 338.167 252.424 338.17C252.426 338.172 252.431 338.174 252.434 338.176C252.442 338.181 252.449 338.184 252.457 338.189C252.459 338.192 252.464 338.194 252.467 338.194C252.474 338.199 252.479 338.202 252.487 338.204C252.492 338.209 252.497 338.212 252.502 338.215C252.507 338.217 252.509 338.217 252.514 338.22C252.522 338.224 252.529 338.229 252.537 338.231C252.537 338.234 252.539 338.234 252.539 338.234C253.75 338.893 254.922 339.186 256.022 339.186Z" fill="#A8B3BC"/>
<path d="M172.936 227.881C180.531 243.484 204.762 227.881 204.762 227.881C204.762 227.881 231.571 257.778 244.648 239.587C257.72 221.392 238.145 206.364 231.403 203.884C227.86 202.575 225.048 201.887 222.743 201.594H222.715C218.519 201.066 216.011 201.865 213.852 202.661C210.449 203.919 207.918 205.174 201.033 201.26C198.502 199.818 195.685 199.291 192.81 199.484L192.75 199.492C180.177 200.393 166.766 215.193 172.936 227.881Z" fill="#C2CCD4"/>
<path d="M239.757 253.382C243.787 253.384 247.583 251.757 250.634 247.514C259.309 235.438 253.607 224.759 246.82 218.216C249.83 224.197 250.395 231.584 244.648 239.586C241.597 243.83 237.798 245.457 233.768 245.457C220.523 245.457 204.762 227.88 204.762 227.88C204.762 227.88 193.992 234.816 184.564 234.816C182.218 234.816 179.956 234.386 177.962 233.317C178.203 234.153 178.52 234.984 178.921 235.805C181.453 241.008 185.834 242.743 190.55 242.743C199.981 242.743 210.75 235.805 210.75 235.805C210.75 235.805 226.509 253.382 239.757 253.382Z" fill="#404856"/>
<path d="M233.768 245.457C237.798 245.457 241.597 243.83 244.648 239.586C250.396 231.584 249.831 224.197 246.82 218.216C243.378 214.899 239.659 212.644 237.391 211.81C233.849 210.5 231.036 209.814 228.731 209.52H228.704C228.704 209.52 249.035 217.854 240.683 227.926C238.403 230.678 235.543 231.715 232.535 231.715C223.39 231.715 212.852 222.143 212.852 222.143C212.852 222.143 210.135 227.323 201.568 227.323C199.039 227.323 196.001 226.871 192.368 225.701C176.634 220.631 188.468 208.993 198.735 207.419C186.979 208.26 174.49 221.259 177.962 233.317C179.956 234.386 182.218 234.816 184.564 234.816C193.992 234.816 204.762 227.88 204.762 227.88C204.762 227.88 220.523 245.457 233.768 245.457Z" fill="#98A4AE"/>
<path d="M169.556 295.038C169.556 295.038 173.94 320.399 194.643 316.73C215.343 313.059 195.599 297.042 195.599 297.042C195.599 297.042 204.184 278.797 187.401 273.351C186.266 272.982 185.232 272.769 184.288 272.676C183.848 272.636 183.431 272.623 183.035 272.636L182.789 272.643C176.436 272.949 174.944 279.357 174.944 279.357C174.944 279.357 159.048 272.784 157.697 279.719C157.614 280.103 157.584 280.545 157.609 281.025C158.023 290.034 169.556 295.038 169.556 295.038Z" fill="#C2CCD4"/>
<path d="M190.967 317.948C192.22 317.948 193.541 317.833 194.939 317.584C204.297 315.924 205.39 311.741 203.775 307.656C204.9 311.457 203.351 315.186 194.643 316.73C193.244 316.979 191.923 317.095 190.673 317.095C178.932 317.095 173.4 306.935 171.06 300.409C173.214 306.86 178.701 317.948 190.967 317.948ZM196.089 297.456C196.85 295.636 199.491 288.507 197.134 282.363C199.255 289.273 195.6 297.042 195.6 297.042C195.6 297.042 195.78 297.19 196.089 297.456ZM169.719 295.834C169.606 295.327 169.556 295.038 169.556 295.038C169.556 295.038 161.011 291.332 158.367 284.553C160.429 291.357 168.579 295.31 169.719 295.834Z" fill="#404856"/>
<path d="M190.673 317.094C191.924 317.094 193.244 316.979 194.643 316.73C203.351 315.186 204.9 311.457 203.775 307.656C201.822 302.704 195.898 297.898 195.898 297.898C195.898 297.898 195.971 297.743 196.089 297.456C195.78 297.19 195.6 297.042 195.6 297.042C195.6 297.042 199.256 289.273 197.134 282.363C195.846 279.011 193.074 275.95 187.695 274.205C186.563 273.838 185.528 273.625 184.584 273.532C184.172 273.52 183.755 273.497 183.334 273.492L183.057 273.484L183.085 273.497C183.72 273.854 197.124 281.419 193.47 291.844C192.531 294.526 190.944 295.53 189.101 295.53C183.597 295.53 175.771 286.607 175.771 286.607C175.771 286.607 173.905 289.464 170.101 289.464C168.198 289.464 165.81 288.751 162.927 286.607C160.158 284.545 158.699 282.461 157.993 280.573C157.91 280.96 157.88 281.401 157.905 281.881C157.948 282.815 158.109 283.706 158.367 284.553C161.011 291.332 169.556 295.038 169.556 295.038C169.556 295.038 169.606 295.327 169.719 295.834C169.807 295.875 169.852 295.895 169.852 295.895C169.852 295.895 170.176 297.76 171.06 300.409C173.4 306.935 178.932 317.094 190.673 317.094Z" fill="#98A4AE"/>
<path d="M126.365 323.834C132.529 320.421 127.269 309.501 119.414 301.765L119.409 301.76C114.752 297.175 109.185 293.707 104.545 293.587C104.191 293.577 103.849 293.577 103.52 293.587C92.2486 293.835 95.2843 303.45 95.2843 303.45C96.3991 312.605 116.544 329.267 126.365 323.834Z" fill="#C2CCD4"/>
<path d="M121.888 324.898C123.522 324.898 125.036 324.57 126.365 323.834C128.255 322.787 129.071 321.034 129.066 318.885C129.059 314.024 124.861 307.129 119.414 301.765C119.618 302.059 126.962 312.512 117.252 312.512C117.001 312.512 116.74 312.504 116.467 312.492C107.184 312.002 101.604 299.508 103.52 293.587C96.1907 293.748 94.91 297.871 94.9125 300.736C94.9125 302.275 95.2841 303.45 95.2841 303.45C96.2483 311.367 111.445 324.898 121.888 324.898Z" fill="#98A4AE"/>
<path d="M305.026 188.567C304.32 181.34 296.506 178.47 290.056 179.786L290.051 179.789C286.227 180.565 282.88 182.814 281.775 186.5C281.687 186.779 281.611 187.053 281.546 187.329C279.191 196.63 285.717 200.449 285.717 200.449C291.532 205.528 306.151 200.082 305.026 188.567Z" fill="#6F7D89"/>
<path d="M305.026 188.567C304.32 181.34 296.506 178.47 290.056 179.786C290.284 179.814 298.691 180.733 295.924 189.182C293.563 196.389 284.72 192.75 281.546 187.329C279.191 196.63 285.717 200.449 285.717 200.449C291.532 205.528 306.151 200.082 305.026 188.567Z" fill="#576672"/>
<path d="M113.07 226.434C110.237 222.008 113.399 216.88 117.655 214.746L117.66 214.743C120.183 213.475 123.091 213.257 125.371 214.859L125.871 215.228C131.367 219.466 129.366 224.556 129.366 224.556C128.329 230.048 117.579 233.485 113.07 226.434Z" fill="#6F7D89"/>
<path d="M113.07 226.434C110.237 222.008 113.399 216.88 117.655 214.746C117.537 214.864 113.168 219.145 118.521 222.716C123.086 225.759 126.488 219.733 125.871 215.228C131.367 219.466 129.366 224.556 129.366 224.556C128.329 230.048 117.579 233.485 113.07 226.434Z" fill="#576672"/>
<path d="M123.681 157.401C123.681 157.401 129.139 181.293 143.464 169.356C157.787 157.409 136.976 149.233 136.976 149.233C136.976 149.233 153.375 134.014 136.25 123.22C129.579 119.016 125.935 120.016 123.972 122.808C123.565 123.375 123.234 124.023 122.967 124.719C121.142 129.329 121.938 135.973 121.938 135.973C121.938 135.973 110.99 130.976 105.81 134.132C104.017 135.222 102.915 137.283 103.191 140.857C104.256 154.785 123.681 157.401 123.681 157.401Z" fill="#C2CCD4"/>
<path d="M135.909 172.695C138.091 172.695 140.6 171.741 143.465 169.356C147.128 166.297 148.494 163.488 148.494 160.999C148.499 153.76 136.976 149.233 136.976 149.233C136.976 149.233 144.06 142.659 144.055 135.089C144.052 131.139 142.119 126.918 136.251 123.22C133.054 121.206 130.553 120.385 128.6 120.385C126.473 120.385 124.994 121.354 123.972 122.808C123.636 123.413 123.299 124.051 122.968 124.719C122.968 124.719 123.874 124.495 125.245 124.495C128.407 124.495 134.041 125.685 136.745 133.56C139.563 141.766 132.818 142.888 128.924 142.888C127.46 142.888 126.4 142.73 126.4 142.73C126.4 142.73 133.431 149.426 125.602 152.681C124.874 152.982 124.073 153.123 123.222 153.123C115.347 153.123 103.222 141.103 105.811 134.132C104.199 135.112 103.147 136.874 103.149 139.815C103.149 140.146 103.162 140.495 103.192 140.857C104.256 154.785 123.681 157.401 123.681 157.401C123.681 157.401 127.174 172.695 135.909 172.695Z" fill="#98A4AE"/>
</svg>
