<svg width="400" height="400" viewBox="0 0 400 400" fill="none" xmlns="http://www.w3.org/2000/svg">
<path d="M34.3397 271.753C52.5219 299.862 67.021 301.428 83.4535 306.889C86.58 307.932 89.7823 309.114 93.0904 310.646L93.248 310.718C108.238 317.709 124.537 321.454 141.079 321.454H174.149L134.401 139.507C134.401 139.507 126.504 70.5573 56.5083 79.3122C45.7482 80.653 35.9617 84.4139 27.6676 90.0604H27.6617C-5.5704 112.672 -14.8162 165.545 33.6014 214.681C33.6014 214.681 6.02376 227.979 34.3397 271.753Z" fill="#6F7D89"/>
<path d="M34.3394 271.753C52.5217 299.861 67.0207 301.428 83.4532 306.888C44.1497 288.339 22.9767 237.481 40.4347 221.458C59.1557 204.275 124.189 232.733 124.971 233.072L102.531 174.327C102.531 174.327 78.5929 211.733 39.6865 178.068C0.780085 144.399 27.6674 90.0599 27.6674 90.0599H27.6614C-5.57064 112.672 -14.8164 165.544 33.6011 214.68C33.6011 214.68 6.02351 227.978 34.3394 271.753Z" fill="#576672"/>
<path d="M300.559 270.554C300.559 270.554 326.618 273.982 351.229 290.217C375.84 306.452 391.704 298.158 400 304.12C400 304.12 384.815 310.861 364.994 304.12C345.176 297.38 336.684 290.271 320.064 288.836C303.442 287.398 309.857 297.446 321.373 308.92C332.887 320.392 271.016 319.137 257.696 296.472C249.765 282.976 243.099 282.994 233.059 283.01C226.234 283.02 217.852 283.032 206.453 278.8C178.289 268.346 211.835 278.326 211.835 278.326C211.835 278.326 192.964 231.774 204.195 209.683C215.426 187.59 269.981 202.32 275.485 243.044C275.485 243.044 304.755 241.915 300.559 270.554Z" fill="#6F7D89"/>
<path d="M105.6 250.229C105.6 250.229 95.9396 267.785 112.398 283.936C128.854 300.089 152.276 302.196 153.419 304.303C154.563 306.41 156.342 322.37 177.709 321.414L346.639 320.415H346.798L393.342 321.414C393.342 321.414 364.755 312.406 334.981 309.174C305.206 305.943 309.973 295.826 317.87 295.231C317.87 295.231 308.211 289.279 299.013 295.231C289.923 301.107 260.003 268.763 223.886 262.093C223.437 262.007 222.984 261.927 222.529 261.851C222.529 261.851 215.185 248.549 221.885 245.162H221.891C223.245 244.473 225.183 244.192 227.872 244.517C241.715 246.181 249.911 222.245 235.853 206.929C233.696 204.579 231.019 202.436 227.755 200.613C227.755 200.613 228.008 187.524 218.235 178.596C208.463 169.671 187.396 174.162 187.396 174.162C187.396 174.162 175.957 125.04 123.543 128.61C111.363 129.442 101.404 132.788 94.0122 138.041L94.0042 138.045C93.3837 138.312 53.765 155.733 61.6301 194.751C69.557 234.078 105.6 250.229 105.6 250.229Z" fill="#C2CCD4"/>
<path d="M208.529 233.074C215.879 233.074 225.121 230.451 231.272 221.991C235.37 216.352 236.15 212.28 235.853 206.929C233.696 204.579 231.019 202.436 227.755 200.612C227.755 200.612 226.998 230.502 203.836 230.504C201.775 230.504 199.538 230.267 197.11 229.752C198.108 231.442 202.731 233.074 208.529 233.074Z" fill="#98A4AE"/>
<path d="M177.709 321.414L346.798 320.414H346.639L177.709 321.414Z" fill="#404856"/>
<path d="M175.897 321.456C176.486 321.456 177.088 321.442 177.709 321.414L346.639 320.414H346.798C346.798 320.414 290.921 319.752 262.677 297.28C262.677 297.28 267.728 309.199 262.507 309.199C260.278 309.199 256.178 307.029 249.009 300.829C242.635 295.317 227.974 287.314 219.269 279.664C213.519 274.61 213.13 266.414 218.692 263.228C219.955 262.504 221.466 262.071 223.216 262.071C223.435 262.071 223.658 262.079 223.886 262.093C223.437 262.007 222.984 261.927 222.529 261.851C222.529 261.851 219.058 255.564 219.065 250.534C219.067 248.248 219.79 246.221 221.885 245.161C221.586 245.016 211.757 239.595 201.526 239.595C196.418 239.595 191.212 240.943 187.039 244.976C183.395 248.495 182.707 254.776 183.766 259.2C149.992 239.936 147.839 229.641 152.41 211.947C152.41 211.947 126.54 228.019 156.865 251.855C158.04 252.781 158.916 254.06 160.038 255.145C166.865 261.716 166.831 264.635 163.054 264.635C154.802 264.635 128.681 250.716 117.125 230.517C117.125 230.517 62.7295 175.451 94.0043 138.045C93.4396 138.288 60.5687 152.74 60.5987 184.755C60.6007 187.915 60.9239 191.245 61.6302 194.751C69.5571 234.078 105.6 250.229 105.6 250.229C105.6 250.229 102.783 255.349 102.783 262.603C102.783 268.782 104.828 276.508 112.398 283.936C128.855 300.089 152.276 302.196 153.419 304.303C154.497 306.286 156.139 320.54 174.14 321.414C174.71 321.442 175.295 321.456 175.897 321.456Z" fill="#98A4AE"/>
</svg>
