<svg width="400" height="400" viewBox="0 0 400 400" fill="none" xmlns="http://www.w3.org/2000/svg">
<path d="M262.926 232.274C279.715 244.268 288.328 231.831 288.328 231.831C295.874 238.05 300.774 233.162 300.774 233.162C302.995 247.377 322.779 258.338 331.661 239.937C336.742 229.415 329.063 223.952 322.858 221.38L322.845 221.37C319.348 219.923 316.32 219.393 316.32 219.393C316.32 219.393 325.203 204.292 307.002 197.629C293.392 192.646 288.336 202.343 288.336 202.343C287.159 201.152 285.933 200.227 284.681 199.535H284.677V199.532C268.43 190.572 247.343 221.145 262.926 232.274Z" fill="#6F7D89"/>
<path d="M262.926 232.274C279.715 244.268 288.328 231.831 288.328 231.831C295.874 238.05 300.774 233.162 300.774 233.162C302.995 247.377 322.779 258.338 331.661 239.937C336.742 229.415 329.063 223.952 322.858 221.38C323.258 221.659 332.224 228.121 324.407 235.668C316.421 243.375 302.514 229.712 305.154 222.934C304.974 223.28 302.261 228.5 295.391 226.212C289.256 224.168 293.702 214.002 295.044 211.244C293.583 213.944 287.439 223.446 275.078 219.106C260.741 214.068 270.422 198.63 284.677 199.535V199.532C268.43 190.572 247.343 221.145 262.926 232.274Z" fill="#576672"/>
<path d="M86.2215 191.974C103.674 245.515 152.842 266.381 183.628 238.399C214.41 210.42 187.95 191.974 187.95 191.974C220.397 193.516 228.941 171.965 232.011 158.484C236.267 139.828 220.196 141.13 220.196 141.13C233.73 129.843 236.524 105.587 223.937 93.9625L223.932 93.9592C222.808 92.9198 221.564 91.9817 220.196 91.1648C200.169 79.2036 181.687 101.16 181.687 101.16C178.347 88.1895 154.437 79.798 131.539 86.3282L131.534 86.3332C123.847 88.5166 116.274 92.3902 109.634 98.3326C78.6883 126.024 77.9329 166.549 86.2215 191.974Z" fill="#6F7D89"/>
<path d="M122.799 250.304C122.799 250.304 139.963 255.758 132.938 264.639C125.911 273.524 115.696 264.639 115.696 264.639C115.696 264.639 110.976 283.66 99.669 271.387C88.6027 259.378 99.5893 251.406 106.696 249.628C113.802 247.851 122.799 250.304 122.799 250.304Z" fill="#576672"/>
<path d="M75.2303 130.838C75.2303 130.838 81.5829 131.947 77.8089 137.944C74.0315 143.939 66.2577 139.72 66.7027 135.946C67.1476 132.169 72.1387 129.117 75.2303 130.838Z" fill="#576672"/>
<path d="M86.2215 191.974C103.674 245.515 152.842 266.381 183.628 238.399C214.41 210.42 187.95 191.974 187.95 191.974C220.397 193.516 228.941 171.965 232.011 158.484C236.267 139.828 220.196 141.13 220.196 141.13C233.73 129.843 236.524 105.587 223.937 93.9625C236.667 107.164 226.13 134.396 214.302 125.033C202.475 115.675 196.41 120.729 196.41 120.729C196.41 120.729 226.929 131.874 196.411 170.477C173.409 199.575 117.714 199.532 101.927 164.257C81.8364 119.368 130.932 86.8313 131.534 86.3332C123.847 88.5166 116.274 92.3902 109.634 98.3326C78.6883 126.024 77.9329 166.549 86.2215 191.974Z" fill="#576672"/>
<path d="M233.621 178.78C237.338 184.867 254.017 188.356 254.611 177.477C254.621 177.281 254.629 177.092 254.629 176.901C254.687 173.236 253.155 170.405 250.872 168.567V168.562H250.867C248.891 166.972 246.359 166.123 243.809 166.123H243.8C239.759 166.123 235.681 168.252 233.772 172.916C232.878 175.093 232.634 177.163 233.621 178.78Z" fill="#C2CCD4"/>
<path d="M246.171 184.517C250.525 184.517 254.332 182.574 254.611 177.477C254.621 177.281 254.629 177.092 254.629 176.901C254.631 176.828 254.631 176.758 254.631 176.687C254.628 173.125 253.11 170.371 250.872 168.567C251.001 168.904 254.488 178.29 245.763 178.29C236.885 178.29 236.227 168.473 243.8 166.123C239.759 166.123 235.681 168.252 233.772 172.916C233.28 174.115 232.985 175.282 232.983 176.358C232.983 177.236 233.177 178.053 233.621 178.78C235.596 182.015 241.233 184.517 246.171 184.517Z" fill="#98A4AE"/>
<path d="M151.783 266.17C156.289 255.172 172.828 258.27 172.642 270.154C172.639 270.344 172.632 270.537 172.62 270.731C172.029 281.612 155.346 278.123 151.628 272.033C150.647 270.421 150.891 268.347 151.783 266.17Z" fill="#C2CCD4"/>
<path d="M106.707 210.928C107.142 229.357 128.812 244.049 158.288 248.856C187.763 253.661 177.379 261.257 196.677 290.546C204.361 302.205 214.755 310.088 229.013 313.691C239.345 316.308 251.71 316.677 266.542 314.601C266.542 314.601 228.095 313.266 213.928 297.03C197.717 278.452 216.115 246.498 198.294 245.959C185.883 245.583 169.397 232.478 165.403 220.651C163.654 215.494 164.284 210.578 168.664 207.065L168.672 207.07C169.535 207.282 225.896 220.985 220.694 161.785C217.621 126.789 166.593 127.927 157.376 143.68C157.376 143.68 162.241 125.793 143.551 125.043C141.204 124.95 138.765 125.579 136.341 126.821L136.336 126.823C119.419 135.463 103.046 173.67 122.408 202.231C122.408 202.231 106.204 189.631 106.707 210.928Z" fill="#C2CCD4"/>
<path d="M165.403 220.651C164.815 218.92 164.496 217.213 164.498 215.579C164.501 212.35 165.756 209.397 168.664 207.065C168.664 207.065 156.488 206.42 151.012 190.483C151.343 191.504 156.204 207.065 145.724 207.066C145.659 207.066 145.594 207.065 145.528 207.065C145.528 207.065 154.117 218.647 165.403 220.651Z" fill="#98A4AE"/>
<path d="M229.013 313.691C202.187 299.664 194.346 270.18 186.617 256.61C175.74 237.512 165.516 240.177 148.192 237.512C130.871 234.848 147.748 220.258 147.748 220.258C128.199 219.813 118.453 188.412 132.647 179.77C142.857 173.55 142.857 166.124 142.857 166.124C142.857 166.124 135.747 172.506 129.647 172.506C127.817 172.506 126.081 171.931 124.651 170.442C110.179 155.351 135.591 127.49 136.337 126.823C124.872 132.679 113.656 152.115 113.645 172.926C113.64 182.82 116.168 193.026 122.408 202.231C122.408 202.231 117.648 198.529 113.369 198.529C109.871 198.529 106.694 200.999 106.696 209.98C106.696 210.287 106.699 210.605 106.708 210.928C107.143 229.357 128.812 244.049 158.288 248.856C159.834 249.107 161.27 249.367 162.607 249.636C186.757 254.518 178.392 262.793 196.678 290.546C204.362 302.205 214.756 310.089 229.013 313.691Z" fill="#98A4AE"/>
<path d="M245.044 248.517C261.314 240.777 254.332 224.711 254.332 224.711C264.116 224.08 269.051 211.918 263.114 202.186C260.759 198.336 256.588 196.589 252.404 195.889C246.004 194.814 239.478 196.199 233.953 199.531C233.337 199.898 232.727 200.294 232.136 200.715C225.926 205.129 217.968 212.496 217.022 221.779C215.44 237.233 228.779 256.259 245.044 248.517Z" fill="#C2CCD4"/>
<path d="M237.558 250.302C239.947 250.302 242.458 249.749 245.043 248.517C253.798 244.353 255.821 237.776 255.821 232.591C255.821 228.138 254.331 224.711 254.331 224.711C255.525 224.633 256.647 224.384 257.685 223.989C262.631 222.109 265.691 216.909 265.683 211.131C265.68 208.179 264.874 205.075 263.113 202.186C263.113 202.186 263.425 222.077 249.481 222.077C248.885 222.077 248.263 222.041 247.612 221.965C247.612 221.965 252.794 227.519 249.491 233.102C247.881 235.824 244.789 237.054 241.258 237.054C232.275 237.054 220.438 229.098 222.829 217.42C224.069 211.367 231.096 202.711 233.952 199.531C233.336 199.898 232.727 200.294 232.135 200.715C225.926 205.129 217.968 212.496 217.021 221.779C216.935 222.615 216.893 223.464 216.893 224.319C216.893 236.714 225.73 250.302 237.558 250.302Z" fill="#98A4AE"/>
<path d="M250.867 168.563H250.872L250.867 168.558V168.563Z" fill="#C2CCD4"/>
</svg>
