<svg width="400" height="400" viewBox="0 0 400 400" fill="none" xmlns="http://www.w3.org/2000/svg">
<g clip-path="url(#clip0_99_89)">
<path d="M152.923 172.547C152.923 172.547 174.032 152.24 158.269 135.79C142.508 119.338 122.414 129.584 122.414 129.584C122.414 129.584 132.756 66.536 67.769 66.536C2.7816 66.536 -32.0062 182.156 40.2764 241.774C40.2764 241.774 23.5046 250.527 46.3587 274.777C69.2129 299.027 101.527 297.553 101.527 297.553C101.527 297.553 113.624 320.33 134.047 318.176C148.049 316.698 140.907 310.999 140.907 310.999C140.907 310.999 111.321 221.816 152.923 172.547Z" fill="#576672"/>
<path d="M184.984 310.561C208.229 307.404 215.632 296.827 219.251 287.581C222.084 280.349 222.595 273.939 226.561 272.526C229.373 271.522 231.163 273.949 233.002 278.012C237.063 286.99 241.357 303.958 257.435 309.489C280.785 317.524 286.544 311.787 294.831 306.274C303.121 300.767 313.93 318.06 324.475 325.563C335.015 333.06 344.316 324.492 359.762 322.347C361.923 322.047 364.039 322.001 366.074 322.142C378.583 322.992 388.157 330.918 388.157 330.918H400C400 330.918 372.164 313.243 357.571 311.633C342.98 310.025 341.971 299.849 330.565 301.992C319.158 304.136 324.732 297.169 316.367 285.92C309.431 276.593 296.859 285.311 292.765 288.562C291.918 289.235 291.435 289.672 291.435 289.672C291.435 289.672 291.498 286.654 290.978 282.337C289.98 273.913 286.775 260.515 276.596 254.844C261.197 246.276 247.91 262.886 247.91 262.886C250.997 251.778 246.384 246.051 242.313 243.27C239.713 241.488 237.326 240.916 237.326 240.916C237.326 240.916 238.204 240.132 239.497 238.657C244.568 232.856 255.985 216.385 245.182 195.025C233.784 172.501 201.886 163.262 175.226 172.547C170.182 174.302 165.323 176.719 160.829 179.834C131.212 200.37 154.373 230.134 154.373 230.134C154.373 230.134 139.385 220.025 129.486 243.06C119.593 266.095 143.563 316.183 184.984 310.561Z" fill="#6F7D89"/>
<path d="M233.002 278.012C237.063 286.99 241.357 303.958 257.435 309.489C280.785 317.524 286.544 311.787 294.831 306.274C303.121 300.768 313.929 318.06 324.475 325.563C335.015 333.06 344.316 324.492 359.762 322.347C361.923 322.047 364.039 322.001 366.073 322.142C359.137 316.116 353.108 312.385 343.553 316.074C328.578 321.854 331.205 314.855 322.273 310.999C313.341 307.142 303.62 296.896 296.264 297.553C291.792 297.951 292.544 292.976 292.765 288.562C292.908 285.715 292.828 283.104 290.985 282.327L290.978 282.337C290.894 282.882 287.599 302.917 268.942 301.362C250.026 299.786 240.537 282.205 247.91 262.886C247.91 262.886 237.391 266.578 233.002 278.012Z" fill="#576672"/>
<path d="M184.984 310.561C208.229 307.404 215.631 296.827 219.25 287.581C192.155 307.951 153.872 281.395 164.524 260.378C175.179 239.361 191.178 258.276 220.234 253.022C231.174 251.042 238.025 247.242 242.313 243.27C239.713 241.488 237.325 240.916 237.325 240.916C237.325 240.916 238.204 240.132 239.496 238.657C229.345 245.477 211.655 251.887 187.325 240.412C147.22 221.496 175.226 172.547 175.226 172.547C170.182 174.302 165.322 176.719 160.829 179.834C131.211 200.37 154.372 230.134 154.372 230.134C154.372 230.134 139.385 220.025 129.486 243.06C119.593 266.095 143.563 316.183 184.984 310.561Z" fill="#576672"/>
<path d="M68.9603 246.877C84.9082 269.472 109.515 265.441 105.448 253.934C112.916 267.266 143.204 318.676 166.84 319.531C178.496 319.954 193.487 323.997 208.298 327.616C227.998 332.438 247.388 336.513 258.208 330.332C258.208 330.332 228.189 331.314 234.051 323.46C239.917 315.603 268.288 334.256 297.811 327.387C327.324 320.513 361.869 333.462 361.869 333.462L380.671 330.332C380.671 330.332 353.085 307.751 335.417 314.622C317.75 321.494 290.158 298.914 278.214 301.86C278.214 301.86 304.314 306.505 299.28 315.965C294.251 325.424 281.815 320.248 261.754 315.965C241.691 311.675 223.523 290.313 217.222 302.093C210.917 313.878 179.618 306.822 166.482 291.059C149.875 271.131 148.313 215.458 126.209 227.243C126.209 227.243 116.768 208.443 133.666 211.389C137.037 211.974 139.284 213.041 140.907 214.319L140.93 214.34C147.42 219.491 143.944 228.199 162.849 224.296C187.325 219.245 165.261 120.225 98.8216 137.9C91.2028 139.926 84.9586 142.532 79.8893 145.567C40.7089 168.947 70.8939 217.423 70.8939 217.423C70.8939 217.423 51.6379 222.333 68.9603 246.877Z" fill="#C2CCD4"/>
<path d="M126.209 227.243C126.209 227.243 116.768 208.443 133.666 211.389C137.037 211.974 139.284 213.041 140.907 214.319C140.377 213.752 129.307 201.837 132.067 195.719C132.067 195.719 126.136 197.072 125.575 205.027C125.085 211.997 116.951 205.637 116.157 198.697C116.037 197.703 116.075 196.7 116.304 195.719C118.13 187.884 104.217 215.933 126.209 227.243Z" fill="#6F7D89"/>
<path d="M68.9605 246.877C84.9084 269.472 109.515 265.441 105.449 253.934C112.916 267.266 143.204 318.676 166.84 319.531C178.496 319.954 193.488 323.997 208.299 327.616C197.893 322.148 172.895 320.023 155.713 306.15C121.901 278.844 109.471 243.121 109.471 243.121C73.6726 246.715 72.7983 204.453 72.7983 204.453C83.2354 211.463 85.2152 210.799 85.2152 210.799C56.9554 182.774 81.6276 146.248 79.8895 145.567C40.7091 168.947 70.8941 217.423 70.8941 217.423C70.8941 217.423 51.6381 222.333 68.9605 246.877Z" fill="#6F7D89"/>
<path d="M118.248 274.901C118.248 274.901 102.569 272.398 111.714 289.741C119.702 304.888 135.016 305.933 135.016 305.933C135.016 305.933 134.04 319.005 148.532 318.993C163.025 318.978 175.226 320.33 175.226 320.33C175.226 320.33 138.78 307.292 118.248 274.901Z" fill="#6F7D89"/>
</g>
<defs>
<clipPath id="clip0_99_89">
<rect width="400" height="400" fill="white"/>
</clipPath>
</defs>
</svg>
