<svg width="1512" height="275" viewBox="0 0 1512 275" fill="none" xmlns="http://www.w3.org/2000/svg">
<path d="M704.292 274.905C557.018 275.118 0.123367 274.905 0.123367 274.905L-0.0603027 78.7495L1511.82 76.5486L1511.92 274.905C1511.92 274.905 851.564 274.69 704.292 274.905Z" fill="#4B2526"/>
<path d="M1048.02 46.5535C1048.02 46.5535 1041.8 58.4071 1052.13 82.8762H1038.9C1035.44 54.6136 1048.02 46.5535 1048.02 46.5535Z" fill="#4B2526"/>
<path d="M1037.8 43.2862C1037.8 43.2862 1033.03 54.6741 1043.45 82.8762H1030.91C1027.67 50.8353 1037.8 43.2862 1037.8 43.2862Z" fill="#4B2526"/>
<path d="M1029.34 42.1024C1029.34 42.1024 1024.84 52.9157 1033.24 82.8762H1021.49C1020.34 49.1253 1029.34 42.1024 1029.34 42.1024Z" fill="#4B2526"/>
<path d="M1017.5 36.2845C1017.5 36.2845 1013.77 46.5324 1020.5 82.8762H1009.37C1010.35 42.7056 1017.5 36.2845 1017.5 36.2845Z" fill="#4B2526"/>
<path d="M1023.36 42.6164C1023.36 42.6164 1018.85 53.0639 1026 82.8762H1014.8C1014.71 49.3294 1023.36 42.6164 1023.36 42.6164Z" fill="#4B2526"/>
<path d="M998.561 39.7347C998.561 39.7347 1004.23 50.5692 998.128 82.8762H1009.2C1008.83 45.6857 998.561 39.7347 998.561 39.7347Z" fill="#4B2526"/>
<path d="M1005.6 37.6225C1005.6 37.6225 1010.06 48.6007 1002.67 82.8762H1013.27C1014.2 44.3204 1005.6 37.6225 1005.6 37.6225Z" fill="#4B2526"/>
<path d="M1125.88 43.5387C1125.88 43.5387 1117.98 56.4053 1128.76 82.8762H1113.31C1110.75 52.3125 1125.88 43.5387 1125.88 43.5387Z" fill="#4B2526"/>
<path d="M1114.09 40.028C1114.09 40.028 1107.93 52.385 1118.62 82.8762H1103.99C1101.87 48.2439 1114.09 40.028 1114.09 40.028Z" fill="#4B2526"/>
<path d="M1104.27 38.7776C1104.27 38.7776 1098.46 50.5042 1106.71 82.8762H1093.02C1093.42 46.4144 1104.27 38.7776 1104.27 38.7776Z" fill="#4B2526"/>
<path d="M1090.76 32.5212C1090.76 32.5212 1085.89 43.6309 1091.88 82.8762H1078.94C1082.11 39.5034 1090.76 32.5212 1090.76 32.5212Z" fill="#4B2526"/>
<path d="M1097.27 39.3582C1097.27 39.3582 1091.47 50.6811 1098.28 82.8762H1085.25C1086.84 46.6533 1097.27 39.3582 1097.27 39.3582Z" fill="#4B2526"/>
<path d="M1056.99 33.6053C1056.99 33.6053 1051.51 50.474 1061.11 82.8762H1047.38C1048.01 51.1301 1056.99 33.6053 1056.99 33.6053Z" fill="#4B2526"/>
<path d="M1136.69 29.4566C1136.69 29.4566 1129.38 47.7933 1138.89 82.8762H1122.84C1125.25 48.516 1136.69 29.4566 1136.69 29.4566Z" fill="#4B2526"/>
<path d="M1058.83 39.9539C1058.83 39.9539 1065.02 51.301 1055.68 82.8762H1068.36C1071.12 46.1181 1058.83 39.9539 1058.83 39.9539Z" fill="#4B2526"/>
<path d="M1068.55 36.3359C1068.55 36.3359 1074.59 48.0246 1065.91 82.8762H1078.75C1080.19 42.7314 1068.55 36.3359 1068.55 36.3359Z" fill="#4B2526"/>
<path d="M1076.83 34.0211C1076.83 34.0211 1081.47 45.8792 1071.17 82.8762H1083.47C1086.5 41.236 1076.83 34.0211 1076.83 34.0211Z" fill="#4B2526"/>
<path d="M1228.54 39.5623C1228.54 39.5623 1218.15 53.7745 1229.44 82.8762H1210.81C1209.69 49.2901 1228.54 39.5623 1228.54 39.5623Z" fill="#4B2526"/>
<path d="M1214.51 35.7417C1214.51 35.7417 1206.29 49.3793 1217.21 82.8762H1199.61C1199.26 44.842 1214.51 35.7417 1214.51 35.7417Z" fill="#4B2526"/>
<path d="M1202.75 34.4097C1202.75 34.4097 1195.01 47.3397 1202.87 82.8762H1186.44C1189.2 42.8614 1202.75 34.4097 1202.75 34.4097Z" fill="#4B2526"/>
<path d="M1186.88 27.5848C1186.88 27.5848 1180.33 39.83 1185.07 82.8762H1169.58C1176.05 35.3093 1186.88 27.5848 1186.88 27.5848Z" fill="#4B2526"/>
<path d="M1194.28 35.081C1194.28 35.081 1186.6 47.5605 1192.75 82.8762H1177.12C1181.3 43.1502 1194.28 35.081 1194.28 35.081Z" fill="#4B2526"/>
<path d="M1135.17 42.6799C1135.17 42.6799 1143.46 54.2946 1132.2 82.8762H1147.13C1151.62 48.9681 1135.17 42.6799 1135.17 42.6799Z" fill="#4B2526"/>
<path d="M1148.16 35.911C1148.16 35.911 1154.87 48.33 1141.82 82.8762H1156.93C1162.48 42.6225 1148.16 35.911 1148.16 35.911Z" fill="#4B2526"/>
<path d="M1160 31.8938C1160 31.8938 1166.52 44.7029 1154.01 82.8762H1169.35C1173.55 38.8684 1160 31.8938 1160 31.8938Z" fill="#4B2526"/>
<path d="M1170.06 29.3069C1170.06 29.3069 1174.89 42.3216 1160.29 82.8762H1175C1181.22 37.1962 1170.06 29.3069 1170.06 29.3069Z" fill="#4B2526"/>
<path d="M1341.05 35.2034C1341.05 35.2034 1327.59 50.9003 1339.32 82.8762H1316.89C1317.69 45.9911 1341.05 35.2034 1341.05 35.2034Z" fill="#4B2526"/>
<path d="M1324.36 31.0532C1324.36 31.0532 1313.59 46.0999 1324.59 82.8762H1303.44C1305.42 41.1348 1324.36 31.0532 1324.36 31.0532Z" fill="#4B2526"/>
<path d="M1310.27 29.638C1310.27 29.638 1300.15 43.8971 1307.35 82.8762H1287.66C1293.46 38.9969 1310.27 29.638 1310.27 29.638Z" fill="#4B2526"/>
<path d="M1291.63 22.2053C1291.63 22.2053 1283.01 35.7009 1286.02 82.8762H1267.51C1278.16 30.7538 1291.63 22.2053 1291.63 22.2053Z" fill="#4B2526"/>
<path d="M1300.05 30.4181C1300.05 30.4181 1290.05 44.1662 1295.22 82.8762H1276.52C1283.96 39.3416 1300.05 30.4181 1300.05 30.4181Z" fill="#4B2526"/>
<path d="M1243.04 23.9229C1243.04 23.9229 1232.96 44.2282 1242.14 82.8762H1222.75C1227.9 45.0401 1243.04 23.9229 1243.04 23.9229Z" fill="#4B2526"/>
<path d="M1359.06 17.8842C1359.06 17.8842 1345.53 40.3531 1354.11 82.8762H1330.72C1339.37 41.2663 1359.06 17.8842 1359.06 17.8842Z" fill="#4B2526"/>
<path d="M1244.79 31.537C1244.79 31.537 1252.05 45.1172 1234.46 82.8762H1252.44C1261.48 38.8351 1244.79 31.537 1244.79 31.537Z" fill="#4B2526"/>
<path d="M1259.17 27.0783C1259.17 27.0783 1266.17 41.1015 1248.96 82.8762H1267.24C1274.95 34.6712 1259.17 27.0783 1259.17 27.0783Z" fill="#4B2526"/>
<path d="M1271.36 24.189C1271.36 24.189 1276.34 38.4571 1256.43 82.8762H1273.98C1284.24 32.8025 1271.36 24.189 1271.36 24.189Z" fill="#4B2526"/>
<path d="M1493.31 29.3069C1493.31 29.3069 1475.11 47.0237 1487.25 82.8762H1459.16C1463.09 41.549 1493.31 29.3069 1493.31 29.3069Z" fill="#4B2526"/>
<path d="M1472.66 24.7227C1472.66 24.7227 1457.95 41.6881 1468.78 82.8762H1442.37C1448.12 36.1499 1472.66 24.7227 1472.66 24.7227Z" fill="#4B2526"/>
<path d="M1455.1 23.2138C1455.1 23.2138 1441.32 39.272 1447.25 82.8762H1422.73C1433.35 33.8079 1455.1 23.2138 1455.1 23.2138Z" fill="#4B2526"/>
<path d="M1432.37 14.9768C1432.37 14.9768 1420.58 30.1672 1420.68 82.8762H1397.74C1414.92 24.6486 1432.37 14.9768 1432.37 14.9768Z" fill="#4B2526"/>
<path d="M1442.24 24.1466C1442.24 24.1466 1428.69 39.6168 1432.12 82.8762H1408.9C1421.48 34.2403 1442.24 24.1466 1442.24 24.1466Z" fill="#4B2526"/>
<path d="M1371.87 17.2175C1371.87 17.2175 1357.93 39.9267 1366.42 82.8762H1342.57C1351.64 40.8505 1371.87 17.2175 1371.87 17.2175Z" fill="#4B2526"/>
<path d="M1511.94 9.9269V82.8762H1476.46C1490.7 36.1423 1511.94 9.9269 1511.94 9.9269Z" fill="#4B2526"/>
<path d="M1373.46 25.716C1373.46 25.716 1381.43 40.8354 1356.97 82.8762H1379.11C1393.58 33.7807 1373.46 25.716 1373.46 25.716Z" fill="#4B2526"/>
<path d="M1391.6 20.6465C1391.6 20.6465 1399.24 36.2935 1374.81 82.8762H1397.4C1410.62 29.0559 1391.6 20.6465 1391.6 20.6465Z" fill="#4B2526"/>
<path d="M1406.96 17.3354C1406.96 17.3354 1412.07 33.2863 1384.04 82.8762H1405.75C1422.33 26.912 1406.96 17.3354 1406.96 17.3354Z" fill="#4B2526"/>
<path d="M226.871 71.4248C226.871 71.4248 231.538 65.7263 236.989 60.0475C236.826 60.5374 235.878 63.3708 234.712 66.9571C231.572 68.4796 228.761 70.0233 226.871 71.4248ZM250.259 71.4626C250.259 71.4626 250.388 70.7777 250.61 69.7043C251.071 69.3641 251.549 69.0269 252.043 68.6958C251.295 69.6589 250.667 70.6023 250.259 71.4626ZM240.936 71.3432L240.741 71.4309C240.627 71.1285 240.462 70.6794 240.271 70.1321C240.602 69.8358 240.952 69.5258 241.31 69.2068C241.125 69.9945 240.992 70.7188 240.936 71.3432ZM249.795 62.2277C247.973 64.3369 246.271 66.437 246.003 67.199C246.003 67.199 245.917 66.4536 245.815 65.3574C247.117 64.287 248.463 63.2211 249.795 62.2277ZM317.164 72.1944C317.164 72.1944 317.545 71.3931 318.145 70.2425C318.281 70.6235 318.42 71.0106 318.562 71.4006C317.883 71.7423 317.386 72.019 317.164 72.1944ZM319.481 75.179C319.481 75.179 319.61 75.0671 319.832 74.872L319.864 74.9567L319.481 75.179ZM332.301 70.2758C332.18 71.0831 332.148 71.8799 332.283 72.5966C332.283 72.5966 331.931 71.8724 331.433 70.7868C331.727 70.6099 332.017 70.439 332.301 70.2758ZM324.967 72.5845L324.867 72.6268C324.613 72.3925 324.218 72.0251 323.741 71.57C323.901 71.4384 324.066 71.3039 324.232 71.1693C324.469 71.6894 324.716 72.1702 324.967 72.5845ZM326.715 69.2023L326.752 69.3837L326.648 69.2522L326.715 69.2023ZM323.409 69.1554C322.911 69.3762 322.422 69.5939 321.949 69.8086C321.123 68.9664 320.311 68.091 319.734 67.3532C320.398 66.2132 321.126 65.0581 321.836 64.1176C322.227 65.5676 322.773 67.4258 323.409 69.1554ZM320.098 70.6568C319.743 70.058 319.35 69.4019 318.949 68.7366C319.149 68.3737 319.36 68.0003 319.578 67.6223C319.814 68.3465 320.174 69.423 320.534 70.4527C320.386 70.5222 320.24 70.5902 320.098 70.6568ZM375.547 75.1638C375.547 75.1638 375.4 74.11 375.183 72.7221C375.509 72.8672 375.827 73.0169 376.138 73.1696C375.812 74.045 375.55 74.8478 375.547 75.1638ZM399.765 74.4593C399.641 74.2688 399.346 73.9225 398.961 73.4962L399.192 73.3752C399.541 74.039 399.765 74.4593 399.765 74.4593ZM397.871 70.8352C398.341 71.7499 398.779 72.592 399.118 73.2346L398.814 73.3359C398.306 72.7795 397.668 72.1112 397.027 71.4475C397.314 71.2177 397.599 71.0106 397.871 70.8352ZM395.021 73.28C395.006 74.0238 394.95 74.5288 394.95 74.5288C394.838 74.3338 394.67 74.104 394.466 73.853C394.644 73.664 394.829 73.472 395.021 73.28ZM388.167 71.3235C388.017 71.4112 387.871 71.4989 387.729 71.5836C387.142 71.2646 386.338 70.8624 385.409 70.4149C385.364 69.3066 385.364 68.0502 385.511 67.0508C386.601 68.6701 387.608 70.3604 388.167 71.3235ZM381.049 73.6549C380.952 73.9074 380.875 74.1448 380.819 74.3625C380.45 74.2264 380.074 74.0934 379.696 73.9618C379.191 73.3329 378.597 72.5331 378.134 71.7454C379.157 72.3925 380.164 73.0577 381.049 73.6549ZM376.985 71.0332C376.772 71.5488 376.507 72.202 376.262 72.8415C375.866 72.7206 375.493 72.6072 375.149 72.5059C375.01 71.6335 374.845 70.6477 374.672 69.7163C375.388 70.0898 376.177 70.5449 376.985 71.0332ZM432.831 71.4914C432.122 69.9991 430.704 68.1545 429.34 66.5579C430.234 67.0085 431.076 67.5135 431.87 68.0502C432.435 69.9764 432.831 71.4914 432.831 71.4914ZM442.382 72.9791L442.37 72.9473L442.43 73.0169L442.382 72.9791ZM440.2 70.5449C440.293 71.0242 440.368 71.4203 440.418 71.6834L440.38 71.6592C440.268 71.2918 440.101 70.7883 439.902 70.2228L440.2 70.5449ZM436.362 66.5564C437.039 67.2292 437.7 67.902 438.322 68.5506C438.271 69.2189 438.199 69.8751 438.127 70.4209C437.94 70.3226 437.751 70.2274 437.564 70.1321C437.261 69.0571 436.827 67.8007 436.362 66.5564ZM0.00585938 31.1393L0.00999357 82.8762H520.741C520.213 74.5636 518.391 52.887 518.391 52.887C518.136 54.6756 517.711 67.4106 517.711 67.4106C517.707 65.5283 516.84 57.2641 516.84 57.2641C516.603 60.4875 514.604 66.9465 514.604 66.9465C515.003 61.8119 513 48.8259 513 48.8259C513.213 51.5051 511.698 61.2389 511.698 61.2389C511.476 59.1071 506.884 48.1425 506.884 48.1425C508.089 51.4446 508.298 66.4022 508.298 66.4022C507.314 60.7974 502.305 52.1159 502.305 52.1159C503.686 55.7007 504.181 68.2074 504.181 68.2074C503.534 65.4844 501.768 62.3411 500.271 60.0082C500.545 48.2046 501.358 34.8602 501.358 34.8602C500.052 37.3897 494.305 65.1972 494.305 65.1972C494.423 62.1778 493.011 46.9874 493.011 46.9874C492.339 53.7775 488.461 65.4648 488.461 65.4648C489.055 57.1522 483.969 31.1726 483.969 31.1726C484.76 37.624 483.067 57.8809 483.067 57.8809C482.424 54.4655 472.473 37.1931 472.473 37.1931C475.338 42.819 478.724 66.4113 478.724 66.4113C476.358 59.163 467.519 48.4903 467.519 48.4903C470.347 53.3209 474 69.3626 474 69.3626C471.515 63.7714 464.282 57.2641 464.282 57.2641C466.426 59.733 467.893 63.2543 468.889 66.6562C465.351 60.2728 461.39 53.9469 461.39 53.9469C461.393 56.8226 464.356 71.0075 464.356 71.0075C463.858 69.3595 459.053 60.9638 459.053 60.9638C459.737 64.7149 457.848 71.0771 457.848 71.0771C456.747 66.5322 445.285 51.9557 445.285 51.9557C447.624 55.6085 450.14 66.8512 450.14 66.8512C448.67 64.9598 433.466 55.1836 433.466 55.1836C438.022 58.3859 447.101 71.4687 447.101 71.4687C445.539 70.0036 442.902 68.2785 440.175 66.6713C439.449 64.6257 438.93 63.1893 438.93 63.1893C438.95 63.5779 439.151 64.8026 439.404 66.2238C438.008 65.4164 436.616 64.6529 435.353 63.9801C434.611 62.1521 434 60.7763 434 60.7763C434.19 61.3266 434.34 62.3683 434.456 63.5053C432.099 62.2655 430.397 61.44 430.397 61.44C431.603 62.2005 433.079 63.4464 434.576 64.8388C434.72 66.6607 434.78 68.3495 434.78 68.3495C434.29 67.0584 429.018 60.4467 429.018 60.4467C429.813 61.5443 430.887 64.7723 431.691 67.456C430.636 67.013 429.779 66.6698 429.261 66.4687C427.57 64.4956 425.982 62.9247 425.982 62.9247C427.607 65.0792 429.844 72.6011 429.844 72.6011C428.932 70.9728 427.08 69.0995 425.557 67.7115C424.011 60.5767 422.642 52.4168 422.642 52.4168C421.992 53.9922 421.67 70.8669 421.67 70.8669C421.31 69.0617 417.922 59.9493 417.922 59.9493C418.427 64.0496 417.186 71.0665 417.186 71.0665C416.392 66.1089 408.475 50.5254 408.475 50.5254C410.087 54.4246 411.889 66.6033 411.889 66.6033C410.876 64.5773 400.607 54.3914 400.607 54.3914C403.664 57.7161 409.874 71.6924 409.874 71.6924C406.968 67.4288 398.634 61.2117 398.634 61.2117C401.516 64.036 406.744 73.4523 406.744 73.4523C404.012 70.1865 397.577 66.4279 397.577 66.4279C399.567 67.8582 401.211 69.9114 402.482 71.8966C398.844 68.1832 394.901 64.5092 394.901 64.5092C395.149 65.433 396.587 68.3344 397.834 70.7656C397.574 70.8699 397.213 71.0151 396.781 71.195C395.485 69.86 394.263 68.6429 394.263 68.6429C394.744 69.603 394.935 70.8533 394.998 71.954C394.484 72.1823 393.944 72.4257 393.401 72.6828C392.896 72.1687 392.308 71.6093 391.672 71.0242C392.732 69.5833 393.923 68.1923 394.924 67.6027C394.924 67.6027 392.765 68.7351 390.515 69.9855C388.937 68.59 387.209 67.1506 385.778 65.9834L385.864 65.7747L385.736 65.9486C383.997 64.5304 382.717 63.5295 382.717 63.5295C383.47 64.2205 384.366 65.3892 385.232 66.6426C384.747 67.3184 384.044 68.3269 383.335 69.4336C379.386 67.5921 374.691 65.5313 374.691 65.5313C376.605 66.4415 379.771 68.8047 382.425 70.9138C382.166 71.3568 381.921 71.7968 381.702 72.2231C380.294 71.6456 378.855 71.0892 377.579 70.6144C377.503 70.4118 377.44 70.2138 377.407 70.0308C377.407 70.0308 377.333 70.2032 377.216 70.4799C376.191 70.1004 375.294 69.7783 374.64 69.5485C374.375 68.1485 374.093 66.8966 373.848 66.3689C373.848 66.3689 372.127 69.5878 370.741 72.9035C370.736 71.1209 371.097 69.29 372.277 68.0336C372.277 68.0336 367.785 71.3613 367.048 74.3323C367.048 74.3323 366.156 65.8004 367.38 63.3073C367.38 63.3073 362.346 68.8167 362.107 72.7357C362.107 72.7357 358.999 59.8903 360.128 56.9466C360.128 56.9466 355.518 66.0862 355.834 67.9791C355.834 67.9791 348.635 56.4249 347.611 52.76C347.611 52.76 349.855 67.4303 352.746 72.1596C352.746 72.1596 345.608 65.3952 342.96 61.4037C342.96 61.4037 345.893 70.2213 346.879 71.9691C346.879 71.9691 332.555 55.2335 330.316 53.5825C330.316 53.5825 335.307 61.7726 339.152 68.8515C338.242 70.2138 337.277 72.0734 337.396 73.6973C337.396 73.6973 334.134 66.1814 334.563 64.0602C334.563 64.0602 332.932 66.9359 332.375 69.8161C332.006 69.9446 331.609 70.0837 331.182 70.2349C330.75 69.2764 330.245 68.1243 329.772 66.9616C330.943 66.1573 332.024 65.492 332.885 65.1019C332.885 65.1019 331.515 65.6704 329.581 66.4899C328.725 64.3414 328.031 62.255 328.177 61.4264C328.177 61.4264 327.109 65.2622 326.783 67.6843C326.445 67.8294 326.104 67.9776 325.759 68.1258C324.802 66.9026 323.354 65.0112 322.328 63.4962C322.582 63.1923 322.832 62.9247 323.072 62.704C323.072 62.704 322.759 62.9444 322.233 63.3511C321.727 62.5951 321.335 61.9435 321.188 61.5474C321.188 61.5474 321.389 62.4364 321.736 63.7397C320.762 64.5002 319.353 65.616 317.821 66.8739C316.966 65.4738 316.216 64.287 315.906 63.8969C315.906 63.8969 316.408 65.3469 317.144 67.4318C313.831 70.182 310.192 73.416 309.398 74.9733C309.398 74.9733 308.211 70.7097 309.283 68.2044C309.283 68.2044 303.586 73.8288 302.9 74.9537C302.9 74.9537 307.409 65.365 307.717 63.4267C307.717 63.4267 303.041 67.6102 298.665 71.957C300.083 69.612 301.991 67.2156 304.454 65.5827C304.454 65.5827 296.19 69.922 292.871 73.8364C292.871 73.8364 298.593 62.6571 302.084 59.4412C302.084 59.4412 291.42 66.57 287.943 71.7181C287.943 71.7181 294.389 55.0113 298.115 51.2662C298.115 51.2662 285.077 62.9852 283.933 65.4527C283.933 65.4527 284.318 50.5299 285.995 45.8822C285.995 45.8822 276.871 64.7179 276.603 70.935C276.603 70.935 273.218 62.0478 273.201 56.8679C273.201 56.8679 269.56 68.3601 269.34 70.6674C269.34 70.6674 265.322 48.9076 263.906 46.7969C263.906 46.7969 263.31 57.3034 262.19 66.5383C259.881 68.3284 257.07 70.7807 255.826 72.9367C255.826 72.9367 256.726 69.039 257.971 65.4512C258.679 65.1443 259.408 64.854 260.159 64.5863C260.159 64.5863 259.365 64.8131 258.056 65.2108C258.779 63.1651 259.61 61.254 260.449 60.2622C260.449 60.2622 256.906 63.2105 253.889 66.5186C253.009 66.8044 252.072 67.1143 251.098 67.4469C251.632 65.0838 252.371 62.131 253.176 59.8646C254.248 59.1721 255.27 58.5794 256.204 58.1319C256.204 58.1319 255.153 58.5038 253.443 59.1389C253.838 58.1259 254.243 57.3049 254.644 56.8195C254.644 56.8195 253.51 58.0397 252.061 59.6559C250.268 60.3318 248.02 61.1996 245.577 62.1884C245.46 60.0959 245.438 57.9233 245.74 56.939C245.74 56.939 244.465 59.7996 243.223 63.1561C241.801 63.7487 240.348 64.3732 238.906 65.0142C238.839 64.544 238.802 64.104 238.812 63.7215C238.812 63.7215 238.582 64.3671 238.256 65.3045C237.719 65.5449 237.187 65.7883 236.659 66.0333C236.886 63.4101 237.077 60.7838 237.019 60.0143C241.252 55.6055 245.939 51.2284 249.323 49.4927C249.323 49.4927 222.049 62.0524 219.446 64.7315C219.446 64.7315 221.904 48.6294 225.814 43.6521C225.814 43.6521 205.02 64.0284 203.744 70.8261C203.744 70.8261 197.728 61.1527 198.3 55.483C198.3 55.483 189.29 68.1424 188.548 70.6946C188.548 70.6946 191.702 48.903 190.916 44.458C190.916 44.458 183.114 53.8743 176.109 63.7472C177.639 58.3829 180.294 52.9233 184.879 49.2614C184.879 49.2614 168.497 58.971 163.61 67.9595C163.61 67.9595 168.439 42.1538 174.303 34.8542C174.303 34.8542 154.064 50.9578 149.735 62.9126C149.735 62.9126 151.797 23.7747 157.921 15.1854C157.921 15.1854 135.153 42.1236 134.371 47.9505C134.371 47.9505 122.384 11.9469 122.634 0.750984C122.634 0.750984 115.603 45.8111 120.391 60.7339C120.391 60.7339 103.655 39.1087 98.9071 26.407C98.9071 26.407 99.7114 54.275 101.22 59.86C101.22 59.86 70.1324 5.70258 64.1792 0.155289C64.1792 0.155289 72.6011 26.6202 78.2698 49.4806C73.6684 53.7881 68.2998 59.7285 66.9415 65.0067C66.9415 65.0067 63.7439 40.5254 67.5598 33.7883C67.5598 33.7883 51.6354 50.0385 50.058 61.1996C50.058 61.1996 44.5152 30.9685 48.0009 24.6153C48.0009 24.6153 33.7586 45.9412 33.7616 50.3167C33.7616 50.3167 22.8615 29.6682 22.5774 24.0831C22.5774 24.0831 19.6858 51.0424 23.7975 61.8906C23.7975 61.8906 11.8946 47.9778 9.29126 41.0153C9.29126 41.0153 9.22866 58.6369 10.0992 62.6722L0.00585938 31.1393Z" fill="#4B2526"/>
<path d="M742.444 71.4248C742.444 71.4248 747.111 65.7263 752.56 60.0475C752.397 60.5374 751.45 63.3708 750.284 66.9571C747.144 68.4796 744.334 70.0233 742.444 71.4248ZM765.832 71.4626C765.832 71.4626 765.96 70.7777 766.182 69.7043C766.642 69.3641 767.12 69.0269 767.614 68.6958C766.867 69.6589 766.238 70.6023 765.832 71.4626ZM756.509 71.3432L756.314 71.4309C756.199 71.1285 756.033 70.6794 755.844 70.1321C756.173 69.8358 756.523 69.5258 756.883 69.2068C756.697 69.9945 756.565 70.7188 756.509 71.3432ZM765.366 62.2277C763.546 64.3369 761.843 66.437 761.576 67.199C761.576 67.199 761.489 66.4536 761.387 65.3574C762.69 64.287 764.034 63.2211 765.366 62.2277ZM832.735 72.1944C832.735 72.1944 833.117 71.3931 833.716 70.2425C833.852 70.6235 833.993 71.0106 834.133 71.4006C833.456 71.7423 832.957 72.019 832.735 72.1944ZM835.054 75.179C835.054 75.179 835.181 75.0671 835.403 74.872L835.435 74.9567L835.054 75.179ZM847.872 70.2758C847.751 71.0831 847.721 71.8799 847.856 72.5966C847.856 72.5966 847.503 71.8724 847.006 70.7868C847.299 70.6099 847.59 70.4406 847.872 70.2758ZM840.539 72.586L840.438 72.6268C840.184 72.394 839.791 72.0251 839.312 71.57C839.473 71.4384 839.637 71.3039 839.803 71.1693C840.042 71.6894 840.288 72.1702 840.539 72.586ZM842.286 69.2023L842.325 69.3837L842.219 69.2522L842.286 69.2023ZM838.982 69.1554C838.483 69.3747 837.993 69.5939 837.522 69.8086C836.695 68.9664 835.884 68.091 835.305 67.3532C835.969 66.2132 836.699 65.0581 837.408 64.1176C837.798 65.5676 838.346 67.4258 838.982 69.1554ZM835.669 70.6568C835.316 70.0595 834.923 69.4019 834.522 68.7366C834.721 68.3737 834.932 68.0003 835.148 67.6223C835.387 68.3465 835.745 69.423 836.105 70.4527C835.958 70.5222 835.813 70.5902 835.669 70.6568ZM891.118 75.1654C891.118 75.1654 890.973 74.11 890.755 72.7221C891.082 72.8672 891.399 73.0169 891.711 73.1696C891.384 74.045 891.121 74.8479 891.118 75.1654ZM915.338 74.4593C915.214 74.2688 914.918 73.9225 914.532 73.4962L914.765 73.3752C915.114 74.039 915.338 74.4593 915.338 74.4593ZM913.443 70.8352C913.912 71.7499 914.352 72.592 914.691 73.2346L914.387 73.3359C913.879 72.7795 913.241 72.1112 912.598 71.4475C912.885 71.2177 913.17 71.0106 913.443 70.8352ZM910.592 73.2784C910.577 74.0238 910.522 74.5288 910.522 74.5288C910.409 74.3338 910.241 74.104 910.038 73.853C910.217 73.664 910.401 73.472 910.592 73.2784ZM903.74 71.325C903.59 71.4112 903.442 71.4989 903.303 71.5836C902.713 71.2646 901.91 70.8624 900.98 70.4149C900.935 69.3066 900.935 68.0502 901.083 67.0508C902.173 68.6701 903.182 70.3604 903.74 71.325ZM896.62 73.6564C896.525 73.9074 896.446 74.1448 896.39 74.3625C896.021 74.2264 895.646 74.0934 895.267 73.9618C894.762 73.3329 894.169 72.5331 893.707 71.7454C894.729 72.3925 895.737 73.0577 896.62 73.6564ZM892.556 71.0332C892.343 71.5488 892.08 72.202 891.835 72.8415C891.437 72.7206 891.064 72.6072 890.72 72.5059C890.581 71.6335 890.418 70.6477 890.244 69.7163C890.959 70.0898 891.75 70.5449 892.556 71.0332ZM948.404 71.4914C947.695 69.9991 946.275 68.1545 944.911 66.5579C945.806 67.0085 946.648 67.5135 947.441 68.0502C948.008 69.9764 948.404 71.4914 948.404 71.4914ZM957.953 72.9791L957.943 72.9473L958.002 73.0169L957.953 72.9791ZM955.773 70.5449C955.864 71.0242 955.939 71.4203 955.991 71.6834L955.953 71.6592C955.841 71.2918 955.672 70.7883 955.475 70.2228L955.773 70.5449ZM951.934 66.5564C952.612 67.2292 953.271 67.902 953.894 68.5506C953.842 69.2189 953.768 69.8766 953.7 70.4209C953.513 70.3226 953.325 70.2274 953.135 70.1321C952.834 69.0587 952.398 67.7992 951.934 66.5564ZM515.578 31.1393L515.582 82.8762H1036.31C1035.79 74.5636 1033.96 52.887 1033.96 52.887C1033.71 54.6756 1033.28 67.4106 1033.28 67.4106C1033.28 65.5283 1032.41 57.2641 1032.41 57.2641C1032.17 60.489 1030.18 66.9465 1030.18 66.9465C1030.58 61.8135 1028.57 48.8259 1028.57 48.8259C1028.79 51.5051 1027.27 61.2404 1027.27 61.2404C1027.05 59.1071 1022.46 48.1425 1022.46 48.1425C1023.66 51.4446 1023.87 66.4022 1023.87 66.4022C1022.88 60.7974 1017.88 52.1159 1017.88 52.1159C1019.26 55.7022 1019.75 68.2074 1019.75 68.2074C1019.1 65.4844 1017.34 62.3411 1015.84 60.0082C1016.12 48.2061 1016.93 34.8602 1016.93 34.8602C1015.62 37.3897 1009.88 65.1972 1009.88 65.1972C1009.99 62.1778 1008.58 46.9874 1008.58 46.9874C1007.91 53.7775 1004.03 65.4648 1004.03 65.4648C1004.63 57.1522 999.54 31.1726 999.54 31.1726C1000.33 37.624 998.638 57.8809 998.638 57.8809C997.995 54.4655 988.044 37.1931 988.044 37.1931C990.909 42.819 994.296 66.4128 994.296 66.4128C991.931 59.163 983.092 48.4903 983.092 48.4903C985.918 53.3209 989.571 69.3626 989.571 69.3626C987.088 63.7714 979.853 57.2641 979.853 57.2641C981.999 59.7346 983.466 63.2543 984.46 66.6577C980.922 60.2728 976.963 53.9469 976.963 53.9469C976.964 56.8226 979.928 71.0075 979.928 71.0075C979.429 69.3595 974.624 60.9638 974.624 60.9638C975.31 64.7149 973.42 71.0756 973.42 71.0756C972.32 66.5322 960.858 51.9557 960.858 51.9557C963.197 55.6085 965.712 66.8527 965.712 66.8527C964.241 64.9613 949.039 55.1836 949.039 55.1836C953.594 58.3859 962.672 71.4687 962.672 71.4687C961.11 70.0036 958.475 68.2785 955.746 66.6713C955.02 64.6257 954.503 63.1893 954.503 63.1893C954.523 63.5779 954.722 64.8026 954.975 66.2238C953.579 65.4164 952.188 64.6529 950.926 63.9801C950.182 62.1521 949.571 60.7763 949.571 60.7763C949.762 61.3266 949.913 62.3683 950.029 63.5053C947.671 62.2655 945.968 61.44 945.968 61.44C947.175 62.2005 948.652 63.4463 950.149 64.8373C950.292 66.6622 950.353 68.3495 950.353 68.3495C949.863 67.0584 944.589 60.4467 944.589 60.4467C945.386 61.5443 946.459 64.7723 947.264 67.456C946.208 67.013 945.35 66.6698 944.833 66.4687C943.141 64.4956 941.555 62.9247 941.555 62.9247C943.179 65.0792 945.415 72.6011 945.415 72.6011C944.506 70.9728 942.651 69.0995 941.13 67.7115C939.583 60.5767 938.213 52.4168 938.213 52.4168C937.565 53.9922 937.243 70.8669 937.243 70.8669C936.883 69.0617 933.495 59.9493 933.495 59.9493C933.998 64.0496 932.758 71.0665 932.758 71.0665C931.965 66.1089 924.047 50.5254 924.047 50.5254C925.658 54.4246 927.462 66.6033 927.462 66.6033C926.449 64.5773 916.178 54.3914 916.178 54.3914C919.237 57.7161 925.445 71.6924 925.445 71.6924C922.541 67.4288 914.205 61.2117 914.205 61.2117C917.089 64.036 922.315 73.4523 922.315 73.4523C919.585 70.1881 913.148 66.4279 913.148 66.4279C915.138 67.8582 916.783 69.9114 918.053 71.8966C914.415 68.1832 910.474 64.5092 910.474 64.5092C910.72 65.433 912.16 68.3344 913.407 70.7656C913.147 70.8699 912.786 71.0151 912.353 71.195C911.056 69.86 909.836 68.6429 909.836 68.6429C910.315 69.603 910.506 70.8533 910.569 71.9555C910.055 72.1823 909.517 72.4257 908.973 72.6828C908.469 72.1687 907.881 71.6093 907.244 71.0242C908.304 69.5833 909.494 68.1923 910.495 67.6042C910.495 67.6042 908.338 68.7351 906.088 69.9855C904.508 68.59 902.781 67.1506 901.351 65.9834L901.437 65.7747L901.307 65.9486C899.57 64.5304 898.288 63.5295 898.288 63.5295C899.042 64.2205 899.939 65.3892 900.804 66.6426C900.32 67.3184 899.617 68.3269 898.908 69.4336C894.958 67.5921 890.264 65.5313 890.264 65.5313C892.176 66.4415 895.344 68.8062 897.997 70.9138C897.739 71.3568 897.494 71.7968 897.273 72.2231C895.866 71.6441 894.426 71.0892 893.152 70.6144C893.075 70.4118 893.013 70.2138 892.978 70.0308C892.978 70.0308 892.905 70.2032 892.787 70.4799C891.762 70.1004 890.867 69.7783 890.211 69.5485C889.948 68.1485 889.664 66.8966 889.42 66.3689C889.42 66.3689 887.698 69.5878 886.312 72.9035C886.307 71.1209 886.67 69.29 887.849 68.0336C887.849 68.0336 883.356 71.3613 882.621 74.3323C882.621 74.3323 881.727 65.8004 882.951 63.3073C882.951 63.3073 877.919 68.8167 877.68 72.7357C877.68 72.7357 874.57 59.8903 875.701 56.9466C875.701 56.9466 871.09 66.0862 871.407 67.9791C871.407 67.9791 864.206 56.4249 863.184 52.76C863.184 52.76 865.426 67.4303 868.318 72.1596C868.318 72.1596 861.179 65.3967 858.533 61.4037C858.533 61.4037 861.466 70.2213 862.45 71.9691C862.45 71.9691 848.126 55.2335 845.887 53.5825C845.887 53.5825 850.879 61.7726 854.724 68.8515C853.813 70.2138 852.848 72.0734 852.969 73.6973C852.969 73.6973 849.705 66.1814 850.137 64.0602C850.137 64.0602 848.501 66.9359 847.946 69.8161C847.579 69.9446 847.18 70.0837 846.755 70.2349C846.321 69.2764 845.816 68.1243 845.343 66.9616C846.515 66.1573 847.596 65.492 848.456 65.1019C848.456 65.1019 847.088 65.6704 845.154 66.4899C844.297 64.3414 843.604 62.255 843.748 61.4264C843.748 61.4264 842.682 65.2622 842.355 67.6843C842.017 67.8294 841.676 67.9776 841.33 68.1258C840.373 66.9026 838.926 65.0112 837.901 63.4962C838.155 63.1939 838.405 62.9247 838.645 62.704C838.645 62.704 838.332 62.9444 837.804 63.3511C837.298 62.5951 836.908 61.9435 836.761 61.5474C836.761 61.5474 836.962 62.4364 837.307 63.7397C836.335 64.5002 834.924 65.616 833.392 66.8739C832.538 65.4738 831.788 64.287 831.478 63.8954C831.478 63.8954 831.98 65.3469 832.717 67.4318C829.402 70.182 825.765 73.416 824.97 74.9733C824.97 74.9733 823.784 70.7097 824.856 68.2044C824.856 68.2044 819.158 73.8288 818.471 74.9537C818.471 74.9537 822.981 65.365 823.29 63.4267C823.29 63.4267 818.612 67.6087 814.238 71.957C815.656 69.612 817.562 67.2156 820.025 65.5827C820.025 65.5827 811.763 69.922 808.444 73.8364C808.444 73.8364 814.165 62.6571 817.656 59.4412C817.656 59.4412 806.991 66.57 803.515 71.7181C803.515 71.7181 809.962 55.0113 813.687 51.2662C813.687 51.2662 800.649 62.9852 799.506 65.4527C799.506 65.4527 799.89 50.5299 801.566 45.8822C801.566 45.8822 792.442 64.7164 792.176 70.935C792.176 70.935 788.79 62.0478 788.774 56.8679C788.774 56.8679 785.133 68.3601 784.912 70.6674C784.912 70.6674 780.895 48.9076 779.478 46.7969C779.478 46.7969 778.881 57.3034 777.761 66.5383C775.452 68.3284 772.641 70.7807 771.399 72.9367C771.399 72.9367 772.297 69.039 773.544 65.4512C774.252 65.1443 774.979 64.854 775.732 64.5863C775.732 64.5863 774.937 64.8131 773.629 65.2108C774.351 63.1651 775.181 61.254 776.022 60.2622C776.022 60.2622 772.477 63.2105 769.46 66.5186C768.58 66.8044 767.645 67.1143 766.669 67.4469C767.205 65.0853 767.942 62.131 768.747 59.8631C769.819 59.1721 770.842 58.5794 771.774 58.1319C771.774 58.1319 770.726 58.5038 769.016 59.1389C769.409 58.1259 769.816 57.3049 770.215 56.8195C770.215 56.8195 769.082 58.0382 767.634 59.6559C765.841 60.3318 763.591 61.1996 761.149 62.1899C761.033 60.0959 761.009 57.9233 761.311 56.939C761.311 56.939 760.038 59.7996 758.794 63.1561C757.374 63.7487 755.921 64.3732 754.479 65.0142C754.412 64.544 754.374 64.104 754.385 63.7215C754.385 63.7215 754.155 64.3671 753.828 65.3045C753.292 65.5449 752.76 65.7883 752.23 66.0348C752.457 63.4101 752.649 60.7838 752.592 60.0143C756.825 55.6055 761.511 51.2284 764.894 49.4927C764.894 49.4927 737.621 62.0524 735.019 64.7315C735.019 64.7315 737.477 48.6294 741.387 43.6521C741.387 43.6521 720.592 64.0284 719.316 70.8261C719.316 70.8261 713.3 61.1527 713.873 55.483C713.873 55.483 704.863 68.1424 704.121 70.6946C704.121 70.6946 707.274 48.903 706.488 44.458C706.488 44.458 698.685 53.8743 691.682 63.7472C693.212 58.3829 695.867 52.9233 700.45 49.2614C700.45 49.2614 684.068 58.971 679.181 67.9595C679.181 67.9595 684.012 42.1553 689.875 34.8542C689.875 34.8542 669.635 50.9578 665.306 62.9126C665.306 62.9126 667.37 23.7747 673.493 15.1854C673.493 15.1854 650.725 42.1236 649.942 47.9505C649.942 47.9505 637.955 11.9469 638.206 0.750984C638.206 0.750984 631.174 45.8111 635.963 60.7339C635.963 60.7339 619.227 39.1087 614.48 26.4085C614.48 26.4085 615.284 54.275 616.791 59.86C616.791 59.86 585.704 5.70258 579.752 0.155289C579.752 0.155289 588.173 26.6202 593.842 49.4806C589.239 53.7881 583.872 59.73 582.513 65.0067C582.513 65.0067 579.315 40.5254 583.131 33.7883C583.131 33.7883 567.207 50.0385 565.63 61.1996C565.63 61.1996 560.088 30.9685 563.573 24.6153C563.573 24.6153 549.33 45.9412 549.333 50.3167C549.333 50.3167 538.434 29.6682 538.15 24.0816C538.15 24.0816 535.257 51.0409 539.37 61.8906C539.37 61.8906 527.466 47.9778 524.863 41.0153C524.863 41.0153 524.801 58.6369 525.67 62.6722L515.578 31.1393Z" fill="#4B2526"/>
</svg>
