<svg width="1512" height="183" viewBox="0 0 1512 183" fill="none" xmlns="http://www.w3.org/2000/svg">
<path d="M1511.92 50.9397H30.3638L0 50.7963V182.999H1511.92V50.9397Z" fill="#232124"/>
<path d="M66.8188 91.4595C69.8394 96.4339 63.154 115.471 63.154 117.416C63.154 119.358 59.8114 150.635 55.7832 152.929C51.7561 155.225 35.8271 182.454 35.8271 182.454H73.4617C73.4617 182.454 71.0676 169.277 78.619 160.861C86.1705 152.443 93.7219 138.751 99.2593 129.952C104.798 121.152 112.852 106.274 112.852 106.274C112.852 106.274 128.962 123.128 134.5 130.782C140.037 138.432 143.058 146.477 144.065 151.836C145.072 157.191 144.065 173.482 144.065 173.482L141.547 182.454H176.161C176.161 182.454 175.536 173.871 176.161 164.302C176.788 154.739 170.747 133.781 169.236 125.746C167.726 117.708 168.733 108.569 160.175 99.7694C151.617 90.9692 128.962 77.8993 128.962 77.8993L145.072 51.6002H112.729L94.7284 70.1831C94.7284 70.1831 85.6667 65.5933 77.1088 62.5339C68.5508 59.4731 49.4197 51.6002 49.4197 51.6002H0.968994C0.968994 51.6002 25.2564 62.1452 37.3374 70.1831C49.4197 78.2183 66.8188 91.4595 66.8188 91.4595Z" fill="#2A282F"/>
<path d="M202.958 182.454C202.958 182.454 209.953 153.826 213.477 149.615C217 145.406 230.625 129.306 233.646 126.243C236.666 123.183 242.723 107.862 242.723 107.862L249.777 92.5477C249.777 92.5477 247.264 80.9868 247.768 74.8628C248.272 68.7426 249.785 51.6002 249.785 51.6002H272.82C272.82 51.6002 274.453 74.3897 275.46 80.1292C276.467 85.8689 273.95 95.134 275.46 98.9601C276.971 102.787 277.473 107.029 282.508 117.554C287.543 128.081 294.086 153.571 296.101 158.162C298.115 162.752 301.638 182.454 301.638 182.454H272.82C272.82 182.454 264.888 153.208 266.901 142.879C268.915 132.549 260.86 116.916 260.86 116.916C260.86 116.916 256.833 132.672 254.819 137.647C252.806 142.621 240.22 146.683 238.206 151.657C236.193 156.632 231.662 182.454 231.662 182.454H202.958Z" fill="#2A282F"/>
<path d="M181.319 51.7462V67.0204C181.319 67.0204 193.462 74.6992 193.966 78.2001C194.47 81.7025 194.691 102.704 194.187 103.66C193.685 104.615 194.676 117.981 194.676 117.981C194.676 117.981 204.422 101.431 209.959 93.1587C215.498 84.8836 216.531 69.6063 216.531 65.471C216.531 61.3334 211.069 50.9638 211.069 50.9638L181.319 51.7462Z" fill="#2A282F"/>
<path d="M322.532 182.742C322.532 182.742 323.637 167.605 321.623 158.041C319.608 148.477 315.406 134.856 314.902 131.793C314.401 128.734 309.782 116.758 308.272 112.551C306.761 108.342 305.164 98.0566 305.164 91.2811C305.164 84.5057 305.164 51.5999 305.164 51.5999H330.213C330.213 51.5999 329.084 86.2518 330.213 88.5473C331.343 90.843 335.369 98.1945 338.894 100.108C342.416 102.023 344.431 109.333 344.431 109.333C344.431 109.333 355.508 98.8017 362.05 91.2609C368.596 83.7204 371.616 68.8171 371.616 65.3731C371.616 61.9319 371.616 51.5999 371.616 51.5999H399.684C399.684 51.5999 396.787 64.8253 396.285 74.0087C395.781 83.1924 389.74 92.4578 385.713 98.9599C381.684 105.467 362.05 125.402 358.528 127.316C355.003 129.227 347.452 137.687 347.452 138.837C347.452 139.987 347.452 159.832 347.452 159.832L349.022 182.79L322.532 182.742Z" fill="#2A282F"/>
<path d="M371.617 182.454V157.538C371.617 157.538 384.264 136.541 389.801 133.863C395.34 131.184 412.174 109.375 413.684 107.464C415.195 105.549 422.353 85.2709 423.864 82.2115C425.374 79.147 428.449 52.8719 430.965 51.9363C433.484 50.9957 459.186 51.9363 459.186 51.9363C459.186 51.9363 458.193 76.4721 457.187 80.6811C456.178 84.8864 462.73 99.4264 464.24 99.8096C465.75 100.194 479.85 105.549 482.871 105.549C485.891 105.549 494.956 119.324 495.962 123.914C496.968 128.508 489.416 158.73 489.416 158.73C489.416 158.73 490.425 145.722 486.9 137.307C483.378 128.888 476.328 115.498 470.287 113.969C464.246 112.435 453.674 111.289 453.674 111.289C453.674 111.289 447.633 120.854 440.586 125.827C433.539 130.802 423.972 144.192 415.415 146.872C406.858 149.551 397.047 160.861 399.684 162.772C402.327 164.687 399.684 182.454 399.684 182.454H371.617Z" fill="#2A282F"/>
<path d="M430.518 182.454C430.518 182.454 424.477 171.191 430.518 165.452C436.559 159.713 456.697 139.136 457.703 137.986C458.709 136.84 458.709 148.577 455.688 155.082C452.668 161.585 458.304 182.454 458.304 182.454H430.518Z" fill="#2A282F"/>
<path d="M488.914 51.9363C488.914 51.9363 474.316 59.634 488.914 76.0875C503.516 92.5411 511.569 97.896 519.12 105.549C526.671 113.2 530.197 137.307 530.197 141.132C530.197 144.957 524.66 160.223 524.66 160.223L515.782 182.454H550.335C550.335 182.454 558.892 147.088 561.408 139.818C563.927 132.549 569.464 114.647 561.408 103.935C553.355 93.2231 532.713 82.9354 530.701 74.1324C528.686 65.3319 540.769 50.9758 540.769 50.9758L488.914 51.9363Z" fill="#2A282F"/>
<path d="M580.477 51.5999C580.477 51.5999 572.454 59.5545 580.507 69.5032C588.563 79.4496 612.239 96.5169 614.253 104.17C616.268 111.821 630.371 114.809 615.773 131.643C601.171 148.477 649.509 176.334 649.509 176.334V182.79C649.509 182.79 682.86 182.79 686.487 181.737C688.792 181.068 686.037 159.115 686.037 157.201C686.037 155.29 659.97 142.507 658.459 137.992C656.949 133.482 658.517 116.644 661.537 108.61C664.558 100.575 668.612 91.0105 664.585 86.8011C660.556 82.5921 637.916 80.6809 634.391 77.2369C630.869 73.7915 627.351 64.5289 629.365 63.7638C631.377 62.9998 631.927 51.5999 631.927 51.5999H580.477Z" fill="#2A282F"/>
<path d="M725.305 91.4595C728.326 96.4339 721.641 115.471 721.641 117.416C721.641 119.358 718.298 150.635 714.271 152.929C710.242 155.225 694.314 182.454 694.314 182.454H731.948C731.948 182.454 729.555 169.277 737.107 160.861C744.658 152.443 752.21 138.751 757.746 129.952C763.286 121.152 771.339 106.274 771.339 106.274C771.339 106.274 787.448 123.128 792.987 130.782C798.524 138.432 801.545 146.477 802.551 151.836C803.559 157.191 802.551 173.482 802.551 173.482L800.034 182.454H834.647C834.647 182.454 834.022 173.871 834.647 164.302C835.276 154.739 829.234 133.781 827.724 125.746C826.214 117.708 827.22 108.569 818.662 99.7694C810.102 90.9692 787.448 77.8993 787.448 77.8993L803.559 51.6002H771.215L753.215 70.1831C753.215 70.1831 744.154 65.5933 735.596 62.5339C727.039 59.4731 707.907 51.6002 707.907 51.6002H659.454C659.454 51.6002 683.742 62.1452 695.824 70.1831C707.907 78.2183 725.305 91.4595 725.305 91.4595Z" fill="#2A282F"/>
<path d="M861.446 182.454C861.446 182.454 868.441 153.826 871.963 149.615C875.488 145.406 889.111 129.306 892.132 126.243C895.152 123.183 901.209 107.862 901.209 107.862L908.265 92.5477C908.265 92.5477 905.751 80.9868 906.253 74.8628C906.757 68.7426 908.271 51.6002 908.271 51.6002H931.306C931.306 51.6002 932.94 74.3897 933.946 80.1292C934.954 85.8689 932.435 95.134 933.946 98.9601C935.456 102.787 935.96 107.029 940.996 117.554C946.028 128.081 952.573 153.571 954.588 158.162C956.6 162.752 960.125 182.454 960.125 182.454H931.306C931.306 182.454 923.374 153.208 925.388 142.879C927.403 132.549 919.347 116.916 919.347 116.916C919.347 116.916 915.321 132.672 913.306 137.647C911.291 142.621 898.707 146.683 896.693 151.657C894.678 156.632 890.147 182.454 890.147 182.454H861.446Z" fill="#2A282F"/>
<path d="M839.806 51.7462V67.0204C839.806 67.0204 851.949 74.6992 852.453 78.2001C852.958 81.7025 853.178 102.704 852.674 103.66C852.169 104.615 853.16 117.981 853.16 117.981C853.16 117.981 862.908 101.431 868.444 93.1587C873.984 84.8836 875.017 69.6063 875.017 65.471C875.017 61.3334 869.556 50.9638 869.556 50.9638L839.806 51.7462Z" fill="#2A282F"/>
<path d="M981.018 182.742C981.018 182.742 982.124 167.605 980.109 158.041C978.095 148.477 973.893 134.856 973.388 131.793C972.887 128.734 968.269 116.758 966.758 112.551C965.248 108.342 963.65 98.0566 963.65 91.2811C963.65 84.5057 963.65 51.5999 963.65 51.5999H988.697C988.697 51.5999 987.57 86.2518 988.697 88.5473C989.826 90.843 993.856 98.1945 997.378 100.108C1000.9 102.023 1002.92 109.333 1002.92 109.333C1002.92 109.333 1013.99 98.8017 1020.54 91.2609C1027.08 83.7204 1030.1 68.8171 1030.1 65.3731C1030.1 61.9319 1030.1 51.5999 1030.1 51.5999H1058.17C1058.17 51.5999 1055.27 64.8253 1054.77 74.0087C1054.27 83.1924 1048.23 92.4578 1044.2 98.9599C1040.17 105.467 1020.54 125.402 1017.01 127.316C1013.49 129.227 1005.94 137.687 1005.94 138.837C1005.94 139.987 1005.94 159.832 1005.94 159.832L1007.51 182.79L981.018 182.742Z" fill="#2A282F"/>
<path d="M1030.1 182.454V157.538C1030.1 157.538 1042.75 136.541 1048.29 133.863C1053.83 131.184 1070.66 109.375 1072.17 107.464C1073.68 105.549 1080.84 85.2709 1082.35 82.2115C1083.86 79.147 1086.94 52.8719 1089.45 51.9363C1091.97 50.9957 1117.67 51.9363 1117.67 51.9363C1117.67 51.9363 1116.68 76.4721 1115.67 80.6811C1114.66 84.8864 1121.22 99.4264 1122.73 99.8096C1124.24 100.194 1138.34 105.549 1141.36 105.549C1144.38 105.549 1153.44 119.324 1154.45 123.914C1155.45 128.508 1147.9 158.73 1147.9 158.73C1147.9 158.73 1148.91 145.722 1145.39 137.307C1141.86 128.888 1134.81 115.498 1128.77 113.969C1122.73 112.435 1112.16 111.289 1112.16 111.289C1112.16 111.289 1106.12 120.854 1099.07 125.827C1092.02 130.802 1082.46 144.192 1073.9 146.872C1065.34 149.551 1055.53 160.861 1058.17 162.772C1060.81 164.687 1058.17 182.454 1058.17 182.454H1030.1Z" fill="#2A282F"/>
<path d="M1089 182.454C1089 182.454 1082.96 171.191 1089 165.452C1095.05 159.713 1115.18 139.136 1116.19 137.986C1117.2 136.84 1117.2 148.577 1114.17 155.082C1111.15 161.585 1116.79 182.454 1116.79 182.454H1089Z" fill="#2A282F"/>
<path d="M1147.4 51.9364C1147.4 51.9364 1132.8 59.634 1147.4 76.0876C1162 92.5412 1170.06 97.896 1177.61 105.549C1185.16 113.2 1188.68 137.307 1188.68 141.132C1188.68 144.957 1183.14 160.391 1183.14 160.391L1174.19 182.999L1208.82 182.79C1208.82 182.79 1217.38 147.255 1219.89 139.987C1222.41 132.713 1227.95 114.733 1219.89 104.019C1211.84 93.3062 1191.2 82.9769 1189.18 74.1767C1187.17 65.3734 1199.26 50.9957 1199.26 50.9957L1147.4 51.9364Z" fill="#2A282F"/>
<path d="M1229.34 182.626C1229.34 182.626 1237.23 156.861 1241.01 150.55C1244.78 144.236 1248.45 128.624 1250.71 122.885C1252.98 117.145 1256.7 100.441 1258.21 98.1469C1259.72 95.8511 1264.98 74.3134 1267.25 72.5953C1269.51 70.8735 1279.3 51.6003 1279.3 51.6003H1314.92C1314.92 51.6003 1318.57 74.3899 1320.08 84.1455C1321.59 93.9029 1320.08 142.195 1320.08 142.195L1301.2 91.2414C1301.2 91.2414 1287.61 107.825 1286.85 129.06C1286.1 150.295 1283.83 182.78 1283.83 182.78L1229.34 182.626Z" fill="#2A282F"/>
<path d="M1233.24 51.1467C1233.24 51.1467 1220.25 55.9502 1224.1 57.8051C1227.95 59.6604 1236.26 67.0813 1236.26 67.0813L1255.89 51.1467H1233.24Z" fill="#2A282F"/>
<path d="M1341.43 182.999C1341.43 182.999 1351.79 160.072 1359.35 150.316C1366.9 140.559 1366.9 126.201 1367.65 117.598C1368.41 108.995 1369.92 52.0383 1372.18 51.5172C1374.45 50.9957 1412.21 51.9364 1412.21 51.9364C1412.21 51.9364 1409.94 81.4465 1412.21 100.96C1414.47 120.473 1406.92 142.281 1407.68 150.316C1408.43 158.35 1412.63 182.79 1412.63 182.79L1341.43 182.999Z" fill="#2A282F"/>
<path d="M1434.76 182.454C1434.76 182.454 1433.96 164.34 1435.47 152.861C1436.98 141.382 1437.81 129.097 1440.83 117.53C1443.85 105.962 1440.87 106.044 1440.87 95.1381C1440.87 84.2353 1442.22 51.477 1442.22 51.477L1482.43 51.8709C1482.43 51.8709 1478.65 70.5303 1478.65 77.4183C1478.65 84.3036 1471.86 102.103 1478.66 110.136C1485.45 118.17 1490.76 136 1495.29 137.993C1499.82 139.983 1511.92 151.55 1511.92 151.55V182.999C1511.92 182.999 1486.52 169.321 1485.01 160.391C1483.5 151.462 1472.79 131.567 1472.79 131.567C1472.79 131.567 1464.95 155.781 1466.46 163.243C1467.98 170.704 1473.01 182.454 1473.01 182.454H1434.76Z" fill="#2A282F"/>
<path d="M1511.92 70.6506H0V7.12446L1511.92 7.28295V70.6506Z" fill="#3B3E47"/>
<path d="M0 70.6506H1511.92V50.8651L0 50.772V70.6506Z" fill="#2F2D32"/>
<path d="M1511.26 77.041H1.5481V70.6508H1511.26V77.041Z" fill="#232124"/>
<path d="M319.889 72.5139C319.889 72.5139 326.685 69.7165 329.328 69.5317C331.971 69.3447 338.39 65.6152 339.522 64.311C340.655 63.0048 340.655 55.7334 339.522 54.2428C338.39 52.7511 338.012 50.8651 338.012 50.8651C338.012 50.8651 333.291 49.0219 340.371 47.903C347.451 46.7842 352.737 45.6652 356.513 43.7993C360.289 41.936 364.442 36.5279 365.953 35.9688C367.463 35.4089 372.501 33.1729 372.501 33.1729L367.463 37.0878L359.156 45.8525L349.339 48.2748L342.543 51.4763C342.543 51.4763 345.693 55.1744 346.195 57.4121C346.696 59.6483 346.449 63.9365 346.195 65.8025C345.941 67.6657 342.165 71.3952 342.165 71.3952L319.889 72.5139Z" fill="#232124"/>
<path d="M336.502 50.865C336.502 50.865 334.992 50.2634 335.118 49.7035C335.242 49.1444 336.251 47.7156 337.885 47.5302C339.522 47.3429 347.578 46.0996 348.962 45.7897C350.345 45.4779 354.375 43.9864 355.38 43.4265C356.386 42.8674 360.038 40.3198 360.54 39.6353C361.044 38.9537 364.065 36.0305 364.065 36.0305L372.501 33.1728L365.197 36.0933L361.295 40.6941L356.513 43.7992C356.513 43.7992 351.478 45.7897 350.345 46.0369C349.212 46.2868 343.926 47.5302 343.549 47.5302C343.171 47.5302 338.39 48.2129 338.39 48.2129C338.39 48.2129 338.263 49.829 338.263 50.1388C338.263 50.4507 338.094 51.2039 338.094 51.2039L336.502 50.865Z" fill="#4D535C"/>
<path d="M337.472 50.5092L339.251 54.0643L340.233 59.2798L339.453 64.2664L333.282 67.6729L335.369 63.5647V54.4586L334.669 50.8651L337.472 50.5092Z" fill="#3B3E47"/>
<path d="M486.181 7.2246L489.419 9.86647V12.6927C489.419 12.6927 493.76 14.0927 494.515 14.59C495.27 15.0871 498.006 19.4382 498.006 19.4382L496.1 13.9684L492.44 12.2268V9.71043L487.622 7.25603L486.181 7.2246Z" fill="#232124"/>
<path d="M126.651 7.39719L113.161 21.2392L127.655 26.6515L117.455 32.2487L106.182 38.9541L119.871 32.7589L130.876 26.5532L117.187 20.6558L132.486 7.38159L126.651 7.39719Z" fill="#232124"/>
<path d="M126.651 7.39712L124.971 7.90913L112.087 21.4578L126.651 26.6158L116.257 32.9617L127.655 26.6514L113.161 21.2391L126.651 7.39712Z" fill="#4D535C"/>
<path d="M22.6145 71.5553C24.5024 71.5553 34.0029 69.0518 38.1562 69.0518C42.3095 69.0518 48.5715 68.7315 52.7248 69.1058C56.8781 69.4776 61.3298 67.3087 65.8607 68.9647C70.3916 70.6235 76.0162 70.4494 82.4349 71.1964C88.8537 71.9409 100.161 72.8795 106.202 73.0668C112.243 73.254 135.266 73.2556 145.838 71.9523C156.41 70.646 168.486 68.1288 179.436 68.363C190.385 68.5973 193.781 67.3557 196.424 68.3501C199.067 69.3445 213.036 72.8856 227.761 72.5138C242.487 72.1411 269.294 69.3445 280.999 69.3445C292.704 69.3445 300.561 70.202 312.337 70.5591C324.115 70.9178 331.793 71.9166 336.979 71.6554C342.166 71.395 350.72 71.2095 353.804 71.395C356.891 71.5822 399.683 72.5138 399.683 72.5138C399.683 72.5138 414.409 69.4934 415.415 67.96C416.421 66.424 409.373 69.1564 415.415 64.9308C421.456 60.7042 421.456 58.4707 423.471 59.0909C425.482 59.7099 424.643 62.6948 427.832 64.6833C431.022 66.6712 425.956 67.9155 434.278 69.4062C442.6 70.8977 460.219 72.8142 474.82 73.8443C489.419 74.877 540.264 74.0585 551.341 73.8443C562.417 73.6327 577.016 71.8921 582.051 70.6505C587.083 69.4062 598.664 70.6505 598.664 70.6505C598.664 70.6505 632.392 75.7974 642.964 73.8443C653.536 71.8921 656.557 70.6505 675.689 70.6505C694.818 70.6505 711.936 71.1476 726.03 70.8977C740.127 70.6505 737.016 66.1741 756.695 68.4119C776.374 70.6505 774.864 71.1476 787.952 71.8921C801.04 72.6384 811.612 73.8443 811.612 73.8443L842.827 74.3545C842.827 74.3545 856.419 72.1411 872.528 70.6505C888.637 69.1564 903.229 68.9089 910.784 69.1564C918.341 69.4062 915.822 70.4006 932.94 71.1476C950.057 71.8921 971.201 74.803 977.243 73.8443C983.284 72.8856 985.295 71.8921 994.357 70.6505C1003.42 69.4062 1021.04 73.3829 1021.54 72.6384C1022.05 71.8921 1020.54 68.1629 1034.63 68.1629C1048.73 68.1629 1049.74 68.66 1065.85 68.66C1081.95 68.66 1098 70.6505 1101.55 70.6505C1105.11 70.6505 1115.68 75.0529 1122.23 73.8443C1128.77 72.6384 1148.59 65.9251 1154.54 66.6712C1160.49 67.4184 1176.1 68.66 1177.61 68.9089C1179.12 69.1564 1193.72 72.6384 1200.77 72.6384C1207.81 72.6384 1224.65 68.9089 1239.64 68.9089C1254.63 68.9089 1257.65 69.1564 1269.73 68.9089C1281.82 68.66 1299.94 67.6656 1306.99 69.1564C1314.04 70.6505 1333.17 74.803 1335.68 73.8443C1338.2 72.8856 1351.29 70.6505 1356.33 70.6505C1361.36 70.6505 1384.01 68.66 1387.54 68.4119C1391.06 68.1629 1410.7 70.6505 1415.73 70.6505C1420.76 70.6505 1438.38 76.2945 1445.93 73.8443C1453.49 71.395 1478.66 64.5407 1483.69 66.7254C1488.73 68.9089 1496.78 71.395 1496.78 71.395L1511.26 70.6505L1507.35 74.25L1498.29 76.615H37.2147L22.6145 71.5553Z" fill="#232124"/>
<path d="M0.907715 7.12451C0.907715 7.12451 16.6973 5.01828 27.2693 5.01828C37.8413 5.01828 58.3589 5.01828 58.3589 5.01828C58.3589 5.01828 78.1153 6.3381 84.1565 5.12795C90.1976 3.9149 102.029 5.89674 106.182 6.05255C110.335 6.2068 119.871 7.36993 119.871 7.36993C119.871 7.36993 102.081 9.72781 88.5882 10.9721C75.0947 12.2139 49.4198 13.6583 38.3451 12.1669C27.2693 10.6752 0.907715 7.12451 0.907715 7.12451Z" fill="#3B3E47"/>
<path d="M137.52 8.84578C140.541 7.25602 148.092 4.65672 157.658 4.83795C167.222 5.01828 157.658 4.88677 188.366 4.82837C219.076 4.76818 221.09 4.15965 241.226 4.83795C261.364 5.51535 252.302 6.1484 276.971 4.83795C301.638 3.52659 311.204 2.28323 323.791 3.27761C336.375 4.27377 358.023 8.84578 358.023 8.84578C358.023 8.84578 339.9 16.2061 301.638 17.4477C263.378 18.6911 182.171 16.2061 176.207 15.4589C170.243 14.7147 137.52 8.84578 137.52 8.84578Z" fill="#3B3E47"/>
<path d="M486.622 7.22468C486.622 7.22468 478.343 5.51545 469.785 5.01837C461.228 4.52107 423.471 5.76532 418.435 5.01837C413.4 4.27386 399.684 7.25611 399.684 7.25611L372.501 8.50036C372.501 8.50036 450.656 12.9426 455.688 13.3303C460.724 13.7204 486.622 7.22468 486.622 7.22468Z" fill="#3B3E47"/>
<path d="M524.022 9.12195C526.421 7.25601 544.544 6.64123 554.361 4.89789C564.178 3.15477 568.709 3.15477 595.894 2.78029C623.079 2.40782 632.896 3.89928 649.509 2.78029C666.123 1.66331 694.063 0.794212 709.166 2.72033C724.269 4.64646 741.637 3.44902 752.209 5.35263C762.781 7.25601 800.539 5.35263 803.559 7.25601C806.58 9.16029 793.742 10.1163 786.946 13.3484C780.15 16.5779 767.614 20.3071 747.074 23.2893C726.534 26.2743 524.022 9.12195 524.022 9.12195Z" fill="#3B3E47"/>
<path d="M861.446 7.25614C861.446 7.25614 860.195 7.62861 886.625 4.64658C913.055 1.66345 919.852 -0.360083 947.792 1.5832C975.732 3.52671 993.856 3.06798 1024.82 4.04385C1055.78 5.01839 1067.1 7.25614 1081.45 7.25614C1095.8 7.25614 1131.29 2.69617 1135.82 4.04385C1140.35 5.39087 1159.23 12.4768 1145.64 14.3403C1132.05 16.2062 1034.63 19.1885 992.346 19.1885C950.057 19.1885 861.446 7.25614 861.446 7.25614Z" fill="#3B3E47"/>
<path d="M1206.81 7.2561C1206.81 7.2561 1235.5 5.01835 1249.85 4.64654C1264.2 4.27385 1292.89 3.15486 1311.77 2.78038C1330.65 2.4079 1374.45 2.78039 1383.51 5.01836C1392.57 7.2561 1418.25 7.2561 1426.55 7.2561C1434.86 7.2561 1475.64 2.52895 1482.43 2.65512C1489.23 2.78039 1511.92 7.28307 1511.92 7.28307L1463.56 24.0366C1463.56 24.0366 1278.34 20.3072 1275.04 20.3072C1271.75 20.3072 1206.81 7.2561 1206.81 7.2561Z" fill="#3B3E47"/>
<path d="M0 46.7843H37.2145C37.2145 46.7843 48.9168 45.6183 57.4747 46.8931C66.0326 48.1661 72.5776 48.9663 79.6252 48.9663C86.674 48.9663 104.778 47.7515 112.087 48.9951C119.397 50.2366 125.438 50.7478 125.438 50.7478C125.438 50.7478 117.635 52.1826 106.182 52.8357C94.7281 53.4888 86.674 50.4464 75.0943 52.8402C63.5159 55.232 36.3306 51.708 33.3101 51.9555C30.2895 52.2053 14.1802 52.7512 14.1802 52.7512H0V46.7843Z" fill="#32343A"/>
<path d="M335.11 50.8651C331.216 50.1389 318.379 48.0875 314.225 48.462C310.072 48.8347 306.674 47.8116 287.039 48.4176C267.406 49.0219 270.804 48.5405 250.415 48.2217C230.026 47.903 205.343 49.5061 202.959 49.5435C200.575 49.5816 175.655 50.179 171.502 50.0676C167.349 49.9534 154.511 50.8651 160.93 50.8651C167.349 50.8651 174.9 52.5639 190.003 52.8425C205.106 53.1229 228.138 53.7141 238.332 53.6985C248.527 53.6829 247.772 53.7141 263.63 53.6985C279.488 53.6829 285.529 54.2827 296.479 53.7029C307.429 53.1229 320.644 53.1229 324.42 52.8425C328.196 52.5639 335.11 50.8651 335.11 50.8651Z" fill="#32343A"/>
<path d="M385.209 51.2038C392.006 50.865 406.353 49.0218 417.68 49.2073C429.008 49.3945 427.875 50.6307 441.09 50.199C454.305 49.7663 461.479 49.3673 478.092 49.1932C494.705 49.0218 507.165 48.4619 520.003 47.3429C532.84 46.2241 567.577 48.5943 573.24 49.2735C578.904 49.9533 598.538 48.0874 606.089 48.0874C613.641 48.0874 620.815 50.865 620.815 50.865C620.815 50.865 600.803 53.1228 590.231 52.8424C579.659 52.5638 562.668 53.1228 544.922 52.8424C527.177 52.5638 505.628 50.9651 492.425 51.2038C479.225 51.445 467.898 52.751 453.55 52.8424C439.202 52.9356 430.14 52.165 419.946 52.9251C409.751 53.6827 385.209 51.2038 385.209 51.2038Z" fill="#32343A"/>
<path d="M677.701 50.8653C681.73 50.0165 695.323 46.5657 709.417 47.0472C723.514 47.5304 745.664 49.0952 763.787 48.9332C781.911 48.7722 789.967 49.0952 812.621 48.9332C835.276 48.7722 843.709 46.8156 857.869 47.0472C872.024 47.2814 890.652 49.6037 894.177 50.0582C897.699 50.5136 908.271 51.4765 908.271 51.4765C908.271 51.4765 904.749 52.6399 886.121 53.0683C867.493 53.4958 887.127 53.7457 836.786 54.7401C786.442 55.7336 764.594 53.9929 747.075 55.7336C729.555 57.4751 691.366 57.225 687.805 55.7336C684.247 54.243 677.701 50.8653 677.701 50.8653Z" fill="#32343A"/>
<path d="M960.125 50.8652C960.125 50.8652 969.692 46.2243 989.827 47.0027C1009.97 47.7786 1032.11 50.7607 1053.26 50.2636C1074.4 49.7665 1094.74 50.0033 1116.79 48.8905C1138.84 47.7787 1139.85 47.5417 1162 46.9131C1184.15 46.287 1205.3 46.5473 1218.39 46.9131C1231.47 47.2814 1256.65 45.727 1267.72 47.0027C1278.8 48.2748 1301.96 47.0917 1311.02 48.679C1320.08 50.2636 1364.63 46.1512 1368.41 48.679C1372.18 51.204 1411.7 48.5831 1420.76 48.679C1429.83 48.7721 1457.01 50.7607 1457.01 50.7607C1457.01 50.7607 1417.74 52.2515 1408.68 53.7456C1399.62 55.2364 1270.74 50.698 1265.71 51.4764C1260.67 52.2515 1254.57 52.3611 1223.39 54.0485C1192.21 55.7335 1183.26 52.3611 1150.48 54.0485C1117.7 55.7335 1089.51 53.3354 1071.38 54.5345C1053.26 55.7335 1035.9 55.1031 1011.35 54.6729C986.806 54.2429 960.125 50.8652 960.125 50.8652Z" fill="#32343A"/>
<path d="M629.752 26.29L615.278 32.7144L637.113 40.7746L638.968 50.8452L646.127 56.9377C646.127 56.9377 644.607 67.7773 643.475 67.9062C642.342 68.0334 628.369 70.3677 628.369 70.3677C628.369 70.3677 639.315 72.1414 641.958 72.1414C644.601 72.1414 662.474 72.1414 662.474 72.1414C662.474 72.1414 654.041 68.6063 653.663 67.8018C653.286 66.9998 651.02 62.7437 651.398 60.7045C651.775 58.6627 652.908 58.1342 651.775 56.9194C650.643 55.7066 644.224 50.4997 644.224 50.4997C644.224 50.4997 646.112 48.706 651.02 46.9959C655.929 45.2858 666.878 42.4934 669.521 41.7462C672.164 41 673.297 37.6468 674.052 37.088C674.807 36.528 706.901 31.308 706.901 31.308L671.409 35.409C671.409 35.409 669.144 38.2067 668.011 38.9539C666.878 39.6984 648.755 45.2927 648.755 45.2927L644.224 47.0028L639.693 38.9539L620.814 32.4268L629.752 26.29Z" fill="#232124"/>
<path d="M908.27 70.6507C910.783 69.1565 920.606 63.5647 922.872 62.073C925.137 60.5816 924.76 57.7892 922.872 56.9462C920.984 56.1061 920.229 50.8582 920.229 50.8582L910.783 38.9538C910.783 38.9538 939.485 33.1729 942.506 32.2412C945.526 31.3079 970.068 23.2893 970.068 23.2893L948.547 32.6139L919.474 39.8853L927.78 50.8582C927.78 50.8582 931.598 55.3634 931.955 56.9462C932.311 58.5311 934.199 63.192 933.066 65.428C931.934 67.6657 929.291 72.5139 929.291 72.5139L908.27 70.6507Z" fill="#232124"/>
<path d="M1144.19 8.0003C1144.19 8.0003 1147.52 11.5922 1150.48 12.3367C1153.44 13.0828 1158.16 14.893 1154.54 17.1307C1150.93 19.3669 1144.19 24.6226 1144.19 24.6226L1157.72 16.6849C1157.72 16.6849 1158.85 14.8618 1157.72 14.1146C1156.59 13.3683 1153.76 12.2852 1152.81 11.8193C1151.87 11.3535 1150.04 8.0003 1150.04 8.0003H1144.19Z" fill="#232124"/>
<path d="M1291.13 69.7363C1292.64 69.3645 1298.93 64.9525 1298.93 64.2577C1298.93 63.5647 1298.93 51.4763 1298.93 51.4763C1298.93 51.4763 1297.23 49.5417 1295.22 48.6474C1293.21 47.7532 1287.39 47.3169 1285.88 46.4897C1284.37 45.6652 1278.81 44.1737 1278.81 44.1737C1278.81 44.1737 1293.21 37.2748 1292.46 36.5279C1291.7 35.7834 1270.59 32.0542 1270.59 32.0542L1267.96 25.7152L1272.87 30.1889L1299.81 35.7834C1299.81 35.7834 1287.23 42.4948 1287.23 43.0548C1287.23 43.6138 1299.97 47.8646 1299.97 47.8646L1306.86 50.8582C1306.86 50.8582 1305.73 52.5639 1306.86 54.4274C1308 56.2933 1305.35 64.2178 1306.86 64.9621C1308.37 65.7084 1311.77 70.6506 1311.77 70.6506H1296.8L1291.13 69.7363Z" fill="#232124"/>
<path d="M484.985 6.89714L489.419 9.86647V12.6927L494.515 14.59L498.006 19.4382L492.518 14.8372L486.398 13.0357V9.71043L484.985 6.89714Z" fill="#4D535C"/>
<path d="M629.752 26.2896L615.278 32.714L637.113 40.7742L638.968 50.8448L646.127 56.9373L643.475 67.9058L644.411 56.946L635.727 50.8649L635.162 41.6571L612.508 32.3326L629.752 26.2896Z" fill="#4D535C"/>
<path d="M700.416 32.057L671.409 35.4092L668.011 38.9541L651.035 44.5842L665.619 38.3202L669.521 34.2931L700.416 32.057Z" fill="#4D535C"/>
<path d="M970.068 23.2894L942.506 32.2413L910.783 38.9539L920.229 50.8583C920.229 50.8583 921.226 54.7819 921.455 55.2277C921.682 55.6735 924.186 58.2639 924.186 58.2639L923.458 61.5787L917.172 65.4856L920.606 60.7576L921.361 57.4751L918.842 55.2277L918.087 50.8652L908.27 38.3313L941.246 31.6196L970.068 23.2894Z" fill="#4D535C"/>
<path d="M1141.86 6.72828V8.21908L1148.11 11.6409L1154.04 13.8142L1155.7 15.3164C1155.7 15.3164 1155.58 16.4108 1155.03 16.7991C1154.49 17.185 1144.87 24.1011 1144.87 24.1011C1144.87 24.1011 1154.22 16.7566 1154.22 16.4351C1154.22 16.1121 1154.22 14.7148 1153.18 14.1557C1152.15 13.5958 1148 12.1982 1147.62 12.0111C1147.24 11.8239 1140.85 8.21908 1140.85 8.21908L1141.86 6.72828Z" fill="#4D535C"/>
<path d="M1267.97 25.7153L1270.62 32.0542L1292.17 36.5279L1291.78 37.2167L1278.84 44.1738L1288.17 47.1028L1276.26 44.7335L1288.04 36.9024L1266.59 32.5199L1267.97 25.7153Z" fill="#4D535C"/>
</svg>
