<svg width="204" height="242" viewBox="0 0 204 242" fill="none" xmlns="http://www.w3.org/2000/svg">
<path d="M63.0749 94.6839C62.1816 94.6052 42.0322 121.995 42.0322 121.995L59.7175 143.709L90.8349 135.651L91.7296 117.071C91.7296 117.071 63.9696 94.7612 63.0749 94.6839Z" fill="#452A29"/>
<path d="M113.799 42.5238H88.4645L81.8818 67.1492H120.383L113.799 42.5238Z" fill="#452A29"/>
<path d="M129.01 3.01531e-05L69.9102 0.129392L69.9542 20.128C74.1542 29.9694 123.706 31.3521 129.054 19.9987L129.01 3.01531e-05Z" fill="#647870"/>
<path d="M75.1648 3.79605C75.1648 2.55338 75.1968 1.32673 75.2581 0.117401L69.9102 0.12938L69.9542 20.128C70.9128 22.372 74.2328 24.1747 78.8448 25.488C76.5421 19.5134 75.1648 11.984 75.1648 3.79605Z" fill="#769287"/>
<path d="M129.01 5.04917e-05L109.541 0.0427588C109.605 1.27609 109.64 2.52675 109.64 3.79608C109.64 13.1334 107.85 21.6148 104.936 27.9094C116.39 27.3788 126.766 24.8547 129.054 19.9987L129.01 5.04917e-05Z" fill="#769287"/>
<path d="M118.594 7.52658C118.594 14.4452 118.724 20.8319 118.944 25.9919C119.974 25.7253 120.948 25.4306 121.86 25.1079C122.059 20.1092 122.175 14.0546 122.175 7.52658C122.175 4.93591 122.156 2.42127 122.122 0.0146012L118.647 0.022609C118.612 2.42661 118.594 4.93858 118.594 7.52658Z" fill="#87A498"/>
<path d="M70.1553 20.4907C75.4886 29.8227 122.411 31.2013 128.791 20.5213C118.875 25.3387 77.3153 22.9227 70.1553 20.4907Z" fill="#52605B"/>
<path d="M83.4395 48.4053L100.685 55.8813C100.685 55.8813 120.166 48.1293 120.206 47.2987C120.247 46.4667 116.676 27.9173 116.132 26.8093C115.589 25.7013 88.2235 23.764 86.2568 27.3627C84.2902 30.9627 83.4395 48.4053 83.4395 48.4053Z" fill="#769287"/>
<path d="M101.133 45.2853C93.8701 45.2853 89.0328 46.9987 83.4528 48.1427C83.4435 48.308 83.4395 48.4053 83.4395 48.4053L100.685 55.8813C100.685 55.8813 117.157 49.3253 119.83 47.628C114.85 46.8013 107.223 45.2853 101.133 45.2853Z" fill="#52605B"/>
<path d="M97.7739 58.4172L77.4526 53.3438L57.0312 94.1612L90.1086 121.621L109.415 122.219L97.7739 58.4172Z" fill="#647870"/>
<path d="M90.387 54.6121C90.387 55.2841 80.9844 116.175 80.9844 116.175L94.4163 124.681L104.938 112.816L98.2217 53.9414L90.387 54.6121Z" fill="#452A29"/>
<path d="M108.147 58.2692L126.055 53.1945L142.473 88.1172L127.847 110.205L110.833 110.802L108.147 58.2692Z" fill="#647870"/>
<path d="M111.206 55.9559L125.981 105.429L111.535 117.441L100.685 55.8812L111.206 55.9559Z" fill="#452A29"/>
<path d="M117.399 108.712C117.399 108.712 135.01 98.5639 135.906 98.2652C136.802 97.9665 158.889 114.683 158.889 114.683L147.249 138.86L122.175 137.964L110.235 124.831L117.399 108.712Z" fill="#452A29"/>
<path d="M143.043 150.836C142.206 146.129 141.269 119.144 142.309 117.261C143.346 115.379 169.634 107.22 169.634 107.22C183.547 117.359 196.549 132.965 201.403 152.719C206.615 173.925 199.389 202.411 180.827 231.165L168.91 223.007C178.186 171.547 143.043 150.836 143.043 150.836Z" fill="#52605B"/>
<path d="M201.405 152.718C196.549 132.965 183.548 117.359 169.634 107.22C169.634 107.22 154.029 112.064 146.392 115.148C175.712 134.804 186.372 168.437 187.096 171.692C187.99 175.723 187.096 199.002 187.096 199.002L194.616 205.117C202.636 185.705 205.026 167.454 201.405 152.718Z" fill="#87A498"/>
<path d="M201.404 152.719C196.548 132.965 183.547 117.359 169.633 107.22C169.633 107.22 166.38 108.231 162.12 109.62C185.867 123.728 200.155 148.821 202.981 169.923C203.22 163.807 202.708 158.031 201.404 152.719Z" fill="#B1C8BB"/>
<path d="M181.136 214.445L179.622 213.56C179.751 213.34 192.306 191.404 184.128 165.561C173.831 133.021 142.914 114.651 142.602 114.469L143.486 112.955C143.804 113.14 175.295 131.833 185.8 165.032C194.219 191.639 181.267 214.221 181.136 214.445Z" fill="#452A29"/>
<path d="M87.2529 93.1907C87.8503 94.0867 99.193 103.936 99.193 103.936H111.132L119.788 91.1027L107.849 49.6121C107.849 49.6121 102.177 46.3294 100.685 46.628C99.193 46.9267 92.3276 50.2094 92.3276 50.2094L87.2529 93.1907Z" fill="#769287"/>
<path d="M118.286 93.3279L119.787 91.1026L107.849 49.6119C107.849 49.6119 102.177 46.3292 100.685 46.6279C100.293 46.7066 99.5247 46.9946 98.6113 47.3719L102.774 86.9226L118.286 93.3279Z" fill="#87A498"/>
<path d="M119.781 91.0747L106.282 85.0574H102.924L87.2583 93.1547L87.2529 93.1907C87.8503 94.0867 99.193 103.936 99.193 103.936H111.132L119.788 91.1027L119.781 91.0747Z" fill="#52605B"/>
<path d="M99.1182 97.0345C99.1182 99.3839 101.674 101.288 104.826 101.288C107.98 101.288 110.535 99.3839 110.535 97.0345C110.535 94.6852 107.98 92.7812 104.826 92.7812C101.674 92.7812 99.1182 94.6852 99.1182 97.0345Z" fill="#452A29"/>
<path d="M91.7299 138.56C91.7299 138.56 84.2686 132.889 84.2686 130.8C84.2686 128.711 88.1486 103.041 88.1486 103.041C88.1486 103.041 104.266 94.9827 105.162 94.9827C106.058 94.9827 120.086 101.548 120.086 101.548C120.086 101.548 125.758 125.428 125.758 126.92C125.758 128.412 117.399 139.456 117.399 139.456L91.7299 138.56Z" fill="#769287"/>
<path d="M125.758 126.92C125.758 125.428 120.086 101.548 120.086 101.548C120.086 101.548 106.058 94.9825 105.162 94.9825C105.161 94.9825 105.16 94.9825 105.158 94.9825C104.49 100.952 105.4 109.51 106.729 112.369C108.997 117.245 125.758 127.037 125.758 126.92Z" fill="#87A498"/>
<path d="M68.4738 149.851L58.7165 124.257L35.3165 115.727C19.0538 125.976 0.108496 153.833 0.507163 182.412C0.771163 201.409 10.4645 226.181 27.4818 241.537L38.8765 232.197C26.0472 179.6 68.4738 149.851 68.4738 149.851Z" fill="#87A498"/>
<path d="M68.474 149.851L58.774 124.405C37.3314 151.321 20.6327 181.271 29.646 231.091L20.0273 233.68C22.3273 236.492 24.814 239.131 27.482 241.537L38.8767 232.197C26.0474 179.6 68.474 149.851 68.474 149.851Z" fill="#52605B"/>
<path d="M109.34 240.94C109.34 240.94 74.119 188.109 79.4923 144.232C79.4923 144.232 92.9243 125.428 107.251 119.16C107.251 119.16 131.727 130.8 135.308 140.352C135.308 140.352 142.174 196.765 124.264 231.389L109.34 240.94Z" fill="#87A498"/>
<path d="M124.014 135.819C124.014 135.819 134.871 186.949 125.614 228.628C141.815 193.852 135.308 140.352 135.308 140.352C131.727 130.8 107.251 119.16 107.251 119.16C106.274 119.587 105.3 120.077 104.335 120.612C112.555 124.803 121.391 130.345 124.014 135.819Z" fill="#B1C8BB"/>
<path d="M135.308 140.352C134.724 138.796 133.58 137.184 132.084 135.577C141.875 195.645 122.772 229.896 122.772 229.896L110.535 234.075C89.075 204.951 80.3189 170.533 81.1776 142.004C80.0976 143.387 79.4923 144.232 79.4923 144.232C74.119 188.109 109.34 240.94 109.34 240.94L124.264 231.389C142.174 196.765 135.308 140.352 135.308 140.352Z" fill="#52605B"/>
<path d="M116.718 232.191L122.772 229.896C113.732 207.88 112.904 165.064 112.301 121.677C110.443 120.711 108.957 119.984 108.091 119.571L116.718 232.191Z" fill="#B1C8BB"/>
<path d="M105.666 119.909L116.131 234.821H117.251L109.414 120.236C108.067 119.548 107.251 119.16 107.251 119.16C106.721 119.391 106.193 119.645 105.666 119.909Z" fill="#52605B"/>
<path d="M125.758 108.339L137.846 115.727L155.755 108.787L140.308 96.9226L125.758 108.339Z" fill="#647870"/>
<path d="M43.8232 116.175L63.2993 122.443L76.0606 115.951L56.1366 99.1612L43.8232 116.175Z" fill="#647870"/>
<path d="M45.2295 114.232C55.5175 117.385 65.0482 115.867 66.8082 110.652C67.0548 109.921 67.1308 109.155 67.0602 108.367L56.1362 99.1613L45.2295 114.232Z" fill="#769287"/>
<path d="M113.707 56.6933L125.758 91.9973L142.444 88.06L126.055 53.1946L113.707 56.6933Z" fill="#87A498"/>
<path d="M76.0606 99.1611L87.1233 55.7585L77.4526 53.3438L57.0566 94.1118C64.99 96.1078 76.0606 99.1611 76.0606 99.1611Z" fill="#87A498"/>
<path d="M103.064 97.1573C103.064 97.1573 103.049 113.281 101.8 115.187C100.551 117.091 86.2148 127.579 86.2148 127.579C90.8402 114.62 96.1189 103.516 103.064 97.1573Z" fill="#87A498"/>
<path d="M151.054 108.863C152.58 108.863 154.052 108.752 155.465 108.564L140.308 96.9226L133.967 101.897C135.741 105.884 142.71 108.863 151.054 108.863Z" fill="#87A498"/>
<path d="M72.8135 99.1612C72.8135 100.768 74.1162 102.071 75.7242 102.071C77.3308 102.071 78.6335 100.768 78.6335 99.1612C78.6335 97.5532 77.3308 96.2506 75.7242 96.2506C74.1162 96.2506 72.8135 97.5532 72.8135 99.1612Z" fill="#452A29"/>
<path d="M130.495 108.553C130.495 109.3 131.1 109.907 131.848 109.907C132.594 109.907 133.2 109.3 133.2 108.553C133.2 107.807 132.594 107.201 131.848 107.201C131.1 107.201 130.495 107.807 130.495 108.553Z" fill="#452A29"/>
<path d="M137.688 113.04C137.688 113.788 138.293 114.393 139.039 114.393C139.787 114.393 140.393 113.788 140.393 113.04C140.393 112.293 139.787 111.688 139.039 111.688C138.293 111.688 137.688 112.293 137.688 113.04Z" fill="#452A29"/>
<path d="M83.6801 132.328L82.4668 131.063C85.5628 128.092 101.164 113.244 104.243 112.629C107.374 112.008 123.727 123.899 128.667 127.559L127.623 128.967C117.688 121.607 106.372 114.115 104.582 114.349C102.812 114.703 92.4908 123.877 83.6801 132.328Z" fill="#452A29"/>
<path d="M32.5201 237.908C14.6214 203.312 41.4894 133.037 60.1694 122.793L61.0121 124.332C52.0041 129.272 41.0214 148.849 34.3054 171.939C26.5427 198.625 26.4587 222.377 34.0774 237.103L32.5201 237.908Z" fill="#452A29"/>
</svg>
