<svg width="106" height="268" viewBox="0 0 106 268" fill="none" xmlns="http://www.w3.org/2000/svg">
<path d="M81.0569 147.744C81.0569 147.744 73.6387 160.38 76.7387 161.495C78.1049 161.986 80.859 156.894 80.859 156.894C80.859 156.894 77.465 167.211 80.2213 167.52C82.7782 167.806 84.4785 158.096 84.4785 158.096C84.4785 158.096 82.7603 168.39 85.2665 168.691C87.7133 168.984 88.188 158.779 88.188 158.779C88.188 158.779 88.1902 168.731 90.6384 168.37C93.5056 167.948 91.5403 146.136 91.5403 146.136L81.0569 147.744Z" fill="#FEC09B"/>
<path d="M79.0314 59.5419C79.0314 59.5419 84.8245 65.399 88.3205 85.7094C91.8164 106.019 92.6424 151.868 92.6424 151.868C92.6424 151.868 86.0032 156.522 77.7508 152.359C77.7508 152.359 72.5522 115.095 72.4592 87.0771C72.4592 87.0771 75.2617 61.9574 79.0314 59.5419Z" fill="#1D2330"/>
<path d="M75.743 135.904C75.743 135.904 85.7315 138.029 92.105 133.836L92.2308 137.247C92.2308 137.247 83.284 142.503 76.0622 138.757L75.743 135.904Z" fill="#FFD000"/>
<path d="M76.1605 139.613C76.1605 139.613 83.4009 143.394 92.2673 138.304L92.3692 141.412C92.3692 141.412 82.8465 145.777 76.4849 142.381L76.1605 139.613Z" fill="#FF8D00"/>
<path d="M76.668 143.905C76.668 143.905 84.192 146.898 92.4184 143.015L92.4957 145.719C92.4957 145.719 83.4173 149.376 76.9389 146.116L76.668 143.905Z" fill="#FFD000"/>
<path d="M12.537 147.511C12.537 147.511 18.6932 160.808 15.4986 161.616C14.0915 161.973 11.8457 156.637 11.8457 156.637C11.8457 156.637 14.221 167.235 11.4476 167.275C8.87585 167.311 8.12651 157.483 8.12651 157.483C8.12651 157.483 8.83643 167.895 6.31232 167.95C3.84849 168.005 4.36791 157.802 4.36791 157.802C4.36791 157.802 3.39904 167.706 0.997721 167.109C-1.81511 166.41 2.25977 144.892 2.25977 144.892L12.537 147.511Z" fill="#FEC09B"/>
<path d="M23.2942 59.8703C23.2942 59.8703 16.7867 65.1908 11.3345 85.0644C5.88219 104.939 0.60556 150.491 0.60556 150.491C0.60556 150.491 6.76179 155.768 15.3796 152.426C15.3796 152.426 24.1738 115.843 26.9873 87.9666C26.9873 87.9666 26.8117 62.6399 23.2942 59.8703Z" fill="#1D2330"/>
<path d="M68.6344 257.373C68.6344 257.373 67.9223 259.829 68.6344 263.073C68.6344 263.073 79.1676 263.274 82.412 264.219C85.6572 265.172 85.2554 266.399 91.2702 266.794C97.2851 267.188 105.2 266.399 105.2 266.399C105.2 266.399 107.099 263.229 104.013 260.938C100.926 258.638 86.6008 255.237 86.6008 255.237L85.8887 253.496L69.0303 254.211L68.6344 257.373Z" fill="#0D0105"/>
<path d="M68.6343 263.074L69.0882 267.427H79.5567L80.4273 264.659L86.6007 267.427H104.804L105.427 265.916H87.0479L80.6648 263.074H68.6343Z" fill="#2D2D2D"/>
<path d="M39.4851 257.373C39.4851 257.373 40.1973 259.829 39.4851 263.073C39.4851 263.073 28.9527 263.274 25.7075 264.219C22.4623 265.172 22.8649 266.399 16.8493 266.794C10.8345 267.188 2.91984 266.399 2.91984 266.399C2.91984 266.399 1.02084 263.229 4.10751 260.938C7.19418 258.638 21.5195 255.237 21.5195 255.237L22.2316 253.496L39.0892 254.211L39.4851 257.373Z" fill="#0D0105"/>
<path d="M39.4851 263.074L39.0319 267.427H28.5627L27.6921 264.659L21.5195 267.427H3.31575L2.69217 265.916H21.0715L27.4547 263.074H39.4851Z" fill="#2D2D2D"/>
<path d="M81.5785 143.958L88.1932 253.496C88.1932 253.496 77.113 259.71 66.5597 256.547L58.5312 151.019L48.8843 153.393L40.9696 256.279C40.9696 256.279 24.935 262.054 20.0252 255.602L25.668 138.62H80.8061L81.5785 143.958Z" fill="#1D2330"/>
<path d="M32.264 57.6276C32.264 57.6276 26.4597 57.3642 23.2942 59.8704L26.9873 87.9667L24.2177 140.862C24.2177 140.862 42.8664 151.151 61.9021 144.556C61.9021 144.556 77.3764 147.194 83.444 142.972L80.6744 87.9667C80.6744 87.9667 79.2948 61.1257 79.0313 59.5422C79.0313 59.5422 71.0281 57.5487 66.2277 56.9683L32.264 57.6276Z" fill="#222C3E"/>
<path d="M61.8776 54.7261C61.8776 54.7261 53.963 52.4833 41.4973 54.7261C41.4973 54.7261 47.5649 73.6546 53.0395 76.9526C53.0395 76.9526 62.3032 61.6168 61.8776 54.7261Z" fill="white"/>
<path d="M34.6579 30.1971C34.6579 30.1971 23.7556 29.0735 23.3597 18.5849C22.9645 8.09634 37.592 0.907252 49.8337 0.907252C62.0748 0.907252 75.4788 3.41349 75.4639 17.0349C75.4491 30.3899 34.6579 30.1971 34.6579 30.1971Z" fill="#E0E0E0"/>
<path d="M65.6809 24.0345C65.6809 24.0345 70.0281 50.5703 54.213 50.5703C38.3979 50.5703 36.4193 44.3702 35.8909 38.1046C35.3634 31.839 34.2866 25.3539 34.2866 25.3539C34.2866 25.3539 56.7766 18.2965 65.6809 24.0345Z" fill="#FEC09B"/>
<path d="M54.6052 38.5444C55.0308 38.5645 55.4215 38.4499 55.7928 38.4529C58.3898 38.4759 59.788 40.0713 60.3104 41.669C60.3104 41.669 54.4548 44.8494 48.1156 42.9139C48.1156 42.9139 47.9474 38.2229 54.6052 38.5444Z" fill="#4A5156"/>
<path d="M60.649 29.2391C61.5144 29.0218 62.3917 29.5471 62.609 30.4126C62.8263 31.278 62.3002 32.1553 61.4356 32.3719C60.5701 32.5892 59.6928 32.0638 59.4755 31.1984C59.259 30.3329 59.7843 29.4556 60.649 29.2391Z" fill="#3E444E"/>
<path d="M42.8329 29.2391C43.6984 29.0218 44.5757 29.5471 44.7922 30.4126C45.0095 31.278 44.4842 32.1553 43.6187 32.3719C42.7533 32.5892 41.876 32.0638 41.6594 31.1984C41.4421 30.3329 41.9675 29.4556 42.8329 29.2391Z" fill="#3E444E"/>
<path d="M52.5476 38.001L55.8457 35.9419C55.8457 35.9419 56.4395 39.5331 52.5476 38.001Z" fill="#FA9480"/>
<path d="M65.8565 20.9572C65.8565 20.9572 65.5045 16.9999 64.2514 14.6916C64.2514 14.6916 51.1606 7.65207 35.1602 15.8599C34.1713 16.3666 33.5827 17.4203 33.6437 18.5298L33.8468 22.188C33.8468 22.188 51.7641 17.3958 65.8565 20.9572Z" fill="#1D2330"/>
<path d="M50.9946 8.09612C53.4636 8.09612 55.4646 10.0971 55.4646 12.5654C55.4646 15.0337 53.4636 17.0347 50.9946 17.0347C48.5263 17.0347 46.5254 15.0337 46.5254 12.5654C46.5254 10.0971 48.5263 8.09612 50.9946 8.09612Z" fill="#FFD000"/>
<path d="M34.2866 25.3545C34.2866 25.3545 32.9673 24.2985 33.8468 22.1882C33.8468 22.1882 53.6334 14.9775 65.8565 20.9574C65.8565 20.9574 66.5597 22.1004 65.6809 24.0351C65.6809 24.0351 57.5021 19.99 34.2866 25.3545Z" fill="#FFD000"/>
<path d="M34.2866 25.354C34.6601 32.6525 35.3024 33.4019 35.3024 33.4019C38.9962 32.6108 41.6104 24.2557 41.6104 24.2557L34.2866 25.354Z" fill="#4A5156"/>
<path d="M35.5352 30.4561C35.5352 30.4561 29.7146 30.6086 30.9067 34.3977C32.0988 38.1876 36.3426 35.9106 36.3426 35.9106L35.5352 30.4561Z" fill="#FEC09B"/>
<path d="M35.7808 32.1158L36.1521 34.6205C36.1521 34.6205 33.9651 35.1131 33.5916 33.5363C33.218 31.9587 35.7808 32.1158 35.7808 32.1158Z" fill="#FA9480"/>
<path d="M65.6809 24.0344C65.6809 24.0344 69.1106 26.6724 67.8791 28.5632C66.6483 30.4541 47.7138 30.3402 44.0035 28.6116C37.8123 25.7273 34.2866 25.3538 34.2866 25.3538C34.2866 25.3538 57.0184 20.2527 65.6809 24.0344Z" fill="#1D2330"/>
<path d="M59.8617 88.89L61.9021 144.556L60.8819 144.892L58.5312 88.6534L59.8617 88.89Z" fill="#1D2330"/>
<path d="M45.011 97.7683C45.7894 97.7683 46.4212 98.4001 46.4212 99.1792C46.4212 99.9576 45.7894 100.589 45.011 100.589C44.2319 100.589 43.6002 99.9576 43.6002 99.1792C43.6002 98.4001 44.2319 97.7683 45.011 97.7683Z" fill="#FFD000"/>
<path d="M54.7793 97.7683C55.5584 97.7683 56.1902 98.4001 56.1902 99.1792C56.1902 99.9576 55.5584 100.589 54.7793 100.589C54.001 100.589 53.3692 99.9576 53.3692 99.1792C53.3692 98.4001 54.001 97.7683 54.7793 97.7683Z" fill="#FFD000"/>
<path d="M45.011 113.202C45.7894 113.202 46.4212 113.834 46.4212 114.613C46.4212 115.391 45.7894 116.023 45.011 116.023C44.2319 116.023 43.6002 115.391 43.6002 114.613C43.6002 113.834 44.2319 113.202 45.011 113.202Z" fill="#FFD000"/>
<path d="M54.7793 113.202C55.5584 113.202 56.1902 113.834 56.1902 114.613C56.1902 115.391 55.5584 116.023 54.7793 116.023C54.001 116.023 53.3692 115.391 53.3692 114.613C53.3692 113.834 54.001 113.202 54.7793 113.202Z" fill="#FFD000"/>
<path d="M45.011 128.635C45.7894 128.635 46.4212 129.267 46.4212 130.046C46.4212 130.824 45.7894 131.456 45.011 131.456C44.2319 131.456 43.6002 130.824 43.6002 130.046C43.6002 129.267 44.2319 128.635 45.011 128.635Z" fill="#FFD000"/>
<path d="M54.7793 128.635C55.5584 128.635 56.1902 129.267 56.1902 130.046C56.1902 130.824 55.5584 131.456 54.7793 131.456C54.001 131.456 53.3692 130.824 53.3692 130.046C53.3692 129.267 54.001 128.635 54.7793 128.635Z" fill="#FFD000"/>
<path d="M44.0035 88.5381H46.4212V86.1196H44.0035V88.5381Z" fill="#FF8D00"/>
<path d="M39.1674 88.5381H41.585V86.1196H39.1674V88.5381Z" fill="#FF8D00"/>
<path d="M41.585 88.5381H44.0035V86.1196H41.585V88.5381Z" fill="#FFD000"/>
<path d="M36.7497 88.5381H39.1674V86.1196H36.7497V88.5381Z" fill="#FFD000"/>
<path d="M73.0463 88.5381H75.464V86.1196H73.0463V88.5381Z" fill="#FF8D00"/>
<path d="M68.2102 88.5381H70.6279V86.1196H68.2102V88.5381Z" fill="#FF8D00"/>
<path d="M70.6279 88.5381H73.0464V86.1196H70.6279V88.5381Z" fill="#FFD000"/>
<path d="M65.7925 88.5381H68.2102V86.1196H65.7925V88.5381Z" fill="#FFD000"/>
<path d="M18.976 136.243C18.976 136.243 8.82827 137.388 2.89231 132.596L2.43613 135.979C2.43613 135.979 10.8292 142.079 18.3807 139.052L18.976 136.243Z" fill="#FFD000"/>
<path d="M18.1999 139.895C18.1999 139.895 10.6269 142.954 2.29702 137.027L1.89371 140.11C1.89371 140.11 10.9476 145.38 17.6091 142.618L18.1999 139.895Z" fill="#FF8D00"/>
<path d="M17.2787 144.117C17.2787 144.117 9.49875 146.365 1.68906 141.701L1.34897 144.385C1.34897 144.385 10.0293 148.907 16.7935 146.292L17.2787 144.117Z" fill="#FFD000"/>
<path d="M55.8776 60.6175C55.8776 60.6175 55.1283 63.6952 54.5561 64.6626H51.2149C51.2149 64.6626 49.3241 62.201 49.1924 60.8816L53.0172 58.3449L55.8776 60.6175Z" fill="#002643"/>
<path d="M52.5476 59.2111C52.5476 59.2111 50.1598 64.9707 48.7526 64.9707C47.3454 64.9707 43.1247 56.6602 43.6076 54.4181C44.0913 52.1753 56.755 50.0649 59.0849 53.6264C61.4155 57.1878 57.8102 64.3992 57.2826 64.7073C56.755 65.0146 52.5476 59.2111 52.5476 59.2111Z" fill="#E0E0E0"/>
<path d="M55.5457 49.7128L55.8776 55.5833C55.8776 55.5833 54.1006 59.2109 52.5476 59.2109C50.9946 59.2109 47.4994 54.8578 47.4994 54.8578L47.1698 49.1197L55.5457 49.7128Z" fill="#FEC09B"/>
<path d="M54.556 64.6628L55.6559 75.4795L52.8855 78.9971C52.8855 78.9971 48.4884 75.3478 48.4884 75.2161C48.4884 75.0837 51.2149 64.6628 51.2149 64.6628H54.556Z" fill="#002643"/>
<path d="M52.5476 76.8198C52.5476 76.8198 59.7665 63.3652 61.8776 54.7258C61.8776 54.7258 70.9791 55.6485 71.2426 57.8251C71.5067 60.0017 67.8791 66.4652 67.8791 66.4652L63.988 66.399L65.637 70.2246C65.637 70.2246 58.9093 80.5137 54.754 83.0854L52.5476 76.8198Z" fill="#1D2330"/>
<path d="M59.8617 88.8901C59.8617 88.8901 53.0395 75.6333 48.4229 67.8504C43.8055 60.0683 41.4973 55.3192 41.4973 54.7262C41.4973 54.7262 32.3957 55.1213 30.4833 57.0345C28.5701 58.9469 35.7592 66.9932 35.7592 66.9932L39.1889 66.2022L37.9358 70.4229C37.9358 70.4229 55.8679 89.6156 59.8617 88.8901Z" fill="#1D2330"/>
</svg>
