<svg width="321" height="182" viewBox="0 0 321 182" fill="none" xmlns="http://www.w3.org/2000/svg">
<path d="M111.984 58.0303L99.1494 61.7623L104.075 68.0303L115.715 65.941C115.715 65.941 122.283 52.5089 122.133 51.7623C121.983 51.0169 111.984 58.0303 111.984 58.0303Z" fill="#452A29"/>
<path d="M72.5862 62.6573L63.6302 58.18L63.0342 71.9106L87.8075 70.8653L90.9422 66.24L72.5862 62.6573Z" fill="#452A29"/>
<path d="M198.544 20.4227C198.544 20.4227 174.665 6.39333 173.769 6.692C172.875 6.99066 140.041 24.6013 140.041 24.6013L132.58 53.5546L154.079 56.1173L154.741 47.6586C154.741 47.6586 189.888 39.824 190.336 40.496C190.784 41.1666 199.067 47.8826 199.067 47.8826L204.979 62.1866L210.185 62.8066L211.677 41.6146L198.544 20.4227Z" fill="#361E27"/>
<path d="M148.7 55.476L154.079 56.1173L154.742 47.6586C154.742 47.6586 189.888 39.824 190.336 40.496C190.784 41.1666 199.067 47.8826 199.067 47.8826L204.979 62.1866L210.186 62.8066L211.678 41.6146L200.812 24.0813C200.399 24.0747 199.988 24.0613 199.574 24.0613C172.196 24.0613 149.872 38 148.7 55.476Z" fill="#452A29"/>
<path d="M214.962 54.1502C214.962 54.1502 252.57 40.7196 256.45 42.8076C260.33 44.8983 285.403 70.2689 287.493 71.4622C289.583 72.6569 303.61 77.7302 305.103 78.9249C306.595 80.1182 320.027 94.7449 320.027 95.6396C320.027 96.5356 302.118 104.594 302.118 104.594L227.797 75.3423L214.962 54.1502Z" fill="#452A29"/>
<path d="M10.2021 78.6264L18.8581 85.4917L32.2901 76.537L32.5888 71.761L12.8888 64.8957L10.2021 78.6264Z" fill="#452A29"/>
<path d="M61.6169 61.3146L79.3009 49.0013L96.9863 41.1666L96.6689 72.4186L103.006 69.9613L100.344 44.7493L102.136 38.2573L133.944 38.0533L134.073 22.8106L106.314 16.2439L53.4823 33.556L35.8716 49.972L22.7383 69.672L56.7476 76.8213C58.673 70.5666 61.6169 61.3146 61.6169 61.3146Z" fill="#361E27"/>
<path d="M133.943 38.0532L133.994 32.0519C129.818 31.6012 125.501 31.3625 121.079 31.3625C84.8859 31.3625 55.5459 47.2185 55.5459 66.7772C55.5459 69.5998 56.1605 72.3465 57.3165 74.9785C59.2019 68.9012 61.6165 61.3145 61.6165 61.3145L79.3006 49.0012L96.9859 41.1665L96.6686 72.4185L103.006 69.9612L100.343 44.7492L102.135 38.2572L133.943 38.0532Z" fill="#452A29"/>
<path d="M312.265 138.322C312.265 138.322 316.445 138.92 317.34 137.129C318.236 135.338 318.576 114.272 318.236 113.25C317.639 111.46 310.773 109.668 310.773 109.668L312.265 138.322Z" fill="#E3D7B2"/>
<path d="M124.82 157.128C124.82 143.445 114.664 132.353 102.136 132.353C89.6062 132.353 79.4502 143.445 79.4502 157.128C79.4502 170.809 89.6062 181.901 102.136 181.901C114.664 181.901 124.82 170.809 124.82 157.128Z" fill="#452A29"/>
<path d="M107.274 159.75C107.274 154.402 103.786 150.068 99.4809 150.068C95.1769 150.068 91.6875 154.402 91.6875 159.75C91.6875 165.1 95.1769 169.436 99.4809 169.436C103.786 169.436 107.274 165.1 107.274 159.75Z" fill="#361E27"/>
<path d="M31.395 154.889L46.6176 154.441L50.199 162.948L45.2736 164.738L50.647 171.902L64.5256 162.948C64.5256 162.948 73.0323 165.634 75.7189 165.634C78.4056 165.634 82.435 163.396 82.435 163.396C82.435 163.396 100.343 162.948 101.687 162.5C103.03 162.053 104.82 152.202 104.82 152.202L110.194 149.516L111.984 153.098L143.326 142.8V137.428C143.326 137.428 187.65 133.845 189.44 132.95C191.232 132.056 190.784 128.921 190.784 128.921L197.947 129.816C197.947 129.816 208.694 134.144 210.483 135.936C212.275 137.725 278.836 162.798 278.836 162.798L295.103 162.053L283.463 103.4L214.962 84.1477L23.335 115.041L31.395 154.889Z" fill="#361E27"/>
<path d="M319.929 95.4116C318.765 93.3716 306.525 80.0623 305.103 78.925C303.611 77.7303 289.583 72.657 287.493 71.4623C285.403 70.269 260.33 44.897 256.45 42.8077C252.57 40.7197 214.962 54.1503 214.962 54.1503L218.89 60.6383L229.961 59.9716L241.153 52.8077L259.286 51.9116L279.21 67.1343L283.239 74.9703L303.834 82.357L319.929 95.4116Z" fill="#798733"/>
<path d="M299.713 97.5796C299.713 100.202 301.838 102.328 304.461 102.328C307.082 102.328 309.208 100.202 309.208 97.5796C309.208 94.9583 307.082 92.833 304.461 92.833C301.838 92.833 299.713 94.9583 299.713 97.5796Z" fill="#647870"/>
<path d="M287.492 94.669C287.492 97.513 289.797 99.8184 292.641 99.8184C295.484 99.8184 297.79 97.513 297.79 94.669C297.79 91.8264 295.484 89.521 292.641 89.521C289.797 89.521 287.492 91.8264 287.492 94.669Z" fill="#647870"/>
<path d="M242.475 63.9653L241.771 63.4413C243.809 60.708 246.309 59.184 249.202 58.9133C253.311 58.5333 257.417 60.8133 259.881 63.0813L259.289 63.7267C256.962 61.5867 253.115 59.428 249.283 59.7867C246.649 60.0333 244.357 61.4387 242.475 63.9653Z" fill="#647870"/>
<path d="M244.551 66.9663L243.874 66.409C246.426 63.309 249.002 61.6316 251.53 61.4183C254.257 61.1903 256.317 62.6783 257.634 63.8183L257.059 64.481C255.863 63.445 253.998 62.0903 251.603 62.2916C249.319 62.4836 246.947 64.057 244.551 66.9663Z" fill="#647870"/>
<path d="M266.15 69.0757L268.093 65.045L264.212 62.657C264.212 62.657 262.122 64.5983 262.27 65.1943C262.421 65.7917 266.15 69.0757 266.15 69.0757Z" fill="#647870"/>
<path d="M268.985 69.5223L271.524 66.2397L275.255 69.373L272.717 74.2983L268.985 69.5223Z" fill="#647870"/>
<path d="M285.553 84.4465L290.478 88.0278L293.314 84.8945L287.493 82.2078L285.553 84.4465Z" fill="#647870"/>
<path d="M289.731 80.8653C288.09 79.5226 277.941 77.7306 277.941 77.7306L272.419 70.8653C272.419 70.8653 261.375 61.6133 258.539 61.6133C255.705 61.6133 251.375 67.732 250.63 69.3733L283.015 94.1479C283.015 94.1479 291.373 82.208 289.731 80.8653Z" fill="#647870"/>
<path d="M203.171 54.0014L184.813 56.3894L196.007 60.8667H209.737L210.782 43.5547L203.171 54.0014Z" fill="#452A29"/>
<path d="M204.813 55.9426C203.021 56.24 131.908 51.0173 130.117 51.0173L134.147 28.8546C134.147 28.8546 173.769 9.37862 174.964 9.37862C176.157 9.37862 201.827 32.0626 201.827 32.0626C201.827 32.0626 207.499 40.7199 208.395 42.5106C209.289 44.3013 206.603 55.6426 204.813 55.9426ZM118.924 52.7333C118.625 54.8226 114.148 59.2999 112.656 60.4946C111.164 61.6879 64.8241 67.8813 64.8241 67.8813L59.7494 46.0919C59.7494 46.0919 64.5254 32.3613 65.7201 31.1679C66.9134 29.9733 105.417 19.5279 105.417 19.5279C105.417 19.5279 116.835 24.6759 118.028 25.2733C119.223 25.8693 119.223 50.6439 118.924 52.7333ZM30.2001 69.6719L27.2148 68.1799C27.2148 68.1799 34.9761 53.8533 35.8707 52.3599C36.7667 50.8679 58.5561 35.3466 58.5561 35.3466L55.5707 45.1959L60.0481 70.5679L30.2001 69.6719ZM311.221 107.879C311.221 107.879 313.908 104.296 313.46 102.953C313.012 101.611 306.744 101.163 306.744 101.163L304.505 96.2373L293.313 94.4466C293.313 94.4466 241.824 59.0759 240.481 58.1799C239.139 57.2853 225.705 53.2559 225.705 53.2559C225.705 53.2559 223.468 59.0759 222.124 58.6279C220.781 58.1799 217.2 51.0173 217.2 51.0173L211.379 32.2133L202.424 24.1533L201.977 20.1239C201.977 20.1239 173.323 -0.0240831 171.98 0.871917C170.636 1.76792 138.848 19.2279 138.848 19.2279L107.06 13.856C107.06 13.856 52.8854 30.4212 51.5414 30.8692C50.1987 31.3172 21.0961 64.4479 21.0961 65.7919C21.0961 67.1346 17.0667 81.0146 17.0667 81.0146C17.0667 81.0146 -0.394603 105.192 0.0533974 107.431C0.501397 109.668 20.6481 154.889 20.6481 154.889L34.9761 157.128L38.5574 153.993C38.5574 153.993 25.1254 125.339 43.9294 122.205C62.7347 119.071 67.6601 153.545 67.6601 153.545C67.6601 153.545 75.7187 155.336 77.9574 155.336C80.1961 155.336 124.968 137.876 124.968 137.876L126.312 132.951L129.445 135.637L135.713 133.399C135.713 133.399 137.505 126.683 139.295 127.131C140.551 127.444 183.919 123.399 183.919 123.399L199.141 125.787L204.215 122.503L202.825 126.173C202.825 126.173 218.095 133.845 220.781 133.845C223.468 133.845 235.556 95.7893 262.868 108.773C290.179 121.757 277.195 152.651 277.195 152.651L299.581 157.128C299.581 157.128 313.908 141.457 313.908 137.876C313.908 134.293 314.804 110.116 314.804 110.116L311.221 107.879Z" fill="#96A842"/>
<path d="M277.062 156.649C277.062 156.649 278.538 139.666 280.328 139.666C282.12 139.666 312.118 151.458 312.118 156.68C312.118 158.022 300.477 171.006 299.133 171.006C297.789 171.006 277.062 156.649 277.062 156.649Z" fill="#E3D7B2"/>
<path d="M269.935 149.13C272.311 134.03 263.339 120.63 249.693 120.12C235.98 119.608 224.085 132.338 223.236 147.617C222.439 161.946 231.776 173.204 243.999 173.546C256.169 173.886 267.705 163.3 269.935 149.13Z" fill="#583B3A"/>
<path d="M260.496 148.884C262.238 139.644 257.558 131.72 250.044 131.182C242.532 130.645 235.03 137.698 233.288 146.938C231.547 156.177 236.227 164.102 243.74 164.638C251.255 165.176 258.756 158.122 260.496 148.884Z" fill="#361E27"/>
<path d="M257.138 148.643C258.447 141.687 254.925 135.719 249.266 135.315C243.609 134.911 237.961 140.223 236.649 147.179C235.338 154.136 238.862 160.103 244.519 160.507C250.177 160.912 255.826 155.6 257.138 148.643Z" fill="#796061"/>
<path d="M52.0737 168.509C51.4604 165.4 48.7577 162.878 46.039 162.878C43.319 162.878 41.611 165.4 42.2243 168.509C42.8363 171.62 45.5377 174.141 48.2577 174.141C50.979 174.141 52.687 171.62 52.0737 168.509Z" fill="#583B3A"/>
<path d="M51.99 71.6119L53.4807 70.3705L30.2007 69.6719L27.2154 68.1799C27.2154 68.1799 34.9767 53.8532 35.8714 52.3599C35.9154 52.2865 36.0247 52.1705 36.1647 52.0319C36.454 50.2745 36.7874 48.2959 37.0834 46.5492C29.222 55.4985 21.0967 65.0825 21.0967 65.7919C21.0967 67.1345 17.0674 81.0145 17.0674 81.0145C17.0674 81.0145 5.98205 96.3639 1.70605 103.732L11.6954 108.103L35.2007 107.879L33.6327 101.163C33.6327 101.163 46.17 88.4012 46.394 87.7305C46.618 87.0585 51.99 71.6119 51.99 71.6119Z" fill="#87953C"/>
<path d="M132.58 53.5547L136.348 51.4174C132.727 51.168 130.422 51.0174 130.118 51.0174L134.147 28.8547C134.147 28.8547 173.77 9.37871 174.964 9.37871C175.655 9.37871 184.552 16.984 191.922 23.388L202.062 20.8841L201.977 20.124C201.977 20.124 173.323 -0.0239916 171.98 0.872008C170.636 1.76801 138.848 19.228 138.848 19.228L107.06 13.8561C107.06 13.8561 52.8855 30.4213 51.5415 30.8693C51.2629 30.9627 49.7842 32.4694 47.6309 34.7921L49.0508 42.1973C54.0482 38.5573 58.5562 35.3467 58.5562 35.3467L55.5709 45.196L56.1455 48.452C57.4175 48.512 58.8362 48.5787 60.3455 48.652L59.7495 46.092C59.7495 46.092 64.5255 32.3614 65.7202 31.168C66.9135 29.9734 105.418 19.528 105.418 19.528C105.418 19.528 116.835 24.676 118.028 25.2734C119.128 25.8227 119.215 46.8574 118.988 51.8187L132.58 53.5547Z" fill="#6F7835"/>
<path d="M110.493 100.714L53.7809 106.086L52.5875 101.013L42.8115 92.8798L67.2129 67.1358L113.105 60.1944L117.806 72.2838L124.297 76.9851L122.283 86.3878L114.672 89.0731L110.493 100.714Z" fill="#A8B94A"/>
<path d="M54.0793 123.996C54.0793 123.996 49.9007 115.041 49.3033 114.145C48.706 113.251 43.334 114.145 43.334 114.145L45.2846 122.048C48.6206 121.803 51.4953 122.768 53.9633 124.5L54.0793 123.996Z" fill="#87953C"/>
<path d="M236.152 109.371L226.9 112.056L225.11 119.519C225.11 119.519 219.14 122.803 218.244 122.803C217.35 122.803 221.23 113.549 221.23 113.549C221.23 113.549 211.082 113.848 210.782 114.743C210.483 115.639 202.127 118.921 202.127 118.921L194.067 119.519L194.367 112.356L187.5 103.997L179.74 116.236L165.711 117.131L153.474 121.011L133.475 122.803L124.52 115.639L129.595 124.891L116.163 126.384C116.163 126.384 101.239 134.443 98.8511 134.144C96.4631 133.845 78.8524 129.368 77.9577 128.772C77.3484 128.365 66.5258 129.755 59.6631 130.684C65.7271 140.021 67.6604 153.545 67.6604 153.545C67.6604 153.545 75.7191 155.336 77.9577 155.336C80.1964 155.336 124.968 137.876 124.968 137.876L126.312 132.951L129.446 135.637L135.714 133.399C135.714 133.399 137.506 126.683 139.295 127.131C140.551 127.444 183.919 123.399 183.919 123.399L199.142 125.787L204.215 122.504L202.826 126.173C202.826 126.173 218.095 133.845 220.782 133.845C222.459 133.845 227.806 119.001 238.235 111.019L236.152 109.371Z" fill="#87953C"/>
<path d="M20.649 154.889L34.977 157.128L38.5583 153.993C38.5583 153.993 30.309 136.385 35.8023 127.267C33.045 126.099 29.577 125.543 29.0076 126.683C28.1116 128.473 30.7983 133.845 30.7983 133.845C30.7983 133.845 20.385 139.052 14.7783 141.657C18.0917 149.148 20.649 154.889 20.649 154.889Z" fill="#87953C"/>
<path d="M32.3031 128.004L12.8885 131.16L10.7991 128.772C10.7991 128.772 1.54579 129.368 0.949789 130.562C0.352456 131.756 8.11248 151.754 8.11248 151.754C8.99782 152.418 23.9671 148.66 31.6671 146.666C29.8738 139.728 30.1498 133.056 32.3031 128.004Z" fill="#E3D7B2"/>
<path d="M81.8828 149.218L74.9788 148.277L74.8761 148.065C74.7575 147.818 62.9281 123.425 55.4268 120.829L55.2321 120.761L55.1601 120.568C54.5575 118.961 51.5508 110.894 51.5508 109.968C51.5508 109.105 53.7575 104.569 54.6935 102.685L52.0535 101.218L61.7228 72.8143L62.5521 73.0969L53.1188 100.806L55.8521 102.325L55.6641 102.701C54.0868 105.857 52.4441 109.438 52.4268 109.969C52.4495 110.609 54.5455 116.424 55.9108 120.072C63.4508 122.994 74.3108 144.904 75.5628 147.472L81.7921 148.321C97.3441 142.912 120.637 134.602 122.599 133.353C122.697 132.01 123.573 126.472 123.764 125.277C114.441 109.604 109.837 101.294 110.076 100.576C110.193 100.224 110.657 99.3343 111.467 97.7929C112.564 95.7049 114.065 92.8463 114.24 91.9716C114.451 90.905 113.28 71.7316 112.443 59.105L113.317 59.0463C113.532 62.2756 115.401 90.6383 115.1 92.1436C114.916 93.0689 113.749 95.3343 112.244 98.1996C111.651 99.3289 111.088 100.398 110.935 100.781C111.292 102.273 119.26 115.992 124.599 124.965L124.68 125.102L124.655 125.258C124.324 127.325 123.467 132.841 123.467 133.548C123.467 134.013 123.467 134.416 102.581 141.906C92.3988 145.558 82.0841 149.148 81.9815 149.184L81.8828 149.218Z" fill="#452A29"/>
<path d="M204.669 55.9515C202.473 56.0195 180.033 54.4715 160.333 53.0929L155.264 66.3889L140.639 85.4915L154.071 102.505L164.815 91.3115L210.931 93.1022L204.669 55.9515Z" fill="#B4C751"/>
<path d="M130.851 125.376L130.701 125.1C126.468 117.263 116.62 98.936 116.62 98.028C116.62 97.1173 118.821 90.7026 119.313 89.28L121.708 60.2373L128.969 52.0693L129.624 52.6506L122.557 60.6013L120.159 89.516C118.868 93.244 117.497 97.4946 117.497 98.028C117.723 99.0053 125.832 114.237 131.324 124.407L165.935 118.489L183.337 117.287L202.123 119.929C205.531 109.513 210.532 94.0506 210.644 93.2133C210.616 92.5786 208.251 78.0626 204.313 54.4186L204.239 53.972L205.103 53.8293L205.177 54.2746C209.413 79.708 211.547 92.8319 211.519 93.2799C211.46 94.1839 204.28 116.156 202.841 120.551L202.727 120.899L183.307 118.168L166.039 119.36L130.851 125.376Z" fill="#452A29"/>
<path d="M32.2896 76.5373C32.3122 76.5453 32.3589 76.5413 32.4242 76.5293C32.2922 76.5187 32.2362 76.52 32.2896 76.5373Z" fill="#452A29"/>
<path d="M53.3328 68.2545C53.3328 68.2545 34.2955 76.2038 32.4248 76.5291C33.9328 76.6585 46.6181 78.5518 46.6181 78.5518L43.9301 86.8345L34.3048 100.938L45.4981 90.4171C45.4981 90.4171 71.9355 66.5131 72.5848 65.9038L53.3328 68.2545Z" fill="#452A29"/>
<path d="M67.5942 74.7026C66.8636 74.7026 66.4222 74.6093 66.2729 74.4226C65.6262 73.6146 66.6036 70.0826 67.2422 68.0479L68.0782 68.3106C67.3716 70.5586 66.7676 73.2466 66.9449 73.8333C67.8036 74.0613 72.8076 73.2533 77.4022 72.2946L78.1196 64.7066L78.9916 64.788L78.2156 73.0186L77.8996 73.0853C72.8062 74.1613 69.3582 74.7013 67.5942 74.7026Z" fill="#452A29"/>
<path d="M163.547 60.1213L171.382 55.4187L153.474 55.6427L135.789 63.9267L130.641 82.208C131.759 81.3133 155.713 66.1653 155.713 66.1653L175.861 66.3893L163.547 60.1213Z" fill="#452A29"/>
<path d="M246.899 108.316C246.831 108.316 246.763 108.301 246.7 108.268C245.577 107.695 219.208 94.2226 217.72 93.3293C216.148 92.6533 146.468 84.1386 142.429 84.1386C140.113 84.1386 120.036 88.2679 119.833 88.3093C118.628 88.7986 88.544 100.832 87.6467 101.131C86.744 101.432 60.1614 105.732 57.1334 106.221C56.5387 106.275 43.2787 107.421 37.936 107.121C36.8347 107.06 34.7854 106.96 32.2121 106.835C14.5561 105.972 4.16538 105.388 3.30271 104.957C3.08671 104.848 2.99872 104.585 3.10672 104.368C3.21338 104.155 3.47203 104.065 3.68803 104.169C4.84536 104.62 23.356 105.524 32.2547 105.959C34.8307 106.084 36.8814 106.185 37.984 106.247C43.2627 106.537 56.888 105.364 57.0254 105.352C65.16 104.036 86.536 100.555 87.372 100.297C88.068 100.065 108.747 91.8066 119.583 87.4719C120.487 87.2786 140.024 83.2626 142.429 83.2626C143.032 83.2626 216.292 91.4506 218.171 92.5786C219.635 93.4559 246.823 107.348 247.097 107.488C247.313 107.597 247.399 107.861 247.289 108.077C247.211 108.229 247.057 108.316 246.899 108.316Z" fill="#361E27"/>
<path d="M313.46 102.953C313.012 101.611 306.744 101.163 306.744 101.163L304.505 96.2373L293.313 94.4466C293.313 94.4466 241.824 59.076 240.482 58.18C239.139 57.2853 225.705 53.256 225.705 53.256C225.705 53.256 223.468 59.076 222.124 58.628C220.781 58.18 217.2 51.0173 217.2 51.0173L211.379 32.2133L209.131 30.1893L215.624 71.312L296.447 117.131L305.7 133.249L313.913 137.272C313.985 132.195 314.804 110.116 314.804 110.116L311.221 107.879C311.221 107.879 313.908 104.296 313.46 102.953Z" fill="#B4C751"/>
<path d="M308.386 129.965C308.386 129.965 292.194 123.996 291.896 120.713C291.597 117.429 298.913 112.852 300.405 113.151C301.897 113.448 312.342 128.025 312.342 128.025L308.386 129.965Z" fill="#96A842"/>
<path d="M299.217 119.005L206.688 66.7702L207.118 66.0062L299.649 118.241L299.217 119.005Z" fill="#452A29"/>
<path d="M312.342 128.025C312.342 128.025 297.715 122.653 297.418 119.369C297.119 116.086 299.506 112.802 300.999 113.101C302.491 113.4 312.342 118.473 312.342 118.473C313.635 121.956 313.635 125.14 312.342 128.025Z" fill="#361E27"/>
<path d="M307.627 123.486C307.627 123.486 299.3 120.428 299.13 118.558C298.96 116.689 300.319 114.82 301.168 114.99C302.019 115.16 307.627 118.049 307.627 118.049C308.363 120.032 308.363 121.844 307.627 123.486Z" fill="#B82B61"/>
<path d="M242.036 54.8066C242.026 54.788 240.994 52.896 239.127 51.028L239.747 50.4093C241.71 52.372 242.763 54.3093 242.808 54.3906L242.036 54.8066Z" fill="#452A29"/>
<path d="M284.208 131.599C284.188 131.599 284.167 131.597 284.145 131.593C283.905 131.559 283.74 131.336 283.775 131.096C284.521 126.023 281.749 119.639 278.691 116.859C278.512 116.695 278.497 116.417 278.66 116.239C278.824 116.06 279.101 116.048 279.28 116.209C282.505 119.141 285.429 125.873 284.643 131.223C284.611 131.441 284.424 131.599 284.208 131.599Z" fill="#452A29"/>
<path d="M273.762 111.749C273.639 111.749 273.517 111.697 273.429 111.596C273.422 111.586 272.556 110.59 271.148 109.746C270.94 109.621 270.874 109.352 270.998 109.144C271.123 108.937 271.391 108.87 271.599 108.994C273.136 109.916 274.057 110.98 274.095 111.025C274.253 111.209 274.231 111.485 274.047 111.642C273.966 111.714 273.863 111.749 273.762 111.749Z" fill="#452A29"/>
<path d="M55.2723 102.944C55.0816 102.944 54.9056 102.819 54.8509 102.625C54.7843 102.392 54.9203 102.151 55.1523 102.084C56.2203 101.779 61.4216 101.199 61.6416 101.173C61.8856 101.151 62.0989 101.321 62.1256 101.561C62.1523 101.803 61.979 102.019 61.739 102.045C59.8936 102.251 56.1909 102.699 55.3936 102.927C55.3523 102.939 55.3123 102.944 55.2723 102.944Z" fill="#361E27"/>
<path d="M256.45 42.8078C255.331 42.2065 251.409 42.8945 246.393 44.1785L257.346 46.9878C257.346 46.9878 258.154 49.6118 259.007 51.9265L259.286 51.9118L279.21 67.1345L279.374 67.4545L284.969 69.2852C278.034 62.8572 259.719 44.5692 256.45 42.8078Z" fill="#B4C751"/>
<path d="M319.928 95.4116C318.764 93.3716 306.524 80.0623 305.103 78.925C304.318 78.297 300.072 76.5983 295.915 74.953L299.403 80.7676L303.834 82.357L319.928 95.4116Z" fill="#B4C751"/>
<path d="M289.377 153.809C287.809 149.704 286.801 145.605 286.313 141.693C283.117 140.448 280.79 139.666 280.328 139.666C278.538 139.666 277.062 156.649 277.062 156.649C277.062 156.649 297.789 171.006 299.133 171.006C299.276 171.006 299.54 170.853 299.89 170.589C295.704 166.374 291.976 160.606 289.377 153.809Z" fill="#C8BD9E"/>
<path d="M21.9925 142.801C13.4445 142.801 6.31112 137.064 4.61779 129.425C2.77912 129.712 1.18579 130.089 0.949789 130.562C0.352456 131.756 8.11248 151.754 8.11248 151.754C8.99782 152.418 23.9671 148.66 31.6671 146.666C31.1405 144.628 30.8138 142.618 30.6391 140.66C28.0791 142.018 25.1338 142.801 21.9925 142.801Z" fill="#C8BD9E"/>
<path d="M272.867 76.2383C268.992 77.013 265.554 70.4183 268.688 71.313C271.822 72.209 273.612 76.089 272.867 76.2383Z" fill="#81998D"/>
<path d="M264.808 69.224C262.081 69.808 255.405 65.4934 259.137 65.1947C262.868 64.896 266.897 68.7774 264.808 69.224Z" fill="#81998D"/>
<path d="M278.688 80.2679L281.374 79.8199C281.374 79.8199 287.343 81.9106 287.045 82.5066C286.747 83.1039 285.702 86.0879 285.702 86.0879L278.688 80.2679Z" fill="#81998D"/>
<path d="M31.1696 125.554C31.1042 125.554 31.0362 125.538 30.9749 125.508C30.7576 125.398 30.6696 125.136 30.7776 124.918C33.3922 119.692 37.8682 118.386 39.5736 118.873C39.8069 118.94 39.9416 119.182 39.8749 119.416C39.8082 119.649 39.5642 119.78 39.3322 119.717C38.0509 119.346 33.9976 120.441 31.5629 125.31C31.4856 125.465 31.3309 125.554 31.1696 125.554Z" fill="#452A29"/>
<path d="M31.1701 101.153C31.0821 101.153 30.9928 101.127 30.9154 101.071C30.7181 100.929 30.6741 100.656 30.8141 100.459L38.1354 90.2547L38.7941 84.1027C38.8194 83.8613 39.0288 83.6826 39.2768 83.7133C39.5168 83.7386 39.6914 83.9547 39.6661 84.1947L38.9821 90.5786L31.5274 100.971C31.4407 101.089 31.3074 101.153 31.1701 101.153Z" fill="#452A29"/>
<path d="M186.242 126.314L184.481 127.196C176.254 132.777 181.835 148.936 181.835 148.936L183.598 147.761C183.598 147.761 177.429 132.19 186.242 126.314Z" fill="#361E27"/>
</svg>
