<svg width="400" height="400" viewBox="0 0 400 400" fill="none" xmlns="http://www.w3.org/2000/svg">
<path d="M45.0036 298.96C44.6399 298.875 40.9842 298.059 35.9987 297.25C25.01 295.461 7.573 293.73 4.81022 300.11C3.68122 302.699 4.98393 306.629 10.1241 312.442H143.82C143.82 312.442 210.61 177.047 137.834 123.485C137.304 123.097 81.221 66.5251 32.3132 97.4666H32.3078C26.5054 101.136 20.8034 106.037 15.305 112.418C-23.5694 157.518 20.9635 207.28 45.6413 229.323L45.6115 229.301C43.5842 228.009 41.4185 226.775 39.1795 225.711C29.9494 221.349 19.403 219.965 11.5136 229.301L11.5082 229.317C9.45916 231.738 7.59472 234.873 5.97722 238.86C-9.35649 276.681 43.5516 298.373 45.0036 298.96Z" fill="#6F7D89"/>
<path d="M4.8109 300.11C3.68191 302.699 4.98461 306.629 10.1248 312.442H142.364C129.258 283.74 72.5669 250.296 72.5669 250.296C77.0286 277.495 63.4373 288.389 31.573 271.288C0.126687 254.419 11.2076 229.966 11.5089 229.317C9.45985 231.738 7.59541 234.873 5.97791 238.86C-9.3558 276.684 43.5523 298.373 45.0042 298.96C44.6406 298.875 40.9849 298.056 35.9994 297.25C46.4561 303.679 33.9504 308.198 19.2789 307.088C12.2254 306.559 7.35928 304.67 4.8109 300.11Z" fill="#576672"/>
<path d="M45.6413 229.323C53.4438 233.133 63.0104 236.051 77.7471 239.894C119.802 250.872 144.7 201.041 145.047 200.336C144.241 200.531 92.7877 209.316 55.7263 181.856C5.7194 144.806 32.3132 97.4667 32.3132 97.4667H32.3078C26.5054 101.136 20.8034 106.037 15.305 112.418C-23.5694 157.518 20.9635 207.28 45.6413 229.323Z" fill="#576672"/>
<path d="M80.347 266.84C105.47 302.075 132.685 312.442 132.685 312.442H400C400 312.442 384.938 255.444 360.763 250.261C350.694 248.103 346.8 252.052 345.688 257.396L345.647 257.154C342.906 239.362 337.478 211.411 327.898 187.555C319.11 165.708 306.844 147.294 289.944 143.264C262.845 136.797 264.316 178.749 264.316 178.749C264.316 178.749 259.309 163.008 249.037 144.613C233.399 116.578 205.541 82.369 164.547 88.2175C126.598 93.6263 133.301 118.228 142.32 144.241C144.632 150.909 147.096 157.672 149.001 164.235L148.833 164.094C145.766 161.494 101.855 125.352 83.7801 167.35C72.9109 192.622 78.678 206.708 85.4357 214.09C90.1715 219.268 95.3958 221.132 95.6862 221.235L95.7079 221.241C95.7079 221.241 55.2161 231.603 80.347 266.84Z" fill="#C2CCD4"/>
<path d="M158.541 312.442H331.893C308.092 310.212 282.475 291.673 253.094 291.673C244.792 291.673 236.194 293.152 227.249 296.897C199.442 308.534 173.855 311.707 158.541 312.442Z" fill="#98A4AE"/>
<path d="M340.735 312.442H381.057C381.057 312.442 361.086 277.446 350.347 277.446C348.799 277.446 347.445 278.171 346.367 279.835L345.688 257.396C345.688 257.396 345.683 258.327 345.49 259.746C345.553 258.878 345.607 258.009 345.648 257.154C342.907 239.362 337.479 211.411 327.899 187.555H327.89C327.89 187.555 349.853 245.083 325.19 248.597C324.52 248.695 323.833 248.741 323.147 248.741C298.797 248.741 265.329 190.364 264.805 189.455C264.588 183.015 264.317 178.749 264.317 178.749C264.317 178.749 259.309 163.008 249.037 144.613C250.302 163.659 252.674 194.001 218.989 194.97C218.538 194.984 218.085 194.989 217.637 194.989C186.085 194.989 156.897 163.171 142.32 144.241C144.632 150.909 147.097 157.672 149.002 164.235L148.833 164.094C168.306 194.346 191.985 213.772 171.807 218.437C165.823 219.824 158.134 220.361 149.805 220.361C124.373 220.361 92.9238 215.346 85.4361 214.09C90.1719 219.268 95.3962 221.132 95.6866 221.235L95.7083 221.241C95.7083 221.241 124.069 224.655 137.278 239.424C143.007 245.826 153.7 248.869 165.893 248.869C181.835 248.869 200.341 243.671 213.688 233.983C217.784 231.011 221.575 229.822 225.087 229.822C235.343 229.822 243.238 239.94 249.439 245.381C246.576 266.496 231.532 272.187 216.153 272.187C198.178 272.187 179.745 264.419 179.745 264.419C179.745 264.419 192.753 281.96 220.449 281.962C222.359 281.962 224.335 281.878 226.384 281.702C258.17 278.934 260.457 244.35 260.457 244.35C260.46 244.35 260.463 244.35 260.468 244.35C264.607 244.35 271.329 247.932 281.851 261.651C291.375 274.067 322.71 295.505 339.018 295.505C342.795 295.505 345.764 294.354 347.472 291.673C349.123 289.081 351.041 288.006 352.874 288.006C361.112 288.006 367.654 309.69 340.735 312.442ZM254.487 248.594V248.6L254.481 248.594H254.487Z" fill="#98A4AE"/>
<path d="M254.486 248.6V248.596H254.483L254.486 248.6Z" fill="#83919B"/>
<path d="M45.6116 229.304C43.5843 228.007 41.4186 226.775 39.1796 225.711C41.2313 227.019 43.3454 228.199 45.6116 229.304Z" fill="#6F7D89"/>
</svg>
