<svg width="292" height="219" viewBox="0 0 292 219" fill="none" xmlns="http://www.w3.org/2000/svg">
<path d="M56.3294 85.8896H24.8749V53.7708H33.5503C46.1304 53.7708 56.3294 63.9716 56.3294 76.5561V85.8896Z" fill="#CC6600"/>
<path d="M28.9075 61.2733H24.8749V85.8896H51.6866V84.0586C51.6866 71.4741 41.4876 61.2733 28.9075 61.2733Z" fill="#9B4A00"/>
<path d="M34.8607 60.2677L25.4604 66.2017L14.0827 48.1666L23.483 42.2336L34.8607 60.2677Z" fill="#9B4A00"/>
<path d="M23.483 42.2336L21.8893 43.2382L33.2528 61.2505L34.8607 60.2676L23.483 42.2336Z" fill="#CC6600"/>
<path d="M18.6421 71.8331C16.9451 70.2342 16.8645 67.5606 18.4621 65.8622L29.8928 53.7194C31.4913 52.021 34.1633 51.9404 35.8612 53.5393C37.5592 55.1382 37.6397 57.8118 36.0412 59.5102L24.6114 71.653C23.013 73.3514 20.34 73.432 18.6421 71.8331Z" fill="#9B4A00"/>
<path d="M35.8612 53.5395C34.457 52.2164 32.3924 52.061 30.8138 53.0021C31.479 53.1092 32.1328 53.3603 32.7202 53.7774C34.7621 55.2265 35.2444 58.0575 33.7966 60.1008L28.6403 67.373L36.0413 59.5104C37.6397 57.812 37.5592 55.1383 35.8612 53.5395Z" fill="#CC6600"/>
<path d="M24.5953 67.431C24.6616 69.0697 23.3863 70.4525 21.748 70.5188L10.0321 70.9956C8.3938 71.0619 7.01138 69.7872 6.94505 68.1475C6.87778 66.5088 8.15218 65.1261 9.79138 65.0597L21.5074 64.583C23.1456 64.5167 24.528 65.7914 24.5953 67.431Z" fill="#9B4A00"/>
<path d="M9.8654 74.4368C8.22715 74.5221 6.83051 73.2616 6.74618 71.6239L6.70355 68.3493C6.61827 66.7116 7.87751 65.3146 9.51576 65.2293C11.1531 65.145 12.5497 66.4045 12.635 68.0432L12.6776 71.3168C12.761 72.9555 11.5027 74.3515 9.8654 74.4368Z" fill="#9B4A00"/>
<path d="M24.5954 67.4308C24.5281 65.7912 23.1457 64.5164 21.5075 64.5828L11.3426 64.996C11.3321 65.123 11.3141 65.2481 11.3198 65.3789C11.3861 67.0185 12.7686 68.2933 14.4077 68.226L24.5717 67.8128C24.5831 67.6867 24.6011 67.5606 24.5954 67.4308Z" fill="#CC6600"/>
<path d="M19.6522 55.7033L10.8252 58.6328C7.90405 59.6024 4.75073 58.0196 3.78143 55.0976L3.31335 53.6883L16.9518 47.5667L19.6522 55.7033Z" fill="#CC6600"/>
<path d="M10.8252 58.6328L19.6522 55.7033L18.2072 51.3473L3.46204 53.967L3.47909 54.1859L3.78135 55.0976C4.75065 58.0196 7.90397 59.6024 10.8252 58.6328Z" fill="#9B4A00"/>
<path d="M3.31235 51.9416C4.38115 52.5586 4.89375 53.6713 4.45884 54.4247C4.02298 55.1801 2.80354 55.2919 1.73522 54.674C0.666708 54.057 0.152969 52.9453 0.589014 52.1909C1.02458 51.4364 2.24356 51.3246 3.31235 51.9416Z" fill="#440908"/>
<path d="M20.0009 42.8032V36.7129C20.0009 35.7443 20.7864 34.9586 21.7557 34.9586H36.0612C36.0612 34.9586 30.813 42.8032 20.0009 42.8032Z" fill="#CC6600"/>
<path d="M27.5498 35.6267H22.1423C21.2554 35.6267 20.5372 36.3451 20.5372 37.2323V42.8032C21.5492 42.8032 22.5052 42.7246 23.411 42.59C25.4359 40.1324 26.7311 37.6493 27.5498 35.6267Z" fill="#9B4A00"/>
<path d="M62.7119 79.163C61.5617 78.5375 60.5639 77.8437 59.6998 77.0978C58.8063 76.3586 58.0445 75.5719 57.3149 74.7606C55.8851 73.1333 54.786 71.378 53.8679 69.5384C52.0951 65.8526 51.2736 61.7781 51.5427 57.425C51.6867 55.2509 52.1406 52.9829 52.999 50.7111C53.865 48.4469 55.1404 46.1324 57.1084 44.1146C59.0564 42.1224 61.6896 40.4799 64.4715 40.0222C65.1584 39.8914 65.8406 39.8431 66.5247 39.8734C66.8649 39.8857 67.1975 39.9046 67.5206 39.9293C67.8446 39.9606 68.1781 40.0553 68.4956 40.1293C69.1313 40.2942 69.7368 40.4468 70.3167 40.7643C70.9032 41.1007 71.4414 41.3784 71.954 41.7974L72.2771 42.0608C72.4609 42.2106 72.4893 42.4807 72.3387 42.6655C72.2704 42.7489 72.1766 42.8001 72.0781 42.8171C68.6917 43.3981 65.7923 45.3932 64.2251 48.3208C62.6219 51.2276 61.9947 54.6737 61.7862 58.0951C61.6697 59.8134 61.6498 61.5488 61.7095 63.286C61.7635 65.0242 61.9426 66.7596 62.0961 68.5006C62.2666 70.2398 62.5007 71.9761 62.7811 73.7077C63.0332 75.4402 63.3297 77.184 63.7011 78.8853C63.7523 79.1184 63.6045 79.3497 63.3705 79.4009C63.2653 79.4236 63.1601 79.4056 63.072 79.3582L62.7119 79.163Z" fill="#9B4A00"/>
<path d="M42.8615 57.7451C43.1855 59.6908 43.7265 61.5106 44.4409 63.1691C46.1853 67.1649 48.773 70.4167 52.0315 72.8894C53.5124 73.9803 55.1014 74.9328 56.86 75.6938C55.6974 67.3933 50.1687 60.7125 42.8615 57.7451Z" fill="#9B4A00"/>
<path d="M72.277 42.0608L71.9539 41.7973C71.4404 41.3784 70.9031 41.1007 70.3157 40.7643C69.7367 40.4468 69.1313 40.2942 68.4946 40.1293C68.1781 40.0553 67.8446 39.9606 67.5205 39.9293C67.1974 39.9046 66.8648 39.8857 66.5247 39.8734C65.8406 39.843 65.1574 39.8914 64.4714 40.0222C63.9361 40.1103 63.4093 40.2544 62.8891 40.424L62.872 40.5416C62.836 40.643 62.7649 40.7226 62.6778 40.7719C59.6846 42.4589 57.6247 45.3135 57.1348 48.5985C56.6023 51.8759 57.1718 55.3314 58.1259 58.623C58.5949 60.2816 59.1597 61.9212 59.8002 63.5372C60.4369 65.156 61.1883 66.7292 61.9188 68.3177C61.9842 68.4561 62.0562 68.5916 62.1225 68.73L62.096 68.5006C61.9425 66.7596 61.7634 65.0242 61.7085 63.286C61.6497 61.5488 61.6687 59.8134 61.7862 58.0951C61.9946 54.6737 62.6219 51.2276 64.2251 48.3208C65.7913 45.3932 68.6916 43.3981 72.078 42.8171C72.1766 42.8001 72.2704 42.7489 72.3377 42.6655C72.4883 42.4807 72.4608 42.2105 72.277 42.0608Z" fill="#CC6600"/>
<path d="M20.3173 54.6846H16.6798C13.6222 54.6846 11.1416 52.2043 11.1416 49.1449C11.1416 44.7093 14.7365 41.1135 19.1718 41.1135H22.8377C24.9715 41.1135 26.7016 42.8432 26.7016 44.9775V48.2995C26.7016 51.8261 23.8439 54.6846 20.3173 54.6846Z" fill="#9B4A00"/>
<path d="M22.8377 41.1133H19.1718C18.8629 41.1133 18.5588 41.1341 18.2575 41.1682C17.8188 42.1615 17.5715 43.2562 17.5715 44.4115C17.5715 47.4709 20.0511 49.9512 23.1087 49.9512H26.4781C26.6193 49.4233 26.7017 48.8717 26.7017 48.2992V44.9773C26.7017 42.8429 24.9715 41.1133 22.8377 41.1133Z" fill="#CC6600"/>
<path d="M13.4157 48.7056C13.4157 49.1055 13.0916 49.4287 12.6918 49.4287C12.2919 49.4287 11.9688 49.1055 11.9688 48.7056C11.9688 48.3056 12.2919 47.9824 12.6918 47.9824C13.0916 47.9824 13.4157 48.3056 13.4157 48.7056Z" fill="#440908"/>
<path d="M20.8925 46.5979L21.7197 39.8934C21.8504 38.8262 22.8226 38.068 23.8895 38.1997L39.64 40.1446C39.64 40.1446 32.7961 48.0679 20.8925 46.5979Z" fill="#CC6600"/>
<path d="M15.791 123.928L10.6982 73.6294H69.5756L92.5632 96.6231V124.44C92.5632 124.638 92.7233 124.797 92.9204 124.797C93.1175 124.797 93.2776 124.638 93.2776 124.44V96.4753C93.2776 96.3805 93.2397 96.2886 93.1734 96.2222L69.9764 73.02C69.9101 72.9527 69.8182 72.9148 69.7244 72.9148H10.3031C10.2017 72.9148 10.105 72.9584 10.0378 73.0323C9.97048 73.1072 9.93733 73.2077 9.94775 73.3081L15.0804 124C15.1003 124.196 15.2756 124.34 15.4717 124.32C15.6679 124.3 15.8109 124.124 15.791 123.928Z" fill="#CC6600"/>
<path d="M92.8219 125.869H15.4358V96.5747H92.8219V111.222V125.869Z" fill="#440908"/>
<path d="M92.8219 125.869H15.4358V119.294H92.8219V122.581V125.869Z" fill="#330404"/>
<path d="M15.4358 111.222V96.5745H92.8219V111.222H15.4358Z" fill="#440908"/>
<path d="M15.4358 111.222V96.5745H92.8219V111.222H15.4358Z" fill="#440908"/>
<path d="M46.8552 109.939H44.2031C43.7199 109.939 43.3276 109.547 43.3276 109.063V106.411C43.3276 105.927 43.7199 105.536 44.2031 105.536H46.8552C47.3385 105.536 47.7307 105.927 47.7307 106.411V109.063C47.7307 109.547 47.3385 109.939 46.8552 109.939Z" fill="#260202"/>
<path d="M64.6023 109.951H61.9521C61.4679 109.951 61.0756 109.558 61.0756 109.075V106.423C61.0756 105.939 61.4679 105.546 61.9521 105.546H64.6023C65.0855 105.546 65.4778 105.939 65.4778 106.423V109.075C65.4778 109.558 65.0855 109.951 64.6023 109.951Z" fill="#260202"/>
<path d="M63.5439 113.385H63.0047L63.9873 108.263H63.1241L62.1406 113.385H45.2465L46.229 108.263H45.3659L44.3823 113.385H43.8423C43.2036 113.385 42.5669 113.904 42.42 114.541L42.0789 116.021C41.9321 116.659 42.33 117.176 42.9677 117.176H62.6693C63.3079 117.176 63.9447 116.659 64.0915 116.021L64.4336 114.541C64.5805 113.904 64.1825 113.385 63.5439 113.385Z" fill="#260202"/>
<path d="M15.4358 111.58H92.8219V110.865H15.4358V111.58Z" fill="#260202"/>
<path d="M16.9528 127.178C15.9512 127.178 15.1373 126.364 15.1373 125.361V111.223V97.0829C15.1373 96.0801 15.9512 95.267 16.9528 95.267C17.9562 95.267 18.7682 96.0801 18.7682 97.0829V111.223V125.361C18.7682 126.364 17.9562 127.178 16.9528 127.178Z" fill="#CC6600"/>
<path d="M91.0055 127.178C90.003 127.178 89.1901 126.364 89.1901 125.361V111.223V97.0829C89.1901 96.0801 90.003 95.267 91.0055 95.267C92.008 95.267 92.8219 96.0801 92.8219 97.0829V111.223V125.361C92.8219 126.364 92.008 127.178 91.0055 127.178Z" fill="#CC6600"/>
<path d="M47.1224 109.671H44.4713C43.9881 109.671 43.5948 109.279 43.5948 108.795V106.143C43.5948 105.66 43.9881 105.268 44.4713 105.268H47.1224C47.6066 105.268 47.9979 105.66 47.9979 106.143V108.795C47.9979 109.279 47.6066 109.671 47.1224 109.671Z" fill="#F2A300"/>
<path d="M45.0938 109.671H45.9589L46.2289 108.263H45.3657L45.0938 109.671Z" fill="#CC6600"/>
<path d="M44.7992 107.968V107.239C44.7992 106.963 45.0228 106.74 45.2985 106.74H46.0281C46.3038 106.74 46.5265 106.963 46.5265 107.239V107.968C46.5265 108.244 46.3038 108.467 46.0281 108.467H45.2985C45.0228 108.467 44.7992 108.244 44.7992 107.968Z" fill="#CC6600"/>
<path d="M46.229 113.322H45.3658V107.693H46.229V113.322Z" fill="#FFBF4D"/>
<path d="M44.9337 107.834V107.105C44.9337 106.829 45.1573 106.606 45.433 106.606H46.1607C46.4364 106.606 46.661 106.829 46.661 107.105V107.834C46.661 108.11 46.4364 108.333 46.1607 108.333H45.433C45.1573 108.333 44.9337 108.11 44.9337 107.834Z" fill="#FFBF4D"/>
<path d="M64.8808 109.671H62.2297C61.7464 109.671 61.3551 109.279 61.3551 108.795V106.143C61.3551 105.66 61.7464 105.268 62.2297 105.268H64.8808C65.365 105.268 65.7573 105.66 65.7573 106.143V108.795C65.7573 109.279 65.365 109.671 64.8808 109.671Z" fill="#F2A300"/>
<path d="M62.8539 109.671H63.7171L63.9872 108.263H63.124L62.8539 109.671Z" fill="#CC6600"/>
<path d="M62.5128 108.012V107.283C62.5128 107.008 62.7374 106.784 63.0131 106.784H63.7417C64.0175 106.784 64.2411 107.008 64.2411 107.283V108.012C64.2411 108.288 64.0175 108.512 63.7417 108.512H63.0131C62.7374 108.512 62.5128 108.288 62.5128 108.012Z" fill="#CC6600"/>
<path d="M47.1224 105.268H44.4713C44.1842 105.268 43.9416 105.416 43.7815 105.63C43.9085 105.558 44.0468 105.506 44.2031 105.506H46.8552C47.3385 105.506 47.7307 105.898 47.7307 106.381V109.034C47.7307 109.229 47.654 109.402 47.545 109.548C47.8113 109.397 47.9989 109.123 47.9989 108.795V106.143C47.9989 105.66 47.6066 105.268 47.1224 105.268Z" fill="#FFBF4D"/>
<path d="M64.8808 105.268H62.2297C61.9426 105.268 61.7 105.416 61.5399 105.63C61.6678 105.558 61.8062 105.506 61.9616 105.506H64.6136C65.0978 105.506 65.4891 105.898 65.4891 106.381V109.034C65.4891 109.229 65.4124 109.402 65.3044 109.548C65.5697 109.397 65.7573 109.123 65.7573 108.795V106.143C65.7573 105.66 65.365 105.268 64.8808 105.268Z" fill="#FFBF4D"/>
<path d="M63.9872 113.322H63.124V107.693H63.9872V113.322Z" fill="#FFBF4D"/>
<path d="M62.6921 107.834V107.105C62.6921 106.829 62.9157 106.606 63.1914 106.606H63.921C64.1967 106.606 64.4194 106.829 64.4194 107.105V107.834C64.4194 108.11 64.1967 108.333 63.921 108.333H63.1914C62.9157 108.333 62.6921 108.11 62.6921 107.834Z" fill="#FFBF4D"/>
<path d="M64.5273 115.747H44.8247C44.1871 115.747 43.6707 115.23 43.6707 114.592V113.112C43.6707 112.473 44.1871 111.957 44.8247 111.957H64.5273C65.165 111.957 65.6823 112.473 65.6823 113.112V114.592C65.6823 115.23 65.165 115.747 64.5273 115.747Z" fill="#CC6600"/>
<path d="M58.4253 97.0508H21.8627C19.0695 97.0508 16.6969 95.0074 16.2809 92.2456L13.464 73.5253H66.8241L64.0062 92.2456C63.5912 95.0074 61.2176 97.0508 58.4253 97.0508Z" fill="#B27200"/>
<path d="M58.8764 73.5253L56.0604 92.2456C55.6435 95.0074 53.2709 97.0508 50.4786 97.0508H58.4254C61.2177 97.0508 63.5912 95.0074 64.0062 92.2456L66.8241 73.5253H58.8764Z" fill="#F2A300"/>
<path d="M33.8109 88.2305C26.4061 88.2305 21.9471 83.1201 23.2082 76.0801L23.2613 75.7778C23.411 74.9485 24.2628 74.1751 25.1677 74.05C26.0697 73.9296 26.6837 74.4964 26.5359 75.3257L26.4809 75.6271C25.4879 81.1715 28.9994 85.1948 34.8294 85.1948C40.6604 85.1948 46.8723 81.1715 49.6011 75.6271L49.7509 75.3257C50.1583 74.4973 51.1541 73.9353 51.9747 74.05C52.7943 74.1751 53.1287 74.9485 52.7203 75.7778L52.5716 76.0801C49.1065 83.1201 41.2157 88.2305 33.8109 88.2305Z" fill="#895400"/>
<path d="M14.276 78.9224L66.4773 75.8307L66.8241 73.5248H19.8379L13.5199 73.8992L14.276 78.9224Z" fill="#895400"/>
<path d="M40.144 87.2485C33.0254 87.2485 27.0902 82.1372 26.0299 75.0972L25.9854 74.7949C25.8603 73.9656 26.4297 73.1932 27.2588 73.0681C28.0879 72.9468 28.8611 73.5135 28.9861 74.3428L29.0307 74.6452C29.8654 80.1886 34.5395 84.2128 40.144 84.2128C45.7486 84.2128 50.4226 80.1886 51.2565 74.6452L51.3019 74.3428C51.427 73.5145 52.2021 72.9525 53.0292 73.0681C53.8574 73.1932 54.4278 73.9656 54.3027 74.7949L54.2572 75.0972C53.1979 82.1372 47.2627 87.2485 40.144 87.2485Z" fill="#E0D4D3"/>
<path d="M40.144 87.2485C33.0254 87.2485 27.0902 82.1372 26.0299 75.0972L25.9854 74.7949C25.8603 73.9656 26.4297 73.1932 27.2588 73.0681C28.0879 72.9468 28.8611 73.5135 28.9861 74.3428L29.0307 74.6452C29.8654 80.1886 34.5395 84.2128 40.144 84.2128C45.7486 84.2128 50.4226 80.1886 51.2565 74.6452L51.3019 74.3428C51.427 73.5145 52.2021 72.9525 53.0292 73.0681C53.8574 73.1932 54.4278 73.9656 54.3027 74.7949L54.2572 75.0972C53.1979 82.1372 47.2627 87.2485 40.144 87.2485Z" fill="#E0D4D3"/>
<path d="M29.0307 74.6452L28.9861 74.3429C28.8611 73.5136 28.0879 72.9468 27.2588 73.0681C26.4297 73.1932 25.8603 73.9656 25.9854 74.7949L26.0299 75.0973C26.1597 75.9597 26.3653 76.7928 26.6344 77.5918L29.8323 77.4506C29.4561 76.572 29.1804 75.6337 29.0307 74.6452Z" fill="#9C9A9C"/>
<path d="M54.2572 75.0976L54.3027 74.7952C54.4278 73.9659 53.8583 73.1935 53.0292 73.0684C52.202 72.9528 51.427 73.5148 51.3019 74.3431L51.2564 74.6455C51.1588 75.2947 51.0034 75.9212 50.8054 76.5249L54.0052 76.3827C54.1066 75.9629 54.1918 75.5335 54.2572 75.0976Z" fill="#9C9A9C"/>
<path d="M67.4561 75.8018H12.832C11.4344 75.8018 10.3031 74.6692 10.3031 73.2722C10.3031 71.8752 11.4344 70.7426 12.832 70.7426H67.4561C68.8536 70.7426 69.985 71.8752 69.985 73.2722C69.985 74.6692 68.8536 75.8018 67.4561 75.8018Z" fill="#9C9A9C"/>
<path d="M67.456 70.7425H36.4705C36.136 71.1719 35.9294 71.7036 35.9294 72.2902C35.9294 73.6873 37.0617 74.8198 38.4584 74.8198H69.4439C69.7774 74.3905 69.9849 73.8578 69.9849 73.2721C69.9849 71.8751 68.8536 70.7425 67.456 70.7425Z" fill="#E0D4D3"/>
<path d="M134.966 176.6H130.205V158.024H134.966V176.6Z" fill="#39424B"/>
<path d="M163.778 147.44V156.46H143.301V147.44H163.778Z" fill="#39424B"/>
<path d="M197.43 184.46H174.177L169.584 153.736H202.024L197.43 184.46Z" fill="#39424B"/>
<path d="M173.43 179.459L174.177 184.46H197.43L198.178 179.459H173.43Z" fill="#223138"/>
<path d="M178.713 174.564L177.547 166.762C177.156 164.153 179.176 161.808 181.814 161.808H187.655C190.292 161.808 192.313 164.153 191.921 166.762L190.756 174.564C190.44 176.677 188.625 178.242 186.488 178.242H182.98C180.844 178.242 179.028 176.677 178.713 174.564Z" fill="#121D21"/>
<path d="M182.827 162.906C182.827 169.352 188.051 174.576 194.494 174.576C196.077 174.576 197.584 174.257 198.96 173.687L202.024 153.2H182.827V162.906Z" fill="#223138"/>
<path d="M179.782 173.637L178.615 165.836C178.225 163.227 180.246 160.881 182.883 160.881H188.723C191.361 160.881 193.38 163.227 192.991 165.836L191.825 173.637C191.509 175.751 189.694 177.314 187.557 177.314H184.049C181.913 177.314 180.098 175.751 179.782 173.637Z" fill="#223138"/>
<path d="M188.723 160.88H182.883L182.827 160.884V163.441C182.827 168.849 186.51 173.386 191.501 174.71C191.647 174.372 191.768 174.017 191.825 173.636L192.991 165.836C193.38 163.227 191.361 160.88 188.723 160.88Z" fill="#121D21"/>
<path d="M12.0049 201.113H7.81592V181.026H12.0049V201.113Z" fill="#39424B"/>
<path d="M7.51735 204.824C6.4334 204.824 5.55316 203.945 5.55316 202.859V179.28C5.55316 178.195 6.4334 177.315 7.51735 177.315C8.6032 177.315 9.48249 178.195 9.48249 179.28V202.859C9.48249 203.945 8.6032 204.824 7.51735 204.824Z" fill="#9C9A9C"/>
<path d="M36.1512 147.306H32.1034V135.278C32.1034 134.159 33.0092 133.253 34.1263 133.253C35.2444 133.253 36.1512 134.159 36.1512 135.278V147.306Z" fill="#39424B"/>
<path d="M206.487 213.041H138.686C130.53 213.041 123.895 206.404 123.895 198.246V132.063C123.895 130.878 124.854 129.919 126.037 129.919C127.221 129.919 128.18 130.878 128.18 132.063V198.246C128.18 204.04 132.894 208.754 138.686 208.754H206.487C211.161 208.754 215.316 205.614 216.594 201.118L235.997 132.809C237.325 128.132 236.966 123.11 234.988 118.669L218.115 80.823C217.35 79.1057 215.641 77.9968 213.761 77.9968H210.031C208.848 77.9968 207.888 77.0377 207.888 75.853C207.888 74.6692 208.848 73.7101 210.031 73.7101H213.761C217.331 73.7101 220.577 75.816 222.029 79.0773L238.901 116.923C241.29 122.28 241.723 128.338 240.119 133.98L220.716 202.291C218.919 208.621 213.068 213.041 206.487 213.041Z" fill="#223138"/>
<path d="M237.595 116.459L222.677 122.528L216.89 108.298L231.808 102.228L237.595 116.459Z" fill="#223138"/>
<path d="M73.2368 199.465C70.2332 199.465 67.7905 197.021 67.7905 194.018C67.7905 191.013 70.2332 188.569 73.2368 188.569C76.2404 188.569 78.6841 191.013 78.6841 194.018C78.6841 197.021 76.2404 199.465 73.2368 199.465Z" fill="#223138"/>
<path d="M15.2871 199.019C12.5242 199.019 10.2861 196.78 10.2861 194.017C10.2861 159.494 38.3656 131.408 72.8797 131.408C80.7308 131.408 88.3952 132.85 95.6579 135.697C98.2285 136.706 99.4963 139.608 98.4881 142.18C97.4809 144.751 94.5796 146.017 92.0081 145.012C85.9137 142.622 79.4772 141.411 72.8797 141.411C43.8792 141.411 20.2871 165.01 20.2871 194.017C20.2871 196.78 18.0482 199.019 15.2871 199.019Z" fill="#9C9A9C"/>
<path d="M14.3348 197.114C14.3348 197.725 14.2192 198.308 14.0183 198.851C14.4238 198.957 14.8474 199.019 15.287 199.019C18.049 199.019 20.2871 196.779 20.2871 194.017C20.2871 174.959 30.4728 158.235 45.6851 149.006C27.2389 157.187 14.3348 175.666 14.3348 197.114Z" fill="#7F747F"/>
<path d="M95.6568 135.697C88.3951 132.85 80.7307 131.408 72.8796 131.408C61.3266 131.408 50.4975 134.558 41.1976 140.04C49.0497 136.484 57.762 134.503 66.9264 134.503C74.7784 134.503 82.4419 135.947 89.7046 138.794C92.2467 139.791 93.5107 142.639 92.5641 145.19C94.985 145.825 97.5528 144.566 98.488 142.18C99.4961 139.608 98.2284 136.706 95.6568 135.697Z" fill="#7F747F"/>
<path d="M196.429 212.922H43.4727C41.3029 212.922 39.5433 211.163 39.5433 208.993C39.5433 206.823 41.3029 205.063 43.4727 205.063H196.429C200.091 205.063 203.32 202.882 204.689 199.493L216.894 160.646L216.981 160.398C217.373 159.39 217.248 158.299 216.636 157.404C216.026 156.511 215.054 155.999 213.973 155.999H203.959C201.789 155.999 200.03 154.239 200.03 152.068C200.03 149.899 201.789 148.139 203.959 148.139H213.973C217.635 148.139 221.055 149.944 223.123 152.968C225.162 155.951 225.619 159.733 224.356 163.113L212.142 201.985L212.055 202.233C209.529 208.727 203.396 212.922 196.429 212.922Z" fill="#9C9A9C"/>
<path d="M223.123 152.967C221.054 149.944 217.635 148.139 213.973 148.139H203.959C202.187 148.139 200.689 149.314 200.201 150.926C200.49 150.858 200.792 150.818 201.102 150.818H211.115C214.777 150.818 218.198 152.623 220.265 155.647C222.305 158.63 222.762 162.412 221.498 165.792L209.285 204.664L209.198 204.912C208.508 206.683 207.544 208.276 206.374 209.667C208.871 207.826 210.867 205.289 212.055 202.232L212.142 201.985L224.355 163.112C225.619 159.733 225.162 155.951 223.123 152.967Z" fill="#C1C1C1"/>
<path d="M110.68 151.95C110.68 145.505 115.903 140.279 122.347 140.279H137.824C144.267 140.279 149.492 145.505 149.492 151.95C149.492 158.395 144.267 163.621 137.824 163.621H122.347C115.903 163.621 110.68 158.395 110.68 151.95Z" fill="#9C9A9C"/>
<path d="M148.271 151.912C148.271 145.669 143.212 140.61 136.97 140.61H121.98C115.739 140.61 110.68 145.669 110.68 151.912C110.68 153.308 110.944 154.636 111.405 155.869C119.335 158.714 129.837 160.645 143.69 160.986C146.465 158.927 148.271 155.635 148.271 151.912Z" fill="#51585E"/>
<path d="M196.876 140.279V163.621H179.374V140.279H196.876Z" fill="#39424B"/>
<path d="M198.78 171.361C192.337 171.361 187.112 166.136 187.112 159.69V144.208C187.112 137.764 192.337 132.538 198.78 132.538C205.223 132.538 210.448 137.764 210.448 144.208V159.69C210.448 166.136 205.223 171.361 198.78 171.361Z" fill="#9C9A9C"/>
<path d="M199.257 142.601V158.083C199.257 162.829 202.094 166.905 206.158 168.728C208.776 166.589 210.448 163.335 210.448 159.69V144.208C210.448 139.464 207.611 135.388 203.545 133.563C200.928 135.704 199.257 138.956 199.257 142.601Z" fill="#C1C1C1"/>
<path d="M175.143 171.062H161.126C156.265 171.062 152.323 167.121 152.323 162.257V141.047C152.323 136.184 156.265 132.24 161.126 132.24H175.143C180.005 132.24 183.946 136.184 183.946 141.047V162.257C183.946 167.121 180.005 171.062 175.143 171.062Z" fill="#9C9A9C"/>
<path d="M161.126 171.062H175.143C176.307 171.062 177.417 170.831 178.433 170.422C178.159 160.749 177.328 144.035 166.809 132.24H161.126C156.265 132.24 152.323 136.184 152.323 141.047V162.257C152.323 163.148 152.457 164.005 152.703 164.815L152.783 164.764L152.766 165.007C153.922 168.522 157.225 171.062 161.126 171.062Z" fill="#51585E"/>
<path d="M200.047 197.083H163.94C161.353 197.083 159.254 194.985 159.254 192.395V184.861C159.254 182.272 161.353 180.173 163.94 180.173H200.047C202.635 180.173 204.734 182.272 204.734 184.861V192.395C204.734 194.985 202.635 197.083 200.047 197.083Z" fill="#223138"/>
<path d="M200.047 180.173H168.542V186.68C168.542 189.268 170.639 191.367 173.227 191.367H204.734V184.861C204.734 182.272 202.635 180.173 200.047 180.173Z" fill="#39424B"/>
<path d="M167.708 193.511C165.011 193.511 162.825 191.325 162.825 188.629C162.825 185.932 165.011 183.745 167.708 183.745H196.28C198.976 183.745 201.161 185.932 201.161 188.629C201.161 191.325 198.976 193.511 196.28 193.511H167.708Z" fill="#39424B"/>
<path d="M201.161 188.629C201.161 185.932 198.977 183.745 196.28 183.745H168.542V186.68C168.542 189.268 170.639 191.367 173.227 191.367H200.321C200.852 190.586 201.161 189.644 201.161 188.629Z" fill="#51585E"/>
<path d="M179.677 203.277H170.628C169.247 203.277 168.127 202.157 168.127 200.776C168.127 199.394 169.247 198.275 170.628 198.275H179.677C181.057 198.275 182.176 199.394 182.176 200.776C182.176 202.157 181.057 203.277 179.677 203.277Z" fill="#1E0101"/>
<path d="M132.705 197.56C127.576 197.56 123.419 193.401 123.419 188.272V178.983C123.419 173.853 127.576 169.694 132.705 169.694C137.833 169.694 141.991 173.853 141.991 178.983V188.272C141.991 193.401 137.833 197.56 132.705 197.56Z" fill="#39424B"/>
<path d="M123.419 188.272C123.419 183.142 127.576 178.983 132.705 178.983H141.991C147.119 178.983 151.278 183.142 151.278 188.272C151.278 193.401 147.119 197.56 141.991 197.56H132.705C127.576 197.56 123.419 193.401 123.419 188.272Z" fill="#39424B"/>
<path d="M146.396 188.272C146.396 190.771 144.37 192.797 141.872 192.797C139.373 192.797 137.348 190.771 137.348 188.272C137.348 185.772 139.373 183.746 141.872 183.746C144.37 183.746 146.396 185.772 146.396 188.272Z" fill="#223138"/>
<path d="M141.872 189.938C140.953 189.938 140.205 189.19 140.205 188.271C140.205 187.352 140.953 186.604 141.872 186.604C142.791 186.604 143.538 187.352 143.538 188.271C143.538 189.19 142.791 189.938 141.872 189.938Z" fill="#BDBEBD"/>
<path d="M171.397 188.272C171.397 190.771 169.372 192.797 166.874 192.797C164.375 192.797 162.349 190.771 162.349 188.272C162.349 185.772 164.375 183.746 166.874 183.746C169.372 183.746 171.397 185.772 171.397 188.272Z" fill="#223138"/>
<path d="M166.874 189.938C165.955 189.938 165.207 189.19 165.207 188.271C165.207 187.352 165.955 186.604 166.874 186.604C167.793 186.604 168.54 187.352 168.54 188.271C168.54 189.19 167.793 189.938 166.874 189.938Z" fill="#BDBEBD"/>
<path d="M166.874 192.796V193.154C169.569 193.154 171.754 190.968 171.754 188.272C171.754 185.575 169.569 183.388 166.874 183.388H141.872C139.176 183.388 136.991 185.575 136.991 188.272C136.991 190.968 139.176 193.154 141.872 193.154H166.874V192.796V192.439H141.872C140.72 192.439 139.681 191.973 138.926 191.218C138.171 190.463 137.705 189.423 137.705 188.272C137.705 187.119 138.171 186.079 138.926 185.323C139.681 184.569 140.72 184.103 141.872 184.103H166.874C168.025 184.103 169.064 184.569 169.82 185.323C170.575 186.079 171.04 187.119 171.04 188.272C171.04 189.423 170.575 190.463 169.82 191.218C169.064 191.973 168.025 192.439 166.874 192.439V192.796Z" fill="#BDBEBD"/>
<path d="M179.802 140.219H156.467C155.678 140.219 155.039 139.58 155.039 138.791C155.039 138.001 155.678 137.362 156.467 137.362H179.802C180.591 137.362 181.231 138.001 181.231 138.791C181.231 139.58 180.591 140.219 179.802 140.219Z" fill="#39424B"/>
<path d="M179.802 146.651H156.467C155.678 146.651 155.039 146.011 155.039 145.222C155.039 144.432 155.678 143.792 156.467 143.792H179.802C180.591 143.792 181.231 144.432 181.231 145.222C181.231 146.011 180.591 146.651 179.802 146.651Z" fill="#39424B"/>
<path d="M179.802 153.082H156.467C155.678 153.082 155.039 152.442 155.039 151.652C155.039 150.863 155.678 150.223 156.467 150.223H179.802C180.591 150.223 181.231 150.863 181.231 151.652C181.231 152.442 180.591 153.082 179.802 153.082Z" fill="#39424B"/>
<path d="M179.802 159.512H156.467C155.678 159.512 155.039 158.872 155.039 158.083C155.039 157.293 155.678 156.653 156.467 156.653H179.802C180.591 156.653 181.231 157.293 181.231 158.083C181.231 158.872 180.591 159.512 179.802 159.512Z" fill="#39424B"/>
<path d="M179.802 165.942H156.467C155.678 165.942 155.039 165.303 155.039 164.513C155.039 163.724 155.678 163.084 156.467 163.084H179.802C180.591 163.084 181.231 163.724 181.231 164.513C181.231 165.303 180.591 165.942 179.802 165.942Z" fill="#39424B"/>
<path d="M208.809 100.353H199.32V96.2156H208.809V100.353Z" fill="#39424B"/>
<path d="M207.468 93.1128H200.661V92.329C200.661 91.4514 201.372 90.7396 202.249 90.7396H205.88C206.757 90.7396 207.468 91.4514 207.468 92.329V93.1128Z" fill="#C1C1C1"/>
<path d="M212.093 97.0674H196.035V95.2173C196.035 93.1474 197.713 91.4699 199.782 91.4699H208.345C210.416 91.4699 212.093 93.1474 212.093 95.2173V97.0674Z" fill="#C1C1C1"/>
<path d="M204.072 96.1736V94.3255C204.072 93.174 204.601 92.157 205.418 91.4699H199.782C197.713 91.4699 196.035 93.1474 196.035 95.2183V97.0674H212.093V96.1736H204.072Z" fill="#9C9A9C"/>
<path d="M210.616 135.31H139.848V135.309C139.848 114.843 156.435 98.251 176.897 98.251H210.616C220.846 98.251 229.14 106.547 229.14 116.78C229.14 127.013 220.846 135.31 210.616 135.31Z" fill="#E23B37"/>
<path d="M183.928 140.667C183.728 135.982 179.877 132.24 175.143 132.24H161.126C156.391 132.24 152.542 135.982 152.342 140.667H183.928Z" fill="#7F747F"/>
<path d="M187.663 140.667H209.897C208.398 135.954 203.99 132.538 198.78 132.538C193.572 132.538 189.162 135.954 187.663 140.667Z" fill="#7F747F"/>
<path d="M209.895 140.667L209.852 140.543C209.777 140.316 209.696 140.091 209.608 139.87C209.573 139.784 209.535 139.701 209.499 139.616C209.422 139.435 209.341 139.256 209.255 139.08C209.204 138.975 209.148 138.871 209.093 138.766C209.014 138.619 208.935 138.473 208.85 138.328C208.78 138.209 208.708 138.092 208.634 137.976C208.559 137.855 208.48 137.737 208.399 137.619C208.31 137.491 208.22 137.362 208.126 137.236C208.055 137.142 207.983 137.052 207.91 136.96C207.799 136.82 207.685 136.678 207.566 136.543L207.399 136.359C207.256 136.203 207.113 136.047 206.961 135.899L206.895 135.836C205.925 134.897 204.793 134.123 203.545 133.563C201.403 135.315 199.912 137.819 199.435 140.667H209.895Z" fill="#9C9A9C"/>
<path d="M200.518 127.806C190.288 127.806 181.994 119.51 181.994 109.277C181.994 105.146 183.347 101.332 185.632 98.251H174.396C153.936 98.251 137.348 114.843 137.348 135.309H208.115C214.216 135.309 219.627 132.357 223.002 127.806H200.518Z" fill="#BF2121"/>
<path d="M122.824 134.444H98C93.3648 134.444 89.6069 130.685 89.6069 126.048C89.6069 121.412 93.3648 117.652 98 117.652H122.824V134.444Z" fill="#1E0101"/>
<path d="M18.5303 128.211V148.932C12.8102 148.932 8.1731 144.293 8.1731 138.571C8.1731 132.849 12.8102 128.211 18.5303 128.211Z" fill="#E23B37"/>
<path d="M9.42957 134.857L13.7265 147.801C15.0919 148.521 16.6449 148.932 18.2945 148.932V129.257C14.3822 129.257 11.0138 131.548 9.42957 134.857Z" fill="#BF2121"/>
<path d="M18.2547 150.042H15.8414C14.7953 150.042 13.9103 149.265 13.7758 148.227L11.3359 129.453C11.1739 128.206 12.1442 127.101 13.4015 127.101H18.2547C24.5878 127.101 29.7224 132.237 29.7224 138.571C29.7224 144.907 24.5878 150.042 18.2547 150.042Z" fill="#51585E"/>
<path d="M11.8192 133.174H15.5761C21.9092 133.174 27.0438 138.31 27.0438 144.644C27.0438 145.116 27.0059 145.579 26.9509 146.036C28.6735 144.028 29.7224 141.425 29.7224 138.571C29.7224 132.237 24.5878 127.101 18.2547 127.101H13.4015C12.1442 127.101 11.1739 128.206 11.3359 129.454L11.8192 133.174Z" fill="#39424B"/>
<path d="M34.4836 139.643H24.0079V137.499H34.4836V139.643Z" fill="#39424B"/>
<path d="M27.3403 138.571C27.3403 140.215 26.0081 141.549 24.3651 141.549C22.7202 141.549 21.388 140.215 21.388 138.571C21.388 136.928 22.7202 135.595 24.3651 135.595C26.0081 135.595 27.3403 136.928 27.3403 138.571Z" fill="#39424B"/>
<path d="M91.988 126.703C91.988 127.821 91.0822 128.728 89.9642 128.728H29.1263C28.0082 128.728 27.1024 127.821 27.1024 126.703C27.1024 125.585 28.0082 124.679 29.1263 124.679H89.9642C91.0822 124.679 91.988 125.585 91.988 126.703Z" fill="#39424B"/>
<path d="M43.4101 142.542C42.8198 142.542 42.3413 142.064 42.3413 141.473V127.892C42.3413 127.301 42.8198 126.823 43.4101 126.823C44.0004 126.823 44.4789 127.301 44.4789 127.892V141.473C44.4789 142.064 44.0004 142.542 43.4101 142.542Z" fill="#39424B"/>
<path d="M71.9833 138.135C71.393 138.135 70.9145 137.657 70.9145 137.066V127.892C70.9145 127.301 71.393 126.823 71.9833 126.823C72.5736 126.823 73.0521 127.301 73.0521 127.892V137.066C73.0521 137.657 72.5736 138.135 71.9833 138.135Z" fill="#39424B"/>
<path d="M73.2985 198.037C72.9962 198.037 72.6892 197.999 72.3823 197.918C70.4759 197.413 69.3389 195.458 69.8439 193.55L83.8917 140.438C84.3967 138.531 86.3505 137.394 88.2578 137.898C90.1652 138.403 91.3022 140.358 90.7981 142.266L76.7493 195.379C76.3249 196.978 74.8799 198.037 73.2985 198.037Z" fill="#9C9A9C"/>
<path d="M93.1383 141.678C93.1383 144.99 90.455 147.674 87.1434 147.674C83.8328 147.674 81.1495 144.99 81.1495 141.678C81.1495 138.366 83.8328 135.682 87.1434 135.682C90.455 135.682 93.1383 138.366 93.1383 141.678Z" fill="#9C9A9C"/>
<path d="M87.1435 144.816C85.4134 144.816 84.0073 143.409 84.0073 141.678C84.0073 139.947 85.4134 138.541 87.1435 138.541C88.8737 138.541 90.2807 139.947 90.2807 141.678C90.2807 143.409 88.8737 144.816 87.1435 144.816Z" fill="#39424B"/>
<path d="M80.7781 185.233L71.3418 182.956C69.9272 182.615 69.0573 181.191 69.3984 179.776C69.7395 178.361 71.1627 177.491 72.5774 177.832L82.0127 180.108C83.4283 180.45 84.2971 181.874 83.957 183.289C83.6159 184.704 82.1927 185.574 80.7781 185.233Z" fill="#9C9A9C"/>
<path d="M88.4121 156.364L78.9768 154.088C77.5621 153.747 76.6914 152.323 77.0325 150.908C77.3745 149.493 78.7977 148.623 80.2123 148.964L89.6486 151.241C91.0623 151.582 91.933 153.006 91.5919 154.421C91.2499 155.836 89.8267 156.706 88.4121 156.364Z" fill="#9C9A9C"/>
<path d="M80.8217 178.477L74.7454 177.011C73.8348 176.791 73.2748 175.875 73.4937 174.964C73.7145 174.052 74.6298 173.492 75.5403 173.711L81.6167 175.177C82.5273 175.398 83.0882 176.314 82.8684 177.226C82.6485 178.136 81.7323 178.696 80.8217 178.477Z" fill="#223138"/>
<path d="M81.7739 173.952L75.6975 172.486C74.786 172.266 74.227 171.349 74.4459 170.437C74.6657 169.527 75.5819 168.967 76.4935 169.186L82.5689 170.653C83.4804 170.872 84.0404 171.789 83.8215 172.7C83.6007 173.612 82.6845 174.172 81.7739 173.952Z" fill="#223138"/>
<path d="M83.0833 169.605L77.0069 168.139C76.0964 167.92 75.5354 167.002 75.7562 166.091C75.9751 165.181 76.8923 164.62 77.8028 164.84L83.8792 166.307C84.7898 166.525 85.3507 167.443 85.1299 168.354C84.9111 169.265 83.9939 169.826 83.0833 169.605Z" fill="#223138"/>
<path d="M84.2148 165.139L78.1384 163.673C77.2279 163.454 76.6679 162.536 76.8868 161.626C77.1075 160.715 78.0228 160.155 78.9334 160.375L85.0098 161.841C85.9203 162.06 86.4812 162.977 86.2614 163.888C86.0416 164.799 85.1263 165.36 84.2148 165.139Z" fill="#223138"/>
<path d="M85.4047 160.673L79.3283 159.208C78.4178 158.988 77.8578 158.072 78.0776 157.16C78.2965 156.249 79.2137 155.689 80.1242 155.909L86.2006 157.375C87.1112 157.594 87.6721 158.511 87.4523 159.422C87.2325 160.333 86.3153 160.894 85.4047 160.673Z" fill="#223138"/>
<path d="M87.1501 98.1128L88.1488 112.217L89.1485 126.32C89.157 126.453 89.1826 126.581 89.2186 126.703H92.695C92.7547 126.501 92.785 126.286 92.7698 126.064L91.7702 111.961L90.7715 97.856C90.7611 97.6987 90.7242 97.5508 90.6758 97.4077H87.2402C87.1663 97.6276 87.1331 97.8655 87.1501 98.1128Z" fill="#260202"/>
<path d="M266.464 85.7975V114.019C274.255 114.019 280.571 107.701 280.571 99.9087C280.571 92.1153 274.255 85.7975 266.464 85.7975Z" fill="#F2A300"/>
<path d="M266.464 85.7978V86.4233C273.215 86.9351 278.809 92.2454 279.436 99.2133C279.941 104.835 277.069 109.97 272.502 112.647C277.269 110.382 280.571 105.538 280.571 99.909C280.571 92.1155 274.255 85.7978 266.464 85.7978Z" fill="#FFC255"/>
<path d="M276.197 98.7505H267.744C266.955 98.7505 266.315 98.1107 266.315 97.3222C266.315 96.5327 266.955 95.893 267.744 95.893H276.197C276.986 95.893 277.626 96.5327 277.626 97.3222C277.626 98.1107 276.986 98.7505 276.197 98.7505Z" fill="#FFC255"/>
<path d="M276.197 104.348H267.744C266.955 104.348 266.315 103.708 266.315 102.919C266.315 102.129 266.955 101.49 267.744 101.49H276.197C276.986 101.49 277.626 102.129 277.626 102.919C277.626 103.708 276.986 104.348 276.197 104.348Z" fill="#FFC255"/>
<path d="M266.84 115.531H270.128C271.552 115.531 272.756 114.473 272.94 113.059L276.263 87.4892C276.484 85.7918 275.162 84.2858 273.45 84.2858H266.84C258.214 84.2858 251.221 91.2803 251.221 99.9087C251.221 108.536 258.214 115.531 266.84 115.531Z" fill="#C1C1C1"/>
<path d="M259.482 108.288H259.481C254.616 100.893 255.718 91.3068 261.608 85.1871C255.556 87.3395 251.221 93.1161 251.221 99.9087C251.221 108.536 258.214 115.531 266.84 115.531H268.634C265.01 114.211 261.764 111.757 259.482 108.288Z" fill="#9C9A9C"/>
<path d="M253.75 101.337C253.75 103.577 255.565 105.393 257.804 105.393C260.043 105.393 261.858 103.577 261.858 101.337C261.858 99.0985 260.043 97.2825 257.804 97.2825C255.565 97.2825 253.75 99.0985 253.75 101.337Z" fill="#9C9A9C"/>
<path d="M244.736 101.368H259.005V98.4491H244.736V101.368Z" fill="#39424B"/>
<path d="M254.464 99.9088C254.464 102.147 256.28 103.963 258.519 103.963C260.758 103.963 262.572 102.147 262.572 99.9088C262.572 97.6693 260.758 95.8533 258.519 95.8533C256.28 95.8533 254.464 97.6693 254.464 99.9088Z" fill="#39424B"/>
<path d="M283.112 136.032C282.998 134.655 281.796 133.644 280.414 133.746C279.038 133.86 278.015 135.069 278.129 136.445L282.443 188.555L241.486 155.367C240.413 154.497 238.839 154.663 237.969 155.735C237.1 156.808 237.266 158.383 238.339 159.252L283.126 195.545C283.595 195.926 284.161 196.104 284.72 196.1C284.953 196.164 285.195 196.205 285.446 196.197L285.583 196.19C286.959 196.076 287.983 194.868 287.868 193.491L283.112 136.032Z" fill="#39424B"/>
<path d="M244.285 157.634L241.486 155.366C240.413 154.496 238.839 154.663 237.969 155.735C237.1 156.808 237.266 158.383 238.339 159.252L241.307 161.659C242.242 160.265 243.236 158.922 244.285 157.634Z" fill="#223138"/>
<path d="M283.112 136.032C282.998 134.655 281.796 133.644 280.414 133.746C279.038 133.86 278.015 135.069 278.129 136.445L278.315 138.7C279.644 138.529 280.984 138.402 282.335 138.333C282.663 138.317 282.983 138.266 283.29 138.19L283.112 136.032Z" fill="#223138"/>
<path d="M235.328 162.159C234.363 162.159 233.389 161.881 232.532 161.3C230.243 159.753 229.643 156.644 231.19 154.354C242.881 137.059 262.277 126.734 283.076 126.734C285.838 126.734 288.076 128.972 288.076 131.735C288.076 134.498 285.838 136.737 283.076 136.737C265.603 136.737 249.302 145.418 239.474 159.958C238.507 161.388 236.931 162.159 235.328 162.159Z" fill="#9C9A9C"/>
<path d="M247.199 150.915C250.712 147.63 254.64 144.859 258.864 142.661L253.16 134.366C248.982 136.645 245.059 139.4 241.477 142.592L247.199 150.915Z" fill="#7F747F"/>
<path d="M264.363 140.187L259.073 131.529C254.663 133.364 250.475 135.704 246.59 138.499L251.819 147.062C255.673 144.206 259.893 141.894 264.363 140.187Z" fill="#7F747F"/>
<path d="M283.076 126.733C273.509 126.733 264.241 128.923 255.88 132.966C255.933 133.2 255.997 133.432 256.085 133.662C256.455 134.631 257.094 135.418 257.883 135.97C259.196 136.891 260.93 137.163 262.542 136.546C270.717 133.418 279.375 132.407 287.776 133.424C287.968 132.896 288.076 132.328 288.076 131.735C288.076 128.972 285.838 126.733 283.076 126.733Z" fill="#C1C1C1"/>
<path d="M285.75 199.465C282.747 199.465 280.304 197.021 280.304 194.018C280.304 191.013 282.747 188.569 285.75 188.569C288.754 188.569 291.198 191.013 291.198 194.018C291.198 197.021 288.754 199.465 285.75 199.465Z" fill="#223138"/>
<path d="M285.726 197.223C284.799 197.223 283.908 196.705 283.475 195.816L232.964 91.9525C232.359 90.71 232.875 89.2134 234.118 88.6088C235.359 88.0088 236.855 88.5225 237.46 89.7641L287.972 193.627C288.577 194.869 288.059 196.367 286.818 196.97C286.466 197.141 286.093 197.223 285.726 197.223Z" fill="#223138"/>
<path d="M287.868 193.491L287.854 193.31L282.08 184.174L282.443 188.555L275.247 182.725L283.512 195.801C283.891 196.006 284.306 196.103 284.721 196.1C284.953 196.164 285.195 196.205 285.446 196.197L285.583 196.19C286.96 196.076 287.983 194.868 287.868 193.491Z" fill="#223138"/>
<path d="M267.897 165.199C265.248 165.199 262.704 163.72 261.468 161.179L228.788 93.9842C227.062 90.4348 228.539 86.1585 232.086 84.4326C235.634 82.7067 239.909 84.1833 241.634 87.7317L274.314 154.926C276.04 158.475 274.563 162.751 271.016 164.477C270.009 164.967 268.944 165.199 267.897 165.199Z" fill="#9C9A9C"/>
<path d="M267.897 165.199C265.248 165.199 262.704 163.72 261.468 161.179L228.788 93.9842C227.062 90.4348 228.539 86.1585 232.086 84.4326C235.634 82.7067 239.909 84.1833 241.634 87.7317L274.314 154.926C276.04 158.475 274.563 162.751 271.016 164.477C270.009 164.967 268.944 165.199 267.897 165.199Z" fill="#9C9A9C"/>
<path d="M274.314 154.926L241.634 87.7318C240.593 85.5889 238.619 84.209 236.439 83.8251C234.468 85.9244 233.883 89.0966 235.217 91.8404L267.896 159.035C268.94 161.179 270.916 162.554 273.096 162.936C275.063 160.837 275.648 157.667 274.314 154.926Z" fill="#C1C1C1"/>
<path d="M274.314 154.926L241.634 87.7318C240.593 85.5889 238.619 84.209 236.439 83.8251C234.468 85.9244 233.883 89.0966 235.217 91.8404L267.896 159.035C268.94 161.179 270.916 162.554 273.096 162.936C275.063 160.837 275.648 157.667 274.314 154.926Z" fill="#C1C1C1"/>
<path d="M269.772 143.164C269.554 142.416 268.928 141.818 268.108 141.689L265.151 141.221C264.018 141.043 262.955 141.816 262.777 142.947L261.697 149.786C261.519 150.919 262.291 151.982 263.422 152.16L266.379 152.628C267.2 152.758 267.98 152.383 268.417 151.739C270.16 151.251 271.549 149.792 271.85 147.886C272.151 145.982 271.278 144.165 269.772 143.164Z" fill="#7F747F"/>
<path d="M271.481 149.1L267.857 141.649L265.151 141.221C264.018 141.043 262.955 141.816 262.777 142.947L262.114 147.146L264.647 152.355L266.379 152.628C267.2 152.758 267.98 152.383 268.417 151.739C269.766 151.361 270.896 150.398 271.481 149.1Z" fill="#9C9A9C"/>
<path d="M229.508 95.4658L232.432 101.478L244.836 94.3143L241.912 88.3027L229.508 95.4658Z" fill="#7F747F"/>
<path d="M235.342 92.0968L238.266 98.1094L244.836 94.3145L243.659 91.8949L241.912 88.3029L235.342 92.0968Z" fill="#9C9A9C"/>
<path d="M268.028 150.117H266.642V140.564H268.028C270.665 140.564 272.804 142.703 272.804 145.341C272.804 147.979 270.665 150.117 268.028 150.117Z" fill="#E47D31"/>
<path d="M268.139 150.878H265.146C263.999 150.878 263.07 149.949 263.07 148.802V141.878C263.07 140.732 263.999 139.803 265.146 139.803H268.139C269.285 139.803 270.213 140.732 270.213 141.878V148.802C270.213 149.949 269.285 150.878 268.139 150.878Z" fill="#39424B"/>
<path d="M247.217 91.7096L227.146 99.8756C225.44 100.569 223.496 99.7486 222.802 98.0426C222.109 96.3376 222.929 94.3918 224.634 93.698L244.705 85.5321C246.411 84.8383 248.356 85.6591 249.049 87.3641C249.743 89.0701 248.923 91.0149 247.217 91.7096Z" fill="#39424B"/>
<path d="M249.049 87.3643C248.356 85.6592 246.411 84.8385 244.705 85.5322L232.811 90.3715C232.675 91.0037 232.719 91.6823 232.981 92.3268C233.675 94.0327 235.62 94.8535 237.325 94.1597L249.219 89.3205C249.356 88.6873 249.312 88.0097 249.049 87.3643Z" fill="#51585E"/>
<path d="M49.6012 205.063H43.4727C41.6999 205.063 40.2028 206.238 39.7139 207.851C40.0029 207.783 40.3052 207.743 40.615 207.743H48.9408C49.0356 206.804 49.2658 205.907 49.6012 205.063Z" fill="#C1C1C1"/>
<path d="M196.429 205.062H147.946C148.282 205.907 148.513 206.803 148.608 207.743H193.572C196.586 207.743 199.304 206.261 200.936 203.848C199.604 204.627 198.06 205.062 196.429 205.062Z" fill="#C1C1C1"/>
<path d="M48.9407 207.743C48.9075 208.075 48.8895 208.413 48.8895 208.754C48.8895 210.244 49.2249 211.652 49.8077 212.922H147.741C148.324 211.652 148.658 210.244 148.658 208.754C148.658 208.413 148.641 208.075 148.608 207.743H48.9407Z" fill="#7F747F"/>
<path d="M143.301 218.758H63.5333C58.0103 218.758 53.5333 214.279 53.5333 208.754C53.5333 203.23 58.0103 198.75 63.5333 198.75H143.301C148.824 198.75 153.302 203.23 153.302 208.754C153.302 214.279 148.824 218.758 143.301 218.758Z" fill="#9C9A9C"/>
<path d="M143.301 198.75H83.5449C82.6912 200.223 82.1956 201.928 82.1956 203.753C82.1956 209.278 86.6726 213.755 92.1957 213.755H151.952C152.805 212.283 153.302 210.578 153.302 208.754C153.302 203.229 148.824 198.75 143.301 198.75Z" fill="#C1C1C1"/>
<path d="M187.5 199.737H171.12C167.438 199.737 164.454 196.751 164.454 193.067C164.454 189.384 167.438 186.399 171.12 186.399H187.5C191.182 186.399 194.168 189.384 194.168 193.067C194.168 196.751 191.182 199.737 187.5 199.737Z" fill="#330404"/>
<path d="M187.499 186.399H181.136C180.477 187.745 179.479 188.954 178.007 189.972H183.392C187.075 189.972 190.06 192.958 190.06 196.641C190.06 197.645 189.831 198.595 189.433 199.451C192.172 198.621 194.168 196.079 194.168 193.067C194.168 189.384 191.182 186.399 187.499 186.399Z" fill="#440908"/>
<path d="M190.289 184.129C194.597 184.129 198.089 187.622 198.089 191.933C198.089 196.243 194.597 199.737 190.289 199.737H182.738V191.681C182.738 187.51 186.118 184.129 190.289 184.129Z" fill="#330404"/>
<path d="M190.288 184.129C189.735 184.129 189.197 184.193 188.678 184.305C188.304 185.201 188.095 186.183 188.095 187.215V187.719C188.095 191.889 191.476 195.271 195.645 195.271C196.262 195.271 196.86 195.191 197.436 195.057C197.855 194.1 198.09 193.045 198.09 191.933C198.09 187.623 194.597 184.129 190.288 184.129Z" fill="#440908"/>
<path d="M93.4539 112.086C93.4539 112.086 80.1148 150.618 149.732 156.836C146.35 162.337 150.642 163.482 155.602 160.688C153.064 177.396 155.99 193.731 168.804 191.66C181.618 189.588 181.294 182.182 180.612 174.68C179.929 167.178 187.371 130.877 156.784 117.686C126.196 104.495 94.4791 108.243 94.4791 108.243L93.4539 112.086Z" fill="#B27200"/>
<path d="M156.784 117.686C126.196 104.494 94.4792 108.243 94.4792 108.243L93.454 112.086C93.454 112.086 92.5965 114.567 92.4525 118.369C103.645 116.667 125.401 114.846 147.669 121.217C179.694 130.38 176.963 167.334 178.601 174.687C179.685 179.555 180.605 184.401 177.493 188.194C181.369 184.829 181.075 179.777 180.612 174.68C179.93 167.178 187.371 130.877 156.784 117.686Z" fill="#F2A300"/>
<path d="M94.4791 108.242L93.4539 112.086C93.4539 112.086 87.261 129.999 105.386 143.369C108.589 143.386 112.036 143.222 115.739 142.839C130.044 141.359 143.285 129.808 153.52 116.345C123.982 104.758 94.4791 108.242 94.4791 108.242Z" fill="#895400"/>
<path d="M167.249 65.646C162.995 61.3906 162.995 54.4918 167.249 50.2354L176.808 40.6743C181.063 36.4188 187.96 36.4188 192.214 40.6743C196.468 44.9298 196.468 51.8286 192.214 56.084L182.655 65.646C178.401 69.9005 171.503 69.9005 167.249 65.646Z" fill="#F6AB7D"/>
<path d="M174.952 68.8374C172.164 68.8374 169.376 67.774 167.249 65.6463C165.122 63.5186 164.059 60.7302 164.059 57.9409C164.059 55.1526 165.122 52.3643 167.249 50.2356L176.808 40.6746C178.242 39.2406 179.976 38.29 181.808 37.8227V40.7826C181.808 47.742 185.696 53.7935 191.419 56.8804L182.655 65.6463C180.528 67.774 177.74 68.8374 174.952 68.8374Z" fill="#F48763"/>
<path d="M167.545 43.5597C158.6 42.9257 124.168 47.3631 85.5593 114.437C79.4867 125.869 93.0598 137.66 124.132 134.445C155.206 131.229 181.28 80.4979 182.351 65.8502C185.923 67.2785 189.137 64.9565 187.173 62.4563C185.208 59.9551 174.494 33.5172 171.279 39.7696C169.494 43.3427 169.494 43.3427 169.494 43.3427C169.494 43.3427 169.225 41.4671 168.243 42.1817C167.517 42.7096 168.034 43.5948 167.545 43.5597Z" fill="#330404"/>
<path d="M169.539 43.2488C169.495 43.3398 169.494 43.3427 169.494 43.3427C169.494 43.3427 169.484 43.2839 169.466 43.1958C169.216 43.0138 168.954 42.8366 168.67 42.665C168.334 43.3389 168.332 43.3427 168.332 43.3427C168.332 43.3427 168.251 42.7901 168.021 42.3996C167.634 42.9209 167.971 43.59 167.545 43.5597C167.239 43.5379 166.9 43.5237 166.536 43.5161L166.384 43.5597C166.096 43.5398 165.772 43.5265 165.431 43.519C157.731 43.7019 140.495 47.4152 119.035 68.9996C123.902 81.0685 141.816 92.5687 170.886 92.4379C174.673 85.6775 177.559 79.1919 179.305 73.9526C171.649 70.7103 162.193 66.8624 162.193 66.8624C162.193 66.8624 179.89 50.8689 169.539 43.2488Z" fill="#1E0101"/>
<path d="M187.172 62.4561C185.208 59.955 174.494 33.5171 171.279 39.7695C169.494 43.3425 169.494 43.3425 169.494 43.3425C169.494 43.3425 169.244 41.6233 168.358 42.1123C168.419 67.6641 159.526 112.653 135.613 131.125C161.386 119.003 181.415 78.6506 182.351 65.8501C185.923 67.2783 189.137 64.9563 187.172 62.4561Z" fill="#440908"/>
<path d="M187.172 62.4561C185.208 59.955 174.494 33.5171 171.279 39.7695C169.494 43.3425 169.494 43.3425 169.494 43.3425C169.494 43.3425 169.244 41.6233 168.358 42.1123C168.419 67.6641 159.526 112.653 135.613 131.125C161.386 119.003 181.415 78.6506 182.351 65.8501C185.923 67.2783 189.137 64.9563 187.172 62.4561Z" fill="#440908"/>
<path d="M160.121 91.919C163.52 92.2706 167.106 92.4544 170.887 92.4374C174.673 85.677 177.559 79.1914 179.305 73.9522C174.682 71.995 169.407 69.818 165.95 68.3983C164.618 76.1093 162.703 84.1407 160.121 91.919Z" fill="#330404"/>
<path d="M169.486 43.2991L169.47 43.2167L169.465 43.1958C169.216 43.0138 168.955 42.8366 168.67 42.6651C168.451 43.1058 168.375 43.2574 168.348 43.3114C168.303 48.7781 167.865 55.0552 166.972 61.7407C171.324 56.3906 176.147 48.1137 169.539 43.2489C169.495 43.3399 169.494 43.3427 169.494 43.3427L169.487 43.3067L169.486 43.2991Z" fill="#330404"/>
<path d="M127.852 113.978L120.819 108.196C118.664 106.424 118.352 103.238 120.125 101.082L123.704 96.7253L138.544 108.926L134.964 113.283C133.192 115.439 130.008 115.751 127.852 113.978Z" fill="#1E0101"/>
<path d="M175.205 41.646L169.152 43.6231C169.092 43.7425 169.091 43.7444 169.091 43.7444L169.074 43.6487L158.695 47.0388C160.451 52.4136 168.152 52.2496 173.35 49.321L168.482 58.9134C173.475 61.4486 178.748 56.016 180.402 50.3294C178.677 47.0018 176.844 43.7614 175.205 41.646Z" fill="#330404"/>
<path d="M129.583 112.636L122.123 106.503C119.835 104.621 119.506 101.242 121.386 98.9546L125.184 94.3314L140.928 107.276L137.129 111.898C135.25 114.186 131.871 114.517 129.583 112.636Z" fill="#330404"/>
<path d="M217.174 76.4781C217.174 79.6844 214.576 82.2832 211.371 82.2832C208.165 82.2832 205.566 79.6844 205.566 76.4781C205.566 73.2719 208.165 70.6731 211.371 70.6731C214.576 70.6731 217.174 73.2719 217.174 76.4781Z" fill="#121D21"/>
<path d="M209.585 79.0688H198.334C196.903 79.0688 195.744 77.9088 195.744 76.4786C195.744 75.0484 196.903 73.8883 198.334 73.8883H209.585C211.014 73.8883 212.173 75.0484 212.173 76.4786C212.173 77.9088 211.014 79.0688 209.585 79.0688Z" fill="#CC6600"/>
<path d="M214.079 75.138C214.079 77.6373 208.123 79.6636 200.775 79.6636C193.427 79.6636 187.47 77.6373 187.47 75.138C187.47 72.6387 193.427 70.6134 200.775 70.6134C208.123 70.6134 214.079 72.6387 214.079 75.138Z" fill="#F6AB7D"/>
<path d="M204.644 83.7725H204.643C203.46 83.7725 202.501 82.8133 202.501 81.6286V75.9127C202.501 74.7289 203.46 73.7697 204.643 73.7697H204.644C205.828 73.7697 206.787 74.7289 206.787 75.9127V81.6286C206.787 82.8133 205.828 83.7725 204.644 83.7725Z" fill="#F6AB7D"/>
<path d="M206.965 83.7725C205.781 83.7725 204.823 82.8133 204.823 81.6286V75.9127C204.823 74.7289 205.781 73.7697 206.965 73.7697C208.149 73.7697 209.108 74.7289 209.108 75.9127V81.6286C209.108 82.8133 208.149 83.7725 206.965 83.7725Z" fill="#F6AB7D"/>
<path d="M209.317 83.7725C208.133 83.7725 207.173 82.8133 207.173 81.6286V75.9127C207.173 74.7289 208.133 73.7697 209.317 73.7697C210.501 73.7697 211.46 74.7289 211.46 75.9127V81.6286C211.46 82.8133 210.501 83.7725 209.317 83.7725Z" fill="#F6AB7D"/>
<path d="M211.995 83.7725C210.812 83.7725 209.852 82.8133 209.852 81.6286V75.9127C209.852 74.7289 210.812 73.7697 211.995 73.7697C213.179 73.7697 214.138 74.7289 214.138 75.9127V81.6286C214.138 82.8133 213.179 83.7725 211.995 83.7725Z" fill="#F6AB7D"/>
<path d="M208.484 76.4781C208.484 79.6844 205.886 82.2832 202.68 82.2832C199.474 82.2832 196.876 79.6844 196.876 76.4781C196.876 73.2719 199.474 70.6731 202.68 70.6731C205.886 70.6731 208.484 73.2719 208.484 76.4781Z" fill="#121D21"/>
<path d="M163.289 36.4609C150.143 35.606 128.324 47.9478 125.125 60.3711C120.741 77.3968 146.274 96.2289 189.439 84.8415C194.082 84.3259 200.69 69.3995 192.437 67.594C184.184 65.7885 169.484 62.9509 169.484 62.9509C169.484 62.9509 173.611 59.5968 168.71 60.3711C179.542 56.7592 186.452 37.9678 163.289 36.4609Z" fill="#440908"/>
<path d="M172.305 48.5981L166.782 57.8293C168.384 58.7875 170.077 58.8548 171.7 58.3269C177.335 54.1709 180.371 46.0562 175.21 40.9392L157.844 45.3036C159.222 50.7874 166.916 51.1589 172.305 48.5981Z" fill="#330404"/>
<path d="M141.793 50.3675C142.806 46.4352 145.688 42.5124 149.566 39.0123C138.533 43.1711 127.345 51.7493 125.125 60.3711C120.741 77.3968 146.274 96.2289 189.439 84.8415C191.688 84.5922 194.394 80.9594 195.653 77.0764C158.881 83.0815 137.777 65.9686 141.793 50.3675Z" fill="#330404"/>
<path d="M200.08 59.0605C189.988 59.0605 181.808 50.8775 181.808 40.7829V28.2288C181.808 18.1351 189.988 9.9521 200.08 9.9521C210.171 9.9521 218.353 18.1351 218.353 28.2288V40.7829C218.353 50.8775 210.171 59.0605 200.08 59.0605Z" fill="#F6AB7D"/>
<path d="M181.808 34.8213V30.2047L218.2 25.9028C218.296 26.6648 218.353 27.4401 218.353 28.2286V30.5014L181.808 34.8213Z" fill="#F48763"/>
<path d="M208.939 70.1367C197.928 70.1367 180.554 53.0533 179.632 41.7057C179.591 41.2081 179.989 40.7825 180.488 40.7825H217.034C218.996 40.7825 220.574 42.3881 220.547 44.3509C220.395 55.5231 219.124 70.1367 208.939 70.1367Z" fill="#BF2121"/>
<path d="M220.217 39.8594H216.859C215.39 39.8594 214.2 38.669 214.2 37.2009C214.2 35.7319 215.39 34.5415 216.859 34.5415H220.217C221.684 34.5415 222.875 35.7319 222.875 37.2009C222.875 38.669 221.684 39.8594 220.217 39.8594Z" fill="#F6AB7D"/>
<path d="M219.516 33.842V37.2009C219.516 38.669 218.326 39.8594 216.859 39.8594C215.39 39.8594 214.2 38.669 214.2 37.2009V33.842C214.2 32.373 215.39 31.1826 216.859 31.1826C218.326 31.1826 219.516 32.373 219.516 33.842Z" fill="#F6AB7D"/>
<path d="M177.112 25.772H219.338V21.4701C219.338 9.80686 209.885 0.351966 198.225 0.351966C186.565 0.351966 177.112 9.80686 177.112 21.4701V25.772Z" fill="#440908"/>
<path d="M200.206 0.447692C194.088 5.05478 190.129 12.3791 190.129 20.6294V25.772H219.338V21.4701C219.338 10.475 210.938 1.44664 200.206 0.447692Z" fill="#7C2727"/>
<path d="M222.12 29.9277H180.868C179.603 29.9277 178.576 28.9013 178.576 27.6351C178.576 26.3689 179.603 25.3425 180.868 25.3425H222.12C223.385 25.3425 224.411 26.3689 224.411 27.6351C224.411 28.9013 223.385 29.9277 222.12 29.9277Z" fill="#BF2121"/>
<path d="M224.411 27.6351C224.411 26.3689 223.385 25.3425 222.12 25.3425H211.347C210.081 25.3425 209.055 26.3689 209.055 27.6351C209.055 28.9013 210.081 29.9277 211.347 29.9277H222.12C223.385 29.9277 224.411 28.9013 224.411 27.6351Z" fill="#E23B37"/>
<path d="M186.875 42.2319C181.483 42.2319 177.112 37.8589 177.112 32.4662V25.7579C177.112 20.3641 181.483 15.9921 186.875 15.9921C192.268 15.9921 196.639 20.3641 196.639 25.7579V32.4662C196.639 37.8589 192.268 42.2319 186.875 42.2319Z" fill="#440908"/>
<path d="M186.875 15.9919C184.472 15.9919 182.276 16.8647 180.574 18.3053C181.151 18.1982 181.743 18.1357 182.351 18.1357C187.744 18.1357 192.116 22.5077 192.116 27.9015V34.6088C192.116 37.599 190.768 40.2707 188.652 42.062C193.195 41.2251 196.639 37.2512 196.639 32.4659V25.7576C196.639 20.3639 192.268 15.9919 186.875 15.9919Z" fill="#7C2727"/>
<path d="M212.025 36.9062C211.21 36.9062 210.549 36.2447 210.549 35.4287V32.6603C210.549 31.8442 211.21 31.1827 212.025 31.1827C212.841 31.1827 213.503 31.8442 213.503 32.6603V35.4287C213.503 36.2447 212.841 36.9062 212.025 36.9062Z" fill="#440908"/>
<path d="M217.034 40.7825H194.869C195.911 49.5683 206.487 61.5518 216.179 66.3105C219.815 61.2239 220.443 51.9851 220.546 44.3508C220.575 42.388 218.996 40.7825 217.034 40.7825Z" fill="#E23B37"/>
<path d="M158.203 40.4027H178.456C178.456 49.7714 158.203 49.7714 158.203 40.4027Z" fill="#E23B37"/>
<path d="M161.639 40.4026H158.203C158.203 48.8026 174.473 49.6651 177.841 43.0033C173.647 46.9469 162.993 46.0768 161.639 40.4026Z" fill="#BF2121"/>
<path d="M163.821 54.7288L178.142 40.4042C184.766 47.0291 170.444 61.3537 163.821 54.7288Z" fill="#BF2121"/>
<path d="M182.363 40.4139C182.363 42.8611 180.379 44.8447 177.932 44.8447C175.487 44.8447 173.503 42.8611 173.503 40.4139C173.503 37.9668 175.487 35.9822 177.932 35.9822C180.379 35.9822 182.363 37.9668 182.363 40.4139Z" fill="#E23B37"/>
<path d="M180.075 43.5937C177.628 43.5937 175.646 41.61 175.646 39.1629C175.646 37.982 176.11 36.9119 176.863 36.1186C174.934 36.5973 173.503 38.3355 173.503 40.4139C173.503 42.8601 175.486 44.8447 177.932 44.8447C179.199 44.8447 180.338 44.3102 181.144 43.4591C180.801 43.5434 180.444 43.5937 180.075 43.5937Z" fill="#BF2121"/>
</svg>
