<svg width="96" height="96" viewBox="0 0 96 96" fill="none" xmlns="http://www.w3.org/2000/svg">
<path d="M95.7685 47.8509C95.7685 74.1424 74.4607 95.4556 48.1766 95.4556C21.8936 95.4556 0.586182 74.1424 0.586182 47.8509C0.586182 21.561 21.8936 0.247815 48.1766 0.247815C74.4607 0.247815 95.7685 21.561 95.7685 47.8509Z" fill="#2A2B2C"/>
<path d="M95.7685 47.8509C95.7685 74.1424 74.4607 95.4556 48.1766 95.4556C21.8936 95.4556 0.586182 74.1424 0.586182 47.8509C0.586182 21.561 21.8936 0.247815 48.1766 0.247815C74.4607 0.247815 95.7685 21.561 95.7685 47.8509Z" fill="#1A1B1B"/>
<path d="M80.4682 47.8511C80.4682 65.6904 66.0107 80.1514 48.1766 80.1514C30.3432 80.1514 15.8857 65.6904 15.8857 47.8511C15.8857 30.0137 30.3432 15.5523 48.1766 15.5523C66.0107 15.5523 80.4682 30.0137 80.4682 47.8511Z" fill="#040606"/>
<path d="M77.657 47.8504C77.657 64.1369 64.4584 77.3394 48.1766 77.3394C31.8949 77.3394 18.6959 64.1369 18.6959 47.8504C18.6959 31.5647 31.8949 18.3626 48.1766 18.3626C64.4584 18.3626 77.657 31.5647 77.657 47.8504Z" fill="#CCCCBF"/>
<path d="M62.9595 30.2831C63.0034 29.9349 62.9752 29.593 62.8327 29.2601C59.6949 26.4343 55.647 24.6099 51.1814 24.268C50.7611 24.3595 50.3806 24.534 50.0489 24.8019C49.9008 25.0191 49.7692 25.2591 49.6565 25.5158V41.9135C49.7446 42.1315 49.8551 42.3387 49.9812 42.5355C50.0745 42.5861 50.1705 42.6341 50.2672 42.6787C50.535 42.6542 50.796 42.5983 51.0508 42.5132L62.8138 30.747C62.8744 30.5927 62.9227 30.4398 62.9595 30.2831Z" fill="#3E403F"/>
<path d="M71.5805 46.4804C71.8576 46.2657 72.0793 46.0031 72.2143 45.6679C71.993 41.4504 70.4198 37.2979 67.5047 33.8969C67.1436 33.6644 66.7497 33.5182 66.3253 33.4732C66.0676 33.5223 65.8047 33.5993 65.5443 33.7009L53.9517 45.2955C53.8613 45.5124 53.791 45.7367 53.7412 45.9651C53.7717 46.0667 53.8052 46.1694 53.8431 46.2687C54.0491 46.4402 54.2734 46.5857 54.5129 46.7051H71.1495C71.3008 46.6403 71.4437 46.5652 71.5805 46.4804Z" fill="#3E403F"/>
<path d="M65.9542 63.5094C66.3009 63.5603 66.6453 63.5369 66.9785 63.4004C69.8579 60.3119 71.752 56.2945 72.1716 51.8333C72.0882 51.4122 71.9197 51.0282 71.6579 50.6916C71.4426 50.5402 71.2049 50.4044 70.9509 50.2864L54.5606 50.0015C54.3415 50.0867 54.131 50.1931 53.9335 50.3158C53.8803 50.4081 53.8309 50.5037 53.784 50.5993C53.8045 50.8683 53.8565 51.1302 53.9365 51.3846L65.4934 63.355C65.6466 63.419 65.7999 63.4688 65.9542 63.5094Z" fill="#3E403F"/>
<path d="M50.0489 70.813C50.2691 71.0869 50.5339 71.3052 50.8708 71.4351C55.0839 71.1538 59.2133 69.5203 62.5709 66.5572C62.7974 66.1926 62.9384 65.7968 62.979 65.3727C62.9243 65.1145 62.8447 64.8541 62.7394 64.5929L50.9846 53.1646C50.7656 53.0765 50.5391 53.0102 50.3122 52.9648C50.2092 52.9961 50.1088 53.0307 50.0095 53.069C49.8402 53.2773 49.6989 53.5039 49.5822 53.7464L49.8187 70.3845C49.8875 70.5359 49.9648 70.678 50.0489 70.813Z" fill="#3E403F"/>
<path d="M33.3937 30.2831C33.3498 29.9349 33.3792 29.593 33.5201 29.2601C36.6591 26.4343 40.707 24.6099 45.1719 24.268C45.5922 24.3595 45.9734 24.534 46.3055 24.8019C46.4528 25.0191 46.5856 25.2591 46.6982 25.5158V41.9135C46.6101 42.1315 46.4992 42.3387 46.3724 42.5355C46.2798 42.5861 46.1835 42.6341 46.0864 42.6787C45.8194 42.6542 45.5587 42.5983 45.3039 42.5132L33.5409 30.7471C33.4803 30.5927 33.4316 30.4398 33.3937 30.2831Z" fill="#3E403F"/>
<path d="M24.7734 46.4804C24.4967 46.2657 24.2743 46.0031 24.1396 45.6679C24.3602 41.4504 25.9338 37.2979 28.85 33.8969C29.2111 33.6644 29.6038 33.5182 30.0278 33.4732C30.2867 33.5223 30.5481 33.5993 30.8103 33.7009L42.403 45.2955C42.493 45.5124 42.5625 45.7367 42.612 45.9651C42.5822 46.0667 42.5476 46.1694 42.5104 46.2687C42.304 46.4402 42.0802 46.5857 41.8403 46.7051H25.2044C25.0527 46.6403 24.9095 46.5652 24.7734 46.4804Z" fill="#3E403F"/>
<path d="M30.3994 63.5094C30.0524 63.5603 29.7091 63.5369 29.3748 63.4004C26.4958 60.3119 24.602 56.2945 24.1817 51.8333C24.2661 51.4122 24.4335 51.0282 24.6964 50.6916C24.9103 50.5402 25.1483 50.4044 25.4027 50.2864L41.7927 50.0015C42.0132 50.0867 42.2223 50.1931 42.4212 50.3158C42.4729 50.4081 42.5231 50.5037 42.5689 50.5993C42.5499 50.8683 42.4982 51.1302 42.4168 51.3846L30.861 63.355C30.7077 63.419 30.5545 63.4688 30.3994 63.5094Z" fill="#3E403F"/>
<path d="M46.3044 70.813C46.0853 71.0869 45.8205 71.3052 45.4824 71.4351C41.2701 71.1538 37.1404 69.5203 33.7834 66.5572C33.5562 66.1926 33.416 65.7968 33.3754 65.3727C33.4294 65.1145 33.5082 64.8541 33.6138 64.5929L45.3697 53.1646C45.588 53.0765 45.8142 53.0102 46.0429 52.9648C46.1445 52.9961 46.246 53.0307 46.3449 53.069C46.5134 53.2773 46.6555 53.5039 46.7711 53.7464L46.5357 70.3845C46.4658 70.5359 46.3899 70.678 46.3044 70.813Z" fill="#3E403F"/>
<path d="M56.836 47.8517C56.836 52.6347 52.9595 56.5122 48.1766 56.5122C43.3953 56.5122 39.5188 52.6347 39.5188 47.8517C39.5188 43.0679 43.3953 39.1908 48.1766 39.1908C52.9595 39.1908 56.836 43.0679 56.836 47.8517Z" fill="#CCCCBF"/>
<path d="M53.784 43.5913C53.784 44.1873 53.3024 44.6694 52.7062 44.6694C52.1119 44.6694 51.6292 44.1873 51.6292 43.5913C51.6292 42.9969 52.1119 42.5136 52.7062 42.5136C53.3024 42.5136 53.784 42.9969 53.784 43.5913Z" fill="#3E403F"/>
<path d="M49.2946 42.0526C49.2946 42.6471 48.8118 43.1304 48.2171 43.1304C47.6217 43.1304 47.1397 42.6471 47.1397 42.0526C47.1397 41.4567 47.6217 40.9742 48.2171 40.9742C48.8118 40.9742 49.2946 41.4567 49.2946 42.0526Z" fill="#3E403F"/>
<path d="M44.7245 43.7567C44.7245 44.3512 44.2425 44.8345 43.6466 44.8345C43.0523 44.8345 42.5688 44.3512 42.5688 43.7567C42.5688 43.1608 43.0523 42.6786 43.6466 42.6786C44.2425 42.6786 44.7245 43.1608 44.7245 43.7567Z" fill="#3E403F"/>
<path d="M53.784 53.0186C53.784 52.4237 53.3024 51.9409 52.7062 51.9409C52.1119 51.9409 51.6292 52.4237 51.6292 53.0186C51.6292 53.6145 52.1119 54.0967 52.7062 54.0967C53.3024 54.0967 53.784 53.6145 53.784 53.0186Z" fill="#3E403F"/>
<path d="M55.8968 48.5166C55.8968 47.921 55.4144 47.4393 54.8194 47.4393C54.2247 47.4393 53.7412 47.921 53.7412 48.5166C53.7412 49.1119 54.2247 49.5947 54.8194 49.5947C55.4144 49.5947 55.8968 49.1119 55.8968 48.5166Z" fill="#3E403F"/>
<path d="M42.612 48.5166C42.612 47.921 42.13 47.4393 41.5342 47.4393C40.9395 47.4393 40.4567 47.921 40.4567 48.5166C40.4567 49.1119 40.9395 49.5947 41.5342 49.5947C42.13 49.5947 42.612 49.1119 42.612 48.5166Z" fill="#3E403F"/>
<path d="M49.2946 54.559C49.2946 53.963 48.8118 53.4809 48.2171 53.4809C47.6217 53.4809 47.1397 53.963 47.1397 54.559C47.1397 55.1535 47.6217 55.6367 48.2171 55.6367C48.8118 55.6367 49.2946 55.1535 49.2946 54.559Z" fill="#3E403F"/>
<path d="M44.7245 52.8544C44.7245 52.2584 44.2425 51.7763 43.6466 51.7763C43.0523 51.7763 42.5688 52.2584 42.5688 52.8544C42.5688 53.4489 43.0523 53.9321 43.6466 53.9321C44.2425 53.9321 44.7245 53.4489 44.7245 52.8544Z" fill="#3E403F"/>
</svg>
