<svg width="170" height="135" viewBox="0 0 170 135" fill="none" xmlns="http://www.w3.org/2000/svg">
<mask id="mask0_54_4096" style="mask-type:luminance" maskUnits="userSpaceOnUse" x="129" y="1" width="30" height="105">
<path d="M129.179 105.264H158.134C158.134 105.264 159.659 22.9801 158.134 6.15346L131.838 1.08373L129.179 105.264ZM144.177 67.0346C146.281 67.0346 148.3 67.9759 149.375 69.9912C151.728 74.406 152.051 89.834 145.594 89.834C144.639 89.834 143.535 89.4963 142.268 88.7354C139.924 87.3273 138.565 84.7337 137.647 82.1588C135.996 77.53 135.433 71.1698 140.236 68.1713C141.431 67.4254 142.823 67.0346 144.177 67.0346ZM153.867 69.1872C153.481 69.6062 153.094 70.0271 152.707 70.4476C151.451 69.8367 150.81 68.1994 151.312 66.8959C151.411 66.6423 151.551 66.3982 151.763 66.2282C151.959 66.0701 152.191 66.0014 152.429 66.0014C152.997 66.0014 153.606 66.3946 153.872 66.9309C154.25 67.6946 154.144 68.5949 154.03 69.4385L153.867 69.1872ZM143.231 50.8282C143.714 50.8282 144.162 51.1225 144.551 51.4216C146.882 53.2077 153.594 62.3581 147.228 62.3581C146.853 62.3581 146.432 62.3267 145.963 62.2604C144.027 61.9846 142.447 60.4045 141.767 58.5706C141.088 56.7368 141.191 54.6959 141.614 52.7865C141.803 51.9301 142.234 50.9271 143.107 50.834C143.149 50.8305 143.19 50.8282 143.231 50.8282ZM144.965 7.6254C150.577 7.6254 154.641 12.9919 156.015 18.3036C158.583 28.2302 158.564 38.82 155.862 48.7186C155.377 50.4965 154.58 52.4944 152.82 53.0506C152.51 53.1483 152.194 53.1926 151.879 53.1926C150.694 53.1926 149.502 52.5735 148.489 51.8859C142.436 47.7749 138.765 40.9877 136.13 34.161C134.397 29.6753 132.995 24.9116 133.423 20.1211C133.853 15.3318 136.451 10.4902 140.85 8.54813C142.294 7.91049 143.671 7.6254 144.965 7.6254Z" fill="white"/>
</mask>
<g mask="url(#mask0_54_4096)">
<path d="M129.179 105.264H158.134C158.134 105.264 159.659 22.9801 158.134 6.15346L131.838 1.08373L129.179 105.264ZM144.177 67.0346C146.281 67.0346 148.3 67.9759 149.375 69.9912C151.728 74.406 152.051 89.834 145.594 89.834C144.639 89.834 143.535 89.4963 142.268 88.7354C139.924 87.3273 138.565 84.7337 137.647 82.1588C135.996 77.53 135.433 71.1698 140.236 68.1713C141.431 67.4254 142.823 67.0346 144.177 67.0346ZM153.867 69.1872C153.481 69.6062 153.094 70.0271 152.707 70.4476C151.451 69.8367 150.81 68.1994 151.312 66.8959C151.411 66.6423 151.551 66.3982 151.763 66.2282C151.959 66.0701 152.191 66.0014 152.429 66.0014C152.997 66.0014 153.606 66.3946 153.872 66.9309C154.25 67.6946 154.144 68.5949 154.03 69.4385L153.867 69.1872ZM143.231 50.8282C143.714 50.8282 144.162 51.1225 144.551 51.4216C146.882 53.2077 153.594 62.3581 147.228 62.3581C146.853 62.3581 146.432 62.3267 145.963 62.2604C144.027 61.9846 142.447 60.4045 141.767 58.5706C141.088 56.7368 141.191 54.6959 141.614 52.7865C141.803 51.9301 142.234 50.9271 143.107 50.834C143.149 50.8305 143.19 50.8282 143.231 50.8282ZM144.965 7.6254C150.577 7.6254 154.641 12.9919 156.015 18.3036C158.583 28.2302 158.564 38.82 155.862 48.7186C155.377 50.4965 154.58 52.4944 152.82 53.0506C152.51 53.1483 152.194 53.1926 151.879 53.1926C150.694 53.1926 149.502 52.5735 148.489 51.8859C142.436 47.7749 138.765 40.9877 136.13 34.161C134.397 29.6753 132.995 24.9116 133.423 20.1211C133.853 15.3318 136.451 10.4902 140.85 8.54813C142.294 7.91049 143.671 7.6254 144.965 7.6254Z" fill="url(#paint0_linear_54_4096)"/>
</g>
<mask id="mask1_54_4096" style="mask-type:luminance" maskUnits="userSpaceOnUse" x="17" y="0" width="115" height="107">
<path d="M83.3555 106.359L83.3602 106.359L85.7025 101.801C76.4252 101.956 66.2613 102.071 56.4534 102.071C41.2011 102.071 26.8169 101.794 17.9667 100.962C17.7049 102.876 17.5583 103.94 17.5583 103.94C17.5583 103.94 45.3691 106.283 83.3555 106.359ZM87.6945 106.359C93.8767 106.344 100.303 106.265 106.898 106.106C106.881 105.308 107.024 104.506 107.322 103.766C107.422 103.516 107.549 103.263 107.763 103.101C107.933 102.974 108.142 102.918 108.354 102.918C108.522 102.918 108.691 102.953 108.846 103.014C109.198 103.154 109.486 103.416 109.751 103.685C110.403 104.343 110.995 105.126 111.4 105.985C117.225 105.814 123.165 105.578 129.179 105.264L131.839 1.08307C119.552 0.437278 107.983 0.182454 97.35 0.182454C56.8665 0.182454 30.0784 3.88614 30.0784 3.88614C29.9888 5.14514 29.8597 6.65664 29.6956 8.38107C31.6353 8.20072 33.6844 8.02735 35.8172 7.86328C54.7604 6.21448 97.4651 2.80517 126.78 2.80517L120.911 100.962C120.911 100.962 106.926 101.419 88.8465 101.746L87.6945 106.359ZM113.915 94.0604C113.937 94.0582 113.959 94.0545 113.981 94.0523C113.981 94.0523 113.985 93.9977 113.99 93.8918L113.978 94.0491C113.957 94.0536 113.936 94.0568 113.915 94.0604ZM21.6681 73.6072L21.6704 73.6044L21.6692 73.5932C21.6692 73.5991 21.6681 73.6022 21.6681 73.6072Z" fill="white"/>
</mask>
<g mask="url(#mask1_54_4096)">
<path d="M83.3555 106.359L83.3602 106.359L85.7025 101.801C76.4252 101.956 66.2613 102.071 56.4534 102.071C41.2011 102.071 26.8169 101.794 17.9667 100.962C17.7049 102.876 17.5583 103.94 17.5583 103.94C17.5583 103.94 45.3691 106.283 83.3555 106.359ZM87.6945 106.359C93.8767 106.344 100.303 106.265 106.898 106.106C106.881 105.308 107.024 104.506 107.322 103.766C107.422 103.516 107.549 103.263 107.763 103.101C107.933 102.974 108.142 102.918 108.354 102.918C108.522 102.918 108.691 102.953 108.846 103.014C109.198 103.154 109.486 103.416 109.751 103.685C110.403 104.343 110.995 105.126 111.4 105.985C117.225 105.814 123.165 105.578 129.179 105.264L131.839 1.08307C119.552 0.437278 107.983 0.182454 97.35 0.182454C56.8665 0.182454 30.0784 3.88614 30.0784 3.88614C29.9888 5.14514 29.8597 6.65664 29.6956 8.38107C31.6353 8.20072 33.6844 8.02735 35.8172 7.86328C54.7604 6.21448 97.4651 2.80517 126.78 2.80517L120.911 100.962C120.911 100.962 106.926 101.419 88.8465 101.746L87.6945 106.359ZM113.915 94.0604C113.937 94.0582 113.959 94.0545 113.981 94.0523C113.981 94.0523 113.985 93.9977 113.99 93.8918L113.978 94.0491C113.957 94.0536 113.936 94.0568 113.915 94.0604ZM21.6681 73.6072L21.6704 73.6044L21.6692 73.5932C21.6692 73.5991 21.6681 73.6022 21.6681 73.6072Z" fill="url(#paint1_linear_54_4096)"/>
</g>
<mask id="mask2_54_4096" style="mask-type:luminance" maskUnits="userSpaceOnUse" x="0" y="109" width="153" height="27">
<path d="M0.202236 135.005L152.279 134.224H132.717V109.606L75.1673 110.184L74.0422 110.438L73.8746 113.582L72.7552 134.633L60.3863 134.224L70.8109 110.228L6.10857 110.877L0.202236 135.005ZM34.4337 115.043C35.2029 115.043 35.9673 115.066 36.7272 115.114C42.8686 115.495 48.605 120.55 51.7793 125.631C52.7881 127.245 53.6247 129.272 52.8288 131.001C51.9131 132.995 49.4463 133.467 47.1645 133.467C46.8305 133.467 46.5001 133.456 46.1801 133.44C40.0247 133.114 33.8985 132.27 27.8851 130.921C23.2074 129.87 18.4752 128.454 14.6842 125.519C13.701 124.756 12.7154 123.731 12.7596 122.489C12.8132 120.966 14.3351 119.971 15.7116 119.319C21.3853 116.637 28.0538 115.043 34.4337 115.043ZM7.30704 125.864C8.09595 125.864 8.93491 126.055 9.68193 126.284C11.2283 126.761 15.0844 127.487 15.1996 129.498C15.3265 131.659 12.3512 132.031 10.5977 132.031C10.3836 132.031 10.1881 132.025 10.0182 132.017C8.51138 131.943 6.92305 131.701 5.76296 130.737C4.60286 129.774 4.10953 127.873 5.09509 126.732C5.65012 126.09 6.44831 125.864 7.30704 125.864ZM108.217 113.54C111.976 113.54 115.744 113.892 118.994 115.688C122.028 117.367 129.279 123.834 127.55 128.04C126.35 130.959 121.42 131.686 116.776 131.686C113.595 131.686 110.547 131.345 108.925 131.133C106.186 130.775 103.435 130.138 101.042 128.756C98.6497 127.374 96.6367 125.168 95.9594 122.49C95.2834 119.811 96.1596 116.68 98.4204 115.094C100.287 113.785 102.712 113.669 104.992 113.602C106.058 113.569 107.137 113.54 108.217 113.54ZM54.9664 110.975C57.0597 112.484 58.7073 114.6 59.6556 117.001C60.2001 118.38 60.4538 120.119 59.4485 121.211C58.8364 121.874 57.9533 122.093 57.0294 122.093C56.4464 122.093 55.8472 122.005 55.2898 121.887C53.911 121.596 52.5565 121.192 51.244 120.684C49.8163 120.131 48.4003 119.425 47.3856 118.277C46.3721 117.131 45.8334 115.463 46.3675 114.028C46.6281 113.329 47.1191 112.734 47.687 112.25C48.8622 111.247 50.4028 110.749 51.9445 110.749C52.8882 110.749 53.833 110.936 54.694 111.307C54.7068 111.147 54.8023 110.992 54.9664 110.975ZM146.878 109.561C146.866 109.528 146.854 109.497 146.841 109.464L144.116 109.492L146.878 109.561Z" fill="white"/>
</mask>
<g mask="url(#mask2_54_4096)">
<path d="M0.202236 135.005L152.279 134.224H132.717V109.606L75.1673 110.184L74.0422 110.438L73.8746 113.582L72.7552 134.633L60.3863 134.224L70.8109 110.228L6.10857 110.877L0.202236 135.005ZM34.4337 115.043C35.2029 115.043 35.9673 115.066 36.7272 115.114C42.8686 115.495 48.605 120.55 51.7793 125.631C52.7881 127.245 53.6247 129.272 52.8288 131.001C51.9131 132.995 49.4463 133.467 47.1645 133.467C46.8305 133.467 46.5001 133.456 46.1801 133.44C40.0247 133.114 33.8985 132.27 27.8851 130.921C23.2074 129.87 18.4752 128.454 14.6842 125.519C13.701 124.756 12.7154 123.731 12.7596 122.489C12.8132 120.966 14.3351 119.971 15.7116 119.319C21.3853 116.637 28.0538 115.043 34.4337 115.043ZM7.30704 125.864C8.09595 125.864 8.93491 126.055 9.68193 126.284C11.2283 126.761 15.0844 127.487 15.1996 129.498C15.3265 131.659 12.3512 132.031 10.5977 132.031C10.3836 132.031 10.1881 132.025 10.0182 132.017C8.51138 131.943 6.92305 131.701 5.76296 130.737C4.60286 129.774 4.10953 127.873 5.09509 126.732C5.65012 126.09 6.44831 125.864 7.30704 125.864ZM108.217 113.54C111.976 113.54 115.744 113.892 118.994 115.688C122.028 117.367 129.279 123.834 127.55 128.04C126.35 130.959 121.42 131.686 116.776 131.686C113.595 131.686 110.547 131.345 108.925 131.133C106.186 130.775 103.435 130.138 101.042 128.756C98.6497 127.374 96.6367 125.168 95.9594 122.49C95.2834 119.811 96.1596 116.68 98.4204 115.094C100.287 113.785 102.712 113.669 104.992 113.602C106.058 113.569 107.137 113.54 108.217 113.54ZM54.9664 110.975C57.0597 112.484 58.7073 114.6 59.6556 117.001C60.2001 118.38 60.4538 120.119 59.4485 121.211C58.8364 121.874 57.9533 122.093 57.0294 122.093C56.4464 122.093 55.8472 122.005 55.2898 121.887C53.911 121.596 52.5565 121.192 51.244 120.684C49.8163 120.131 48.4003 119.425 47.3856 118.277C46.3721 117.131 45.8334 115.463 46.3675 114.028C46.6281 113.329 47.1191 112.734 47.687 112.25C48.8622 111.247 50.4028 110.749 51.9445 110.749C52.8882 110.749 53.833 110.936 54.694 111.307C54.7068 111.147 54.8023 110.992 54.9664 110.975ZM146.878 109.561C146.866 109.528 146.854 109.497 146.841 109.464L144.116 109.492L146.878 109.561Z" fill="url(#paint2_linear_54_4096)"/>
</g>
<mask id="mask3_54_4096" style="mask-type:luminance" maskUnits="userSpaceOnUse" x="6" y="103" width="141" height="8">
<path d="M6.10841 110.877L70.8107 110.228L71.1424 109.464L83.3554 106.36C45.369 106.283 17.5581 103.94 17.5581 103.94L6.10841 110.877ZM75.1672 110.184L132.717 109.607V109.208L144.115 109.492L146.841 109.464L129.179 105.264C123.165 105.578 117.225 105.814 111.4 105.985C111.619 106.452 111.783 106.941 111.87 107.443C112.106 108.809 111.347 109.202 110.053 109.441C109.862 109.476 109.664 109.495 109.467 109.495C108.913 109.495 108.361 109.346 107.942 108.992C107.494 108.615 107.244 108.052 107.092 107.488C106.973 107.037 106.909 106.573 106.898 106.106C100.303 106.266 93.8765 106.344 87.6944 106.359L87.4326 107.409L75.1672 110.184Z" fill="white"/>
</mask>
<g mask="url(#mask3_54_4096)">
<path d="M6.10841 110.877L70.8107 110.228L71.1424 109.464L83.3554 106.36C45.369 106.283 17.5581 103.94 17.5581 103.94L6.10841 110.877ZM75.1672 110.184L132.717 109.607V109.208L144.115 109.492L146.841 109.464L129.179 105.264C123.165 105.578 117.225 105.814 111.4 105.985C111.619 106.452 111.783 106.941 111.87 107.443C112.106 108.809 111.347 109.202 110.053 109.441C109.862 109.476 109.664 109.495 109.467 109.495C108.913 109.495 108.361 109.346 107.942 108.992C107.494 108.615 107.244 108.052 107.092 107.488C106.973 107.037 106.909 106.573 106.898 106.106C100.303 106.266 93.8765 106.344 87.6944 106.359L87.4326 107.409L75.1672 110.184Z" fill="url(#paint3_linear_54_4096)"/>
</g>
<mask id="mask4_54_4096" style="mask-type:luminance" maskUnits="userSpaceOnUse" x="132" y="109" width="38" height="26">
<path d="M132.717 134.224H169.243C169.243 134.224 166.772 117.014 164.753 110.004L146.878 109.561L144.116 109.492L132.717 109.208V109.606V134.224ZM148.585 112.799C150.007 112.799 151.431 113.128 152.728 113.852C157.527 116.527 164.964 127.998 159.481 132.836C158.507 133.693 157.266 134 155.962 134C154.731 134 153.443 133.727 152.265 133.393C149.41 132.58 146.579 131.508 144.2 129.73C141.822 127.952 139.921 125.39 139.437 122.46C138.526 116.962 143.536 112.799 148.585 112.799ZM139.881 129.687C139.452 130.171 138.803 130.434 138.158 130.434C137.809 130.434 137.461 130.358 137.15 130.197C136.264 129.739 135.759 128.647 135.983 127.677C136.088 127.224 136.377 126.775 136.825 126.655C136.906 126.633 136.989 126.622 137.07 126.622C137.541 126.622 137.993 126.968 138.34 127.319C139.098 128.089 139.725 128.99 140.187 129.967L139.881 129.687Z" fill="white"/>
</mask>
<g mask="url(#mask4_54_4096)">
<path d="M132.717 134.224H169.243C169.243 134.224 166.772 117.014 164.753 110.004L146.878 109.561L144.116 109.492L132.717 109.208V109.606V134.224ZM148.585 112.799C150.007 112.799 151.431 113.128 152.728 113.852C157.527 116.527 164.964 127.998 159.481 132.836C158.507 133.693 157.266 134 155.962 134C154.731 134 153.443 133.727 152.265 133.393C149.41 132.58 146.579 131.508 144.2 129.73C141.822 127.952 139.921 125.39 139.437 122.46C138.526 116.962 143.536 112.799 148.585 112.799ZM139.881 129.687C139.452 130.171 138.803 130.434 138.158 130.434C137.809 130.434 137.461 130.358 137.15 130.197C136.264 129.739 135.759 128.647 135.983 127.677C136.088 127.224 136.377 126.775 136.825 126.655C136.906 126.633 136.989 126.622 137.07 126.622C137.541 126.622 137.993 126.968 138.34 127.319C139.098 128.089 139.725 128.99 140.187 129.967L139.881 129.687Z" fill="url(#paint4_linear_54_4096)"/>
</g>
<mask id="mask5_54_4096" style="mask-type:luminance" maskUnits="userSpaceOnUse" x="125" y="105" width="40" height="6">
<path d="M125.304 105.264L132.717 109.208L164.753 110.004L158.134 105.264H125.304Z" fill="white"/>
</mask>
<g mask="url(#mask5_54_4096)">
<path d="M125.304 105.264L132.717 109.208L164.753 110.004L158.134 105.264H125.304Z" fill="url(#paint5_linear_54_4096)"/>
</g>
<mask id="mask6_54_4096" style="mask-type:luminance" maskUnits="userSpaceOnUse" x="14" y="7" width="105" height="90">
<path d="M15.0693 96.7974C17.7956 96.7974 53.4257 96.7742 82.3152 95.891L82.1267 95.641L88.0145 87.0096L103.674 73.6025L115.427 69.7453C116.24 56.7725 117.304 40.8325 118.379 27.7631L113.978 21.7555L108.475 11.9035L103.674 7.48881C84.9927 7.85302 54.1355 8.79204 27.6058 11.1972L26.1513 8.73619C26.1513 8.73619 29.7735 8.38944 35.8172 7.8635C33.6843 8.02756 31.6353 8.20093 29.6956 8.38129C28.4691 8.49648 27.287 8.61401 26.1513 8.73502L20.1577 55.6391L24.4059 71.1148L26.1513 79.3531L31.0023 87.0096L21.298 82.553L17.1673 79.0153L14.8983 96.7964C14.8983 96.7964 14.9564 96.7964 15.0693 96.7974ZM75.1487 88.8767C75.7863 89.7158 76.2832 90.6826 76.46 91.708C76.6974 93.0739 75.9388 93.4675 74.6426 93.7048C74.4506 93.7406 74.2539 93.7592 74.0561 93.7592C73.5023 93.7592 72.9519 93.6102 72.5318 93.2566C72.0838 92.8798 71.8336 92.3176 71.6847 91.7535C71.5916 91.4053 71.5311 91.0494 71.5044 90.6907C68.8933 91.7007 66.0914 92.222 63.2976 92.222C60.0279 92.222 56.7698 91.5081 53.8481 90.0276C47.1959 86.6578 42.6603 79.2959 43.0198 71.8457C43.0873 70.4422 43.327 69.0108 44.0333 67.795C45.1317 65.9018 47.2436 64.7673 49.3939 64.3646C50.2154 64.211 51.0462 64.1505 51.8805 64.1505C53.2303 64.1505 54.5893 64.3092 55.9298 64.4869C56.4336 64.5533 56.9409 64.6242 57.4529 64.6987V49.1812L50.426 46.5155C50.2201 39.5444 54.4159 18.8175 66.8989 18.8175C67.0141 18.8175 67.1304 18.8198 67.248 18.8233C67.3562 18.8198 67.4667 18.8175 67.5773 18.8175C68.5663 18.8175 69.6089 18.9606 70.7108 19.269C76.2204 20.8072 79.2399 25.5919 80.8677 30.8955C83.6022 39.3745 82.6026 49.1812 82.6026 49.1812L80.8666 49.5059L75.7561 50.5135L74.4296 65.6078C73.55 65.6705 72.5783 65.7146 71.5555 65.7497V65.7332C71.3985 65.7392 71.2402 65.7437 71.0808 65.7497V57.5626L69.4425 65.7938C68.9002 65.8005 68.3557 65.8033 67.8146 65.8033C67.7041 65.8033 67.5947 65.8033 67.4853 65.8033C67.3736 65.8033 67.2607 65.8033 67.149 65.8033C66.2903 65.8033 65.4409 65.796 64.6218 65.7869C64.5752 65.8846 64.5275 65.9824 64.4763 66.0778C69.4855 67.3682 74.34 69.4262 77.989 72.9489C83.2007 77.9777 80.8922 85.2791 75.2174 88.835C75.1941 88.849 75.172 88.8631 75.1487 88.8767ZM87.4967 56.5142C91.5122 56.5142 95.7884 60.3261 96.6494 66.0673C97.137 69.3194 95.7616 73.0161 92.7922 74.4287C91.795 74.9024 90.7012 75.092 89.5934 75.092C88.7464 75.092 87.8923 74.9814 87.0673 74.8011C84.5179 74.2438 81.9627 72.9057 80.777 70.5793C79.7006 68.4663 79.9357 65.9264 80.4826 63.6188C81.6671 58.6237 84.5109 56.5142 87.4967 56.5142ZM106.631 55.7858C108.003 55.7858 108.246 58.1059 108.533 59.0903C108.667 59.5465 108.802 60.0107 108.787 60.4843C108.774 60.9602 108.584 61.4536 108.191 61.72C107.989 61.8573 107.75 61.919 107.508 61.919C107.159 61.919 106.801 61.7933 106.52 61.5816C106.042 61.2232 105.749 60.6716 105.529 60.1178C105.365 59.7024 105.232 59.273 105.132 58.8367C105.005 58.2828 104.935 57.701 105.068 57.1471C105.202 56.5956 105.572 56.0743 106.107 55.8835C106.298 55.816 106.471 55.7858 106.631 55.7858ZM50.1037 59.1346C49.9839 59.9933 49.2066 60.7333 48.3304 60.8939C48.1779 60.9218 48.0244 60.9346 47.8719 60.9346C47.0085 60.9346 46.1568 60.5134 45.5238 59.9107C44.8234 59.2439 44.3265 58.2479 44.5848 57.3159C44.8466 56.3687 45.8449 55.8323 46.8398 55.8323C47.2098 55.8323 47.5787 55.9068 47.9092 56.0604C49.0914 56.6096 49.7977 57.8616 50.1037 59.1346C50.113 59.0706 50.1177 59.0066 50.12 58.9426L50.1095 58.725C50.1176 58.7983 50.1212 58.8704 50.12 58.9426L50.1339 59.2649C50.1246 59.2207 50.1142 59.1776 50.1037 59.1346ZM108.16 52.3532C108.384 53.9182 106.845 55.3471 105.284 55.3471C105.101 55.3471 104.916 55.3273 104.734 55.2854C103.011 54.8863 101.929 52.9024 102.277 51.1686C102.371 50.6986 102.562 50.232 102.91 49.9027C103.295 49.5373 103.781 49.4 104.301 49.4C105.035 49.4 105.839 49.6723 106.531 49.962C107.048 50.1796 107.585 50.4088 107.965 50.8231C108.346 51.2361 108.528 51.8889 108.24 52.3706L108.16 52.3532ZM96.5482 16.1436C97.0043 16.1436 97.4756 16.1924 97.9631 16.2937C102.572 17.256 107.415 25.4069 109.256 29.2898C111.05 33.0702 111.78 37.5256 110.387 41.4713C109.938 42.7478 109.258 43.9661 108.275 44.8969C106.861 46.2327 104.889 46.8797 102.939 46.8797C102.744 46.8797 102.551 46.8727 102.358 46.8599C96.9497 46.5038 92.9038 41.7133 90.5266 36.8426C89.128 33.9743 88.054 30.885 87.9598 27.6945C87.8225 22.9948 91.1026 16.1436 96.5482 16.1436ZM95.2054 9.91607C95.4637 10.4571 95.6732 11.025 95.8279 11.6056C95.9385 12.0152 95.9944 12.5237 95.6744 12.8017C95.5522 12.9065 95.3939 12.9553 95.2334 12.9553C95.1019 12.9553 94.9681 12.9228 94.8529 12.8634C94.5934 12.7284 94.4107 12.4794 94.2932 12.2118C94.0116 11.566 94.0942 10.7748 94.5038 10.2011C94.6085 10.0557 94.7388 9.91838 94.9087 9.86253C94.9541 9.8474 95.003 9.83926 95.0518 9.83926C95.1845 9.83926 95.3171 9.89744 95.3823 10.0115L95.2054 9.91607ZM88.4078 95.6874C99.0871 95.2988 108.347 94.7716 113.915 94.0606C113.936 94.057 113.957 94.0539 113.978 94.0493L113.99 93.892C114.058 92.6679 114.514 84.5416 115.188 73.6025H113.978L97.5175 80.7993L91.4656 91.4335L88.4031 95.641L88.4078 95.6874ZM61.5894 65.4169L61.1659 63.9542V65.3319C61.3067 65.3596 61.4487 65.3878 61.5894 65.4169ZM69.9707 47.3951C70.3989 47.3835 70.6898 47.337 70.6898 47.2357C70.6898 46.4049 68.2533 40.9 66.6266 39.9726C64.8021 40.7522 61.6546 46.4759 62.1305 46.9588C62.269 47.0984 62.5331 47.1706 62.8484 47.2008C63.7048 47.1799 64.659 47.074 65.1721 47.0088L66.2484 44.3477L67.2945 47.2078C67.2945 47.2078 68.8293 47.3695 69.9707 47.3951ZM77.0127 44.2104C77.4177 44.186 77.747 44.0079 77.9657 43.6368C79.8589 40.4299 78.0821 32.3011 76.1901 31.7496C76.0586 31.7112 75.9109 31.6879 75.7514 31.6809C73.6454 31.7787 69.7846 34.2641 69.9661 36.7425C70.1499 39.0511 74.6739 44.0743 77.0127 44.2104ZM57.4599 42.7769C59.5753 42.4557 62.5564 40.6475 63.6362 37.9422C64.2168 36.511 61.3777 32.4361 58.8446 31.7635C56.6151 32.7305 55.5667 40.8628 56.6605 42.3126C56.8409 42.5511 57.1166 42.7036 57.4599 42.7769Z" fill="white"/>
</mask>
<g mask="url(#mask6_54_4096)">
<path d="M15.0693 96.7974C17.7956 96.7974 53.4257 96.7742 82.3152 95.891L82.1267 95.641L88.0145 87.0096L103.674 73.6025L115.427 69.7453C116.24 56.7725 117.304 40.8325 118.379 27.7631L113.978 21.7555L108.475 11.9035L103.674 7.48881C84.9927 7.85302 54.1355 8.79204 27.6058 11.1972L26.1513 8.73619C26.1513 8.73619 29.7735 8.38944 35.8172 7.8635C33.6843 8.02756 31.6353 8.20093 29.6956 8.38129C28.4691 8.49648 27.287 8.61401 26.1513 8.73502L20.1577 55.6391L24.4059 71.1148L26.1513 79.3531L31.0023 87.0096L21.298 82.553L17.1673 79.0153L14.8983 96.7964C14.8983 96.7964 14.9564 96.7964 15.0693 96.7974ZM75.1487 88.8767C75.7863 89.7158 76.2832 90.6826 76.46 91.708C76.6974 93.0739 75.9388 93.4675 74.6426 93.7048C74.4506 93.7406 74.2539 93.7592 74.0561 93.7592C73.5023 93.7592 72.9519 93.6102 72.5318 93.2566C72.0838 92.8798 71.8336 92.3176 71.6847 91.7535C71.5916 91.4053 71.5311 91.0494 71.5044 90.6907C68.8933 91.7007 66.0914 92.222 63.2976 92.222C60.0279 92.222 56.7698 91.5081 53.8481 90.0276C47.1959 86.6578 42.6603 79.2959 43.0198 71.8457C43.0873 70.4422 43.327 69.0108 44.0333 67.795C45.1317 65.9018 47.2436 64.7673 49.3939 64.3646C50.2154 64.211 51.0462 64.1505 51.8805 64.1505C53.2303 64.1505 54.5893 64.3092 55.9298 64.4869C56.4336 64.5533 56.9409 64.6242 57.4529 64.6987V49.1812L50.426 46.5155C50.2201 39.5444 54.4159 18.8175 66.8989 18.8175C67.0141 18.8175 67.1304 18.8198 67.248 18.8233C67.3562 18.8198 67.4667 18.8175 67.5773 18.8175C68.5663 18.8175 69.6089 18.9606 70.7108 19.269C76.2204 20.8072 79.2399 25.5919 80.8677 30.8955C83.6022 39.3745 82.6026 49.1812 82.6026 49.1812L80.8666 49.5059L75.7561 50.5135L74.4296 65.6078C73.55 65.6705 72.5783 65.7146 71.5555 65.7497V65.7332C71.3985 65.7392 71.2402 65.7437 71.0808 65.7497V57.5626L69.4425 65.7938C68.9002 65.8005 68.3557 65.8033 67.8146 65.8033C67.7041 65.8033 67.5947 65.8033 67.4853 65.8033C67.3736 65.8033 67.2607 65.8033 67.149 65.8033C66.2903 65.8033 65.4409 65.796 64.6218 65.7869C64.5752 65.8846 64.5275 65.9824 64.4763 66.0778C69.4855 67.3682 74.34 69.4262 77.989 72.9489C83.2007 77.9777 80.8922 85.2791 75.2174 88.835C75.1941 88.849 75.172 88.8631 75.1487 88.8767ZM87.4967 56.5142C91.5122 56.5142 95.7884 60.3261 96.6494 66.0673C97.137 69.3194 95.7616 73.0161 92.7922 74.4287C91.795 74.9024 90.7012 75.092 89.5934 75.092C88.7464 75.092 87.8923 74.9814 87.0673 74.8011C84.5179 74.2438 81.9627 72.9057 80.777 70.5793C79.7006 68.4663 79.9357 65.9264 80.4826 63.6188C81.6671 58.6237 84.5109 56.5142 87.4967 56.5142ZM106.631 55.7858C108.003 55.7858 108.246 58.1059 108.533 59.0903C108.667 59.5465 108.802 60.0107 108.787 60.4843C108.774 60.9602 108.584 61.4536 108.191 61.72C107.989 61.8573 107.75 61.919 107.508 61.919C107.159 61.919 106.801 61.7933 106.52 61.5816C106.042 61.2232 105.749 60.6716 105.529 60.1178C105.365 59.7024 105.232 59.273 105.132 58.8367C105.005 58.2828 104.935 57.701 105.068 57.1471C105.202 56.5956 105.572 56.0743 106.107 55.8835C106.298 55.816 106.471 55.7858 106.631 55.7858ZM50.1037 59.1346C49.9839 59.9933 49.2066 60.7333 48.3304 60.8939C48.1779 60.9218 48.0244 60.9346 47.8719 60.9346C47.0085 60.9346 46.1568 60.5134 45.5238 59.9107C44.8234 59.2439 44.3265 58.2479 44.5848 57.3159C44.8466 56.3687 45.8449 55.8323 46.8398 55.8323C47.2098 55.8323 47.5787 55.9068 47.9092 56.0604C49.0914 56.6096 49.7977 57.8616 50.1037 59.1346C50.113 59.0706 50.1177 59.0066 50.12 58.9426L50.1095 58.725C50.1176 58.7983 50.1212 58.8704 50.12 58.9426L50.1339 59.2649C50.1246 59.2207 50.1142 59.1776 50.1037 59.1346ZM108.16 52.3532C108.384 53.9182 106.845 55.3471 105.284 55.3471C105.101 55.3471 104.916 55.3273 104.734 55.2854C103.011 54.8863 101.929 52.9024 102.277 51.1686C102.371 50.6986 102.562 50.232 102.91 49.9027C103.295 49.5373 103.781 49.4 104.301 49.4C105.035 49.4 105.839 49.6723 106.531 49.962C107.048 50.1796 107.585 50.4088 107.965 50.8231C108.346 51.2361 108.528 51.8889 108.24 52.3706L108.16 52.3532ZM96.5482 16.1436C97.0043 16.1436 97.4756 16.1924 97.9631 16.2937C102.572 17.256 107.415 25.4069 109.256 29.2898C111.05 33.0702 111.78 37.5256 110.387 41.4713C109.938 42.7478 109.258 43.9661 108.275 44.8969C106.861 46.2327 104.889 46.8797 102.939 46.8797C102.744 46.8797 102.551 46.8727 102.358 46.8599C96.9497 46.5038 92.9038 41.7133 90.5266 36.8426C89.128 33.9743 88.054 30.885 87.9598 27.6945C87.8225 22.9948 91.1026 16.1436 96.5482 16.1436ZM95.2054 9.91607C95.4637 10.4571 95.6732 11.025 95.8279 11.6056C95.9385 12.0152 95.9944 12.5237 95.6744 12.8017C95.5522 12.9065 95.3939 12.9553 95.2334 12.9553C95.1019 12.9553 94.9681 12.9228 94.8529 12.8634C94.5934 12.7284 94.4107 12.4794 94.2932 12.2118C94.0116 11.566 94.0942 10.7748 94.5038 10.2011C94.6085 10.0557 94.7388 9.91838 94.9087 9.86253C94.9541 9.8474 95.003 9.83926 95.0518 9.83926C95.1845 9.83926 95.3171 9.89744 95.3823 10.0115L95.2054 9.91607ZM88.4078 95.6874C99.0871 95.2988 108.347 94.7716 113.915 94.0606C113.936 94.057 113.957 94.0539 113.978 94.0493L113.99 93.892C114.058 92.6679 114.514 84.5416 115.188 73.6025H113.978L97.5175 80.7993L91.4656 91.4335L88.4031 95.641L88.4078 95.6874ZM61.5894 65.4169L61.1659 63.9542V65.3319C61.3067 65.3596 61.4487 65.3878 61.5894 65.4169ZM69.9707 47.3951C70.3989 47.3835 70.6898 47.337 70.6898 47.2357C70.6898 46.4049 68.2533 40.9 66.6266 39.9726C64.8021 40.7522 61.6546 46.4759 62.1305 46.9588C62.269 47.0984 62.5331 47.1706 62.8484 47.2008C63.7048 47.1799 64.659 47.074 65.1721 47.0088L66.2484 44.3477L67.2945 47.2078C67.2945 47.2078 68.8293 47.3695 69.9707 47.3951ZM77.0127 44.2104C77.4177 44.186 77.747 44.0079 77.9657 43.6368C79.8589 40.4299 78.0821 32.3011 76.1901 31.7496C76.0586 31.7112 75.9109 31.6879 75.7514 31.6809C73.6454 31.7787 69.7846 34.2641 69.9661 36.7425C70.1499 39.0511 74.6739 44.0743 77.0127 44.2104ZM57.4599 42.7769C59.5753 42.4557 62.5564 40.6475 63.6362 37.9422C64.2168 36.511 61.3777 32.4361 58.8446 31.7635C56.6151 32.7305 55.5667 40.8628 56.6605 42.3126C56.8409 42.5511 57.1166 42.7036 57.4599 42.7769Z" fill="url(#paint6_linear_54_4096)"/>
</g>
<mask id="mask7_54_4096" style="mask-type:luminance" maskUnits="userSpaceOnUse" x="113" y="2" width="14" height="99">
<path d="M120.911 100.962L126.78 2.8056L124.276 4.64407L123.165 18.5129L118.379 27.7634C117.304 40.8327 116.239 56.7727 115.427 69.7464V69.7455L122.546 73.6027H115.187C114.514 84.5418 114.058 92.6681 113.99 93.8922C113.984 93.9981 113.981 94.0527 113.981 94.0527L120.911 100.962Z" fill="white"/>
</mask>
<g mask="url(#mask7_54_4096)">
<path d="M120.911 100.962L126.78 2.8056L124.276 4.64407L123.165 18.5129L118.379 27.7634C117.304 40.8327 116.239 56.7727 115.427 69.7464V69.7455L122.546 73.6027H115.187C114.514 84.5418 114.058 92.6681 113.99 93.8922C113.984 93.9981 113.981 94.0527 113.981 94.0527L120.911 100.962Z" fill="url(#paint7_linear_54_4096)"/>
</g>
<path d="M120.911 100.963C120.911 100.963 44.5116 103.456 17.9667 100.963L14.903 96.7978C14.903 96.7978 92.435 96.8245 113.981 94.0529L120.911 100.963Z" fill="#66547A"/>
<path d="M126.78 2.80548L120.708 7.26201C120.708 7.26201 68.9129 7.45168 27.6056 11.1973L26.1511 8.73628C26.1511 8.73628 88.112 2.80548 126.78 2.80548Z" fill="#B6C6EF"/>
<mask id="mask8_54_4096" style="mask-type:luminance" maskUnits="userSpaceOnUse" x="50" y="18" width="33" height="48">
<path d="M67.1491 65.8032C67.2608 65.8032 67.3737 65.8032 67.4854 65.8032C66.5045 65.8004 65.5399 65.79 64.6277 65.7763C64.6253 65.7795 64.6242 65.7832 64.6219 65.7868C65.441 65.7959 66.2904 65.8032 67.1491 65.8032ZM71.0809 65.7496C71.2403 65.7436 71.3986 65.7391 71.5557 65.7332V55.1771L71.0809 57.5625V65.7496ZM62.5833 65.6259L61.166 60.4901V63.9542L61.5896 65.4168C61.9212 65.4832 62.2516 65.5541 62.5833 65.6259ZM58.5887 64.8732V49.1812L51.9015 46.5154C51.7084 39.6095 55.6238 19.2026 67.2481 18.8232C67.1305 18.8197 67.0142 18.8174 66.899 18.8174C54.416 18.8174 50.2202 39.5444 50.4261 46.5154L57.453 49.1812V64.6986C57.83 64.7546 58.2082 64.8128 58.5887 64.8732ZM80.8667 49.5058L82.6027 49.1812C82.6027 49.1812 83.6023 39.3745 80.8679 30.8954C83.4696 39.3745 82.519 49.1812 82.519 49.1812L80.8667 49.5058ZM70.2536 47.3986C70.79 47.3986 71.1833 47.3567 71.1833 47.2357C71.1833 46.4002 68.8422 40.8476 67.2946 39.9598C67.2062 39.9086 67.1084 39.8853 67.0049 39.8853C66.8874 39.8853 66.7605 39.9155 66.6267 39.9726C68.2534 40.8999 70.69 46.4049 70.69 47.2357C70.69 47.3369 70.399 47.3834 69.9708 47.3951C70.0686 47.3974 70.1628 47.3986 70.2536 47.3986ZM63.25 47.2182C64.1343 47.2182 65.1722 47.0088 65.1722 47.0088C64.6591 47.0739 63.7049 47.1798 62.8485 47.2008C62.9754 47.2124 63.1115 47.2182 63.25 47.2182ZM77.1083 44.2127C77.5353 44.2127 77.882 44.037 78.1066 43.6367C79.9078 40.4299 78.2172 32.301 76.4159 31.7495C76.2577 31.7006 76.0773 31.6774 75.8784 31.6774C75.8365 31.6774 75.7946 31.6785 75.7515 31.6809C75.911 31.6878 76.0587 31.7111 76.1902 31.7495C78.0822 32.301 79.859 40.4299 77.9658 43.6367C77.7471 44.0079 77.4178 44.1859 77.0129 44.2103C77.0454 44.2115 77.0769 44.2127 77.1083 44.2127ZM57.9871 42.828C59.9873 42.828 63.3361 40.9337 64.4718 37.9421C65.0722 36.3876 61.8351 31.7146 59.2985 31.6704C59.2938 31.6704 59.288 31.6704 59.2833 31.6704C59.1332 31.6704 58.9866 31.703 58.8447 31.7635C61.3778 32.436 64.2169 36.5109 63.6363 37.9421C62.5565 40.6474 59.5754 42.4557 57.46 42.7768C57.6217 42.8105 57.7986 42.828 57.9871 42.828Z" fill="white"/>
</mask>
<g mask="url(#mask8_54_4096)">
<path d="M67.1491 65.8032C67.2608 65.8032 67.3737 65.8032 67.4854 65.8032C66.5045 65.8004 65.5399 65.79 64.6277 65.7763C64.6253 65.7795 64.6242 65.7832 64.6219 65.7868C65.441 65.7959 66.2904 65.8032 67.1491 65.8032ZM71.0809 65.7496C71.2403 65.7436 71.3986 65.7391 71.5557 65.7332V55.1771L71.0809 57.5625V65.7496ZM62.5833 65.6259L61.166 60.4901V63.9542L61.5896 65.4168C61.9212 65.4832 62.2516 65.5541 62.5833 65.6259ZM58.5887 64.8732V49.1812L51.9015 46.5154C51.7084 39.6095 55.6238 19.2026 67.2481 18.8232C67.1305 18.8197 67.0142 18.8174 66.899 18.8174C54.416 18.8174 50.2202 39.5444 50.4261 46.5154L57.453 49.1812V64.6986C57.83 64.7546 58.2082 64.8128 58.5887 64.8732ZM80.8667 49.5058L82.6027 49.1812C82.6027 49.1812 83.6023 39.3745 80.8679 30.8954C83.4696 39.3745 82.519 49.1812 82.519 49.1812L80.8667 49.5058ZM70.2536 47.3986C70.79 47.3986 71.1833 47.3567 71.1833 47.2357C71.1833 46.4002 68.8422 40.8476 67.2946 39.9598C67.2062 39.9086 67.1084 39.8853 67.0049 39.8853C66.8874 39.8853 66.7605 39.9155 66.6267 39.9726C68.2534 40.8999 70.69 46.4049 70.69 47.2357C70.69 47.3369 70.399 47.3834 69.9708 47.3951C70.0686 47.3974 70.1628 47.3986 70.2536 47.3986ZM63.25 47.2182C64.1343 47.2182 65.1722 47.0088 65.1722 47.0088C64.6591 47.0739 63.7049 47.1798 62.8485 47.2008C62.9754 47.2124 63.1115 47.2182 63.25 47.2182ZM77.1083 44.2127C77.5353 44.2127 77.882 44.037 78.1066 43.6367C79.9078 40.4299 78.2172 32.301 76.4159 31.7495C76.2577 31.7006 76.0773 31.6774 75.8784 31.6774C75.8365 31.6774 75.7946 31.6785 75.7515 31.6809C75.911 31.6878 76.0587 31.7111 76.1902 31.7495C78.0822 32.301 79.859 40.4299 77.9658 43.6367C77.7471 44.0079 77.4178 44.1859 77.0129 44.2103C77.0454 44.2115 77.0769 44.2127 77.1083 44.2127ZM57.9871 42.828C59.9873 42.828 63.3361 40.9337 64.4718 37.9421C65.0722 36.3876 61.8351 31.7146 59.2985 31.6704C59.2938 31.6704 59.288 31.6704 59.2833 31.6704C59.1332 31.6704 58.9866 31.703 58.8447 31.7635C61.3778 32.436 64.2169 36.5109 63.6363 37.9421C62.5565 40.6474 59.5754 42.4557 57.46 42.7768C57.6217 42.8105 57.7986 42.828 57.9871 42.828Z" fill="url(#paint8_linear_54_4096)"/>
</g>
<mask id="mask9_54_4096" style="mask-type:luminance" maskUnits="userSpaceOnUse" x="51" y="18" width="32" height="48">
<path d="M67.8145 65.8032C68.3556 65.8032 68.9001 65.8004 69.4423 65.7937L71.0807 57.5625L71.5554 55.1771V65.7332V65.7496C72.5782 65.7146 73.5498 65.6705 74.4295 65.6077L75.756 50.5135L80.8664 49.5058L82.5188 49.1812C82.5188 49.1812 83.4694 39.3745 80.8676 30.8954C79.2398 25.5918 76.2203 20.8072 70.7107 19.2689C69.6088 18.9606 68.5662 18.8174 67.5771 18.8174C67.4666 18.8174 67.356 18.8197 67.2478 18.8232C55.6236 19.2026 51.7081 39.6095 51.9013 46.5154L58.5884 49.1812V64.8732C59.4414 65.0105 60.3024 65.1619 61.1658 65.3319V63.9542V60.4901L62.583 65.6259C62.5912 65.6287 62.5993 65.6295 62.6086 65.6318C62.5562 65.4273 62.5272 65.2132 62.5016 65.0036C62.1897 62.5007 62.085 59.9723 62.1839 57.4519C62.2177 56.6432 62.4911 56.2953 62.8495 56.2953C63.1753 56.2953 63.5709 56.5839 63.9165 57.0784C64.5332 57.9604 64.9579 58.9821 65.1999 60.0293C65.6409 61.9376 65.4664 64.0005 64.6274 65.7763C65.5397 65.79 66.5043 65.8004 67.4852 65.8032C67.5946 65.8032 67.704 65.8032 67.8145 65.8032ZM67.0047 39.8853C67.1082 39.8853 67.2059 39.9086 67.2944 39.9598C68.8419 40.8476 71.1831 46.4002 71.1831 47.2357C71.1831 47.3567 70.7898 47.3986 70.2534 47.3986C70.1626 47.3986 70.0684 47.3974 69.9706 47.3951C68.8291 47.3695 67.2944 47.2077 67.2944 47.2077L66.2483 44.3476L65.172 47.0088C65.172 47.0088 64.1341 47.2182 63.2498 47.2182C63.1113 47.2182 62.9751 47.2124 62.8483 47.2008C62.533 47.1705 62.2689 47.0984 62.1304 46.9587C61.6545 46.4758 64.802 40.7522 66.6265 39.9726C66.7603 39.9155 66.8871 39.8853 67.0047 39.8853ZM75.8781 31.6774C76.0771 31.6774 76.2575 31.7006 76.4157 31.7495C78.217 32.301 79.9076 40.4299 78.1064 43.6367C77.8818 44.037 77.5351 44.2127 77.1081 44.2127C77.0767 44.2127 77.0452 44.2115 77.0126 44.2103C74.6738 44.0742 70.1498 39.051 69.966 36.7425C69.7844 34.264 73.6452 31.7786 75.7513 31.6809C75.7944 31.6785 75.8362 31.6774 75.8781 31.6774ZM59.2831 31.6704C59.2878 31.6704 59.2936 31.6704 59.2982 31.6704C61.8349 31.7146 65.0719 36.3876 64.4715 37.9421C63.3359 40.9337 59.9871 42.828 57.9869 42.828C57.7984 42.828 57.6215 42.8105 57.4597 42.7768C57.1165 42.7035 56.8408 42.5511 56.6604 42.3125C55.5666 40.8627 56.615 32.7304 58.8445 31.7635C58.9864 31.703 59.133 31.6704 59.2831 31.6704Z" fill="white"/>
</mask>
<g mask="url(#mask9_54_4096)">
<path d="M67.8145 65.8032C68.3556 65.8032 68.9001 65.8004 69.4423 65.7937L71.0807 57.5625L71.5554 55.1771V65.7332V65.7496C72.5782 65.7146 73.5498 65.6705 74.4295 65.6077L75.756 50.5135L80.8664 49.5058L82.5188 49.1812C82.5188 49.1812 83.4694 39.3745 80.8676 30.8954C79.2398 25.5918 76.2203 20.8072 70.7107 19.2689C69.6088 18.9606 68.5662 18.8174 67.5771 18.8174C67.4666 18.8174 67.356 18.8197 67.2478 18.8232C55.6236 19.2026 51.7081 39.6095 51.9013 46.5154L58.5884 49.1812V64.8732C59.4414 65.0105 60.3024 65.1619 61.1658 65.3319V63.9542V60.4901L62.583 65.6259C62.5912 65.6287 62.5993 65.6295 62.6086 65.6318C62.5562 65.4273 62.5272 65.2132 62.5016 65.0036C62.1897 62.5007 62.085 59.9723 62.1839 57.4519C62.2177 56.6432 62.4911 56.2953 62.8495 56.2953C63.1753 56.2953 63.5709 56.5839 63.9165 57.0784C64.5332 57.9604 64.9579 58.9821 65.1999 60.0293C65.6409 61.9376 65.4664 64.0005 64.6274 65.7763C65.5397 65.79 66.5043 65.8004 67.4852 65.8032C67.5946 65.8032 67.704 65.8032 67.8145 65.8032ZM67.0047 39.8853C67.1082 39.8853 67.2059 39.9086 67.2944 39.9598C68.8419 40.8476 71.1831 46.4002 71.1831 47.2357C71.1831 47.3567 70.7898 47.3986 70.2534 47.3986C70.1626 47.3986 70.0684 47.3974 69.9706 47.3951C68.8291 47.3695 67.2944 47.2077 67.2944 47.2077L66.2483 44.3476L65.172 47.0088C65.172 47.0088 64.1341 47.2182 63.2498 47.2182C63.1113 47.2182 62.9751 47.2124 62.8483 47.2008C62.533 47.1705 62.2689 47.0984 62.1304 46.9587C61.6545 46.4758 64.802 40.7522 66.6265 39.9726C66.7603 39.9155 66.8871 39.8853 67.0047 39.8853ZM75.8781 31.6774C76.0771 31.6774 76.2575 31.7006 76.4157 31.7495C78.217 32.301 79.9076 40.4299 78.1064 43.6367C77.8818 44.037 77.5351 44.2127 77.1081 44.2127C77.0767 44.2127 77.0452 44.2115 77.0126 44.2103C74.6738 44.0742 70.1498 39.051 69.966 36.7425C69.7844 34.264 73.6452 31.7786 75.7513 31.6809C75.7944 31.6785 75.8362 31.6774 75.8781 31.6774ZM59.2831 31.6704C59.2878 31.6704 59.2936 31.6704 59.2982 31.6704C61.8349 31.7146 65.0719 36.3876 64.4715 37.9421C63.3359 40.9337 59.9871 42.828 57.9869 42.828C57.7984 42.828 57.6215 42.8105 57.4597 42.7768C57.1165 42.7035 56.8408 42.5511 56.6604 42.3125C55.5666 40.8627 56.615 32.7304 58.8445 31.7635C58.9864 31.703 59.133 31.6704 59.2831 31.6704Z" fill="url(#paint9_linear_54_4096)"/>
</g>
<path d="M129.281 101.195L132.717 82.397L135.528 53.1723L132.717 43.6925L131.17 27.2383L128.517 54.031L130.173 66.2613L129.281 101.195Z" fill="#7B739D"/>
<path d="M124.277 4.64322L123.165 18.5132L118.38 27.7637L113.978 21.7561L108.475 11.904L103.674 7.48935C103.674 7.48935 110.262 4.83871 124.277 4.64322Z" fill="#7B739D"/>
<path d="M16.725 78.632L17.1672 79.0155L21.2979 82.5531L31.0022 87.0098L26.1512 79.3533L24.4058 71.115L20.1576 55.6393L21.6703 73.6048L17.2952 78.0502L16.725 78.632Z" fill="#7B739D"/>
<mask id="mask10_54_4096" style="mask-type:luminance" maskUnits="userSpaceOnUse" x="20" y="55" width="12" height="33">
<path d="M31.0023 87.0098L26.1513 79.3533L20.1577 55.6393L21.6704 73.6048L23.8637 79.6442L31.0023 87.0098Z" fill="white"/>
</mask>
<g mask="url(#mask10_54_4096)">
<path d="M31.0023 87.0098L26.1513 79.3533L20.1577 55.6393L21.6704 73.6048L23.8637 79.6442L31.0023 87.0098Z" fill="url(#paint10_linear_54_4096)"/>
</g>
<path d="M122.546 73.6023L115.427 69.7451L103.674 73.6023L88.0144 87.0095L82.1267 95.6408L86.1329 100.962L83.3601 106.359L71.1424 109.464L60.3863 134.224L72.7552 134.632L74.0421 110.438L87.4326 107.409L88.9848 101.195L88.403 95.6408L91.4656 91.4333L97.5174 80.7992L113.977 73.6023H122.546Z" fill="#7B739D"/>
<mask id="mask11_54_4096" style="mask-type:luminance" maskUnits="userSpaceOnUse" x="60" y="69" width="63" height="66">
<path d="M60.3864 134.224H67.9066L73.8747 113.582L74.0422 110.438L75.1674 110.183L87.4328 107.409V101.195L85.2033 96.0304L94.512 83.5218L99.7481 78.4802L115.65 72.1769L122.546 73.6023L115.427 69.7451L103.674 73.6023L88.0145 87.0094L82.1268 95.6408L86.133 100.962L83.3602 106.359L71.1426 109.464L60.3864 134.224Z" fill="white"/>
</mask>
<g mask="url(#mask11_54_4096)">
<path d="M60.3863 134.224H67.9066L73.8746 113.582L74.0421 110.438L75.1673 110.183L87.4327 107.409V101.195L85.2032 96.0304L94.5119 83.5218L99.7481 78.4802L115.65 72.1769L122.546 73.6023L115.427 69.7451L103.674 73.6023L88.0145 87.0094L82.1267 95.6408L86.133 100.962L83.3601 106.359L71.1425 109.464L60.3863 134.224Z" fill="url(#paint11_linear_54_4096)"/>
</g>
<path d="M114.465 85.618L106.583 94.7589C106.583 94.7589 112.507 95.3698 113.981 94.0526C115.456 92.7345 114.465 85.618 114.465 85.618Z" fill="#ACB6CD"/>
<mask id="mask12_54_4096" style="mask-type:luminance" maskUnits="userSpaceOnUse" x="103" y="4" width="22" height="4">
<path d="M103.674 7.48877C103.753 7.45735 110.346 4.83696 124.277 4.64264C124.277 4.64264 124.243 4.64264 124.179 4.64264C122.94 4.64264 110.086 4.71013 103.674 7.48877Z" fill="white"/>
</mask>
<g mask="url(#mask12_54_4096)">
<path d="M103.674 7.48877C103.753 7.45735 110.346 4.83696 124.277 4.64264C124.277 4.64264 124.243 4.64264 124.179 4.64264C122.94 4.64264 110.086 4.71013 103.674 7.48877Z" fill="url(#paint12_linear_54_4096)"/>
</g>
<mask id="mask13_54_4096" style="mask-type:luminance" maskUnits="userSpaceOnUse" x="103" y="4" width="22" height="24">
<path d="M118.38 27.7637L123.165 18.5132L124.277 4.64322C110.346 4.83754 103.753 7.45793 103.674 7.48935L111.868 8.59592L119.954 11.1977L119.472 15.6868C120.347 16.6538 121.071 17.8476 121.294 19.1345C121.531 20.5006 120.772 20.8939 119.478 21.1312C119.312 21.1615 119.141 21.1801 118.97 21.1848L118.38 27.7637Z" fill="white"/>
</mask>
<g mask="url(#mask13_54_4096)">
<path d="M118.38 27.7637L123.165 18.5132L124.277 4.64322C110.346 4.83754 103.753 7.45793 103.674 7.48935L111.868 8.59592L119.954 11.1977L119.472 15.6868C120.347 16.6538 121.071 17.8476 121.294 19.1345C121.531 20.5006 120.772 20.8939 119.478 21.1312C119.312 21.1615 119.141 21.1801 118.97 21.1848L118.38 27.7637Z" fill="url(#paint13_linear_54_4096)"/>
</g>
<mask id="mask14_54_4096" style="mask-type:luminance" maskUnits="userSpaceOnUse" x="42" y="64" width="39" height="29">
<path d="M63.2975 92.2222C66.0913 92.2222 68.8932 91.7009 71.5043 90.6909C71.4356 89.7882 71.5741 88.8715 71.9127 88.0311C72.0139 87.781 72.1396 87.5297 72.3549 87.3665C72.5236 87.2397 72.7318 87.1843 72.9448 87.1843C73.1123 87.1843 73.2822 87.2179 73.437 87.2807C73.7884 87.4202 74.077 87.682 74.3434 87.951C74.6262 88.2369 74.8984 88.5478 75.1486 88.8769C75.1719 88.8632 75.194 88.8492 75.2173 88.8351C80.8921 85.2793 83.2006 77.9778 77.9889 72.949C74.3399 69.4264 69.4855 67.3683 64.4762 66.0779C64.4751 66.0801 64.4751 66.0811 64.4739 66.0825C64.3703 66.2779 64.254 66.477 64.0666 66.5934C63.9538 66.6643 63.8281 66.6957 63.7001 66.6957C63.3964 66.6957 63.0799 66.5202 62.8926 66.2675C62.7785 66.1139 62.6994 65.9406 62.6436 65.7579C62.4865 65.7543 62.3317 65.752 62.1793 65.7498C62.0106 65.7402 61.8407 65.7402 61.6813 65.7311L61.5894 65.417C61.4486 65.3879 61.3066 65.3598 61.1658 65.3321V65.6079L61.2519 65.6961C60.8749 65.6857 60.5293 65.6752 60.221 65.6657L60.2512 65.6961C58.5536 65.652 57.4528 65.6079 57.4528 65.6079V64.6988C56.9408 64.6244 56.4335 64.5534 55.9297 64.4871C54.5892 64.3094 53.2302 64.1507 51.8804 64.1507C51.0461 64.1507 50.2153 64.2112 49.3938 64.3648C47.2435 64.7675 45.1316 65.902 44.0332 67.7951C43.3269 69.011 43.0872 70.4423 43.0197 71.8458C42.6602 79.296 47.1958 86.6579 53.848 90.0278C56.7698 91.5082 60.0279 92.2222 63.2975 92.2222ZM72.4805 82.9849C72.7389 83.5281 72.9471 84.0949 73.103 84.6743C73.2136 85.0861 73.2706 85.5935 72.9483 85.8716C72.8273 85.9762 72.669 86.0253 72.5084 86.0253C72.377 86.0253 72.2443 85.9924 72.1279 85.9335C71.8696 85.7984 71.687 85.5494 71.5694 85.283C71.2879 84.6357 71.3693 83.8458 71.7789 83.2699C71.8824 83.1244 72.0151 82.9871 72.1838 82.9313C72.2292 82.9172 72.2769 82.9103 72.3246 82.9103C72.4584 82.9103 72.5922 82.9671 72.6562 83.0813L72.4805 82.9849ZM63.7327 67.3288C63.742 67.3288 63.7501 67.3288 63.7594 67.3288C66.2786 67.3533 64.8497 72.8963 63.8863 73.9216C63.7408 74.0762 63.5488 74.2194 63.3405 74.2194C63.3196 74.2194 63.2975 74.218 63.2766 74.2149C63.1148 74.1903 62.9822 74.0785 62.8647 73.9644C61.4334 72.574 60.6213 67.3288 63.7327 67.3288Z" fill="white"/>
</mask>
<g mask="url(#mask14_54_4096)">
<path d="M63.2975 92.2222C66.0913 92.2222 68.8932 91.7009 71.5043 90.6909C71.4356 89.7882 71.5741 88.8715 71.9127 88.0311C72.0139 87.781 72.1396 87.5297 72.3549 87.3665C72.5236 87.2397 72.7318 87.1843 72.9448 87.1843C73.1123 87.1843 73.2822 87.2179 73.437 87.2807C73.7884 87.4202 74.077 87.682 74.3434 87.951C74.6262 88.2369 74.8984 88.5478 75.1486 88.8769C75.1719 88.8632 75.194 88.8492 75.2173 88.8351C80.8921 85.2793 83.2006 77.9778 77.9889 72.949C74.3399 69.4264 69.4855 67.3683 64.4762 66.0779C64.4751 66.0801 64.4751 66.0811 64.4739 66.0825C64.3703 66.2779 64.254 66.477 64.0666 66.5934C63.9538 66.6643 63.8281 66.6957 63.7001 66.6957C63.3964 66.6957 63.0799 66.5202 62.8926 66.2675C62.7785 66.1139 62.6994 65.9406 62.6436 65.7579C62.4865 65.7543 62.3317 65.752 62.1793 65.7498C62.0106 65.7402 61.8407 65.7402 61.6813 65.7311L61.5894 65.417C61.4486 65.3879 61.3066 65.3598 61.1658 65.3321V65.6079L61.2519 65.6961C60.8749 65.6857 60.5293 65.6752 60.221 65.6657L60.2512 65.6961C58.5536 65.652 57.4528 65.6079 57.4528 65.6079V64.6988C56.9408 64.6244 56.4335 64.5534 55.9297 64.4871C54.5892 64.3094 53.2302 64.1507 51.8804 64.1507C51.0461 64.1507 50.2153 64.2112 49.3938 64.3648C47.2435 64.7675 45.1316 65.902 44.0332 67.7951C43.3269 69.011 43.0872 70.4423 43.0197 71.8458C42.6602 79.296 47.1958 86.6579 53.848 90.0278C56.7698 91.5082 60.0279 92.2222 63.2975 92.2222ZM72.4805 82.9849C72.7389 83.5281 72.9471 84.0949 73.103 84.6743C73.2136 85.0861 73.2706 85.5935 72.9483 85.8716C72.8273 85.9762 72.669 86.0253 72.5084 86.0253C72.377 86.0253 72.2443 85.9924 72.1279 85.9335C71.8696 85.7984 71.687 85.5494 71.5694 85.283C71.2879 84.6357 71.3693 83.8458 71.7789 83.2699C71.8824 83.1244 72.0151 82.9871 72.1838 82.9313C72.2292 82.9172 72.2769 82.9103 72.3246 82.9103C72.4584 82.9103 72.5922 82.9671 72.6562 83.0813L72.4805 82.9849ZM63.7327 67.3288C63.742 67.3288 63.7501 67.3288 63.7594 67.3288C66.2786 67.3533 64.8497 72.8963 63.8863 73.9216C63.7408 74.0762 63.5488 74.2194 63.3405 74.2194C63.3196 74.2194 63.2975 74.218 63.2766 74.2149C63.1148 74.1903 62.9822 74.0785 62.8647 73.9644C61.4334 72.574 60.6213 67.3288 63.7327 67.3288Z" fill="url(#paint14_linear_54_4096)"/>
</g>
<mask id="mask15_54_4096" style="mask-type:luminance" maskUnits="userSpaceOnUse" x="57" y="64" width="6" height="2">
<path d="M62.6438 65.7578C62.6415 65.7497 62.6391 65.7414 62.6356 65.7319C62.6275 65.7319 62.6194 65.7319 62.6124 65.7309L62.5833 65.626C62.2517 65.5542 61.9212 65.4833 61.5896 65.4169L61.6815 65.7309C61.8409 65.7401 62.0108 65.7401 62.1795 65.7497C62.3319 65.7519 62.4867 65.7542 62.6438 65.7578ZM60.2515 65.696L60.2212 65.6655C59.2054 65.6333 58.5887 65.6078 58.5887 65.6078V64.8733C58.2082 64.8129 57.83 64.7547 57.453 64.6987V65.6078C57.453 65.6078 58.5538 65.6519 60.2515 65.696Z" fill="white"/>
</mask>
<g mask="url(#mask15_54_4096)">
<path d="M62.6438 65.7578C62.6415 65.7497 62.6391 65.7414 62.6356 65.7319C62.6275 65.7319 62.6194 65.7319 62.6124 65.7309L62.5833 65.626C62.2517 65.5542 61.9212 65.4833 61.5896 65.4169L61.6815 65.7309C61.8409 65.7401 62.0108 65.7401 62.1795 65.7497C62.3319 65.7519 62.4867 65.7542 62.6438 65.7578ZM60.2515 65.696L60.2212 65.6655C59.2054 65.6333 58.5887 65.6078 58.5887 65.6078V64.8733C58.2082 64.8129 57.83 64.7547 57.453 64.6987V65.6078C57.453 65.6078 58.5538 65.6519 60.2515 65.696Z" fill="url(#paint15_linear_54_4096)"/>
</g>
<mask id="mask16_54_4096" style="mask-type:luminance" maskUnits="userSpaceOnUse" x="58" y="64" width="5" height="2">
<path d="M62.6355 65.7319C62.6262 65.6997 62.6169 65.6656 62.6087 65.632C62.5994 65.6297 62.5913 65.6288 62.5832 65.6261L62.6123 65.731C62.6192 65.7319 62.6274 65.7319 62.6355 65.7319ZM61.252 65.6961L61.1659 65.6079V65.332C60.3025 65.162 59.4415 65.0106 58.5886 64.8733V65.6079C58.5886 65.6079 59.2052 65.6334 60.2211 65.6656C60.5294 65.6752 60.875 65.6856 61.252 65.6961Z" fill="white"/>
</mask>
<g mask="url(#mask16_54_4096)">
<path d="M62.6355 65.7319C62.6262 65.6997 62.6169 65.6656 62.6087 65.632C62.5994 65.6297 62.5913 65.6288 62.5832 65.6261L62.6123 65.731C62.6192 65.7319 62.6274 65.7319 62.6355 65.7319ZM61.252 65.6961L61.1659 65.6079V65.332C60.3025 65.162 59.4415 65.0106 58.5886 64.8733V65.6079C58.5886 65.6079 59.2052 65.6334 60.2211 65.6656C60.5294 65.6752 60.875 65.6856 61.252 65.6961Z" fill="url(#paint16_linear_54_4096)"/>
</g>
<mask id="mask17_54_4096" style="mask-type:luminance" maskUnits="userSpaceOnUse" x="80" y="56" width="17" height="20">
<path d="M89.5935 75.0918C90.7013 75.0918 91.7951 74.9022 92.7923 74.4286C95.7617 73.016 97.1371 69.3192 96.6495 66.0671C95.7885 60.3259 91.5123 56.514 87.4968 56.514C84.511 56.514 81.6672 58.6236 80.4827 63.6186C79.9358 65.9262 79.7007 68.4661 80.7771 70.5792C81.9628 72.9055 84.518 74.2437 87.0674 74.8009C87.8924 74.9813 88.7465 75.0918 89.5935 75.0918Z" fill="white"/>
</mask>
<g mask="url(#mask17_54_4096)">
<path d="M89.5935 75.0918C90.7013 75.0918 91.7951 74.9022 92.7923 74.4286C95.7617 73.016 97.1371 69.3192 96.6495 66.0671C95.7885 60.3259 91.5123 56.514 87.4968 56.514C84.511 56.514 81.6672 58.6236 80.4827 63.6186C79.9358 65.9262 79.7007 68.4661 80.7771 70.5792C81.9628 72.9055 84.518 74.2437 87.0674 74.8009C87.8924 74.9813 88.7465 75.0918 89.5935 75.0918Z" fill="url(#paint17_linear_54_4096)"/>
</g>
<mask id="mask18_54_4096" style="mask-type:luminance" maskUnits="userSpaceOnUse" x="44" y="55" width="7" height="6">
<path d="M47.872 60.9346C48.0245 60.9346 48.178 60.9218 48.3305 60.8938C49.2067 60.7333 49.984 59.9932 50.1038 59.1345C49.7978 57.8615 49.0915 56.6095 47.9093 56.0603C47.5788 55.9067 47.2099 55.8323 46.8399 55.8323C45.8451 55.8323 44.8467 56.3687 44.5849 57.3158C44.3266 58.2479 44.8235 59.2439 45.524 59.9106C46.1569 60.5134 47.0087 60.9346 47.872 60.9346ZM50.134 59.2648L50.1201 58.9425C50.1178 59.0065 50.1131 59.0705 50.1038 59.1345C50.1143 59.1776 50.1247 59.2206 50.134 59.2648ZM50.1201 58.9425C50.1213 58.8704 50.1177 58.7982 50.1096 58.7249L50.1201 58.9425Z" fill="white"/>
</mask>
<g mask="url(#mask18_54_4096)">
<path d="M47.872 60.9346C48.0245 60.9346 48.178 60.9218 48.3305 60.8938C49.2067 60.7333 49.984 59.9932 50.1038 59.1345C49.7978 57.8615 49.0915 56.6095 47.9093 56.0603C47.5788 55.9067 47.2099 55.8323 46.8399 55.8323C45.8451 55.8323 44.8467 56.3687 44.5849 57.3158C44.3266 58.2479 44.8235 59.2439 45.524 59.9106C46.1569 60.5134 47.0087 60.9346 47.872 60.9346ZM50.134 59.2648L50.1201 58.9425C50.1178 59.0065 50.1131 59.0705 50.1038 59.1345C50.1143 59.1776 50.1247 59.2206 50.134 59.2648ZM50.1201 58.9425C50.1213 58.8704 50.1177 58.7982 50.1096 58.7249L50.1201 58.9425Z" fill="url(#paint18_linear_54_4096)"/>
</g>
<mask id="mask19_54_4096" style="mask-type:luminance" maskUnits="userSpaceOnUse" x="87" y="16" width="25" height="31">
<path d="M102.938 46.8799C104.889 46.8799 106.861 46.2329 108.275 44.8971C109.258 43.9663 109.937 42.748 110.387 41.4715C111.779 37.5258 111.05 33.0705 109.256 29.29C107.415 25.4071 102.572 17.2562 97.963 16.2939C97.4754 16.1927 97.0042 16.1438 96.5481 16.1438C91.1025 16.1438 87.8223 22.995 87.9596 27.6947C88.0539 30.8852 89.1279 33.9746 90.5265 36.8428C92.9037 41.7136 96.9495 46.5041 102.358 46.8601C102.551 46.8729 102.744 46.8799 102.938 46.8799Z" fill="white"/>
</mask>
<g mask="url(#mask19_54_4096)">
<path d="M102.938 46.8799C104.889 46.8799 106.861 46.2329 108.275 44.8971C109.258 43.9663 109.937 42.748 110.387 41.4715C111.779 37.5258 111.05 33.0705 109.256 29.29C107.415 25.4071 102.572 17.2562 97.963 16.2939C97.4754 16.1927 97.0042 16.1438 96.5481 16.1438C91.1025 16.1438 87.8223 22.995 87.9596 27.6947C88.0539 30.8852 89.1279 33.9746 90.5265 36.8428C92.9037 41.7136 96.9495 46.5041 102.358 46.8601C102.551 46.8729 102.744 46.8799 102.938 46.8799Z" fill="url(#paint19_linear_54_4096)"/>
</g>
<mask id="mask20_54_4096" style="mask-type:luminance" maskUnits="userSpaceOnUse" x="102" y="49" width="7" height="7">
<path d="M105.284 55.3472C106.845 55.3472 108.384 53.9183 108.159 52.3533L108.24 52.3707C108.528 51.889 108.346 51.2362 107.965 50.8231C107.585 50.4089 107.048 50.1797 106.53 49.9621C105.839 49.6724 105.035 49.4001 104.301 49.4001C103.781 49.4001 103.294 49.5374 102.909 49.9027C102.561 50.232 102.371 50.6986 102.276 51.1687C101.928 52.9025 103.011 54.8864 104.734 55.2855C104.915 55.3274 105.1 55.3472 105.284 55.3472Z" fill="white"/>
</mask>
<g mask="url(#mask20_54_4096)">
<path d="M105.284 55.3472C106.845 55.3472 108.384 53.9183 108.159 52.3533L108.24 52.3707C108.528 51.889 108.346 51.2362 107.965 50.8231C107.585 50.4089 107.048 50.1797 106.53 49.9621C105.839 49.6724 105.035 49.4001 104.301 49.4001C103.781 49.4001 103.294 49.5374 102.909 49.9027C102.561 50.232 102.371 50.6986 102.276 51.1687C101.928 52.9025 103.011 54.8864 104.734 55.2855C104.915 55.3274 105.1 55.3472 105.284 55.3472Z" fill="url(#paint20_linear_54_4096)"/>
</g>
<mask id="mask21_54_4096" style="mask-type:luminance" maskUnits="userSpaceOnUse" x="133" y="7" width="25" height="47">
<path d="M151.879 53.1924C152.194 53.1924 152.51 53.1482 152.82 53.0504C154.58 52.4942 155.377 50.4964 155.862 48.7184C158.564 38.8198 158.583 28.23 156.015 18.3034C154.641 12.9917 150.577 7.62522 144.965 7.62522C143.671 7.62522 142.295 7.91031 140.85 8.54795C136.451 10.49 133.853 15.3316 133.423 20.121C132.995 24.9114 134.397 29.6752 136.13 34.1608C138.765 40.9875 142.436 47.7747 148.489 51.8857C149.502 52.5734 150.694 53.1924 151.879 53.1924Z" fill="white"/>
</mask>
<g mask="url(#mask21_54_4096)">
<path d="M151.879 53.1924C152.194 53.1924 152.51 53.1482 152.82 53.0504C154.58 52.4942 155.377 50.4964 155.862 48.7184C158.564 38.8198 158.584 28.23 156.016 18.3034C154.641 12.9917 150.577 7.62522 144.965 7.62522C143.671 7.62522 142.295 7.91031 140.851 8.54795C136.451 10.49 133.853 15.3316 133.424 20.121C132.995 24.9114 134.397 29.6752 136.13 34.1608C138.765 40.9875 142.437 47.7747 148.49 51.8857C149.502 52.5734 150.695 53.1924 151.879 53.1924Z" fill="url(#paint21_linear_54_4096)"/>
</g>
<mask id="mask22_54_4096" style="mask-type:luminance" maskUnits="userSpaceOnUse" x="141" y="50" width="9" height="13">
<path d="M147.228 62.3579C153.594 62.3579 146.883 53.2075 144.551 51.4214C144.162 51.1223 143.714 50.8279 143.231 50.8279C143.191 50.8279 143.149 50.8303 143.107 50.8338C142.234 50.9268 141.803 51.9299 141.614 52.7863C141.191 54.6957 141.088 56.7366 141.767 58.5704C142.447 60.4042 144.027 61.9844 145.963 62.2602C146.432 62.3265 146.853 62.3579 147.228 62.3579Z" fill="white"/>
</mask>
<g mask="url(#mask22_54_4096)">
<path d="M147.228 62.3579C153.594 62.3579 146.883 53.2075 144.551 51.4214C144.162 51.1223 143.714 50.8279 143.231 50.8279C143.191 50.8279 143.149 50.8303 143.107 50.8338C142.234 50.9268 141.803 51.9299 141.614 52.7863C141.191 54.6957 141.088 56.7366 141.767 58.5704C142.447 60.4042 144.027 61.9844 145.963 62.2602C146.432 62.3265 146.853 62.3579 147.228 62.3579Z" fill="url(#paint22_linear_54_4096)"/>
</g>
<mask id="mask23_54_4096" style="mask-type:luminance" maskUnits="userSpaceOnUse" x="136" y="67" width="15" height="23">
<path d="M145.594 89.8335C152.051 89.8335 151.728 74.4055 149.375 69.9908C148.3 67.9754 146.281 67.0341 144.177 67.0341C142.823 67.0341 141.431 67.4249 140.236 68.1708C135.433 71.1694 135.996 77.5295 137.647 82.1584C138.565 84.7333 139.924 87.3268 142.268 88.735C143.535 89.4958 144.639 89.8335 145.594 89.8335Z" fill="white"/>
</mask>
<g mask="url(#mask23_54_4096)">
<path d="M145.594 89.8335C152.051 89.8335 151.728 74.4055 149.375 69.9908C148.3 67.9754 146.281 67.0341 144.177 67.0341C142.823 67.0341 141.431 67.4249 140.236 68.1708C135.433 71.1694 135.996 77.5295 137.647 82.1584C138.565 84.7333 139.924 87.3268 142.268 88.735C143.535 89.4958 144.639 89.8335 145.594 89.8335Z" fill="url(#paint23_linear_54_4096)"/>
</g>
<mask id="mask24_54_4096" style="mask-type:luminance" maskUnits="userSpaceOnUse" x="151" y="66" width="4" height="5">
<path d="M152.708 70.4473C153.094 70.0267 153.481 69.6059 153.868 69.1869L154.03 69.4382C154.145 68.5946 154.25 67.6942 153.872 66.9306C153.606 66.3943 152.997 66.0011 152.429 66.0011C152.191 66.0011 151.959 66.0697 151.763 66.2279C151.551 66.3979 151.411 66.642 151.312 66.8955C150.81 68.1991 151.451 69.8364 152.708 70.4473Z" fill="white"/>
</mask>
<g mask="url(#mask24_54_4096)">
<path d="M152.708 70.4473C153.094 70.0267 153.481 69.6059 153.868 69.1869L154.03 69.4382C154.145 68.5946 154.25 67.6942 153.872 66.9306C153.606 66.3943 152.997 66.0011 152.429 66.0011C152.191 66.0011 151.959 66.0697 151.763 66.2279C151.551 66.3979 151.411 66.642 151.312 66.8955C150.81 68.1991 151.451 69.8364 152.708 70.4473Z" fill="url(#paint24_linear_54_4096)"/>
</g>
<mask id="mask25_54_4096" style="mask-type:luminance" maskUnits="userSpaceOnUse" x="95" y="113" width="33" height="19">
<path d="M116.776 131.686C121.42 131.686 126.35 130.958 127.549 128.039C129.279 123.834 122.028 117.367 118.994 115.688C115.744 113.891 111.976 113.539 108.216 113.539C107.137 113.539 106.058 113.569 104.992 113.601C102.711 113.669 100.287 113.784 98.4202 115.093C96.1593 116.679 95.2832 119.81 95.9592 122.489C96.6364 125.167 98.6495 127.373 101.042 128.755C103.435 130.137 106.186 130.775 108.925 131.132C110.547 131.344 113.595 131.686 116.776 131.686ZM116.06 118.345C117.432 118.345 117.674 120.666 117.963 121.651C118.096 122.106 118.23 122.571 118.217 123.045C118.202 123.52 118.014 124.014 117.622 124.28C117.418 124.418 117.181 124.479 116.938 124.479C116.588 124.479 116.23 124.353 115.948 124.141C115.47 123.784 115.178 123.232 114.958 122.678C114.793 122.262 114.66 121.834 114.561 121.397C114.436 120.842 114.364 120.261 114.497 119.708C114.631 119.155 115.001 118.635 115.538 118.444C115.729 118.377 115.902 118.345 116.06 118.345Z" fill="white"/>
</mask>
<g mask="url(#mask25_54_4096)">
<path d="M116.776 131.686C121.42 131.686 126.35 130.958 127.549 128.039C129.279 123.834 122.028 117.367 118.994 115.688C115.744 113.891 111.976 113.539 108.216 113.539C107.137 113.539 106.058 113.569 104.992 113.601C102.711 113.669 100.287 113.784 98.4202 115.093C96.1593 116.679 95.2832 119.81 95.9592 122.489C96.6364 125.167 98.6495 127.373 101.042 128.755C103.435 130.137 106.186 130.775 108.925 131.132C110.547 131.344 113.595 131.686 116.776 131.686ZM116.06 118.345C117.432 118.345 117.674 120.666 117.963 121.651C118.096 122.106 118.23 122.571 118.217 123.045C118.202 123.52 118.014 124.014 117.622 124.28C117.418 124.418 117.181 124.479 116.938 124.479C116.588 124.479 116.23 124.353 115.948 124.141C115.47 123.784 115.178 123.232 114.958 122.678C114.793 122.262 114.66 121.834 114.561 121.397C114.436 120.842 114.364 120.261 114.497 119.708C114.631 119.155 115.001 118.635 115.538 118.444C115.729 118.377 115.902 118.345 116.06 118.345Z" fill="url(#paint25_linear_54_4096)"/>
</g>
<mask id="mask26_54_4096" style="mask-type:luminance" maskUnits="userSpaceOnUse" x="139" y="112" width="23" height="22">
<path d="M155.962 134C157.267 134 158.507 133.693 159.481 132.836C164.964 127.998 157.527 116.527 152.729 113.852C151.431 113.128 150.007 112.799 148.585 112.799C143.536 112.799 138.526 116.962 139.437 122.46C139.921 125.39 141.822 127.952 144.201 129.73C146.579 131.508 149.41 132.58 152.265 133.393C153.443 133.727 154.731 134 155.962 134Z" fill="white"/>
</mask>
<g mask="url(#mask26_54_4096)">
<path d="M155.962 134C157.267 134 158.507 133.693 159.481 132.836C164.964 127.998 157.527 116.527 152.729 113.852C151.431 113.128 150.007 112.799 148.585 112.799C143.536 112.799 138.526 116.962 139.437 122.46C139.921 125.39 141.822 127.952 144.201 129.73C146.579 131.508 149.41 132.58 152.265 133.393C153.443 133.727 154.731 134 155.962 134Z" fill="url(#paint26_linear_54_4096)"/>
</g>
<mask id="mask27_54_4096" style="mask-type:luminance" maskUnits="userSpaceOnUse" x="135" y="126" width="6" height="5">
<path d="M138.158 130.435C138.803 130.435 139.452 130.171 139.881 129.687L140.187 129.968C139.725 128.991 139.098 128.09 138.339 127.32C137.993 126.968 137.541 126.622 137.07 126.622C136.989 126.622 136.906 126.633 136.825 126.655C136.377 126.775 136.088 127.224 135.983 127.677C135.759 128.647 136.264 129.74 137.15 130.197C137.461 130.358 137.809 130.435 138.158 130.435Z" fill="white"/>
</mask>
<g mask="url(#mask27_54_4096)">
<path d="M138.158 130.435C138.803 130.435 139.452 130.171 139.881 129.687L140.187 129.968C139.725 128.991 139.098 128.09 138.339 127.32C137.993 126.968 137.541 126.622 137.07 126.622C136.989 126.622 136.906 126.633 136.825 126.655C136.377 126.775 136.088 127.224 135.983 127.677C135.759 128.647 136.264 129.74 137.15 130.197C137.461 130.358 137.809 130.435 138.158 130.435Z" fill="url(#paint27_linear_54_4096)"/>
</g>
<mask id="mask28_54_4096" style="mask-type:luminance" maskUnits="userSpaceOnUse" x="12" y="115" width="42" height="19">
<path d="M47.1645 133.467C49.4463 133.467 51.9131 132.995 52.8289 131.001C53.6248 129.272 52.7881 127.245 51.7793 125.631C48.605 120.55 42.8686 115.495 36.7272 115.114C35.9674 115.066 35.2029 115.043 34.4338 115.043C28.0538 115.043 21.3853 116.637 15.7116 119.319C14.3351 119.971 12.8132 120.967 12.7597 122.489C12.7154 123.731 13.701 124.756 14.6842 125.519C18.4752 128.454 23.2075 129.87 27.8851 130.921C33.8985 132.271 40.0248 133.114 46.1801 133.44C46.5001 133.456 46.8306 133.467 47.1645 133.467Z" fill="white"/>
</mask>
<g mask="url(#mask28_54_4096)">
<path d="M47.1645 133.467C49.4463 133.467 51.9131 132.995 52.8289 131.001C53.6248 129.272 52.7881 127.245 51.7793 125.631C48.605 120.55 42.8686 115.495 36.7272 115.114C35.9674 115.066 35.2029 115.043 34.4338 115.043C28.0538 115.043 21.3853 116.637 15.7116 119.319C14.3351 119.971 12.8132 120.967 12.7597 122.489C12.7154 123.731 13.701 124.756 14.6842 125.519C18.4752 128.454 23.2075 129.87 27.8851 130.921C33.8985 132.271 40.0248 133.114 46.1801 133.44C46.5001 133.456 46.8306 133.467 47.1645 133.467Z" fill="url(#paint28_linear_54_4096)"/>
</g>
<mask id="mask29_54_4096" style="mask-type:luminance" maskUnits="userSpaceOnUse" x="4" y="125" width="12" height="8">
<path d="M10.5977 132.031C12.3513 132.031 15.3265 131.659 15.1997 129.498C15.0845 127.487 11.2284 126.761 9.68197 126.284C8.93495 126.055 8.09599 125.864 7.30708 125.864C6.44835 125.864 5.65016 126.09 5.09513 126.732C4.10958 127.874 4.60291 129.774 5.763 130.737C6.92309 131.701 8.51142 131.943 10.0183 132.017C10.1882 132.025 10.3836 132.031 10.5977 132.031Z" fill="white"/>
</mask>
<g mask="url(#mask29_54_4096)">
<path d="M10.5977 132.031C12.3513 132.031 15.3265 131.659 15.1997 129.498C15.0845 127.487 11.2284 126.761 9.68197 126.284C8.93495 126.055 8.09599 125.864 7.30708 125.864C6.44835 125.864 5.65016 126.09 5.09513 126.732C4.10958 127.874 4.60291 129.774 5.763 130.737C6.92309 131.701 8.51142 131.943 10.0183 132.017C10.1882 132.025 10.3836 132.031 10.5977 132.031Z" fill="url(#paint29_linear_54_4096)"/>
</g>
<mask id="mask30_54_4096" style="mask-type:luminance" maskUnits="userSpaceOnUse" x="46" y="110" width="15" height="13">
<path d="M57.0296 122.093C57.9534 122.093 58.8366 121.874 59.4487 121.211C60.454 120.119 60.2003 118.38 59.6557 117.001C58.7074 114.6 57.0598 112.484 54.9665 110.975C54.8025 110.992 54.707 111.147 54.6942 111.307C53.8332 110.936 52.8883 110.749 51.9447 110.749C50.4029 110.749 48.8623 111.247 47.6871 112.25C47.1193 112.734 46.6283 113.329 46.3676 114.028C45.8336 115.463 46.3723 117.131 47.3858 118.277C48.4004 119.425 49.8165 120.131 51.2442 120.684C52.5567 121.192 53.9111 121.596 55.29 121.887C55.8473 122.006 56.4466 122.093 57.0296 122.093Z" fill="white"/>
</mask>
<g mask="url(#mask30_54_4096)">
<path d="M57.0296 122.093C57.9534 122.093 58.8366 121.874 59.4487 121.211C60.454 120.119 60.2003 118.38 59.6557 117.001C58.7074 114.6 57.0598 112.484 54.9665 110.975C54.8025 110.992 54.707 111.147 54.6942 111.307C53.8332 110.936 52.8883 110.749 51.9447 110.749C50.4029 110.749 48.8623 111.247 47.6871 112.25C47.1193 112.734 46.6283 113.329 46.3676 114.028C45.8336 115.463 46.3723 117.131 47.3858 118.277C48.4004 119.425 49.8165 120.131 51.2442 120.684C52.5567 121.192 53.9111 121.596 55.29 121.887C55.8473 122.006 56.4466 122.093 57.0296 122.093Z" fill="url(#paint30_linear_54_4096)"/>
</g>
<mask id="mask31_54_4096" style="mask-type:luminance" maskUnits="userSpaceOnUse" x="104" y="55" width="5" height="7">
<path d="M107.508 61.9194C107.75 61.9194 107.988 61.8578 108.191 61.7205C108.584 61.454 108.774 60.9606 108.787 60.4847C108.802 60.0112 108.667 59.5469 108.533 59.0908C108.246 58.1064 108.002 55.7862 106.631 55.7862C106.471 55.7862 106.298 55.8164 106.107 55.8839C105.572 56.0747 105.202 56.596 105.068 57.1476C104.935 57.7014 105.005 58.2832 105.132 58.8371C105.232 59.2734 105.365 59.7028 105.529 60.1182C105.749 60.6721 106.042 61.2236 106.52 61.582C106.8 61.7938 107.159 61.9194 107.508 61.9194Z" fill="white"/>
</mask>
<g mask="url(#mask31_54_4096)">
<path d="M107.508 61.9194C107.75 61.9194 107.988 61.8578 108.191 61.7205C108.584 61.454 108.774 60.9606 108.787 60.4847C108.802 60.0112 108.667 59.5469 108.533 59.0908C108.246 58.1064 108.002 55.7862 106.631 55.7862C106.471 55.7862 106.298 55.8164 106.107 55.8839C105.572 56.0747 105.202 56.596 105.068 57.1476C104.935 57.7014 105.005 58.2832 105.132 58.8371C105.232 59.2734 105.365 59.7028 105.529 60.1182C105.749 60.6721 106.042 61.2236 106.52 61.582C106.8 61.7938 107.159 61.9194 107.508 61.9194Z" fill="url(#paint31_linear_54_4096)"/>
</g>
<mask id="mask32_54_4096" style="mask-type:luminance" maskUnits="userSpaceOnUse" x="114" y="118" width="5" height="7">
<path d="M116.937 124.48C117.181 124.48 117.418 124.419 117.622 124.281C118.014 124.015 118.202 123.52 118.217 123.046C118.23 122.572 118.096 122.106 117.963 121.651C117.674 120.666 117.432 118.346 116.06 118.346C115.902 118.346 115.729 118.377 115.538 118.445C115.001 118.635 114.631 119.156 114.497 119.708C114.364 120.262 114.436 120.843 114.561 121.398C114.66 121.834 114.793 122.262 114.958 122.679C115.178 123.233 115.47 123.784 115.948 124.141C116.23 124.353 116.588 124.48 116.937 124.48Z" fill="white"/>
</mask>
<g mask="url(#mask32_54_4096)">
<path d="M116.937 124.48C117.181 124.48 117.418 124.419 117.622 124.281C118.014 124.015 118.202 123.52 118.217 123.046C118.23 122.572 118.096 122.106 117.963 121.651C117.674 120.666 117.432 118.346 116.06 118.346C115.902 118.346 115.729 118.377 115.538 118.445C115.001 118.635 114.631 119.156 114.497 119.708C114.364 120.262 114.436 120.843 114.561 121.398C114.66 121.834 114.793 122.262 114.958 122.679C115.178 123.233 115.47 123.784 115.948 124.141C116.23 124.353 116.588 124.48 116.937 124.48Z" fill="url(#paint32_linear_54_4096)"/>
</g>
<mask id="mask33_54_4096" style="mask-type:luminance" maskUnits="userSpaceOnUse" x="71" y="88" width="6" height="6">
<path d="M74.056 93.7593C74.2538 93.7593 74.4505 93.7407 74.6425 93.7048C75.9387 93.4676 76.6973 93.0739 76.4599 91.708C76.2831 90.6826 75.7862 89.7158 75.1486 88.8768C73.9943 89.5949 72.7726 90.2 71.5042 90.6908C71.531 91.0494 71.5915 91.4053 71.6846 91.7535C71.8335 92.3176 72.0837 92.8798 72.5317 93.2566C72.9518 93.6102 73.5021 93.7593 74.056 93.7593Z" fill="white"/>
</mask>
<g mask="url(#mask33_54_4096)">
<path d="M74.056 93.7593C74.2538 93.7593 74.4505 93.7407 74.6425 93.7048C75.9387 93.4676 76.6973 93.0739 76.4599 91.708C76.2831 90.6826 75.7862 89.7158 75.1486 88.8768C73.9943 89.5949 72.7726 90.2 71.5042 90.6908C71.531 91.0494 71.5915 91.4053 71.6846 91.7535C71.8335 92.3176 72.0837 92.8798 72.5317 93.2566C72.9518 93.6102 73.5021 93.7593 74.056 93.7593Z" fill="url(#paint33_linear_54_4096)"/>
</g>
<mask id="mask34_54_4096" style="mask-type:luminance" maskUnits="userSpaceOnUse" x="71" y="87" width="5" height="4">
<path d="M71.5044 90.6909C72.7727 90.2001 73.9944 89.5951 75.1487 88.8769C74.8985 88.5478 74.6262 88.2369 74.3435 87.951C74.077 87.682 73.7885 87.4202 73.4371 87.2807C73.2823 87.218 73.1124 87.1843 72.9449 87.1843C72.7319 87.1843 72.5237 87.2397 72.3549 87.3666C72.1397 87.5297 72.014 87.781 71.9127 88.0311C71.5741 88.8715 71.4357 89.7882 71.5044 90.6909Z" fill="white"/>
</mask>
<g mask="url(#mask34_54_4096)">
<path d="M71.5044 90.6909C72.7727 90.2001 73.9944 89.5951 75.1487 88.8769C74.8985 88.5478 74.6262 88.2369 74.3435 87.951C74.077 87.682 73.7885 87.4202 73.4371 87.2807C73.2823 87.218 73.1124 87.1843 72.9449 87.1843C72.7319 87.1843 72.5237 87.2397 72.3549 87.3666C72.1397 87.5297 72.014 87.781 71.9127 88.0311C71.5741 88.8715 71.4357 89.7882 71.5044 90.6909Z" fill="url(#paint34_linear_54_4096)"/>
</g>
<path d="M118.892 21.1855C118.918 21.1855 118.944 21.1844 118.969 21.1844L119.416 16.2042L119.472 15.6864C119.375 15.5806 119.276 15.477 119.178 15.3758C118.911 15.1058 118.623 14.8463 118.271 14.7055C118.116 14.6439 117.947 14.609 117.78 14.609C117.567 14.609 117.359 14.6648 117.189 14.7928C116.973 14.9545 116.848 15.207 116.747 15.4561C116.274 16.6289 116.192 17.9566 116.519 19.1784C116.669 19.7439 116.918 20.3059 117.366 20.6817C117.786 21.0354 118.339 21.1855 118.892 21.1855Z" fill="#716B97"/>
<mask id="mask35_54_4096" style="mask-type:luminance" maskUnits="userSpaceOnUse" x="118" y="15" width="4" height="7">
<path d="M118.969 21.1841C119.14 21.1794 119.311 21.1608 119.478 21.1306C120.772 20.8932 121.53 20.4999 121.294 19.1338C121.071 17.8469 120.347 16.6531 119.472 15.6861L119.416 16.2039L118.969 21.1841Z" fill="white"/>
</mask>
<g mask="url(#mask35_54_4096)">
<path d="M118.969 21.1841C119.14 21.1794 119.311 21.1608 119.478 21.1306C120.772 20.8932 121.53 20.4999 121.294 19.1338C121.071 17.8469 120.347 16.6531 119.472 15.6861L119.416 16.2039L118.969 21.1841Z" fill="url(#paint35_linear_54_4096)"/>
</g>
<mask id="mask36_54_4096" style="mask-type:luminance" maskUnits="userSpaceOnUse" x="106" y="102" width="6" height="5">
<path d="M106.898 106.106C108.39 106.07 109.891 106.03 111.4 105.985C110.995 105.126 110.403 104.343 109.751 103.685C109.486 103.416 109.197 103.154 108.846 103.014C108.691 102.953 108.521 102.918 108.354 102.918C108.142 102.918 107.933 102.974 107.763 103.101C107.549 103.263 107.422 103.516 107.322 103.766C107.024 104.506 106.881 105.308 106.898 106.106Z" fill="white"/>
</mask>
<g mask="url(#mask36_54_4096)">
<path d="M106.898 106.106C108.39 106.07 109.891 106.03 111.4 105.985C110.995 105.126 110.403 104.343 109.751 103.685C109.486 103.416 109.197 103.154 108.846 103.014C108.691 102.953 108.521 102.918 108.354 102.918C108.142 102.918 107.933 102.974 107.763 103.101C107.549 103.263 107.422 103.516 107.322 103.766C107.024 104.506 106.881 105.308 106.898 106.106Z" fill="url(#paint36_linear_54_4096)"/>
</g>
<mask id="mask37_54_4096" style="mask-type:luminance" maskUnits="userSpaceOnUse" x="106" y="105" width="6" height="5">
<path d="M109.467 109.495C109.664 109.495 109.862 109.476 110.053 109.441C111.347 109.202 112.106 108.809 111.87 107.443C111.783 106.941 111.619 106.452 111.4 105.985C109.891 106.031 108.39 106.07 106.898 106.106C106.909 106.573 106.973 107.037 107.093 107.487C107.244 108.052 107.494 108.615 107.942 108.992C108.361 109.346 108.914 109.495 109.467 109.495Z" fill="white"/>
</mask>
<g mask="url(#mask37_54_4096)">
<path d="M109.467 109.495C109.664 109.495 109.862 109.476 110.053 109.441C111.347 109.202 112.106 108.809 111.87 107.443C111.783 106.941 111.619 106.452 111.4 105.985C109.891 106.031 108.39 106.07 106.898 106.106C106.909 106.573 106.973 107.037 107.093 107.487C107.244 108.052 107.494 108.615 107.942 108.992C108.361 109.346 108.914 109.495 109.467 109.495Z" fill="url(#paint37_linear_54_4096)"/>
</g>
<mask id="mask38_54_4096" style="mask-type:luminance" maskUnits="userSpaceOnUse" x="71" y="82" width="3" height="5">
<path d="M72.5085 86.0254C72.6691 86.0254 72.8274 85.9763 72.9484 85.8717C73.2707 85.5936 73.2136 85.0863 73.1031 84.6745C72.9472 84.095 72.7389 83.5282 72.4806 82.9851L72.6563 83.0814C72.5923 82.9673 72.4585 82.9105 72.3247 82.9105C72.277 82.9105 72.2293 82.9173 72.1839 82.9314C72.0152 82.9873 71.8825 83.1246 71.7789 83.27C71.3694 83.8459 71.2879 84.6358 71.5695 85.2831C71.687 85.5495 71.8697 85.7985 72.128 85.9336C72.2444 85.9926 72.377 86.0254 72.5085 86.0254Z" fill="white"/>
</mask>
<g mask="url(#mask38_54_4096)">
<path d="M72.5085 86.0254C72.6691 86.0254 72.8274 85.9763 72.9484 85.8717C73.2707 85.5936 73.2136 85.0863 73.1031 84.6745C72.9472 84.095 72.7389 83.5282 72.4806 82.9851L72.6563 83.0814C72.5923 82.9673 72.4585 82.9105 72.3247 82.9105C72.277 82.9105 72.2293 82.9173 72.1839 82.9314C72.0152 82.9873 71.8825 83.1246 71.7789 83.27C71.3694 83.8459 71.2879 84.6358 71.5695 85.2831C71.687 85.5495 71.8697 85.7985 72.128 85.9336C72.2444 85.9926 72.377 86.0254 72.5085 86.0254Z" fill="url(#paint38_linear_54_4096)"/>
</g>
<mask id="mask39_54_4096" style="mask-type:luminance" maskUnits="userSpaceOnUse" x="94" y="9" width="2" height="4">
<path d="M95.2334 12.9556C95.394 12.9556 95.5522 12.9067 95.6744 12.802C95.9944 12.5239 95.9385 12.0154 95.828 11.6058C95.6732 11.0252 95.4638 10.4573 95.2055 9.91628L95.3823 10.0117C95.3172 9.89766 95.1845 9.83948 95.0519 9.83948C95.003 9.83948 94.9542 9.84762 94.9088 9.86275C94.7389 9.9186 94.6086 10.0559 94.5038 10.2014C94.0943 10.775 94.0116 11.5662 94.2932 12.212C94.4108 12.4797 94.5934 12.7287 94.8529 12.8636C94.9681 12.923 95.1019 12.9556 95.2334 12.9556Z" fill="white"/>
</mask>
<g mask="url(#mask39_54_4096)">
<path d="M95.2334 12.9556C95.394 12.9556 95.5522 12.9067 95.6744 12.802C95.9944 12.5239 95.9385 12.0154 95.828 11.6058C95.6732 11.0252 95.4638 10.4573 95.2055 9.91628L95.3823 10.0117C95.3172 9.89766 95.1845 9.83948 95.0519 9.83948C95.003 9.83948 94.9542 9.84762 94.9088 9.86275C94.7389 9.9186 94.6086 10.0559 94.5038 10.2014C94.0943 10.775 94.0116 11.5662 94.2932 12.212C94.4108 12.4797 94.5934 12.7287 94.8529 12.8636C94.9681 12.923 95.1019 12.9556 95.2334 12.9556Z" fill="url(#paint39_linear_54_4096)"/>
</g>
<mask id="mask40_54_4096" style="mask-type:luminance" maskUnits="userSpaceOnUse" x="63" y="65" width="2" height="2">
<path d="M64.4764 66.0776C64.5276 65.9822 64.5753 65.8845 64.6218 65.7867C64.1366 65.7808 63.663 65.7741 63.2034 65.7667C63.6281 65.8645 64.0528 65.9694 64.4764 66.0776Z" fill="white"/>
</mask>
<g mask="url(#mask40_54_4096)">
<path d="M64.4764 66.0776C64.5276 65.9822 64.5753 65.8845 64.6218 65.7867C64.1366 65.7808 63.663 65.7741 63.2034 65.7667C63.6281 65.8645 64.0528 65.9694 64.4764 66.0776Z" fill="url(#paint40_linear_54_4096)"/>
</g>
<mask id="mask41_54_4096" style="mask-type:luminance" maskUnits="userSpaceOnUse" x="63" y="65" width="2" height="1">
<path d="M64.6219 65.7871C64.6242 65.7835 64.6254 65.7798 64.6277 65.7766C64.1099 65.7685 63.6096 65.759 63.1313 65.7507C63.1558 65.7557 63.1791 65.7612 63.2035 65.7671C63.6631 65.7744 64.1367 65.7812 64.6219 65.7871Z" fill="white"/>
</mask>
<g mask="url(#mask41_54_4096)">
<path d="M64.6219 65.7871C64.6242 65.7835 64.6254 65.7798 64.6277 65.7766C64.1099 65.7685 63.6096 65.759 63.1313 65.7507C63.1558 65.7557 63.1791 65.7612 63.2035 65.7671C63.6631 65.7744 64.1367 65.7812 64.6219 65.7871Z" fill="url(#paint41_linear_54_4096)"/>
</g>
<mask id="mask42_54_4096" style="mask-type:luminance" maskUnits="userSpaceOnUse" x="62" y="56" width="4" height="10">
<path d="M64.6276 65.7764C65.4665 64.0005 65.641 61.9376 65.2 60.0293C64.958 58.9821 64.5333 57.9605 63.9166 57.0785C63.5711 56.5839 63.1754 56.2954 62.8496 56.2954C62.4913 56.2954 62.2178 56.6433 62.184 57.452C62.0851 59.9723 62.1899 62.5008 62.5017 65.0036C62.5273 65.2132 62.5564 65.4273 62.6087 65.6319C62.7821 65.6705 62.9578 65.71 63.1312 65.7504C63.6095 65.7587 64.1098 65.7682 64.6276 65.7764Z" fill="white"/>
</mask>
<g mask="url(#mask42_54_4096)">
<path d="M64.6276 65.7764C65.4665 64.0005 65.641 61.9376 65.2 60.0293C64.958 58.9821 64.5333 57.9605 63.9166 57.0785C63.5711 56.5839 63.1754 56.2954 62.8496 56.2954C62.4913 56.2954 62.2178 56.6433 62.184 57.452C62.0851 59.9723 62.1899 62.5008 62.5017 65.0036C62.5273 65.2132 62.5564 65.4273 62.6087 65.6319C62.7821 65.6705 62.9578 65.71 63.1312 65.7504C63.6095 65.7587 64.1098 65.7682 64.6276 65.7764Z" fill="url(#paint42_linear_54_4096)"/>
</g>
<mask id="mask43_54_4096" style="mask-type:luminance" maskUnits="userSpaceOnUse" x="62" y="65" width="3" height="2">
<path d="M63.7002 66.6958C63.8282 66.6958 63.9539 66.6644 64.0667 66.5935C64.2541 66.4772 64.3704 66.2781 64.474 66.0826C64.4752 66.0812 64.4752 66.0803 64.4763 66.0781C64.0528 65.9698 63.6281 65.8649 63.2034 65.7671C63.0137 65.764 62.8275 65.7603 62.6437 65.7581C62.6995 65.9407 62.7786 66.114 62.8926 66.2676C63.08 66.5203 63.3965 66.6958 63.7002 66.6958Z" fill="white"/>
</mask>
<g mask="url(#mask43_54_4096)">
<path d="M63.7002 66.6958C63.8282 66.6958 63.9539 66.6644 64.0667 66.5935C64.2541 66.4772 64.3704 66.2781 64.474 66.0826C64.4752 66.0812 64.4752 66.0803 64.4763 66.0781C64.0528 65.9698 63.6281 65.8649 63.2034 65.7671C63.0137 65.764 62.8275 65.7603 62.6437 65.7581C62.6995 65.9407 62.7786 66.114 62.8926 66.2676C63.08 66.5203 63.3965 66.6958 63.7002 66.6958Z" fill="url(#paint43_linear_54_4096)"/>
</g>
<mask id="mask44_54_4096" style="mask-type:luminance" maskUnits="userSpaceOnUse" x="62" y="65" width="2" height="1">
<path d="M63.2034 65.7671C63.1789 65.7612 63.1556 65.7557 63.1312 65.7507C63.1161 65.7499 63.1009 65.7499 63.0858 65.7499C62.9322 65.7403 62.7809 65.7403 62.6355 65.7321C62.639 65.7416 62.6414 65.7499 62.6437 65.758C62.8275 65.7602 63.0137 65.7639 63.2034 65.7671Z" fill="white"/>
</mask>
<g mask="url(#mask44_54_4096)">
<path d="M63.2034 65.7671C63.1789 65.7612 63.1556 65.7557 63.1312 65.7507C63.1161 65.7499 63.1009 65.7499 63.0858 65.7499C62.9322 65.7403 62.7809 65.7403 62.6355 65.7321C62.639 65.7416 62.6414 65.7499 62.6437 65.758C62.8275 65.7602 63.0137 65.7639 63.2034 65.7671Z" fill="url(#paint44_linear_54_4096)"/>
</g>
<mask id="mask45_54_4096" style="mask-type:luminance" maskUnits="userSpaceOnUse" x="62" y="65" width="2" height="1">
<path d="M63.1312 65.7505C62.9579 65.7101 62.7821 65.6706 62.6087 65.6319C62.6169 65.6655 62.6262 65.6996 62.6355 65.7319C62.781 65.7401 62.9322 65.7401 63.0858 65.7497C63.101 65.7497 63.1161 65.7497 63.1312 65.7505Z" fill="white"/>
</mask>
<g mask="url(#mask45_54_4096)">
<path d="M63.1312 65.7505C62.9579 65.7101 62.7821 65.6706 62.6087 65.6319C62.6169 65.6655 62.6262 65.6996 62.6355 65.7319C62.781 65.7401 62.9322 65.7401 63.0858 65.7497C63.101 65.7497 63.1161 65.7497 63.1312 65.7505Z" fill="url(#paint45_linear_54_4096)"/>
</g>
<mask id="mask46_54_4096" style="mask-type:luminance" maskUnits="userSpaceOnUse" x="61" y="67" width="5" height="8">
<path d="M63.3405 74.2192C63.5488 74.2192 63.7408 74.076 63.8863 73.9215C64.8497 72.8961 66.2786 67.3532 63.7594 67.3286C63.7501 67.3286 63.742 67.3286 63.7327 67.3286C60.6213 67.3286 61.4334 72.5738 62.8647 73.9642C62.9822 74.0783 63.1148 74.1901 63.2766 74.2147C63.2975 74.2178 63.3196 74.2192 63.3405 74.2192Z" fill="white"/>
</mask>
<g mask="url(#mask46_54_4096)">
<path d="M63.3405 74.2192C63.5488 74.2192 63.7408 74.076 63.8863 73.9215C64.8497 72.8961 66.2786 67.3532 63.7594 67.3286C63.7501 67.3286 63.742 67.3286 63.7327 67.3286C60.6213 67.3286 61.4334 72.5738 62.8647 73.9642C62.9822 74.0783 63.1148 74.1901 63.2766 74.2147C63.2975 74.2178 63.3196 74.2192 63.3405 74.2192Z" fill="url(#paint46_linear_54_4096)"/>
</g>
<path d="M138.058 2.80572L131.657 8.11865L128.516 0.703126L133.288 1.08479L138.058 2.80572Z" fill="#A9BCEC"/>
<path d="M129.179 105.264L132.717 109.208L127.814 109.655L122.546 105.579L129.179 105.264Z" fill="#ACB6CD"/>
<path d="M132.717 109.209L128.517 118.346L130.617 133.999L132.717 134.226V109.209Z" fill="#8A94AE"/>
<defs>
<linearGradient id="paint0_linear_54_4096" x1="159.038" y1="104.947" x2="123.534" y2="4.00459" gradientUnits="userSpaceOnUse">
<stop stop-color="#495374"/>
<stop offset="1" stop-color="#8E7182"/>
</linearGradient>
<linearGradient id="paint1_linear_54_4096" x1="97.208" y1="116.508" x2="54.566" y2="-4.72672" gradientUnits="userSpaceOnUse">
<stop stop-color="#7C85A2"/>
<stop offset="1" stop-color="#9F9DD1"/>
</linearGradient>
<linearGradient id="paint2_linear_54_4096" x1="85.955" y1="157.554" x2="62.5543" y2="91.0244" gradientUnits="userSpaceOnUse">
<stop stop-color="#707997"/>
<stop offset="1" stop-color="#AC8FA1"/>
</linearGradient>
<linearGradient id="paint3_linear_54_4096" x1="84" y1="131.568" x2="68.0372" y2="86.1846" gradientUnits="userSpaceOnUse">
<stop stop-color="#939BB6"/>
<stop offset="1" stop-color="#D4B8CB"/>
</linearGradient>
<linearGradient id="paint4_linear_54_4096" x1="154.783" y1="139.311" x2="142.931" y2="105.615" gradientUnits="userSpaceOnUse">
<stop stop-color="#596383"/>
<stop offset="1" stop-color="#8E7182"/>
</linearGradient>
<linearGradient id="paint5_linear_54_4096" x1="147.943" y1="115.917" x2="142.115" y2="99.3503" gradientUnits="userSpaceOnUse">
<stop stop-color="#707997"/>
<stop offset="1" stop-color="#AC8FA1"/>
</linearGradient>
<linearGradient id="paint6_linear_54_4096" x1="86.5414" y1="103.7" x2="50.1682" y2="0.287736" gradientUnits="userSpaceOnUse">
<stop stop-color="#98A1D9"/>
<stop offset="1" stop-color="#A4A2D3"/>
</linearGradient>
<linearGradient id="paint7_linear_54_4096" x1="136.825" y1="95.3653" x2="106.677" y2="9.6497" gradientUnits="userSpaceOnUse">
<stop stop-color="#776388"/>
<stop offset="1" stop-color="#8E7182"/>
</linearGradient>
<linearGradient id="paint8_linear_54_4096" x1="75.0022" y1="65.2898" x2="59.3621" y2="20.8237" gradientUnits="userSpaceOnUse">
<stop stop-color="#495374"/>
<stop offset="1" stop-color="#8E7182"/>
</linearGradient>
<linearGradient id="paint9_linear_54_4096" x1="75.6897" y1="65.1642" x2="60.1064" y2="20.8596" gradientUnits="userSpaceOnUse">
<stop stop-color="#7C85A2"/>
<stop offset="1" stop-color="#908ECA"/>
</linearGradient>
<linearGradient id="paint10_linear_54_4096" x1="31.0023" y1="71.3244" x2="20.1577" y2="71.3244" gradientUnits="userSpaceOnUse">
<stop stop-color="#55436B"/>
<stop offset="1" stop-color="#685B82"/>
</linearGradient>
<linearGradient id="paint11_linear_54_4096" x1="122.547" y1="101.986" x2="60.3864" y2="101.986" gradientUnits="userSpaceOnUse">
<stop stop-color="#554360"/>
<stop offset="1" stop-color="#685A7B"/>
</linearGradient>
<linearGradient id="paint12_linear_54_4096" x1="124.277" y1="16.2028" x2="103.674" y2="16.2028" gradientUnits="userSpaceOnUse">
<stop stop-color="#9A9BC1"/>
<stop offset="1" stop-color="#B6C6EF"/>
</linearGradient>
<linearGradient id="paint13_linear_54_4096" x1="124.277" y1="16.2034" x2="103.674" y2="16.2034" gradientUnits="userSpaceOnUse">
<stop stop-color="#685A7F"/>
<stop offset="1" stop-color="#7B739D"/>
</linearGradient>
<linearGradient id="paint14_linear_54_4096" x1="86.5413" y1="103.7" x2="50.1681" y2="0.287899" gradientUnits="userSpaceOnUse">
<stop stop-color="#9BA5DC"/>
<stop offset="1" stop-color="#A6A6D7"/>
</linearGradient>
<linearGradient id="paint15_linear_54_4096" x1="75.0023" y1="65.2899" x2="59.3624" y2="20.8237" gradientUnits="userSpaceOnUse">
<stop stop-color="#4D587E"/>
<stop offset="1" stop-color="#91768B"/>
</linearGradient>
<linearGradient id="paint16_linear_54_4096" x1="75.6897" y1="65.1643" x2="60.1064" y2="20.86" gradientUnits="userSpaceOnUse">
<stop stop-color="#808AA9"/>
<stop offset="1" stop-color="#9392CF"/>
</linearGradient>
<linearGradient id="paint17_linear_54_4096" x1="86.5415" y1="103.7" x2="50.1683" y2="0.287581" gradientUnits="userSpaceOnUse">
<stop stop-color="#9BA5DC"/>
<stop offset="1" stop-color="#A6A6D7"/>
</linearGradient>
<linearGradient id="paint18_linear_54_4096" x1="86.5414" y1="103.7" x2="50.1682" y2="0.287754" gradientUnits="userSpaceOnUse">
<stop stop-color="#9BA5DC"/>
<stop offset="1" stop-color="#A6A6D7"/>
</linearGradient>
<linearGradient id="paint19_linear_54_4096" x1="86.5412" y1="103.7" x2="50.168" y2="0.287932" gradientUnits="userSpaceOnUse">
<stop stop-color="#9BA5DC"/>
<stop offset="1" stop-color="#A6A6D7"/>
</linearGradient>
<linearGradient id="paint20_linear_54_4096" x1="86.5411" y1="103.7" x2="50.168" y2="0.287827" gradientUnits="userSpaceOnUse">
<stop stop-color="#9BA5DC"/>
<stop offset="1" stop-color="#A6A6D7"/>
</linearGradient>
<linearGradient id="paint21_linear_54_4096" x1="159.039" y1="104.946" x2="123.534" y2="4.0044" gradientUnits="userSpaceOnUse">
<stop stop-color="#4D587E"/>
<stop offset="1" stop-color="#91768B"/>
</linearGradient>
<linearGradient id="paint22_linear_54_4096" x1="159.038" y1="104.946" x2="123.534" y2="4.00439" gradientUnits="userSpaceOnUse">
<stop stop-color="#4D587E"/>
<stop offset="1" stop-color="#91768B"/>
</linearGradient>
<linearGradient id="paint23_linear_54_4096" x1="159.038" y1="104.946" x2="123.534" y2="4.00409" gradientUnits="userSpaceOnUse">
<stop stop-color="#4D587E"/>
<stop offset="1" stop-color="#91768B"/>
</linearGradient>
<linearGradient id="paint24_linear_54_4096" x1="159.039" y1="104.946" x2="123.534" y2="4.00432" gradientUnits="userSpaceOnUse">
<stop stop-color="#4D587E"/>
<stop offset="1" stop-color="#91768B"/>
</linearGradient>
<linearGradient id="paint25_linear_54_4096" x1="85.9547" y1="157.553" x2="62.5541" y2="91.0235" gradientUnits="userSpaceOnUse">
<stop stop-color="#747E9F"/>
<stop offset="1" stop-color="#AE93A9"/>
</linearGradient>
<linearGradient id="paint26_linear_54_4096" x1="154.783" y1="139.311" x2="142.932" y2="105.615" gradientUnits="userSpaceOnUse">
<stop stop-color="#5D688C"/>
<stop offset="1" stop-color="#91768B"/>
</linearGradient>
<linearGradient id="paint27_linear_54_4096" x1="154.783" y1="139.311" x2="142.931" y2="105.616" gradientUnits="userSpaceOnUse">
<stop stop-color="#5D688C"/>
<stop offset="1" stop-color="#91768B"/>
</linearGradient>
<linearGradient id="paint28_linear_54_4096" x1="85.955" y1="157.554" x2="62.5543" y2="91.0245" gradientUnits="userSpaceOnUse">
<stop stop-color="#747E9F"/>
<stop offset="1" stop-color="#AE93A9"/>
</linearGradient>
<linearGradient id="paint29_linear_54_4096" x1="85.9549" y1="157.554" x2="62.5543" y2="91.0247" gradientUnits="userSpaceOnUse">
<stop stop-color="#747E9F"/>
<stop offset="1" stop-color="#AE93A9"/>
</linearGradient>
<linearGradient id="paint30_linear_54_4096" x1="85.9551" y1="157.554" x2="62.5544" y2="91.0245" gradientUnits="userSpaceOnUse">
<stop stop-color="#747E9F"/>
<stop offset="1" stop-color="#AE93A9"/>
</linearGradient>
<linearGradient id="paint31_linear_54_4096" x1="86.5412" y1="103.7" x2="50.1681" y2="0.288174" gradientUnits="userSpaceOnUse">
<stop stop-color="#8C96D0"/>
<stop offset="1" stop-color="#9797CB"/>
</linearGradient>
<linearGradient id="paint32_linear_54_4096" x1="85.9546" y1="157.554" x2="62.554" y2="91.0239" gradientUnits="userSpaceOnUse">
<stop stop-color="#6B7599"/>
<stop offset="1" stop-color="#A089A2"/>
</linearGradient>
<linearGradient id="paint33_linear_54_4096" x1="86.5412" y1="103.7" x2="50.1679" y2="0.287859" gradientUnits="userSpaceOnUse">
<stop stop-color="#8C96D0"/>
<stop offset="1" stop-color="#9797CB"/>
</linearGradient>
<linearGradient id="paint34_linear_54_4096" x1="86.5413" y1="103.7" x2="50.168" y2="0.288058" gradientUnits="userSpaceOnUse">
<stop stop-color="#8F99D3"/>
<stop offset="1" stop-color="#999ACF"/>
</linearGradient>
<linearGradient id="paint35_linear_54_4096" x1="124.276" y1="16.2028" x2="103.674" y2="16.2028" gradientUnits="userSpaceOnUse">
<stop stop-color="#60547A"/>
<stop offset="1" stop-color="#716B97"/>
</linearGradient>
<linearGradient id="paint36_linear_54_4096" x1="97.2079" y1="116.509" x2="54.5659" y2="-4.7265" gradientUnits="userSpaceOnUse">
<stop stop-color="#727C9C"/>
<stop offset="1" stop-color="#9392C9"/>
</linearGradient>
<linearGradient id="paint37_linear_54_4096" x1="84.0001" y1="131.568" x2="68.0373" y2="86.1845" gradientUnits="userSpaceOnUse">
<stop stop-color="#8890AF"/>
<stop offset="1" stop-color="#C4ABC3"/>
</linearGradient>
<linearGradient id="paint38_linear_54_4096" x1="86.5413" y1="103.7" x2="50.1679" y2="0.288077" gradientUnits="userSpaceOnUse">
<stop stop-color="#8F99D3"/>
<stop offset="1" stop-color="#999ACF"/>
</linearGradient>
<linearGradient id="paint39_linear_54_4096" x1="86.5414" y1="103.7" x2="50.1681" y2="0.287983" gradientUnits="userSpaceOnUse">
<stop stop-color="#8C96D0"/>
<stop offset="1" stop-color="#9797CB"/>
</linearGradient>
<linearGradient id="paint40_linear_54_4096" x1="86.5413" y1="103.7" x2="50.1681" y2="0.287756" gradientUnits="userSpaceOnUse">
<stop stop-color="#8C96D0"/>
<stop offset="1" stop-color="#9797CB"/>
</linearGradient>
<linearGradient id="paint41_linear_54_4096" x1="75.0021" y1="65.2902" x2="59.3629" y2="20.8254" gradientUnits="userSpaceOnUse">
<stop stop-color="#434D6F"/>
<stop offset="1" stop-color="#83697D"/>
</linearGradient>
<linearGradient id="paint42_linear_54_4096" x1="75.6898" y1="65.1642" x2="60.1064" y2="20.8597" gradientUnits="userSpaceOnUse">
<stop stop-color="#727C9C"/>
<stop offset="1" stop-color="#8584C2"/>
</linearGradient>
<linearGradient id="paint43_linear_54_4096" x1="86.5414" y1="103.7" x2="50.168" y2="0.287904" gradientUnits="userSpaceOnUse">
<stop stop-color="#8F99D3"/>
<stop offset="1" stop-color="#999ACF"/>
</linearGradient>
<linearGradient id="paint44_linear_54_4096" x1="75.003" y1="65.2901" x2="59.3615" y2="20.8202" gradientUnits="userSpaceOnUse">
<stop stop-color="#475279"/>
<stop offset="1" stop-color="#866E86"/>
</linearGradient>
<linearGradient id="paint45_linear_54_4096" x1="75.6905" y1="65.1643" x2="60.1083" y2="20.8598" gradientUnits="userSpaceOnUse">
<stop stop-color="#7680A2"/>
<stop offset="1" stop-color="#8888C7"/>
</linearGradient>
<linearGradient id="paint46_linear_54_4096" x1="86.5412" y1="103.7" x2="50.1679" y2="0.287782" gradientUnits="userSpaceOnUse">
<stop stop-color="#8F99D3"/>
<stop offset="1" stop-color="#999ACF"/>
</linearGradient>
</defs>
</svg>
