<svg width="143" height="147" viewBox="0 0 143 147" fill="none" xmlns="http://www.w3.org/2000/svg">
<path d="M27.197 140.331H18.6376V20.7134H27.197V140.331Z" fill="#F0FAFE"/>
<path d="M125.101 140.331H116.542V20.7134H125.101V140.331Z" fill="#F0FAFE"/>
<path d="M34.8549 146.031H10.9797V140.331H34.8549V146.031Z" fill="#373C42"/>
<path d="M132.759 146.031H108.884V140.331H132.759V146.031Z" fill="#373C42"/>
<path d="M129.936 20.7134H111.706V14.5005H129.936V20.7134Z" fill="#681F32"/>
<path d="M0.778076 39.7776V68.3691H142.96V39.7776H0.778076Z" fill="#FBC41C"/>
<path d="M0.778076 82.5193V111.111H142.96V82.5193H0.778076Z" fill="#FBC41C"/>
<path d="M97.1309 111.111H114.863L142.96 83.0135V82.5193H125.722L97.1309 111.111Z" fill="#373C42"/>
<path d="M95.4988 68.3691H113.23L141.822 39.7776H124.09L95.4988 68.3691Z" fill="#373C42"/>
<path d="M52.7567 111.111H70.4889L99.0804 82.5193H81.3483L52.7567 111.111Z" fill="#373C42"/>
<path d="M6.76825 68.3691H24.5004L53.092 39.7776H35.3598L6.76825 68.3691Z" fill="#373C42"/>
<path d="M0.778076 82.519V92.0913L10.3499 82.519H0.778076Z" fill="#373C42"/>
<path d="M51.1333 68.3691H68.8655L97.457 39.7776H79.7249L51.1333 68.3691Z" fill="#373C42"/>
<path d="M8.39124 111.111H26.1234L54.715 82.5193H36.9833L8.39124 111.111Z" fill="#373C42"/>
<path d="M126.783 14.5005H114.859V6.2632C114.859 2.97052 117.528 0.301524 120.821 0.301524C124.114 0.301524 126.783 2.97052 126.783 6.2632V14.5005Z" fill="#EF326A"/>
<path d="M32.032 20.7134H13.8026V14.5005H32.032V20.7134Z" fill="#681F32"/>
<path d="M28.879 14.5005H16.9556V6.2632C16.9556 2.97052 19.6246 0.301524 22.9173 0.301524C26.21 0.301524 28.879 2.97052 28.879 6.2632V14.5005Z" fill="#EF326A"/>
</svg>
