<svg width="125" height="270" viewBox="0 0 125 270" fill="none" xmlns="http://www.w3.org/2000/svg">
<path d="M49.3553 166.777H44.7089V63.3362H49.3553V166.777Z" fill="#0A300A"/>
<path d="M49.3553 169.12H44.7089V165.522H49.3553V169.12Z" fill="#0A300A"/>
<path d="M102.073 169.12H97.4263V165.522H102.073V169.12Z" fill="#0A300A"/>
<path d="M106.669 229.934C106.669 230.652 106.532 231.301 106.316 231.881C105.298 234.535 102.469 235.733 102.469 235.733L94.0852 237.305L89.5266 238.159L85.4956 238.92C85.4956 238.92 81.9655 238.55 79.3804 235.717C78.9056 235.195 78.3512 232.066 77.7656 227.296C77.6071 226.003 77.4433 224.589 77.2804 223.075C77.0006 220.463 76.7156 217.551 76.4306 214.437C75.9714 209.446 75.5123 203.937 75.0748 198.334C74.6209 192.577 74.1885 186.71 73.7978 181.191C73.6922 179.671 73.5865 178.178 73.4861 176.722C73.2435 173.261 73.0225 170.005 72.8267 167.072C72.7263 165.547 72.6318 164.106 72.547 162.776C72.442 161.194 72.352 159.764 72.2731 158.508C72.2359 157.965 72.2039 157.453 72.1727 156.983C72.0089 154.345 71.9137 152.82 71.9137 152.82L70.7268 152.498L62.6433 150.33C62.6433 150.33 62.612 151.285 62.5591 152.984C62.4907 155.078 62.3902 158.303 62.2637 162.281C62.2005 164.207 62.1372 166.312 62.0628 168.555C61.9155 173.197 61.7466 178.421 61.5724 183.845C61.504 185.945 61.4356 188.077 61.3664 190.213C61.2294 194.403 61.0925 198.624 60.9548 202.703C60.9079 204.164 60.8603 205.61 60.8127 207.029C60.6333 212.406 60.4645 217.413 60.3216 221.619C60.1266 227.212 59.974 231.39 59.8892 233.179C59.8788 233.538 59.8632 233.797 59.852 233.954C59.5618 238.265 55.1774 238.92 55.1774 238.92L54.4332 238.782L38.2037 235.733C38.2037 235.733 35.7234 235.965 34.579 232.45C34.5098 232.245 34.4629 231.712 34.4257 230.9C34.3305 228.61 34.3676 224.072 34.4889 218.168C34.5678 214.379 34.6787 210.021 34.8164 205.33C34.9161 201.896 35.0322 198.276 35.1535 194.572C35.2643 191.19 35.3856 187.739 35.5077 184.278C35.5077 184.278 35.5077 184.278 35.5077 184.272C35.5709 182.474 35.6342 180.679 35.6974 178.885C35.7607 177.271 35.8187 175.662 35.8768 174.068V174.063C36.0085 170.433 36.1402 166.877 36.2726 163.473V163.468C36.4356 159.31 36.5889 155.39 36.7318 151.844C36.8002 150.129 36.8635 148.509 36.9267 146.99V146.984C36.99 145.428 37.048 143.983 37.1009 142.668C37.1009 142.621 37.1061 142.574 37.1061 142.531C37.3174 137.408 37.4491 134.295 37.4491 134.295H97.0453C97.0453 134.295 97.6466 139.998 98.544 148.62C98.887 151.892 99.2666 155.585 99.6781 159.548C99.9155 161.796 100.158 164.138 100.407 166.534C100.697 169.335 100.992 172.222 101.293 175.139C101.409 176.231 101.52 177.323 101.631 178.426C102.121 183.154 102.611 187.939 103.082 192.583H103.087C103.166 193.395 103.25 194.203 103.33 195.005C103.714 198.809 104.089 202.497 104.438 205.958C104.543 207.019 104.643 208.053 104.749 209.061C105.387 215.504 105.92 220.986 106.263 224.732C106.522 227.586 106.669 229.433 106.669 229.934Z" fill="#3F6E41"/>
<path d="M106.263 224.732C105.925 224.805 105.566 224.774 105.218 224.737C103.92 224.605 102.628 224.473 101.335 224.341C100.453 224.252 99.5515 224.156 98.7546 223.771C97.9635 223.381 97.2827 222.632 97.2299 221.751C97.1718 220.695 97.9688 219.82 98.6548 219.017C99.3402 218.215 100.005 217.16 99.6408 216.168C99.367 215.424 98.6073 215.002 97.9896 214.501C97.378 214 96.8444 213.145 97.2246 212.448C97.7314 211.52 99.1452 211.883 100.137 211.525C101.425 211.06 101.593 209.388 100.902 208.39C102.527 208.006 103.783 208.312 104.749 209.061C105.387 215.504 105.92 220.986 106.263 224.732Z" fill="#5C865D"/>
<path d="M85.3371 160.345C84.3414 160.705 82.9268 160.337 82.4208 161.267C82.0405 161.964 82.5741 162.817 83.1888 163.32C83.8034 163.823 84.5654 164.245 84.84 164.99C85.2054 165.98 84.5408 167.036 83.8525 167.836C83.1642 168.636 82.3673 169.515 82.4283 170.569C82.4789 171.453 83.1597 172.201 83.9552 172.589C84.7507 172.978 85.6526 173.073 86.5337 173.162C87.827 173.293 89.1202 173.424 90.4143 173.556C90.8377 173.598 91.2797 173.639 91.6763 173.486C92.5909 173.133 92.8424 171.978 92.9295 171.001C93.2726 167.147 93.2137 155.515 86.1005 157.209C86.7896 158.207 86.6207 159.881 85.3371 160.345Z" fill="#5C865D"/>
<path d="M62.0628 168.555C61.9154 173.197 61.7465 178.421 61.5724 183.845C60.4748 183.734 59.372 183.618 58.2744 183.507C57.3934 183.418 56.4915 183.323 55.6945 182.938C54.8975 182.547 54.2174 181.798 54.1698 180.917C54.1065 179.862 54.9027 178.981 55.594 178.184C56.2801 177.382 56.9454 176.326 56.5808 175.335C56.3069 174.59 55.5412 174.168 54.9296 173.667C54.3119 173.161 53.7791 172.311 54.1594 171.615C54.6654 170.681 56.08 171.05 57.0771 170.691C58.3593 170.227 58.5282 168.555 57.8421 167.557C59.6838 167.119 61.05 167.573 62.0628 168.555Z" fill="#5C865D"/>
<path d="M106.316 231.881C105.298 234.535 102.469 235.733 102.469 235.733L94.0851 237.305C93.1989 236.519 92.5448 235.58 92.4972 234.419C94.0427 234.693 95.6047 233.079 95.278 231.543C95.0667 230.557 94.2749 229.807 93.8054 228.916C93.3358 228.024 93.3574 226.657 94.2965 226.288C95.1247 225.961 95.9797 226.657 96.5334 227.354C97.0825 228.05 97.689 228.879 98.5752 228.921C99.5039 228.969 100.253 228.108 101.182 228.003C102.121 227.902 102.944 228.594 103.635 229.242C104.142 229.712 104.648 230.188 105.15 230.657C105.472 230.958 105.899 231.385 106.316 231.881Z" fill="#557E4E"/>
<path d="M59.8892 233.179C59.8788 233.538 59.8631 233.797 59.852 233.954C59.5618 238.265 55.1773 238.92 55.1773 238.92L54.4332 238.782C55.9059 238.877 57.3041 237.342 56.9923 235.875C56.7817 234.888 55.99 234.145 55.5204 233.253C55.0509 232.361 55.0717 230.994 56.0108 230.625C56.8398 230.298 57.694 230.994 58.2484 231.691C58.7127 232.277 59.2135 232.952 59.8892 233.179Z" fill="#557E4E"/>
<path d="M44.1709 202.808C43.3426 203.336 42.3031 203.372 41.3744 203.689C39.6703 204.264 38.2565 205.794 36.4572 205.752C35.8819 205.742 35.3387 205.568 34.8164 205.33C34.9161 201.895 35.0321 198.276 35.1534 194.571C35.3648 194.693 35.5917 194.772 35.8447 194.783C36.7786 194.825 37.528 193.965 38.4567 193.865C39.3958 193.759 40.2188 194.455 40.9101 195.099C41.4168 195.574 41.9184 196.043 42.4244 196.514C43.7646 197.764 46.7984 201.141 44.1709 202.808Z" fill="#557E4E"/>
<path d="M99.6781 159.548C99.0768 159.843 98.454 160.055 97.7791 160.038C96.8132 160.017 95.9269 159.537 95.0823 159.063C93.2465 158.039 91.1779 156.661 91.0886 154.561C92.6341 154.836 94.196 153.221 93.8686 151.686C93.658 150.699 92.8715 149.95 92.4019 149.058C91.9324 148.167 91.9532 146.8 92.8931 146.431C93.7161 146.103 94.5763 146.8 95.1248 147.497C95.6784 148.193 96.2804 149.021 97.1666 149.064C97.657 149.09 98.1005 148.858 98.544 148.62C98.887 151.892 99.2666 155.585 99.6781 159.548Z" fill="#557E4E"/>
<path d="M60.8127 207.029C60.6333 212.406 60.4644 217.413 60.3216 221.619C59.4353 221.655 58.6599 221.307 58.2216 220.273C57.8421 219.366 57.979 218.337 57.8213 217.371C57.5363 215.593 56.2698 213.942 56.6024 212.179C56.7869 211.229 57.409 210.438 58.011 209.684C58.8072 208.697 59.7419 207.647 60.8127 207.029Z" fill="#557E4E"/>
<path d="M62.5591 152.984C62.4907 155.078 62.3902 158.303 62.2637 162.281C60.9868 162.962 59.7999 163.916 58.3749 163.884C57.409 163.869 56.5228 163.384 55.6789 162.914C53.8424 161.89 51.7744 160.514 51.6844 158.408C53.2359 158.682 54.7926 157.073 54.4652 155.532C54.2591 154.546 53.4681 153.801 52.9985 152.91C52.529 152.019 52.5498 150.646 53.4889 150.277C54.3119 149.955 55.1721 150.652 55.7213 151.348C56.275 152.039 56.8762 152.868 57.7632 152.915C58.6919 152.958 59.4457 152.097 60.3692 151.997C61.1922 151.908 61.9259 152.425 62.5591 152.984Z" fill="#557E4E"/>
<path d="M96.8749 216.862C96.9389 216.199 96.5252 215.539 95.9373 215.223C95.3495 214.908 94.6225 214.91 93.9959 215.14C93.3813 215.364 92.8492 215.79 92.2181 215.967C91.0201 216.302 89.6248 215.528 89.2751 214.334C88.2296 214.37 87.2339 215.053 86.8232 216.015C86.4131 216.977 86.6096 218.168 87.3076 218.947C87.83 219.532 88.6388 219.964 88.7616 220.738C89.0072 222.292 86.3216 223.028 86.4109 224.598C86.4622 225.5 87.5003 226.071 88.3992 225.984C89.2981 225.896 90.078 225.358 90.8422 224.877C91.6399 224.375 92.4027 224.031 93.3566 224.05C93.8976 224.06 95.1255 224.919 95.6196 224.603C96.3652 224.126 95.86 224.048 95.6457 223.222C95.3986 222.273 94.5019 221.56 94.6076 220.476C94.7616 218.899 96.7268 218.402 96.8749 216.862Z" fill="#2D6331"/>
<path d="M50.9544 149.639C51.0177 148.975 50.6047 148.315 50.0161 148C49.4282 147.684 48.7019 147.686 48.0746 147.916C47.46 148.141 46.9279 148.567 46.2977 148.743C45.0996 149.079 43.7036 148.305 43.3539 147.11C42.3083 147.146 41.3127 147.829 40.9027 148.791C40.4919 149.753 40.6891 150.945 41.3864 151.724C41.9095 152.308 42.7176 152.74 42.8404 153.514C43.0859 155.067 40.4011 155.805 40.4904 157.375C40.541 158.276 41.5798 158.847 42.478 158.76C43.3769 158.673 44.1568 158.135 44.9217 157.654C45.7194 157.152 46.4814 156.808 47.4354 156.826C47.9771 156.837 49.205 157.696 49.6991 157.379C50.444 156.902 49.9394 156.823 49.7244 155.998C49.4773 155.049 48.5807 154.336 48.6871 153.252C48.8411 151.676 50.8063 151.178 50.9544 149.639Z" fill="#2D6331"/>
<path d="M78.2984 157.352C78.1927 158.44 79.0901 159.152 79.3379 160.101C79.5493 160.925 80.0553 161.004 79.3111 161.484C78.8155 161.801 77.5863 160.941 77.0483 160.93C76.0928 160.909 75.333 161.252 74.5309 161.758C73.9036 162.154 73.2599 162.592 72.547 162.776C72.4421 161.194 72.352 159.764 72.2731 158.508C72.4256 158.239 72.5053 157.943 72.4524 157.617C72.4152 157.379 72.3148 157.173 72.1727 156.983C71.8616 156.561 71.3601 156.229 70.9962 155.828C70.2997 155.047 70.104 153.854 70.5155 152.894C70.5736 152.757 70.6427 152.625 70.7268 152.498C71.212 151.749 72.067 151.242 72.9644 151.211C73.3179 152.408 74.7102 153.179 75.9082 152.847C76.5415 152.667 77.0742 152.245 77.6867 152.018C78.314 151.791 79.0425 151.786 79.6282 152.102C80.2138 152.419 80.6305 153.079 80.5672 153.743C80.4191 155.279 78.4517 155.78 78.2984 157.352Z" fill="#2D6331"/>
<path d="M89.8481 231.596C89.8481 232.773 89.8429 233.954 89.8376 235.131C89.8324 236.15 89.822 237.199 89.5266 238.159L85.4957 238.92C85.4957 238.92 81.9655 238.55 79.3804 235.717C78.9056 235.195 78.3512 232.066 77.7656 227.296C78.0186 227.18 78.2984 227.09 78.6154 227.021C80.4192 226.642 82.1188 227.892 83.5326 229.063C83.1896 228.583 83.9121 227.971 84.5037 228.05C85.0894 228.124 85.6065 228.53 86.1973 228.568C86.8462 228.615 87.4631 228.219 88.1068 228.272C88.7929 228.33 89.3525 228.905 89.6003 229.549C89.8533 230.193 89.8533 230.905 89.8481 231.596Z" fill="#2D6331"/>
<path d="M42.9468 222.21C42.9416 223.392 42.9364 224.568 42.9312 225.745C42.9259 227.08 42.9103 228.478 42.2666 229.649C41.3484 231.338 39.2588 232.167 37.3487 231.95C36.3091 231.834 35.3224 231.448 34.4257 230.9C34.3305 228.61 34.3676 224.073 34.4889 218.168C35.2487 218.574 35.9661 219.139 36.6261 219.682C36.2883 219.197 37.0108 218.585 37.5965 218.664C38.188 218.743 38.6993 219.144 39.296 219.187C39.9397 219.228 40.5566 218.833 41.2003 218.886C41.8916 218.944 42.4512 219.519 42.699 220.163C42.9468 220.812 42.9468 221.519 42.9468 222.21Z" fill="#2D6331"/>
<path d="M61.3664 190.214C61.2295 194.403 61.0925 198.625 60.9549 202.703C59.9897 202.212 59.1191 201.516 58.3646 200.73C56.3011 198.577 52.2016 190.277 57.6784 189.122C58.9814 188.847 60.2375 189.428 61.3664 190.214Z" fill="#2D6331"/>
<path d="M84.82 221.914C84.3928 221.392 83.5222 221.481 82.9894 221.898C82.4559 222.309 82.15 222.937 81.7862 223.507C81.4275 224.077 80.9311 224.641 80.2614 224.747C78.9369 224.953 78.3192 223.545 77.2804 223.075C77.0006 220.463 76.7156 217.551 76.4306 214.437C76.7788 214.733 77.0951 215.091 77.3853 215.424C78.0982 216.231 79.2531 217.023 80.1557 216.437C80.5829 216.158 80.8046 215.635 81.2377 215.371C81.8598 215.002 82.7044 215.313 83.1635 215.873C83.6279 216.431 83.7909 217.165 83.9441 217.872C84.055 218.394 84.1711 218.912 84.282 219.434C84.4613 220.262 84.6406 221.085 84.82 221.914Z" fill="#557E4E"/>
<path d="M86.2152 150.623C86.8812 150.518 87.3776 149.957 87.7392 149.388C88.1016 148.819 88.4074 148.186 88.9417 147.774C89.476 147.361 90.3422 147.271 90.7693 147.794C90.5907 146.966 90.4122 146.139 90.2328 145.311C90.1212 144.792 90.0088 144.273 89.8964 143.753C89.7439 143.046 89.5772 142.309 89.1173 141.749C88.6575 141.19 87.8091 140.879 87.1893 141.251C86.754 141.514 86.5322 142.037 86.1066 142.315C85.2062 142.903 84.0475 142.112 83.3391 141.302C82.6307 140.493 81.7586 139.521 80.7042 139.731C79.5783 139.957 79.1839 141.336 79.0098 142.471C78.9056 143.15 78.8014 143.843 78.916 144.521C79.0172 145.116 79.7197 145.586 79.8023 145.998C79.9467 146.722 79.3677 147.308 79.4183 148.03C79.5143 149.4 79.0849 148.778 80.3864 148.908C81.4423 149.013 82.0823 148.458 83.1918 148.93C84.2559 149.382 84.8713 150.835 86.2152 150.623Z" fill="#557E4E"/>
<path d="M89.0623 186.586C89.729 186.481 90.2246 185.92 90.587 185.35C90.9487 184.781 91.2545 184.149 91.7888 183.737C92.3239 183.324 93.19 183.234 93.6171 183.756C93.4378 182.929 93.2592 182.102 93.0806 181.274C92.9682 180.755 92.8559 180.235 92.7443 179.716C92.591 179.008 92.4243 178.271 91.9652 177.712C91.5053 177.153 90.6569 176.841 90.0363 177.214C89.601 177.476 89.3801 177.999 88.9544 178.278C88.054 178.866 86.8954 178.074 86.187 177.265C85.4778 176.456 84.6057 175.483 83.5512 175.694C82.4254 175.92 82.031 177.299 81.8576 178.433C81.7534 179.113 81.6492 179.806 81.7638 180.484C81.865 181.079 82.5667 181.549 82.6493 181.961C82.7945 182.684 82.2155 183.27 82.2661 183.993C82.3621 185.363 81.932 184.74 83.2343 184.87C84.2894 184.975 84.9301 184.421 86.0389 184.892C87.1037 185.345 87.7184 186.798 89.0623 186.586Z" fill="#557E4E"/>
<path d="M87.545 211.519C88.1336 211.101 88.9596 211.246 89.604 211.572C90.2492 211.897 90.8117 212.381 91.4859 212.641C92.1601 212.9 93.0352 212.867 93.475 212.294C93.8337 211.827 93.7838 211.156 93.568 210.608C93.353 210.059 92.9957 209.577 92.7643 209.035C92.3193 207.994 92.3633 206.802 91.9652 205.743C91.5678 204.683 90.3727 203.732 89.3622 204.242C88.3449 204.755 88.2378 206.376 87.1699 206.774C86.4407 207.046 85.6445 206.584 85.0834 206.045C84.5223 205.506 84.0207 204.846 83.2863 204.589C82.5295 204.323 81.618 204.588 81.1201 205.216C80.6223 205.845 80.6283 206.728 80.9192 207.431C79.998 207.509 79.0589 207.496 78.128 207.494C77.2923 210.075 79.4808 210.965 81.3917 211.899C82.3338 212.359 84.0438 213.958 84.9926 214.048C86.7607 214.218 86.4139 212.322 87.545 211.519Z" fill="#5C865D"/>
<path d="M48.6811 226.847C49.2846 227.245 49.4483 228.067 49.3783 228.786C49.3084 229.505 49.0621 230.204 49.0643 230.927C49.0658 231.649 49.414 232.453 50.1076 232.655C50.6731 232.821 51.2803 232.531 51.7134 232.131C52.1458 231.732 52.4665 231.224 52.8877 230.812C53.6965 230.02 54.8239 229.63 55.667 228.874C56.5101 228.12 56.9633 226.662 56.1224 225.905C55.2756 225.142 53.7256 225.63 52.968 224.779C52.4501 224.197 52.5923 223.288 52.8914 222.569C53.1905 221.851 53.6229 221.144 53.5976 220.367C53.5708 219.565 52.9941 218.811 52.2276 218.576C51.4612 218.34 50.6404 218.665 50.0912 219.19C49.6842 218.361 49.356 217.48 49.0211 216.612C46.3117 216.769 46.276 219.131 46.0982 221.25C46.0104 222.295 45.1398 224.468 45.3987 225.385C45.8817 227.094 47.5232 226.084 48.6811 226.847Z" fill="#5C865D"/>
<path d="M42.0024 184.405C41.5642 184.974 40.6883 185.011 40.0134 184.748C39.3429 184.489 38.7788 184.009 38.1352 183.682C37.4855 183.355 36.6625 183.212 36.0717 183.629C35.8291 183.803 35.6498 184.03 35.5077 184.272C35.5709 182.474 35.6341 180.68 35.6974 178.886C36.7682 178.485 36.8739 176.865 37.8918 176.353C38.9001 175.841 40.0975 176.791 40.4934 177.851C40.8944 178.912 40.8468 180.105 41.2955 181.144C41.5225 181.687 41.8811 182.167 42.0977 182.716C42.3135 183.265 42.3611 183.935 42.0024 184.405Z" fill="#5C865D"/>
<path d="M55.7369 144.57C56.3256 144.151 57.1515 144.297 57.796 144.623C58.4411 144.948 59.0037 145.431 59.6779 145.692C60.3521 145.951 61.2272 145.918 61.667 145.345C62.0264 144.878 61.9758 144.207 61.7607 143.659C61.5449 143.11 61.1878 142.628 60.9563 142.086C60.5121 141.045 60.556 139.853 60.1579 138.794C59.7597 137.735 58.5654 136.784 57.5549 137.293C56.5369 137.806 56.4297 139.428 55.3619 139.826C54.6326 140.097 53.8364 139.635 53.2753 139.097C52.7143 138.557 52.2127 137.898 51.4783 137.64C50.7215 137.375 49.8099 137.639 49.3121 138.268C48.815 138.896 48.8202 139.779 49.1112 140.482C48.1899 140.56 47.2516 140.547 46.3207 140.545C45.4843 143.127 47.6728 144.016 49.5837 144.95C50.5258 145.41 52.2358 147.009 53.1846 147.1C54.9526 147.269 54.6059 145.373 55.7369 144.57Z" fill="#5C865D"/>
<path d="M104.438 205.958C104.269 206.058 104.095 206.138 103.905 206.196C103.029 206.449 102.09 206.158 101.25 205.789C100.417 205.414 99.5992 204.945 98.6914 204.834C97.7895 204.718 96.7343 205.066 96.3749 205.905C96.0847 206.592 96.2119 207.572 95.5362 207.889C95.0615 208.111 94.4758 207.773 94.2436 207.304C94.0063 206.839 94.0271 206.285 94.0539 205.763C94.106 204.681 94.1588 203.599 94.2064 202.518C94.2436 201.837 94.3173 201.067 94.8449 200.639C95.6523 199.99 96.9717 200.534 97.8051 199.927C98.3066 199.563 98.4696 198.893 98.4748 198.276C98.486 197.663 98.3751 197.041 98.4696 196.434C98.6489 195.3 99.62 194.334 100.76 194.165C101.778 194.018 102.628 194.366 103.33 195.005C103.714 198.809 104.089 202.497 104.438 205.958Z" fill="#2D6331"/>
<path d="M48.4556 201.08C47.3186 201.248 46.3453 202.211 46.1659 203.346C46.0699 203.955 46.1823 204.575 46.1741 205.19C46.1667 205.805 46.0015 206.476 45.5044 206.839C44.6695 207.448 43.3464 206.904 42.5427 207.554C42.0129 207.983 41.9385 208.749 41.9058 209.43C41.8537 210.512 41.8016 211.595 41.7495 212.677C41.7242 213.201 41.7041 213.751 41.9392 214.219C42.1751 214.687 42.7592 215.024 43.234 214.802C43.9074 214.487 43.781 213.503 44.0734 212.82C44.4328 211.979 45.4836 211.63 46.3907 211.745C47.2978 211.861 48.1148 212.327 48.9497 212.7C49.7839 213.074 50.726 213.364 51.6033 213.108C52.4211 212.868 53.0506 212.174 53.3758 211.386C53.7003 210.6 53.7539 209.726 53.7129 208.876C53.5887 206.301 52.0587 200.55 48.4556 201.08Z" fill="#2D6331"/>
<path d="M69.9023 135.931C68.7653 136.099 67.7912 137.062 67.6126 138.197C67.5166 138.805 67.629 139.426 67.6208 140.041C67.6134 140.656 67.4482 141.327 66.9511 141.69C66.1162 142.299 64.7931 141.756 63.9894 142.405C63.4596 142.834 63.3852 143.6 63.3524 144.281C63.3003 145.363 63.2483 146.446 63.1955 147.528C63.1702 148.052 63.1508 148.602 63.3859 149.07C63.6211 149.538 64.206 149.875 64.6808 149.653C65.3542 149.338 65.2276 148.354 65.5201 147.671C65.8795 146.83 66.9303 146.481 67.8374 146.596C68.7445 146.711 69.5615 147.178 70.3964 147.552C71.2306 147.925 72.1727 148.215 73.05 147.958C73.8671 147.719 74.4974 147.025 74.8226 146.237C75.147 145.45 75.2005 144.577 75.1596 143.726C75.0353 141.152 73.5054 135.401 69.9023 135.931Z" fill="#2D6331"/>
<path d="M79.6229 176.158C79.2955 176.944 78.6675 177.641 77.8497 177.878C76.9738 178.136 76.0295 177.846 75.1961 177.472C74.6313 177.218 74.0725 176.923 73.4861 176.723C73.2435 173.261 73.0225 170.005 72.8268 167.072C73.2487 166.433 73.94 165.964 74.6997 165.853C78.3036 165.32 79.8335 171.072 79.9608 173.646C79.9972 174.496 79.9444 175.372 79.6229 176.158Z" fill="#2D6331"/>
<path d="M93.6611 192.954C93.5658 192.139 93.3426 191.411 92.6141 190.753C91.6422 189.877 90.2767 189.565 89.0236 189.934C87.7973 190.296 86.8165 191.282 86.3909 192.476C86.2971 192.741 86.2167 193.023 86.1617 193.31C85.3796 193.346 84.6005 193.596 83.9754 194.062C83.395 194.493 83.0393 194.993 82.8413 195.539C82.3472 195.648 81.9007 195.873 81.519 196.238C80.594 197.124 80.3708 198.498 80.8902 199.65C82.0645 202.253 84.843 201.72 87.1112 201.364C87.1595 201.357 87.2057 201.344 87.2533 201.332C87.3768 201.51 87.5108 201.685 87.6522 201.855C89.3793 203.927 92.0723 201.993 92.0321 199.811C92.3566 199.666 92.6802 199.505 92.8886 199.319C93.6238 198.663 94.2013 197.748 94.4989 196.811C94.9916 195.259 94.6106 193.977 93.6611 192.954Z" fill="#2D6331"/>
<path d="M38.5995 169.863C38.2982 170.802 37.7237 171.715 36.99 172.369C36.7787 172.553 36.4572 172.717 36.1298 172.859C36.1402 173.277 36.0457 173.688 35.8768 174.062C36.0085 170.433 36.1402 166.876 36.2726 163.473C36.4304 163.568 36.5785 163.679 36.7154 163.805C37.4439 164.459 37.6656 165.193 37.7601 166.006C38.7097 167.029 39.0899 168.311 38.5995 169.863Z" fill="#2D6331"/>
<path d="M103.082 192.583C102.411 192.583 101.715 192.335 101.066 192.098C100.122 191.75 98.9972 191.465 98.1638 192.029C97.8475 192.245 97.599 192.573 97.2455 192.715C96.4121 193.053 95.5154 192.139 95.4626 191.243C95.4097 190.346 95.8793 189.512 96.238 188.684C96.5966 187.861 96.8392 186.864 96.3696 186.093C96.0058 185.503 95.2356 185.027 95.3777 184.347C95.5682 183.423 97.0558 183.629 97.689 182.927C98.0797 182.495 98.0373 181.824 97.8788 181.265C97.7262 180.701 97.4889 180.136 97.5677 179.555C97.7047 178.522 98.8655 177.873 99.9102 177.92C100.453 177.947 101.05 178.131 101.631 178.427C102.121 183.154 102.611 187.94 103.082 192.583Z" fill="#557E4E"/>
<path d="M48.3723 179.176C47.326 179.126 46.1667 179.774 46.026 180.813C45.9479 181.39 46.1883 181.956 46.3416 182.518C46.4948 183.08 46.5395 183.748 46.1496 184.181C45.5185 184.882 44.0303 184.678 43.8375 185.6C43.6947 186.28 44.4656 186.757 44.828 187.348C45.2975 188.116 45.0549 189.114 44.697 189.94C44.3391 190.766 43.8688 191.598 43.9224 192.496C43.9759 193.395 44.8696 194.305 45.7046 193.968C46.0603 193.825 46.3066 193.499 46.6243 193.284C47.4577 192.719 48.5806 193.005 49.5264 193.35C50.4722 193.694 51.5334 194.075 52.4479 193.655C53.681 193.088 53.9005 191.405 53.611 190.08C53.3215 188.754 52.6994 187.445 52.8996 186.103C52.9993 185.432 53.3029 184.798 53.3394 184.121C53.4614 181.831 50.5355 179.278 48.3723 179.176Z" fill="#557E4E"/>
<path d="M36.7318 151.845C36.8002 150.129 36.8635 148.509 36.9267 146.99C37.0793 147.534 37.2534 148.077 37.3754 148.626C37.618 149.74 37.5019 151.101 36.7318 151.845Z" fill="#557E4E"/>
<path d="M80.7042 188.098C80.0449 188.605 79.2799 189.138 79.1534 189.956C79.0105 190.874 79.7443 191.692 79.8708 192.609C80.0188 193.712 79.2851 194.715 78.5886 195.58C77.8712 196.477 77.1219 197.401 76.1143 197.954C75.7921 198.128 75.4387 198.261 75.0748 198.334C74.6209 192.578 74.1885 186.71 73.7979 181.192C74.4259 181.155 75.048 181.371 75.5808 181.952C76.2461 182.685 76.4567 183.803 77.2693 184.363C77.9769 184.853 78.916 184.764 79.7755 184.811C80.6357 184.858 81.644 185.206 81.8442 186.046C82.0339 186.853 81.3643 187.597 80.7042 188.098Z" fill="#5C865D"/>
<path d="M46.2269 161.47C46.8937 162.2 47.1013 163.319 47.9146 163.881C48.6238 164.37 49.5621 164.28 50.4224 164.328C51.2833 164.376 52.2879 164.725 52.4888 165.563C52.6823 166.37 52.0118 167.113 51.3525 167.617C50.694 168.121 49.9238 168.654 49.7973 169.474C49.6559 170.39 50.3911 171.21 50.5146 172.128C50.6627 173.227 49.929 174.229 49.2355 175.094C48.5159 175.994 47.7695 176.916 46.7605 177.472C45.7514 178.027 44.4023 178.13 43.5027 177.411C42.6112 176.699 42.408 175.422 42.4892 174.285C42.5703 173.147 42.8679 172.01 42.7154 170.879C42.5688 169.793 42.0196 168.811 41.5285 167.831C40.5142 165.808 40.3527 164.027 41.844 162.205C42.9126 160.899 44.8704 159.986 46.2269 161.47Z" fill="#5C865D"/>
<path d="M72.7754 51.0729C72.7754 51.0729 86.85 55.4558 90.4397 57.465L88.7163 81.0169C88.7163 81.0169 99.0098 126.727 97.8609 139.508C97.8609 139.508 64.1598 151.623 36.3002 140.421C36.3002 140.421 37.1619 99.1105 39.3161 80.0123L36.3002 55.4558L54.4995 51.0729H72.7754Z" fill="#346337"/>
<path d="M38.2029 235.731C38.2029 235.731 37.4268 235.387 36.9103 238.23C36.3932 241.073 37.7721 257.531 35.9623 260.116C35.9623 260.116 50.3517 266.175 53.1087 264.524C53.1087 264.524 52.5059 257.962 53.1087 255.118C53.7122 252.275 56.3829 241.332 55.1766 238.92L38.2029 235.731Z" fill="#382302"/>
<path d="M38.8138 258.372C38.8138 258.372 39.5245 246.287 40.0416 242.797C40.5588 239.308 40.3646 230.713 47.4733 232.005C54.582 233.297 52.4493 240.213 51.9322 244.607C51.415 249.001 50.1872 256.82 50.3814 260.375L38.8138 258.372Z" fill="#432C03"/>
<path d="M31.5756 269.422C31.5756 269.422 30.9729 257.531 42.3894 257.531C56.0465 257.531 53.2032 269.422 53.2032 269.422H31.5756Z" fill="#4B3408"/>
<path d="M39.3563 243.506L39.305 242.993L52.8245 241.636L52.875 242.149L39.3563 243.506Z" fill="#8F4B27"/>
<path d="M52.6093 244.35L39.7232 241.257L39.8422 240.762L52.7284 243.855L52.6093 244.35Z" fill="#8F4B27"/>
<path d="M39.3563 246.823L39.3042 246.32L52.2722 244.963L52.3243 245.465L39.3563 246.823Z" fill="#8F4B27"/>
<path d="M52.0453 247.669L39.43 244.476L39.5535 243.988L52.1689 247.181L52.0453 247.669Z" fill="#8F4B27"/>
<path d="M39.1673 250.886L39.1383 250.388L51.8288 249.642L51.8578 250.14L39.1673 250.886Z" fill="#8F4B27"/>
<path d="M51.5013 252.458L39.3414 248.545L39.494 248.071L51.6539 251.983L51.5013 252.458Z" fill="#8F4B27"/>
<path d="M38.5206 255.353L38.467 254.857L51.1077 253.501L51.1613 253.996L38.5206 255.353Z" fill="#8F4B27"/>
<path d="M50.9172 256.329L38.5824 253.007L38.7119 252.527L51.0459 255.848L50.9172 256.329Z" fill="#8F4B27"/>
<path d="M102.468 235.731C102.468 235.731 103.243 235.387 103.76 238.23C104.278 241.073 102.899 257.531 104.708 260.116C104.708 260.116 90.3191 266.175 87.5613 264.524C87.5613 264.524 88.1648 257.962 87.5613 255.118C86.9585 252.275 84.2871 241.332 85.4933 238.92L102.468 235.731Z" fill="#382302"/>
<path d="M101.857 258.372C101.857 258.372 101.146 246.287 100.629 242.797C100.112 239.308 100.306 230.713 93.1974 232.005C86.0887 233.297 88.2214 240.213 88.7386 244.607C89.2558 249.001 90.4836 256.82 90.2893 260.375L101.857 258.372Z" fill="#432C03"/>
<path d="M109.094 269.422C109.094 269.422 109.698 257.531 98.2814 257.531C84.6243 257.531 87.4676 269.422 87.4676 269.422H109.094Z" fill="#4B3408"/>
<path d="M101.314 243.506L87.795 242.149L87.8463 241.636L101.366 242.993L101.314 243.506Z" fill="#8F4B27"/>
<path d="M88.0615 244.35L87.9424 243.855L100.829 240.762L100.948 241.257L88.0615 244.35Z" fill="#8F4B27"/>
<path d="M101.314 246.823L88.3457 245.465L88.3985 244.963L101.367 246.32L101.314 246.823Z" fill="#8F4B27"/>
<path d="M88.6247 247.669L88.5011 247.181L101.118 243.988L101.241 244.476L88.6247 247.669Z" fill="#8F4B27"/>
<path d="M101.503 250.886L88.8123 250.14L88.8413 249.642L101.532 250.388L101.503 250.886Z" fill="#8F4B27"/>
<path d="M89.1694 252.458L89.0169 251.983L101.177 248.071L101.329 248.545L89.1694 252.458Z" fill="#8F4B27"/>
<path d="M102.149 255.353L89.5095 253.996L89.563 253.501L102.204 254.857L102.149 255.353Z" fill="#8F4B27"/>
<path d="M89.7536 256.329L89.6241 255.848L101.958 252.527L102.088 253.007L89.7536 256.329Z" fill="#8F4B27"/>
<path d="M84.9829 75.2725H70.0474V73.4046H84.9829V75.2725Z" fill="#568656"/>
<path d="M70.0474 75.272V79.7963L77.5155 82.8101L84.9829 79.7963V75.272H70.0474Z" fill="#557E4E"/>
<path d="M58.4635 75.2725H43.5287V73.4046H58.4635V75.2725Z" fill="#568656"/>
<path d="M43.5287 75.272V79.7963L50.9961 82.8101L58.4635 79.7963V75.272H43.5287Z" fill="#557E4E"/>
<path d="M63.1813 54.578L64.808 145.155L66.2858 145.116L64.6554 54.578H63.1813Z" fill="#264C28"/>
<path d="M64.0898 55.099C64.0898 55.099 65.811 59.4001 68.4683 59.6903C71.1248 59.9805 72.7753 51.0733 72.7753 51.0733C72.7753 51.0733 65.878 46.9136 54.4994 51.0733C54.4994 51.0733 55.0404 58.1947 58.1286 59.6978C61.216 61.201 64.0898 55.099 64.0898 55.099Z" fill="#557E4E"/>
<path d="M60.1943 4.76528C60.1943 4.76528 51.456 3.58212 46.8126 17.9141C45.0311 23.4207 44.0771 28.7933 43.5778 33.3326C42.8433 40.0074 48.0024 45.8787 54.7175 46.0498L71.5714 46.4814C78.1905 46.6526 83.6041 41.2129 83.3592 34.5976C83.011 25.1843 81.5011 13.0401 76.2817 8.61247L60.1943 4.76528Z" fill="#E59B54"/>
<path d="M48.5464 27.7814C48.5464 27.7814 43.0361 27.3052 43.7586 31.011C44.4819 34.7168 48.7302 33.0127 48.7302 33.0127L48.5464 27.7814Z" fill="#FEC09B"/>
<path d="M48.6022 29.3741L48.6863 31.7776C48.6863 31.7776 46.57 32.0083 46.3847 30.4828C46.1994 28.9573 48.6022 29.3741 48.6022 29.3741Z" fill="#FA9480"/>
<path d="M80.2272 27.7292C80.2272 27.7292 85.736 27.2381 85.0246 30.9439C84.3139 34.6497 80.0605 32.9679 80.0605 32.9679L80.2272 27.7292Z" fill="#FEC09B"/>
<path d="M80.1765 29.3219L80.0999 31.7254C80.0999 31.7254 82.217 31.9561 82.3971 30.4232C82.5779 28.8977 80.1765 29.3219 80.1765 29.3219Z" fill="#FA9480"/>
<path d="M65.2901 5.4653C73.4934 5.14532 79.7241 9.7739 80.4288 27.9605C81.1342 46.1397 70.784 48.3721 64.7975 48.6028C58.8109 48.8335 48.8492 46.0653 48.3588 33.4299C47.8692 20.7945 51.7647 5.99364 65.2901 5.4653Z" fill="#FEC09B"/>
<path d="M64.3011 37.0386L60.6505 35.5875C60.6505 35.5875 62.2094 39.1371 64.3011 37.0386Z" fill="#FA9480"/>
<path d="M71.8832 27.4912C72.7233 27.3721 73.4957 27.9675 73.6088 28.8009C73.7227 29.6418 73.1333 30.4157 72.2939 30.5273C71.4538 30.6464 70.6814 30.051 70.5675 29.2176C70.4544 28.3767 71.0438 27.6028 71.8832 27.4912Z" fill="#3E444E"/>
<path d="M54.8492 27.5137C55.6886 27.4021 56.4618 27.9899 56.5749 28.8308C56.688 29.6717 56.0994 30.4456 55.2592 30.5572C54.4199 30.6688 53.6467 30.0809 53.5336 29.2401C53.4205 28.3992 54.0091 27.6328 54.8492 27.5137Z" fill="#3E444E"/>
<path d="M74.3135 25.5937C74.3031 25.5937 74.2934 25.5938 74.283 25.5863L71.2402 25.192C71.1107 25.1696 71.0192 25.0505 71.0371 24.924C71.0535 24.7975 71.1755 24.7008 71.3012 24.7232L74.344 25.1175C74.4735 25.1399 74.565 25.2589 74.5479 25.3854C74.5323 25.5045 74.4304 25.5937 74.3135 25.5937Z" fill="#E59B54"/>
<path d="M53.9324 25.6235C53.8178 25.6235 53.7174 25.5417 53.6995 25.4226C53.6794 25.2961 53.768 25.1771 53.8967 25.1547L56.5458 24.7455C56.679 24.7231 56.7951 24.8124 56.8152 24.9389C56.836 25.0729 56.7475 25.1919 56.6188 25.2143L53.9689 25.6235C53.957 25.6235 53.9443 25.6235 53.9324 25.6235Z" fill="#E59B54"/>
<path d="M59.3006 42.136C60.4645 43.8029 62.3642 44.8 64.395 44.8149C66.4265 44.8223 68.3374 43.8475 69.519 42.1955L59.3006 42.136Z" fill="white"/>
<path d="M55.0352 17.4827C55.0352 17.4827 50.083 27.7072 48.3127 27.7593C48.3127 27.7593 48.2279 17.2 50.7676 12.8022L55.0352 17.4827Z" fill="#E59B54"/>
<path d="M80.4683 27.7144C80.4683 27.7144 74.6707 21.6274 74.3008 17.7504L78.2805 12.7573C78.2805 12.7573 81.359 22.6617 80.4683 27.7144Z" fill="#E59B54"/>
<path d="M54.5612 17.7801C54.8775 17.9884 55.2079 18.1893 55.5532 18.3754C56.7214 19.0228 58.0884 19.5809 59.6303 20.0125C59.9316 20.0943 60.2472 20.1762 60.5627 20.2506C62.083 20.6078 63.7573 20.8459 65.5856 20.9426C65.8498 20.9501 66.1213 20.965 66.393 20.9724C66.9726 20.9948 67.5747 20.9947 68.1841 20.9798C69.5637 20.9501 70.8116 20.7566 71.9196 20.4366C72.1763 20.3622 72.4257 20.2804 72.6682 20.1911C73.6073 19.8562 74.4363 19.4247 75.1469 18.9187C75.4699 18.688 75.7631 18.4573 76.0339 18.1968C79.7062 14.7813 79.0291 9.07374 72.8803 6.25347C72.3147 5.99303 71.6979 5.75488 71.0364 5.55396C69.9648 5.21166 68.7675 4.95122 67.4384 4.78752C66.9242 4.72054 66.3885 4.66104 65.8378 4.63128C65.3385 4.60151 64.8176 4.57913 64.2818 4.57169C64.0467 4.56425 63.8041 4.56425 63.5474 4.57169C63.2393 4.56425 62.9238 4.5717 62.6008 4.58658C62.5421 4.58658 62.4833 4.59407 62.4245 4.59407C62.0353 4.60895 61.661 4.63123 61.3016 4.661C60.2881 4.72797 59.3564 4.85446 58.4902 5.01817C58.1159 5.08514 57.7565 5.16701 57.4112 5.25631C48.841 7.36221 48.5211 13.8287 54.5612 17.7801Z" fill="#E59B54"/>
<path d="M75.1469 18.9189C75.4699 18.6883 75.7631 18.4576 76.0339 18.1971C76.5072 15.5257 76.7483 10.3614 72.8803 6.25376C72.3147 5.99332 71.6979 5.75517 71.0364 5.55425C76.7186 10.0935 75.7311 16.6196 75.1469 18.9189Z" fill="#E7B259"/>
<path d="M71.9196 20.437C72.1763 20.3626 72.4257 20.2808 72.6682 20.1915C72.7397 18.8967 72.7649 16.6643 72.372 14.2012C71.6897 9.89264 69.996 6.67798 67.4384 4.78788C66.9242 4.72091 66.3885 4.66141 65.8378 4.63164C72.1488 7.94304 72.0908 17.5126 71.9196 20.437Z" fill="#E7B259"/>
<path d="M65.5856 20.9429C65.8497 20.9503 66.1213 20.9652 66.3929 20.9727C64.1449 15.3619 64.2044 7.02011 64.2818 4.5719C64.0467 4.56446 63.8041 4.56446 63.5473 4.5719C63.4633 7.04987 63.3882 15.1609 65.5856 20.9429Z" fill="#E7B259"/>
<path d="M59.6302 20.0128C59.9316 20.0947 60.2471 20.1766 60.5627 20.251C55.8352 10.8302 61.5888 5.32368 62.4244 4.59443C62.0353 4.60931 61.661 4.6316 61.3016 4.66136C59.5789 6.50681 55.8069 11.8274 59.6302 20.0128Z" fill="#E7B259"/>
<path d="M54.5612 17.7802C54.8774 17.9885 55.2078 18.1895 55.5531 18.3755C53.1511 12.4224 57.5675 6.21633 58.4902 5.01828C58.1159 5.08525 57.7565 5.16712 57.4112 5.25641C55.9906 7.31767 52.9747 12.534 54.5612 17.7802Z" fill="#E7B259"/>
<path d="M60.5731 46.2362V52.1521C60.5731 52.1521 63.394 55.2179 67.6066 52.1521V47.077L60.5731 46.2362Z" fill="#FEC09B"/>
<path d="M81.9141 20.355C77.2194 21.873 72.9287 22.7362 69.0749 23.138C68.9863 23.1529 68.8977 23.1604 68.8092 23.1678C68.67 23.1827 68.5376 23.1975 68.3984 23.2124C68.1648 23.2422 67.9311 23.2571 67.6908 23.272C62.5473 23.7036 58.2313 23.3241 54.8448 22.6915C52.9242 22.3269 51.3064 21.8879 49.9982 21.4563H49.9923C47.4079 20.608 46.0491 19.8043 46.0491 19.8043C46.1756 17.371 46.8327 14.3796 47.6036 11.6039C48.8738 7.04983 50.441 3.07618 50.441 3.07618C51.7105 2.25019 53.4421 1.70695 55.4326 1.37209C59.1101 0.747013 63.6531 0.836338 67.684 1.17864C70.4649 1.41676 72.9986 1.77393 74.8433 2.09391C76.057 2.30971 76.979 2.51063 77.4657 2.65201C78.5149 2.95711 79.3863 5.36069 80.0694 8.30002C81.0294 12.43 81.6298 17.6091 81.8323 19.5588C81.8888 20.0648 81.9141 20.355 81.9141 20.355Z" fill="#3F6E41"/>
<path d="M81.8322 19.5591C80.8336 19.9981 79.57 19.6633 78.4896 19.3061C77.447 18.9563 76.2401 18.428 76.0377 17.349C75.9052 16.657 76.2527 15.898 75.9618 15.258C75.6902 14.6553 74.9825 14.4022 74.376 14.1343C73.7696 13.859 73.1125 13.353 73.1944 12.6982C73.2956 11.8871 74.3634 11.6415 75.1849 11.7085C75.9998 11.7755 76.9983 11.8722 77.4723 11.2025C77.927 10.57 77.5795 9.66212 77.8325 8.91798C77.8325 7.71248 79.1087 7.83156 80.0694 8.30036C81.0293 12.4303 81.6298 17.6095 81.8322 19.5591Z" fill="#5C865D"/>
<path d="M76.0883 5.94136C75.4692 6.17948 74.85 5.65859 74.3187 5.27164C73.7822 4.87725 72.8781 4.66892 72.5812 5.26423C72.2084 6.0158 73.428 6.70779 73.3715 7.54866C73.3521 7.92817 73.0678 8.23332 72.7962 8.50121C72.3222 8.9849 71.8482 9.46113 71.3742 9.93738C70.7365 10.5922 69.9655 11.2842 69.0622 11.2098C68.0256 11.1205 67.3246 9.96714 67.457 8.9328C67.5962 7.90589 68.3671 7.05753 69.2452 6.50687C68.4051 6.0083 67.5456 5.47997 66.9704 4.68375C66.4019 3.89496 66.1868 2.749 66.7367 1.93045C66.9704 1.58815 67.3052 1.34261 67.684 1.1789C70.4648 1.41702 72.9986 1.77419 74.8433 2.09417C74.9572 2.29509 75.0644 2.50343 75.1976 2.67458C75.6463 3.26245 76.3033 3.68662 76.5809 4.40099C76.796 4.95909 76.6441 5.71812 76.0883 5.94136Z" fill="#2D6331"/>
<path d="M66.3066 15.2952C65.4873 15.1613 64.4484 15.1464 64.0533 15.8831C63.391 17.1034 65.4322 18.6215 64.7052 19.8047C64.2372 20.5711 62.9134 20.5265 62.5934 21.3673C62.414 21.8361 62.6767 22.3794 63.0822 22.6771C63.4878 22.9747 64.002 23.0714 64.4998 23.1458C66.4762 23.4137 68.5018 23.3319 70.4477 22.8928C71.2648 22.7068 72.1071 22.4315 72.6838 21.8287C73.2598 21.2185 73.46 20.1842 72.9153 19.5442C72.6399 19.2242 72.1874 18.9861 72.1584 18.5619C72.1138 17.9071 73.0529 17.7285 73.521 17.2597C75.0933 15.697 71.5259 14.0376 70.4685 13.6283C69.4892 13.2563 69.3307 13.6283 68.8515 14.4097C68.2198 15.4366 67.4719 15.4961 66.3066 15.2952Z" fill="#557E4E"/>
<path d="M64.1493 6.17175C64.6985 6.52149 64.9091 7.22099 65.0073 7.86095C65.1063 8.50835 65.145 9.19293 65.4955 9.74359C65.9368 10.4282 66.8692 10.9863 66.6832 11.7826C66.5247 12.4672 65.651 12.668 64.9501 12.6457C64.2483 12.6234 63.4342 12.5565 62.961 13.0774C62.4765 13.6057 62.6313 14.4689 62.2845 15.0939C61.8641 15.853 60.7918 16.0464 59.9807 15.7339C59.1703 15.4139 58.5736 14.7219 58.0504 14.0299C57.4707 14.3647 56.8672 14.7145 56.1983 14.774C55.53 14.8335 54.777 14.5135 54.556 13.881C54.2963 13.1369 54.899 12.3109 55.6402 12.043C56.3813 11.7751 57.2014 11.9016 57.979 12.0356C58.0995 10.9492 58.2796 9.87013 58.5185 8.80601C58.6412 8.25535 58.802 7.67496 59.2313 7.31033C59.66 6.95315 60.4413 6.96797 60.6787 7.47398C60.3989 6.87124 63.7497 5.91874 64.1493 6.17175Z" fill="#5C865D"/>
<path d="M58.9896 19.1573C58.5163 19.5516 57.8905 19.708 57.284 19.8345C56.6835 19.9684 56.0517 20.0949 55.5524 20.4521C55.5524 20.6307 54.8514 21.3227 54.7688 21.6427C54.687 21.9478 54.8008 22.3496 54.8448 22.6919C52.9241 22.3273 51.3064 21.8883 49.9982 21.4567H49.9923C49.6827 21.1144 49.4736 20.6679 49.5435 20.2214C49.897 20.4223 50.365 20.1619 50.5667 19.8047C50.7691 19.4475 50.8071 19.0233 50.9395 18.6364C51.325 17.5127 52.6205 16.791 53.7769 17.044C54.2822 17.163 54.7435 17.4234 55.2496 17.483C55.9952 17.5648 56.7088 17.1854 57.4291 16.9844C58.1561 16.7835 59.0908 16.8505 59.445 17.5127C59.7352 18.056 59.4636 18.7629 58.9896 19.1573Z" fill="#2D6331"/>
<path d="M57.1828 7.34745C57.0436 8.02461 56.6775 8.68685 56.0703 9.01427C55.3567 9.40122 54.4213 9.28214 53.7836 9.78071C52.8921 10.4802 52.8921 12.1471 51.793 12.415C50.7058 12.668 49.8717 11.202 48.7599 11.2244C48.3685 11.2392 47.9764 11.4327 47.6036 11.6038C48.8738 7.04974 50.4409 3.07609 50.4409 3.07609C51.7104 2.2501 53.442 1.70685 55.4326 1.37199C56.6708 2.11613 57.0377 3.67881 57.1828 5.2787C57.252 5.97074 57.3153 6.66285 57.1828 7.34745Z" fill="#557E4E"/>
<path d="M46.0513 19.8047C46.0513 19.8047 41.5128 26.8516 53.5194 27.0749C65.526 27.3056 73.364 29.3147 81.9119 20.3553C81.9119 20.3553 59.692 24.2323 46.0513 19.8047Z" fill="#5E855E"/>
<path d="M100.129 122.044C100.129 122.044 90.4627 127.152 88.8449 129.191C87.2279 131.23 87.277 139.307 88.5808 140.038C89.8845 140.768 91.471 133.185 91.471 133.185C91.471 133.185 89.595 142.08 91.6481 142.543C93.3804 142.933 94.0703 135.105 94.0703 135.105C94.0703 135.105 93.9623 142.565 95.4052 142.801C97.247 143.103 96.9843 136.1 96.9843 136.1L106.668 129.834C105.893 125.278 103.44 123.064 100.129 122.044Z" fill="#FEC09B"/>
<path d="M34.1214 122.044C34.1214 122.044 43.7877 127.152 45.4054 129.191C47.0224 131.23 46.9733 139.307 45.6696 140.038C44.3659 140.768 42.7794 133.185 42.7794 133.185C42.7794 133.185 44.6553 142.08 42.6023 142.543C40.8699 142.933 40.1801 135.105 40.1801 135.105C40.1801 135.105 40.288 142.565 38.8451 142.801C37.0034 143.103 37.2668 136.1 37.2668 136.1L27.5834 129.834C28.3573 125.278 30.8107 123.064 34.1214 122.044Z" fill="#FEC09B"/>
<path d="M100.129 122.044C100.129 122.044 109.396 108.665 107.385 99.8665C105.375 91.0686 88.9671 82.1404 88.9671 82.1404C88.9671 82.1404 83.5468 65.6504 90.4397 57.465C90.4397 57.465 127.187 73.7392 124.906 103.562C123.039 127.975 106.668 129.833 106.668 129.833C106.668 129.833 107.09 125.591 100.129 122.044Z" fill="#2C5E30"/>
<path d="M36.3002 55.4558C36.3002 55.4558 -2.94318 77.5119 0.414352 101.349C4.25706 128.63 27.5834 129.833 27.5834 129.833C27.5834 129.833 27.9927 123.744 34.1214 122.044C34.1214 122.044 18.0905 108.386 17.8263 99.4475C17.5622 90.509 39.3162 80.0122 39.3162 80.0122C39.3162 80.0122 41.0552 63.9017 36.3002 55.4558Z" fill="#2C5E30"/>
</svg>
