<svg width="180" height="176" viewBox="0 0 180 176" fill="none" xmlns="http://www.w3.org/2000/svg">
<path d="M178.814 78.3934C177.829 77.6096 176.417 77.7165 175.188 77.9863C172.792 78.5111 170.501 79.5079 168.482 80.9019C171.065 78.2129 173.067 74.9676 174.31 71.4516C174.619 70.5765 174.883 69.6141 174.59 68.7322C174.13 67.3421 172.404 66.7093 170.969 67.0026C169.535 67.2969 168.349 68.2741 167.269 69.2629C163.007 73.1645 159.39 77.7675 156.589 82.8208C155.549 84.6956 154.054 87.0491 153.233 89.4349C152.298 88.7394 151.31 88.1164 150.266 87.5896C147.674 86.2809 144.819 85.5736 141.955 85.0919C130.356 83.1426 118.486 84.7515 106.837 86.3859C101.543 87.1295 96.2195 87.8771 90.8738 87.7544C85.1985 87.623 79.5524 86.483 74.2569 84.4346C72.789 83.8686 71.3479 83.2309 69.9406 82.5246C70.3259 81.7476 70.686 80.9578 71.014 80.1534C73.5019 74.0455 75.0156 67.0968 74.9895 60.2208C75.7249 60.5994 76.4819 60.9349 77.2624 61.2165C80.4218 62.3555 83.8221 62.5841 87.1459 63.0658C91.2191 63.6563 94.0533 64.7727 99.1194 66.0059C97.6567 62.8303 96.7433 61.1076 96.2685 60.1835C95.2198 58.1459 94.1309 56.1112 92.8771 54.1903C90.7532 50.9333 88.1985 47.7881 85.2299 45.2639C83.5119 43.8032 81.2148 42.4179 78.7394 41.4899C75.7397 40.3646 72.4795 39.9124 69.67 40.8071C69.0727 39.9261 68.4202 39.0765 67.718 38.2633C67.8714 37.8306 68.013 37.3735 68.1491 36.8849C68.5773 35.3457 69.0481 33.8388 69.5528 32.3545C69.669 32.0121 69.7875 31.6697 69.9055 31.3303C70.6426 29.2397 71.4402 27.1943 72.2786 25.1694C72.4159 24.8378 72.5554 24.5062 72.6945 24.1766C73.5921 22.0419 74.5313 19.9268 75.4815 17.8009C75.6316 17.4653 75.7811 17.1298 75.9313 16.7933C76.9618 14.4967 78.0004 12.1825 79.0118 9.81525C79.4678 8.7469 79.8057 7.2881 78.8661 6.60824C78.4502 6.30609 77.8991 6.27469 77.3862 6.30608C74.4472 6.49051 71.8899 8.32702 69.6732 10.2626C68.8669 10.966 68.0811 11.6939 67.3168 12.4434C67.0172 12.7377 66.7193 13.035 66.4283 13.3372C64.6755 15.1315 63.0456 17.0445 61.5487 19.0546C61.3188 19.3607 61.0945 19.6697 60.8729 19.9797C59.8658 21.3875 58.9241 22.8424 58.0524 24.3355C57.8689 24.6475 57.6915 24.9604 57.5161 25.2744C56.7111 26.7116 55.9734 28.1851 55.2992 29.6871C53.905 29.1769 52.4774 28.7806 51.0338 28.503C50.4335 27.4179 49.6614 26.3957 48.7557 25.4333C48.8112 23.5321 48.9138 21.6446 49.0508 19.762C49.0761 19.4117 49.1014 19.0605 49.131 18.7103C49.2343 17.3672 49.3548 16.0252 49.4795 14.6822C49.513 14.3309 49.5469 13.9807 49.5808 13.6305C49.7266 12.102 49.8805 10.5687 50.0305 9.02747C50.0641 8.67724 50.098 8.32604 50.1319 7.97581C50.2734 6.50916 50.4082 5.03075 50.5286 3.54056C50.6219 2.38294 50.4803 0.892746 49.3738 0.544479C48.884 0.389476 48.35 0.535654 47.875 0.729899C45.1467 1.83454 43.3037 4.38718 41.8153 6.92708C41.6757 7.16351 41.5409 7.39994 41.4056 7.63833C41.1881 8.02289 40.975 8.40844 40.77 8.79693C39.989 10.2538 39.2729 11.7449 38.6272 13.2626C38.458 13.6531 38.2975 14.0445 38.1416 14.4369C37.6114 15.7544 37.134 17.0906 36.7058 18.4444C36.5872 18.8221 36.471 19.1998 36.3593 19.5805C35.8154 21.4356 35.3663 23.3172 35.0139 25.2175C32.8791 25.3862 30.6256 26.2525 29.9348 28.2273C29.6629 29.0043 29.7231 29.9686 30.3321 30.5239C30.6413 30.8054 31.0495 30.9467 31.4453 31.0821C32.2637 31.3607 33.0818 31.6393 33.8999 31.9179C33.4422 32.2427 33.0086 32.5782 32.6014 32.9254C29.4052 30.7799 25.1618 31.1194 21.3405 32.5527C18.8651 33.4807 16.5679 34.8659 14.8492 36.3277C11.881 38.8509 9.32678 41.9971 7.20215 45.2531C5.94937 47.175 4.85964 49.2096 3.81141 51.2472C3.3359 52.1714 2.42344 53.8941 0.960327 57.0697C6.02629 55.8365 8.8602 54.7201 12.9339 54.1285C16.2577 53.6468 19.658 53.4192 22.8175 52.2793C23.4952 52.035 24.1522 51.7436 24.7959 51.4248C24.2432 54.6514 23.6626 57.9222 22.6005 61.0536C21.4896 64.3283 19.6527 67.2989 18.1835 70.4304C17.9532 70.9179 17.7318 71.4085 17.5248 71.9068C17.0541 73.0321 16.6592 74.1995 16.3467 75.3944C14.702 81.6838 15.3438 88.6668 19.3512 93.6917C20.71 95.3967 22.3869 96.7878 24.2517 97.8993C22.7982 100.53 21.7988 103.573 21.0498 106.282C20.9094 106.788 20.7808 107.338 20.9658 107.83C21.3076 108.742 22.5928 108.96 23.4555 108.51C24.3186 108.061 24.8511 107.176 25.3401 106.334C24.593 110.422 24.8694 114.693 26.1365 118.65C26.7406 120.537 28.2735 122.717 30.1715 122.149C31.0041 121.9 31.5891 121.166 32.0671 120.441C33.5842 118.137 34.5855 115.496 34.9775 112.766C35.2031 114.554 35.9835 116.848 37.7845 116.776C38.2897 116.757 38.7653 116.526 39.1797 116.237C41.6556 114.503 41.9965 111.026 42.0232 108.004C42.6646 109.172 43.5866 110.246 44.8193 110.753C46.0516 111.26 47.6245 111.076 48.501 110.072C49.7668 108.623 49.1114 106.391 48.3931 104.608C47.9064 103.4 47.4201 102.192 46.9336 100.985C48.6543 100.682 50.3397 100.244 51.9616 99.6524C51.9988 99.726 52.0359 99.8006 52.073 99.8731C53.8171 103.32 55.5607 106.763 57.3048 110.208L59.1156 113.784C58.0697 115.77 57.2246 117.727 56.5602 119.228C52.8908 127.511 48.7305 135.579 44.1109 143.376C42.5169 146.065 40.8698 148.724 39.1674 151.345C38.0972 152.997 37.0025 154.634 35.8903 156.258C35.1539 157.334 34.3857 158.453 34.1902 159.742C33.9971 161.03 34.5698 162.537 35.8062 162.967C36.5834 163.236 37.4399 163.042 38.217 162.78C40.6104 161.97 42.7478 160.551 44.7256 158.989C45.5716 158.323 46.3928 157.628 47.1986 156.915C48.8371 155.466 50.4087 153.939 51.9758 152.416C54.5378 149.928 57.0998 147.44 59.6612 144.951C63.0165 141.692 66.3916 138.402 69.2907 134.751C69.4255 135.25 69.5528 135.742 69.667 136.221C71.8418 145.345 73.4655 154.608 74.5208 163.942C74.7764 166.191 74.9982 168.442 75.1861 170.696C75.2875 171.914 75.3993 173.197 76.056 174.214C77.4913 176.439 80.9352 176.254 82.9092 174.531C84.8856 172.807 85.7489 170.109 86.4857 167.543C86.7417 166.65 86.9929 165.757 87.2381 164.861C89.1825 157.781 90.8061 150.602 91.9255 143.332C92.1747 141.708 92.3964 140.07 92.573 138.427C96.6089 138.493 100.665 138.241 104.697 137.987C108.814 137.728 112.932 137.466 117.053 137.206C117.381 137.186 117.709 137.177 118.037 137.166C118.864 138.88 119.742 140.543 120.367 142.101C122.757 148.051 124.351 154.321 125.088 160.691C125.181 161.494 125.261 162.296 125.327 163.1C125.527 165.562 125.81 168.419 127.887 169.76C129.591 170.86 131.967 170.406 133.551 169.137C135.134 167.868 136.059 165.953 136.714 164.032C136.969 163.284 137.19 162.526 137.385 161.76C137.918 159.686 138.263 157.56 138.578 155.44C139.059 152.204 139.47 148.909 139.542 145.635C143.272 151.11 144.348 157.995 144.81 164.629C144.842 165.089 144.872 165.553 144.907 166.016C145.034 167.712 145.222 169.405 145.79 171.001C146.512 173.033 147.971 174.924 150.019 175.593C152.494 176.403 155.276 175.23 157.056 173.33C158.689 171.586 159.636 169.333 160.424 167.065C160.494 166.865 160.564 166.662 160.631 166.462C162.33 161.418 163.65 156.244 164.573 151C165.567 145.341 166.091 139.516 165.21 133.852C165.884 129.289 166.294 124.699 166.201 120.089C166.052 112.803 164.58 105.42 161.159 99.0157C161.513 99.002 161.866 98.9726 162.215 98.9284C165.037 98.5684 167.671 97.3588 170.253 96.1648C171.88 95.4134 173.771 94.2479 173.675 92.4585C173.613 91.3097 172.664 90.363 171.591 89.947C170.518 89.5321 169.336 89.5409 168.185 89.5556C172.421 88.5481 177.028 86.9843 179.121 83.1671C179.956 81.6455 180.17 79.4745 178.814 78.3934Z" fill="#F48B6F"/>
<path d="M49.3739 0.54453C48.8841 0.389526 48.3501 0.535704 47.8751 0.729949C45.1467 1.83459 43.3037 4.38723 41.8153 6.92713C41.6757 7.16356 41.5409 7.39999 41.4056 7.63838C41.1881 8.02294 40.9751 8.40849 40.77 8.79698C39.989 10.2538 39.273 11.745 38.6273 13.2627C38.458 13.6531 38.2975 14.0445 38.1416 14.4369C37.6115 15.7545 37.134 17.0906 36.7058 18.4445C36.5873 18.8222 36.471 19.1999 36.3593 19.5805C35.8154 21.4356 35.3663 23.3173 35.0139 25.2175C35.2337 25.1999 35.4527 25.1881 35.6682 25.1851C37.6101 25.1567 39.5569 25.4785 41.3871 26.1289C40.2642 25.7738 39.9713 24.1256 40.7012 23.2015C43.017 20.2682 46.692 23.3016 48.5355 25.1979C48.611 25.2754 48.6821 25.3549 48.7557 25.4333C48.8113 23.5321 48.9139 21.6446 49.0508 19.762C49.0761 19.4118 49.1015 19.0605 49.1311 18.7103C49.2344 17.3673 49.3549 16.0252 49.4795 14.6822C49.513 14.331 49.5469 13.9808 49.5809 13.6305C49.7267 12.1021 49.8806 10.5687 50.0306 9.02752C50.0641 8.67729 50.0981 8.32609 50.1319 7.97586C50.2735 6.50921 50.4083 5.0308 50.5287 3.54061C50.622 2.38299 50.4804 0.892797 49.3739 0.54453Z" fill="#3E2E55"/>
<path d="M67.7457 129.375C65.8946 127.168 64.5774 124.573 63.2779 122.003L59.1156 113.784C58.0697 115.77 57.2245 117.727 56.5602 119.228C52.8907 127.511 48.7304 135.579 44.1109 143.376C42.5169 146.065 40.8697 148.724 39.1673 151.345C38.0971 152.997 37.0025 154.635 35.8903 156.258C35.1538 157.334 34.3857 158.453 34.1902 159.742C33.9971 161.03 34.5697 162.537 35.8062 162.968C36.5834 163.236 37.4398 163.042 38.217 162.78C40.6103 161.97 42.7478 160.551 44.7256 158.989C45.5716 158.323 46.3927 157.628 47.1986 156.916C48.8371 155.467 50.4087 153.939 51.9758 152.417C54.5378 149.929 57.0997 147.44 59.6611 144.951C63.0165 141.692 66.3916 138.402 69.2907 134.751C68.8317 133.049 68.2741 131.237 67.7457 129.375Z" fill="#B8584B"/>
<path d="M91.6802 121.036C90.3686 116.281 87.7973 111.708 83.7561 109.079C79.7149 106.449 74.0629 106.184 70.3381 109.273C64.1501 114.404 65.7243 122.251 67.7458 129.375C68.2742 131.237 68.8318 133.049 69.2907 134.751C69.4255 135.25 69.5528 135.742 69.667 136.221C71.8418 145.345 73.4655 154.608 74.5208 163.942C74.7764 166.191 74.9983 168.442 75.1861 170.696C75.2875 171.914 75.3993 173.197 76.056 174.214C77.4914 176.439 80.9352 176.254 82.9092 174.531C84.8856 172.807 85.7489 170.109 86.4857 167.543C86.7417 166.65 86.9929 165.757 87.2381 164.861C89.1825 157.781 90.8061 150.602 91.9255 143.332C92.1747 141.708 92.3964 140.07 92.573 138.427C93.2018 132.58 93.2313 126.659 91.6802 121.036Z" fill="#D9715A"/>
<path d="M139.142 145.051C137.849 143.28 136.291 141.712 134.882 140.034C129.396 138.296 123.852 136.973 118.037 137.166C118.864 138.88 119.742 140.543 120.367 142.101C122.757 148.051 124.351 154.321 125.088 160.691C125.181 161.494 125.261 162.296 125.327 163.1C125.527 165.562 125.81 168.419 127.887 169.76C129.591 170.86 131.967 170.405 133.551 169.137C135.134 167.867 136.059 165.952 136.714 164.032C136.969 163.284 137.19 162.526 137.385 161.76C137.918 159.686 138.263 157.56 138.578 155.44C139.059 152.204 139.47 148.909 139.542 145.635C139.409 145.44 139.281 145.242 139.142 145.051Z" fill="#B8584B"/>
<path d="M165.21 133.852C165.131 133.343 165.045 132.835 164.942 132.33C163.697 126.191 160.512 120.265 155.361 116.704C150.209 113.144 142.967 112.365 137.64 115.656C130.181 120.263 128.53 130.611 133.149 137.734C133.672 138.542 134.264 139.297 134.882 140.034C136.291 141.712 137.849 143.28 139.142 145.051C139.281 145.242 139.409 145.44 139.542 145.635C143.272 151.11 144.348 157.995 144.81 164.629C144.842 165.089 144.872 165.553 144.907 166.016C145.034 167.712 145.222 169.405 145.79 171.001C146.512 173.033 147.971 174.924 150.019 175.593C152.493 176.403 155.276 175.23 157.056 173.33C158.689 171.586 159.636 169.333 160.424 167.065C160.494 166.865 160.563 166.662 160.631 166.462C162.33 161.418 163.65 156.244 164.573 151C165.567 145.341 166.091 139.516 165.21 133.852Z" fill="#D9715A"/>
<path d="M78.866 6.60814C78.4502 6.30598 77.899 6.27458 77.3861 6.30597C74.4472 6.49041 71.8899 8.32691 69.6732 10.2625C68.8668 10.9659 68.081 11.6938 67.3168 12.4433C67.0172 12.7376 66.7193 13.0349 66.4283 13.3371C64.6755 15.1314 63.0456 17.0444 61.5486 19.0545C61.3188 19.3606 61.0945 19.6696 60.8729 19.9796C59.8658 21.3874 58.9241 22.8423 58.0523 24.3354C57.8689 24.6474 57.6915 24.9603 57.5161 25.2743C56.7111 26.7115 55.9733 28.185 55.2992 29.687C55.1403 30.0401 54.9817 30.3943 54.8303 30.7514C53.8486 33.0676 53.0127 35.6399 53.7009 38.0591C54.8495 42.0911 59.4332 43.65 63.1957 42.6474C65.8194 41.9469 66.9376 40.4636 67.718 38.2632C67.8714 37.8305 68.013 37.3734 68.149 36.8848C68.5772 35.3456 69.048 33.8387 69.5528 32.3544C69.6689 32.012 69.7874 31.6696 69.9055 31.3302C70.6425 29.2396 71.4402 27.1941 72.2786 25.1693C72.4158 24.8377 72.5553 24.5061 72.6944 24.1765C73.5921 22.0418 74.5312 19.9267 75.4815 17.8008C75.6316 17.4652 75.7811 17.1297 75.9313 16.7932C76.9617 14.4966 78.0004 12.1824 79.0117 9.81514C79.4678 8.7468 79.8057 7.288 78.866 6.60814Z" fill="#3E2E55"/>
<path d="M65.818 101.446C68.073 98.4484 69.9878 95.2002 71.5775 91.8058C72.6735 89.4641 73.6194 86.9732 74.2569 84.4343C72.789 83.8682 71.348 83.2306 69.9407 82.5242C67.0258 88.4045 62.5134 93.4765 57.0516 97.1092C55.4615 98.1668 53.7495 99.0007 51.9617 99.6521C51.9989 99.7257 52.0359 99.8002 52.073 99.8728C53.8172 103.319 55.5608 106.763 57.3049 110.208C57.8961 109.706 58.4219 109.233 58.8482 108.874C61.4537 106.682 63.7742 104.166 65.818 101.446Z" fill="#D9715A"/>
<path d="M48.5991 8.86057C49.0761 8.91551 49.5531 8.97044 50.0306 9.02734C50.0641 8.67711 50.0981 8.32591 50.1319 7.97568C47.2392 7.60681 44.2916 7.25854 41.4056 7.6382C41.1881 8.02277 40.9751 8.40831 40.77 8.7968C43.3309 8.32198 46.042 8.56724 48.5991 8.86057Z" fill="#63437B"/>
<path d="M47.4357 14.4899C48.1154 14.5634 48.7975 14.6311 49.4795 14.6821C49.513 14.3309 49.5469 13.9807 49.5808 13.6305C45.9239 13.3744 42.2521 12.6004 38.6272 13.2626C38.458 13.653 38.2975 14.0445 38.1416 14.4369C41.1288 13.7188 44.4269 14.1641 47.4357 14.4899Z" fill="#63437B"/>
<path d="M42.3238 19.4816C43.7596 19.5405 45.1954 19.6013 46.6331 19.6602C47.44 19.6945 48.2444 19.7279 49.0508 19.7622C49.0761 19.412 49.1014 19.0608 49.131 18.7105C46.9669 18.6203 44.8025 18.529 42.6387 18.4378C40.6896 18.3554 38.6607 18.1867 36.7058 18.4447C36.5872 18.8224 36.471 19.2001 36.3593 19.5807C36.9801 19.4708 37.6114 19.412 38.2323 19.3884C39.5961 19.3394 40.9621 19.4247 42.3238 19.4816Z" fill="#63437B"/>
<path d="M32.6014 32.9256C29.4052 30.7801 25.1618 31.1195 21.3405 32.5528C18.8651 33.4809 16.5679 34.8661 14.8492 36.3278C11.881 38.8511 9.32678 41.9972 7.20215 45.2533C5.94937 47.1751 4.85964 49.2098 3.81141 51.2474C3.3359 52.1715 2.42344 53.8942 0.960327 57.0698C6.02629 55.8367 8.8602 54.7203 12.9339 54.1287C16.2577 53.647 19.658 53.4194 22.8175 52.2794C23.4952 52.0352 24.1522 51.7438 24.7959 51.425C25.9928 44.4351 27.0644 37.6542 32.6014 32.9256Z" fill="#D9715A"/>
<path d="M65.3324 43.91C63.9744 45.7191 63.9463 48.2766 64.7745 50.3819C65.6029 52.4862 67.1692 54.2138 68.8258 55.7541C70.6887 57.4856 72.7354 59.0601 74.9896 60.2207C75.7249 60.5994 76.4819 60.9349 77.2624 61.2165C80.4218 62.3554 83.8221 62.584 87.1459 63.0657C91.2192 63.6563 94.0534 64.7727 99.1195 66.0059C97.6567 62.8303 96.7434 61.1076 96.2686 60.1834C95.2198 58.1458 94.1309 56.1112 92.8771 54.1903C90.7532 50.9333 88.1986 47.7881 85.23 45.2639C83.5119 43.8031 81.2148 42.4179 78.7395 41.4898C75.7398 40.3646 72.4796 39.9123 69.67 40.807C68.021 41.3319 66.5264 42.3188 65.3324 43.91Z" fill="#D9715A"/>
<path d="M75.4815 17.8008C75.6316 17.4653 75.7811 17.1297 75.9313 16.7932C73.4735 14.6693 70.4863 13.1595 67.3169 12.4434C67.0173 12.7377 66.7193 13.0349 66.4283 13.3371C69.1877 13.8629 71.8202 15.0117 74.0944 16.6706C74.5757 17.0238 75.0385 17.4015 75.4815 17.8008Z" fill="#63437B"/>
<path d="M72.2786 25.1694C72.4159 24.8378 72.5554 24.5063 72.6945 24.1766C69.5466 21.9301 66.0077 20.2476 62.2728 19.2391C62.0324 19.1734 61.7915 19.1125 61.5487 19.0546C61.3188 19.3607 61.0945 19.6698 60.8729 19.9798C64.4075 20.7989 67.79 22.2244 70.8472 24.1914C71.3328 24.5043 71.8121 24.829 72.2786 25.1694Z" fill="#63437B"/>
<path d="M69.5528 32.3545C69.669 32.0121 69.7875 31.6697 69.9055 31.3303C66.3246 29.0896 63.1662 26.1553 59.1459 24.6857C58.787 24.5553 58.4218 24.4366 58.0523 24.3355C57.8689 24.6475 57.6915 24.9604 57.5161 25.2744C61.2614 26.2122 64.4581 28.8679 67.5683 31.0428C68.2183 31.4971 68.8774 31.9385 69.5528 32.3545Z" fill="#63437B"/>
<path d="M45.0655 90.0323C45.0253 91.6167 43.8338 92.9891 42.3397 93.4414C40.6902 93.9417 38.8428 93.308 37.6068 92.17C36.7843 91.4116 36.2254 90.5169 35.8541 89.5477C35.8476 89.4545 35.8121 89.3691 35.757 89.2955C35.0805 87.3296 35.16 85.0751 35.5034 82.9875C38.9555 82.754 42.2695 80.8204 44.5947 77.5065C45.1793 76.6736 45.6897 75.6572 45.4336 74.6723C45.1721 73.6667 44.1593 73.0055 43.1374 72.8142C42.115 72.6239 41.0658 72.8034 40.0339 72.928C37.3315 73.2547 34.5831 73.1958 31.8974 72.7543C30.6457 72.5483 29.3977 72.2579 28.1291 72.257C27.3118 72.256 26.4605 72.3894 25.7933 72.8623C24.606 73.703 24.3331 75.4365 24.8159 76.8099C25.299 78.1824 26.3744 79.2576 27.4853 80.1974C29.6417 82.0222 32.0498 82.9208 34.4343 83.0032C34.0898 85.187 34.0389 87.4591 34.7346 89.5281C33.7345 91.1615 32.4108 93.0068 30.3105 93.047C29.3188 93.0657 28.4857 92.5771 28.0283 91.6942C27.506 90.6847 27.6397 89.5016 27.9527 88.4528C28.1468 87.7995 27.1283 87.5209 26.9347 88.1713C26.5485 89.4672 26.4653 90.8682 27.0612 92.115C27.61 93.2619 28.6869 93.9839 29.9468 94.0908C32.3255 94.2929 34.0027 92.5388 35.2295 90.7082C35.3739 90.9927 35.5296 91.2733 35.7102 91.546C37.3868 94.0781 40.8757 95.6389 43.6984 93.9898C45.1152 93.1628 46.0793 91.6834 46.1209 90.0323C46.138 89.3525 45.0827 89.3525 45.0655 90.0323Z" fill="#141222"/>
<path d="M51.0338 28.5031C50.4335 27.4181 49.6614 26.3959 48.7557 25.4335C48.682 25.355 48.611 25.2755 48.5355 25.198C46.692 23.3017 43.0169 20.2684 40.7011 23.2016C39.9712 24.1258 40.2642 25.7739 41.3871 26.129C39.5568 25.4786 37.6101 25.1568 35.6681 25.1853C35.4527 25.1882 35.2336 25.2 35.0139 25.2177C32.8791 25.3864 30.6256 26.2526 29.9348 28.2275C29.6629 29.0044 29.7231 29.9688 30.3321 30.5241C30.6413 30.8056 31.0495 30.9469 31.4453 31.0823C32.2637 31.3609 33.0818 31.6395 33.8999 31.9181C34.185 32.0152 34.4702 32.1124 34.7552 32.2095C32.7773 33.3926 31.2206 35.2664 30.4196 37.4286C30.0758 38.3557 29.8847 39.4485 30.4028 40.2912C31.1728 41.544 33.0192 41.5283 34.4039 41.0329C35.6189 40.5983 36.744 39.9135 37.6889 39.0345C36.2679 40.7553 35.5295 43.0244 35.6638 45.2523C35.6986 45.8272 35.8111 46.4423 36.224 46.8426C36.7913 47.3929 37.7066 47.339 38.4666 47.1241C42.1584 46.0803 44.4011 42.4142 46.0458 38.9482C45.4096 40.2893 47.0978 41.4361 48.2043 41.4361C50.695 41.4361 51.8416 37.8799 52.2244 35.9129C52.7614 33.1552 52.2495 30.6997 51.0338 28.5031Z" fill="#D9715A"/>
<path d="M28.943 79.6127C29.7317 80.1651 30.7225 80.6203 31.7024 80.6379C32.4451 80.6507 33.3332 80.2033 32.8443 79.3322C32.6669 79.0163 32.3676 78.7916 32.0742 78.5797C31.5212 78.1804 30.9668 77.6762 30.5772 77.1131C30.1337 76.4715 29.7355 75.7985 29.3862 75.1C28.8824 74.0925 27.6243 73.2399 26.6072 74.2112C25.7143 75.0637 26.136 76.6088 26.7999 77.4702C27.4188 78.2736 28.1128 79.03 28.943 79.6127Z" fill="#63437B"/>
<path d="M42.0241 156.672C42.6059 155.73 42.7013 154.506 42.2707 153.485C41.8376 152.466 40.8918 151.676 39.8063 151.429C39.5956 151.383 39.3824 151.354 39.1673 151.345C38.0971 152.997 37.0025 154.635 35.8903 156.258C35.1538 157.334 34.3857 158.453 34.1902 159.742C33.9971 161.03 34.5697 162.537 35.8062 162.968C36.5834 163.236 37.4398 163.042 38.217 162.78C40.6103 161.97 42.7478 160.551 44.7256 158.989C45.5716 158.323 46.3927 157.628 47.1986 156.916C46.0443 155.338 43.1874 154.791 42.0241 156.672Z" fill="#141222"/>
<path d="M84.5854 164.191C82.7719 164.342 81.1507 165.583 80.1752 167.175C79.5437 165.046 77.3393 163.55 75.2029 163.801C74.9706 163.828 74.7426 163.876 74.5208 163.942C74.7764 166.191 74.9982 168.442 75.1861 170.696C75.2874 171.914 75.3993 173.197 76.056 174.214C77.4913 176.439 80.9351 176.254 82.9092 174.531C84.8856 172.807 85.7489 170.109 86.4856 167.543C86.7417 166.65 86.9928 165.757 87.2381 164.861C86.5955 164.355 85.7302 164.095 84.5854 164.191Z" fill="#141222"/>
<path d="M77.2763 91.3977C76.8504 91.1936 76.2635 91.637 76.5722 92.102C77.4101 93.3607 78.5491 94.381 79.3727 95.6593C80.1236 96.8247 80.6699 98.154 81.5287 99.241C81.7219 99.4853 82.0927 99.2665 82.1033 99.0026C82.2109 96.2763 79.6996 92.5602 77.2763 91.3977Z" fill="#B8584B"/>
<path d="M77.8463 97.8336C77.8494 97.8081 77.8537 97.7757 77.859 97.7345C77.8485 97.3617 77.6424 97.0616 77.4135 96.781C76.9857 96.2571 76.3739 95.9285 75.7042 95.8392C75.0212 95.747 74.7005 96.7054 75.4098 96.9075C75.8333 97.0292 76.1946 97.295 76.4805 97.6286C76.8055 98.0092 77.0187 98.2113 77.151 98.6391C77.2777 99.0491 77.8211 98.9383 77.8637 98.5429C77.8804 98.385 77.8876 98.23 77.8756 98.071C77.8678 97.9916 77.8579 97.9121 77.8463 97.8336Z" fill="#B8584B"/>
<path d="M30.8364 99.963C30.9965 99.4607 30.1873 99.0987 29.9683 99.5971C28.8963 102.036 28.3738 104.991 29.4311 107.531C29.5654 107.853 30.0777 107.845 30.0792 107.442C30.0898 104.849 30.0366 102.478 30.8364 99.963Z" fill="#B8584B"/>
<path d="M35.3096 101.676C35.4539 101.27 34.8039 100.994 34.6103 101.382C33.5191 103.569 33.4717 106.217 35.1504 108.099C35.3277 108.298 35.6892 108.09 35.6025 107.836C34.9082 105.796 34.5706 103.763 35.3096 101.676Z" fill="#B8584B"/>
<path d="M68.951 71.262C69.007 71.6103 69.4897 71.4828 69.5212 71.1845C69.7812 68.6966 69.2029 66.3539 68.0835 64.1368C67.7709 63.5178 66.911 64.0613 67.1721 64.6695C68.0749 66.7758 68.5872 69.0086 68.951 71.262Z" fill="#B8584B"/>
<path d="M65.9025 77.9133C65.9302 78.2283 66.4335 78.3568 66.4985 77.9948C66.9693 75.3636 66.4804 72.6766 65.5765 70.1916C65.3935 69.6893 64.6087 69.8865 64.762 70.4163C65.4781 72.8885 65.6778 75.3666 65.9025 77.9133Z" fill="#B8584B"/>
<path d="M103.254 102.716C104.072 104.565 104.409 106.547 105.154 108.409C105.295 108.761 105.803 108.722 105.828 108.318C106.062 104.483 103.659 100.234 101.252 97.4202C100.914 97.0249 100.23 97.5458 100.526 97.9794C101.556 99.4804 102.517 101.048 103.254 102.716Z" fill="#B8584B"/>
<path d="M110.807 103.771C110.647 101.467 108.886 99.6543 106.873 98.7331C106.384 98.5094 106.018 99.1353 106.453 99.4512C108.086 100.635 109.088 102.287 110.156 103.947C110.331 104.219 110.833 104.137 110.807 103.771Z" fill="#B8584B"/>
<path d="M159.208 86.7554C160.431 84.5294 162.246 82.5202 164.361 81.1095C164.837 80.7917 164.412 80.0422 163.908 80.3345C161.409 81.7864 159.684 83.8329 158.689 86.5376C158.577 86.8407 159.055 87.034 159.208 86.7554Z" fill="#B8584B"/>
<path d="M165.661 86.009C163.438 86.0365 160.886 86.9999 159.851 89.1121C159.766 89.2857 159.951 89.529 160.141 89.4005C161.946 88.1781 163.539 87.0372 165.75 86.6703C166.129 86.6065 166.034 86.0041 165.661 86.009Z" fill="#B8584B"/>
<path d="M157.468 99.9661C157.066 98.4337 155.671 96.817 154.588 95.7065C153.222 94.3065 151.678 93.3226 149.832 92.6908C149.366 92.5309 149.111 93.2166 149.506 93.4619C151.202 94.5155 152.866 95.7447 154.162 97.2751C154.72 97.9334 155.655 98.94 155.87 99.8082C156.428 102.056 154.437 100.564 153.65 100.258C153.416 100.167 153.155 100.443 153.236 100.672C154.127 103.183 158.265 102.999 157.468 99.9661Z" fill="#B8584B"/>
<path d="M154.885 104.349C154.499 104.148 154.04 104.663 154.398 104.98C155.968 106.375 157.421 108.002 158.389 109.88C158.915 110.902 159.3 112 159.52 113.129C159.642 113.781 159.716 114.438 159.741 115.1C159.936 115.975 159.527 116.583 158.515 116.923C158.417 116.748 158.129 116.824 158.133 117.026C158.154 117.783 158.608 118.304 159.448 118.248C161.102 118.14 161.228 115.954 161.184 114.737C161.028 110.464 158.702 106.321 154.885 104.349Z" fill="#B8584B"/>
<path d="M99.8238 119.162C99.503 118.689 98.7534 119.11 99.0487 119.615C100.691 122.414 103.346 125.188 106.542 126.133C106.827 126.216 106.938 125.842 106.73 125.686C104.101 123.702 101.708 121.929 99.8238 119.162Z" fill="#B8584B"/>
<path d="M117.03 124.921C117.439 124.921 117.449 124.399 117.119 124.26C114.743 123.258 112.748 121.964 111.481 119.631C111.27 119.243 110.611 119.507 110.758 119.936C111.661 122.574 114.102 124.919 117.03 124.921Z" fill="#B8584B"/>
<path d="M134.31 90.0099C135.245 91.5756 136.213 93.1453 136.922 94.8307C137.335 95.8147 138.147 97.5374 137.707 98.5763C136.711 100.936 134.396 99.4327 133.223 98.7588C132.978 98.6175 132.743 98.9383 132.928 99.1414C134.571 100.95 137.819 102.363 139 99.2405C140.191 96.0904 137.161 91.5393 135.036 89.4497C134.665 89.0858 134.037 89.5528 134.31 90.0099Z" fill="#B8584B"/>
<path d="M124.024 96.8831C125.99 96.5387 127.531 94.4403 125.903 92.751C125.657 92.4949 125.207 92.8285 125.406 93.1345C126.568 94.9289 124.21 95.7107 122.998 95.6617C122.263 95.6313 121.505 95.4459 120.813 95.2035C119.429 94.7199 118.237 93.7948 116.997 93.0374C116.736 92.8785 116.475 93.1865 116.599 93.4347C117.852 95.9167 121.304 97.3598 124.024 96.8831Z" fill="#B8584B"/>
<path d="M152.08 167.253C151.834 167.452 151.566 167.682 151.253 167.667C151.02 167.659 150.817 167.517 150.625 167.387C149.253 166.455 147.629 165.817 145.97 165.872C145.615 165.885 145.256 165.932 144.907 166.016C145.034 167.712 145.222 169.405 145.79 171.001C146.512 173.033 147.971 174.924 150.019 175.593C152.494 176.403 155.276 175.23 157.056 173.33C158.689 171.586 159.636 169.333 160.424 167.065C158.192 165.265 154.352 165.408 152.08 167.253Z" fill="#141222"/>
<path d="M131.293 163.185C130.491 161.713 129.161 160.55 127.434 160.349C126.64 160.257 125.827 160.383 125.088 160.691C125.181 161.494 125.261 162.296 125.327 163.1C125.527 165.562 125.81 168.419 127.887 169.76C129.591 170.86 131.967 170.405 133.551 169.137C135.134 167.867 136.059 165.952 136.714 164.032C136.969 163.284 137.19 162.526 137.385 161.76C135.928 160.349 133.573 160.413 131.293 163.185Z" fill="#141222"/>
<path d="M54.7467 64.7914C54.7467 62.537 53.2292 60.7094 51.357 60.7094C49.4843 60.7094 47.9667 62.537 47.9667 64.7914C47.9667 67.0459 49.4843 68.8735 51.357 68.8735C53.2292 68.8735 54.7467 67.0459 54.7467 64.7914Z" fill="#141222"/>
<path d="M27.8447 62.8764C27.8447 65.1308 29.3627 66.9585 31.2349 66.9585C33.1071 66.9585 34.6247 65.1308 34.6247 62.8764C34.6247 60.622 33.1071 58.7953 31.2349 58.7953C29.3627 58.7953 27.8447 60.622 27.8447 62.8764Z" fill="#141222"/>
<path d="M49.1709 58.8985C50.2748 58.3933 51.4466 58.2599 52.6604 58.4826C53.9413 58.718 54.8614 59.4303 56.0051 59.9649C56.7618 60.3191 57.4606 59.6078 57.1155 58.8544C55.5626 55.4669 50.4277 55.4924 47.6154 56.9345C46.7302 57.3878 46.9171 58.5562 47.6154 59.0516L47.743 59.1418C48.2491 59.5019 48.8236 59.3057 49.1709 58.8985Z" fill="#141222"/>
<path d="M27.3729 55.5597C26.3754 56.4701 27.8715 57.9701 28.8565 57.043C29.9487 56.0158 31.4112 55.4831 32.9063 55.8167C34.0545 56.0727 34.8273 56.8978 35.8592 57.3736C36.3421 57.5953 36.8875 57.2304 36.7608 56.68C36.3712 54.9946 34.4302 54.045 32.8557 53.7781C30.8104 53.4308 28.8733 54.1892 27.3729 55.5597Z" fill="#141222"/>
<path d="M50.5525 76.0646C50.5525 77.6402 52.5252 78.9185 54.9585 78.9185C57.3919 78.9185 59.3644 77.6402 59.3644 76.0646C59.3644 74.4881 57.3919 73.2108 54.9585 73.2108C52.5252 73.2108 50.5525 74.4881 50.5525 76.0646Z" fill="#EF4E92"/>
<path d="M23.5841 73.2116C23.5841 71.6341 21.6124 70.3568 19.18 70.3568C18.8378 70.3568 18.5043 70.3813 18.1835 70.4304C17.9532 70.918 17.7318 71.4085 17.5248 71.9068C17.0541 73.0321 16.6592 74.1995 16.3467 75.3944C17.1129 75.8123 18.0989 76.0635 19.18 76.0635C21.6124 76.0635 23.5841 74.7862 23.5841 73.2116Z" fill="#EF4E92"/>
<path d="M88.4398 132.621C88.4781 132.972 89.0039 133.109 89.101 132.71C90.1468 128.406 88.1053 123.526 84.7609 120.742C84.2517 120.319 83.6007 120.962 84.0333 121.47C86.9074 124.851 87.9611 128.281 88.4398 132.621Z" fill="#F48B6F"/>
<path d="M82.8112 127.333C82.4359 126.874 81.7114 127.463 82.0029 127.956C84.3536 131.934 85.1053 135.765 84.8865 140.34C84.8718 140.65 85.3123 140.68 85.4055 140.409C86.9173 135.983 85.7253 130.896 82.8112 127.333Z" fill="#F48B6F"/>
<path d="M157.186 127.095C158.201 129.035 157.809 131.019 158.475 132.966C158.602 133.341 159.048 133.373 159.271 133.07C160.569 131.297 159.583 128.305 158.704 126.542C157.677 124.479 155.823 122.369 153.486 121.868C153.001 121.764 152.478 122.422 152.948 122.794C154.588 124.094 156.186 125.181 157.186 127.095Z" fill="#F48B6F"/>
<path d="M154.437 135.722C154.041 135.318 153.266 135.87 153.629 136.345C156.203 139.718 157.115 143.524 157.604 147.661C157.638 147.947 158.045 148.048 158.134 147.733C159.386 143.336 157.525 138.869 154.437 135.722Z" fill="#F48B6F"/>
<path d="M140.432 136.457C140.703 136.654 141.028 136.279 140.874 136.016C139.066 132.937 137.971 129.974 138.408 126.354C138.478 125.769 137.568 125.691 137.409 126.218C136.329 129.835 137.262 134.185 140.432 136.457Z" fill="#F48B6F"/>
<path d="M71.6754 126.771C71.8871 123.55 72.1027 120.814 73.8362 117.968C74.1173 117.506 73.4372 117.145 73.1298 117.555C71.2328 120.084 70.0106 123.735 71.1439 126.843C71.2485 127.13 71.6548 127.083 71.6754 126.771Z" fill="#F48B6F"/>
<path d="M38.8742 32.2174C39.8594 31.3561 41.1035 30.7714 42.361 30.4378C42.8161 30.3172 42.7201 29.6246 42.2506 29.6216C39.5009 29.603 36.1823 31.7102 36.1049 34.7112C36.0987 34.9496 36.4481 35.1281 36.612 34.9211C37.3418 33.999 37.9824 32.9973 38.8742 32.2174Z" fill="#F48B6F"/>
<path d="M40.4482 37.9745C40.5223 38.1865 40.8211 38.2522 40.9424 38.0393C41.4223 37.1986 41.6541 36.2558 42.2373 35.4631C42.8844 34.5841 43.8537 33.8395 44.8613 33.4245C45.3039 33.242 45.138 32.6456 44.6648 32.7123C42.4954 33.0174 39.5754 35.4906 40.4482 37.9745Z" fill="#F48B6F"/>
</svg>
