<svg width="185" height="208" viewBox="0 0 185 208" fill="none" xmlns="http://www.w3.org/2000/svg">
<path d="M37.2839 159.828C38.2478 168.101 42.6247 175.644 50.1204 179.682C59.4533 184.71 71.1529 182.889 81.3019 182.526C85.0139 182.392 85.0315 176.618 81.3019 176.752C66.6788 177.276 45.3641 179.536 43.0703 159.828C42.6457 156.181 36.8538 156.138 37.2839 159.828Z" fill="#582C2D"/>
<path d="M136.691 54.2973C143.923 55.2184 152.393 55.5299 157.536 49.3968C162.517 43.4563 161.161 34.9549 159.669 28.0041C158.889 24.3725 153.311 25.9099 154.09 29.5404C155.205 34.7359 156.803 41.9739 152.604 46.2603C148.682 50.264 141.674 49.158 136.691 48.523C133.008 48.0531 133.043 53.8318 136.691 54.2973Z" fill="#582C2D"/>
<path d="M94.9147 203.704C95.2147 202.818 95.3845 201.875 95.3845 200.892V91.5521C95.3845 86.6868 91.3957 82.7052 86.5203 82.7052H85.8674C80.992 82.7052 77.0032 86.6868 77.0032 91.5521V200.892C77.0032 201.875 77.1719 202.818 77.473 203.704L82.6002 203.704L85.8807 203.704L89.7079 203.704L94.9147 203.704Z" fill="#582C2D"/>
<path d="M83.8107 207.619L83.0056 207.299C84.2815 204.536 84.565 169.075 84.5175 138.705C84.7701 139.437 85.0634 140.153 85.3921 140.846C85.3954 144.691 85.3954 148.749 85.3866 152.884C85.5751 152.965 85.8486 153.05 86.1772 153.05C86.4452 153.05 86.7496 152.994 87.0716 152.833C88.0542 152.341 89.2485 150.933 90.1639 147.319C90.3954 147.531 90.6303 147.738 90.8707 147.94C89.9301 151.374 88.6894 152.959 87.4686 153.558C87.0054 153.786 86.5676 153.867 86.1795 153.867C85.8806 153.867 85.6148 153.817 85.3843 153.751C85.3259 178.19 84.9895 205.067 83.8107 207.619Z" fill="#957778"/>
<path d="M104.423 19.1384C102.098 19.1384 99.8682 19.5291 97.7762 20.2246C96.4143 9.93713 87.6129 1.99261 76.9334 1.99261C65.5813 1.99261 56.3531 10.9683 55.9263 22.1923C53.638 21.3416 51.17 20.8519 48.5839 20.8519C36.9594 20.8519 27.5371 30.2557 27.5371 41.8561C27.5371 53.4565 36.9594 62.8592 48.5839 62.8592C51.9827 62.8592 55.1819 62.0371 58.0227 60.6097C59.9658 70.2072 68.4618 77.4331 78.6505 77.4331C88.8822 77.4331 97.4002 70.1467 99.297 60.492C100.941 60.9036 102.652 61.1446 104.423 61.1446C116.047 61.1446 125.471 51.7419 125.471 40.1426C125.471 28.5411 116.047 19.1384 104.423 19.1384Z" fill="#1D341A"/>
<path d="M70.9112 60.3601C65.1215 60.3601 60.2946 56.253 59.1907 50.8C57.5762 51.6111 55.7577 52.0788 53.8267 52.0788C47.2221 52.0788 41.8691 46.7359 41.8691 40.145C41.8691 33.5541 47.2221 28.2111 53.8267 28.2111C55.2979 28.2111 56.6984 28.4896 57.9997 28.9727C58.2412 22.5953 63.4839 17.4945 69.9352 17.4945C76.0028 17.4945 81.0029 22.0098 81.777 27.8546C82.9658 27.4595 84.233 27.2372 85.5541 27.2372C92.1587 27.2372 97.5128 32.579 97.5128 39.171C97.5128 45.7619 92.1587 51.1038 85.5541 51.1038C84.5473 51.1038 83.5757 50.9662 82.6416 50.734C81.5642 56.2189 76.724 60.3601 70.9112 60.3601ZM77.6283 38.8618C70.1392 41.7726 70.6785 49.2626 70.6785 49.2626C80.0346 45.1369 77.6283 38.8618 77.6283 38.8618ZM62.0282 33.3186C59.5877 40.6941 65.9553 45.0796 65.9553 45.0796C68.6108 35.5515 62.0282 33.3186 62.0282 33.3186ZM68.8854 25.4709C63.8379 31.5137 68.13 37.7965 68.13 37.7965C74.1876 29.8212 68.8854 25.4709 68.8854 25.4709Z" fill="#2C5A28"/>
<path d="M158.546 53.4299C156.22 53.4299 153.99 53.8206 151.898 54.515C150.536 44.2286 141.735 36.2841 131.055 36.2841C119.702 36.2841 110.475 45.2598 110.048 56.4838C107.759 55.632 105.292 55.1434 102.706 55.1434C91.0813 55.1434 81.658 64.5472 81.658 76.1476C81.658 87.7469 91.0813 97.1507 102.706 97.1507C106.104 97.1507 109.303 96.3286 112.145 94.9013C114.087 104.499 122.583 111.725 132.772 111.725C143.004 111.725 151.522 104.438 153.419 94.7835C155.062 95.194 156.774 95.4372 158.546 95.4372C170.169 95.4372 179.593 86.0334 179.593 74.433C179.593 62.8337 170.169 53.4299 158.546 53.4299Z" fill="#1D341A"/>
<path d="M124.367 95.4124C124.072 95.3749 123.78 95.3265 123.493 95.2682C121.959 85.1744 113.248 77.4335 102.706 77.4335C100.799 77.4335 98.9521 77.6866 97.1965 78.162C96.9693 77.2431 96.8491 76.2823 96.8491 75.2941C96.8491 68.7032 102.204 63.3602 108.808 63.3602C110.278 63.3602 111.679 63.6376 112.98 64.1218C113.222 57.7444 118.466 52.6447 124.915 52.6447C130.984 52.6447 135.985 57.1578 136.759 63.0037C137.947 62.6086 139.214 62.3852 140.536 62.3852C147.14 62.3852 152.494 67.7292 152.494 74.3201C152.494 80.91 147.14 86.254 140.536 86.254C139.528 86.254 138.557 86.1164 137.623 85.882C136.849 89.8207 134.137 93.065 130.517 94.5826C130.41 94.5804 130.303 94.5793 130.195 94.5793C128.172 94.5793 126.219 94.8764 124.367 95.4124ZM141.2 75.7255C133.711 78.6363 134.249 86.1263 134.249 86.1263C143.606 82.0006 141.2 75.7255 141.2 75.7255ZM125.6 70.1823C123.161 77.5578 129.526 81.9422 129.526 81.9422C132.182 72.4152 125.6 70.1823 125.6 70.1823ZM132.457 62.3346C127.409 68.3774 131.702 74.6602 131.702 74.6602C137.759 66.6838 132.457 62.3346 132.457 62.3346Z" fill="#2C5A28"/>
<path d="M130.195 94.5792C127.871 94.5792 125.641 94.971 123.549 95.6665C122.187 85.379 113.385 77.4334 102.706 77.4334C91.3527 77.4334 82.1256 86.4102 81.6988 97.6353C79.4094 96.7824 76.9424 96.2949 74.3564 96.2949C62.7319 96.2949 53.3085 105.698 53.3085 117.298C53.3085 128.898 62.7319 138.302 74.3564 138.302C77.7552 138.302 80.9533 137.479 83.7952 136.052C85.7383 145.649 94.2331 152.875 104.423 152.875C114.655 152.875 123.173 145.588 125.069 135.933C126.713 136.344 128.424 136.586 130.195 136.586C141.821 136.586 151.242 127.183 151.242 115.583C151.242 103.983 141.821 94.5792 130.195 94.5792Z" fill="#1D341A"/>
<path d="M97.5427 136.659C91.753 136.659 86.925 132.552 85.8222 127.099C84.2066 127.91 82.3892 128.378 80.4582 128.378C75.9544 128.378 72.0317 125.893 69.9927 122.222C71.262 120.143 72.1806 117.828 72.6658 115.358C74.3101 115.769 76.0216 116.012 77.7927 116.012C89.4162 116.012 98.8395 106.609 98.8395 95.0085C98.8395 94.6717 98.8318 94.3372 98.8164 94.0048C103.834 94.96 107.734 99.0495 108.41 104.153C109.597 103.759 110.864 103.536 112.187 103.536C118.79 103.536 124.144 108.878 124.144 115.47C124.144 122.061 118.79 127.403 112.187 127.403C111.179 127.403 110.206 127.265 109.273 127.033C108.195 132.518 103.355 136.659 97.5427 136.659ZM101.46 121.747C99.0193 129.124 105.386 133.508 105.386 133.508C108.042 123.98 101.46 121.747 101.46 121.747ZM108.317 113.9C103.269 119.943 107.562 126.224 107.562 126.224C113.619 118.249 108.317 113.9 108.317 113.9Z" fill="#2C5A28"/>
<path d="M77.7926 74.004C75.4668 74.004 73.2359 74.3958 71.145 75.0902C69.7819 64.8049 60.9816 56.8593 50.3011 56.8593C38.9489 56.8593 29.7208 65.8339 29.2951 77.059C27.0057 76.2072 24.5388 75.7197 21.9527 75.7197C10.3282 75.7197 0.904785 85.1235 0.904785 96.7228C0.904785 108.323 10.3282 117.727 21.9527 117.727C25.3504 117.727 28.5507 116.903 31.3926 115.477C33.3335 125.073 41.8305 132.301 52.0204 132.301C62.251 132.301 70.7689 125.013 72.6657 115.358C74.31 115.769 76.0215 116.011 77.7926 116.011C89.4161 116.011 98.8394 106.609 98.8394 95.0082C98.8394 83.4078 89.4161 74.004 77.7926 74.004Z" fill="#1D341A"/>
<path d="M45.139 116.083C39.3493 116.083 34.5224 111.977 33.4185 106.524C31.804 107.335 29.9855 107.803 28.0545 107.803C21.4499 107.803 16.0969 102.459 16.0969 95.869C16.0969 89.2781 21.4499 83.9351 28.0545 83.9351C29.5245 83.9351 30.9262 84.2125 32.2275 84.6967C32.469 78.3193 37.7117 73.2185 44.163 73.2185C50.2306 73.2185 55.2318 77.7338 56.0048 83.5775C57.1936 83.1835 58.4607 82.9612 59.7819 82.9612C66.3865 82.9612 71.7417 88.3041 71.7417 94.8939C71.7417 101.486 66.3865 106.829 59.7819 106.829C58.7761 106.829 57.8035 106.69 56.8694 106.457C55.792 111.944 50.9518 116.083 45.139 116.083ZM48.3338 98.1437C40.8447 101.053 41.3829 108.543 41.3829 108.543C50.7412 104.418 48.3338 98.1437 48.3338 98.1437ZM32.7348 92.6005C30.2943 99.9761 36.6596 104.359 36.6596 104.359C39.3151 94.8323 32.7348 92.6005 32.7348 92.6005ZM39.5908 84.7528C34.5422 90.7946 38.8365 97.0773 38.8365 97.0773C44.8942 89.1009 39.5908 84.7528 39.5908 84.7528Z" fill="#2C5A28"/>
<path d="M45.3042 141.955C44.0878 141.955 42.9222 142.16 41.8293 142.523C41.1169 137.146 36.5161 132.993 30.9337 132.993C24.9996 132.993 20.176 137.684 19.9532 143.551C18.7567 143.106 17.4675 142.852 16.1144 142.852C10.038 142.852 5.11292 147.766 5.11292 153.831C5.11292 159.894 10.038 164.809 16.1144 164.809C17.8921 164.809 19.5639 164.379 21.0494 163.633C22.065 168.65 26.5049 172.428 31.8314 172.428C37.1799 172.428 41.633 168.619 42.6233 163.573C43.4835 163.787 44.3779 163.913 45.3042 163.913C51.3806 163.913 56.3057 158.998 56.3057 152.935C56.3057 146.87 51.3806 141.955 45.3042 141.955Z" fill="#1D341A"/>
<path d="M28.2343 163.95C25.2082 163.95 22.685 161.804 22.1082 158.954C21.2646 159.378 20.314 159.623 19.305 159.623C15.8521 159.623 13.0543 156.83 13.0543 153.384C13.0543 149.939 15.8521 147.147 19.305 147.147C20.0736 147.147 20.8059 147.292 21.4852 147.544C21.6131 144.211 24.3535 141.544 27.7248 141.544C30.8964 141.544 33.5111 143.905 33.9159 146.96C34.5356 146.754 35.1995 146.637 35.8899 146.637C39.3427 146.637 42.1405 149.43 42.1405 152.875C42.1405 156.32 39.3427 159.114 35.8899 159.114C35.3627 159.114 34.8543 159.042 34.3669 158.919C33.8034 161.787 31.2736 163.95 28.2343 163.95ZM32.4888 153.432C28.5838 154.95 28.8651 158.854 28.8651 158.854C33.7438 156.703 32.4888 153.432 32.4888 153.432ZM24.3547 150.541C23.0831 154.387 26.4014 156.673 26.4014 156.673C27.7865 151.704 24.3547 150.541 24.3547 150.541ZM27.9299 146.449C25.2975 149.599 27.5373 152.875 27.5373 152.875C30.6957 148.717 27.9299 146.449 27.9299 146.449Z" fill="#2C5A28"/>
<path d="M157.241 7.98918C156.291 7.98918 155.379 8.14874 154.523 8.43267C153.966 4.22656 150.369 0.977874 146.002 0.977874C141.36 0.977874 137.586 4.64805 137.412 9.23715C136.476 8.88939 135.468 8.6891 134.409 8.6891C129.656 8.6891 125.803 12.5353 125.803 17.2774C125.803 22.0206 129.656 25.8657 134.409 25.8657C135.8 25.8657 137.108 25.529 138.269 24.9457C139.064 28.869 142.538 31.825 146.703 31.825C150.887 31.825 154.37 28.8459 155.146 24.8973C155.818 25.0657 156.518 25.1647 157.241 25.1647C161.994 25.1647 165.848 21.3196 165.848 16.5764C165.848 11.8332 161.994 7.98918 157.241 7.98918Z" fill="#1D341A"/>
<path d="M143.89 25.1946C141.523 25.1946 139.549 23.5152 139.098 21.2856C138.438 21.6179 137.694 21.8083 136.905 21.8083C134.204 21.8083 132.015 19.6238 132.015 16.9287C132.015 14.2336 134.204 12.0491 136.905 12.0491C137.18 12.0491 137.452 12.0733 137.715 12.1184C137.261 15.3484 140.001 17.2357 140.001 17.2357C140.952 13.8264 139.634 12.2087 138.713 11.5285C138.964 10.3543 139.635 9.33524 140.565 8.63972C139.604 11.1973 141.136 13.439 141.136 13.439C143.18 10.7494 142.744 8.85102 142.182 7.84517C142.599 7.72961 143.037 7.66799 143.491 7.66799C145.972 7.66799 148.017 9.51243 148.333 11.9027C148.819 11.742 149.338 11.6507 149.877 11.6507C152.578 11.6507 154.768 13.8352 154.768 16.5303C154.768 19.2255 152.578 21.41 149.877 21.41C149.466 21.41 149.069 21.3538 148.686 21.2581C148.246 23.5009 146.268 25.1946 143.89 25.1946ZM146.089 13.9948C142.184 15.5124 142.464 19.418 142.464 19.418C147.343 17.2655 146.089 13.9948 146.089 13.9948Z" fill="#2C5A28"/>
<path d="M175.788 21.148C174.838 21.148 173.927 21.3076 173.071 21.5926C172.514 17.3865 168.916 14.1378 164.549 14.1378C159.907 14.1378 156.133 17.808 155.959 22.3971C155.023 22.0482 154.015 21.849 152.957 21.849C148.204 21.849 144.351 25.6942 144.351 30.4373C144.351 35.1805 148.204 39.0256 152.957 39.0256C154.347 39.0256 155.655 38.6889 156.816 38.1056C157.611 42.0289 161.085 44.9849 165.251 44.9849C169.435 44.9849 172.918 42.0047 173.693 38.0572C174.365 38.2245 175.065 38.3235 175.788 38.3235C180.542 38.3235 184.394 34.4795 184.394 29.7352C184.394 24.9932 180.542 21.148 175.788 21.148Z" fill="#1D341A"/>
<path d="M162.438 38.3545C162.092 38.3545 161.754 38.3182 161.428 38.2499C166.233 36.0974 164.989 32.8542 164.989 32.8542C161.322 34.2793 161.346 37.8108 161.363 38.2356C159.69 37.8615 158.341 36.63 157.802 35.0299C158.363 35.7243 158.902 36.0963 158.902 36.0963C160.286 31.1286 156.854 29.9643 156.854 29.9643C156.205 31.9298 156.753 33.487 157.444 34.5402C156.836 34.812 156.163 34.9671 155.452 34.9671C152.752 34.9671 150.562 32.7827 150.562 30.0886C150.562 27.3935 152.752 25.2079 155.452 25.2079C156.053 25.2079 156.626 25.3223 157.158 25.5193C157.257 22.9122 159.401 20.8268 162.039 20.8268C164.52 20.8268 166.565 22.6723 166.88 25.0626C167.367 24.9009 167.885 24.8106 168.425 24.8106C171.126 24.8106 173.315 26.9951 173.315 29.6891C173.315 32.3854 171.126 34.5699 168.425 34.5699C168.012 34.5699 167.615 34.5126 167.234 34.4169C166.793 36.6597 164.814 38.3545 162.438 38.3545ZM160.43 25.8726C157.797 29.0233 160.036 32.2995 160.036 32.2995C163.194 28.1396 160.43 25.8726 160.43 25.8726Z" fill="#2C5A28"/>
<path d="M161.312 81.9421C161.312 81.9421 154.945 77.5577 157.386 70.1822C157.386 70.1822 163.968 72.4151 161.312 81.9421Z" fill="#2D612B"/>
<path d="M163.488 74.6599C163.488 74.6599 159.194 68.3771 164.243 62.3343C164.243 62.3343 169.545 66.6835 163.488 74.6599Z" fill="#2D612B"/>
<path d="M166.036 86.1262C166.036 86.1262 165.497 78.6362 172.985 75.7254C172.985 75.7254 175.392 82.0004 166.036 86.1262Z" fill="#2D612B"/>
<path d="M108.908 46.7932C108.908 46.7932 102.542 42.4088 104.982 35.0333C104.982 35.0333 111.565 37.2662 108.908 46.7932Z" fill="#2D612B"/>
<path d="M111.084 39.51C111.084 39.51 106.791 33.2283 111.839 27.1855C111.839 27.1855 117.143 31.5347 111.084 39.51Z" fill="#2D612B"/>
<path d="M113.633 50.9771C113.633 50.9771 113.093 43.4881 120.582 40.5762C120.582 40.5762 122.989 46.8513 113.633 50.9771Z" fill="#2D612B"/>
<path d="M65.9553 45.0793C65.9553 45.0793 59.5877 40.6938 62.0282 33.3183C62.0282 33.3183 68.6108 35.5512 65.9553 45.0793Z" fill="#499C37"/>
<path d="M68.13 37.7964C68.13 37.7964 63.8379 31.5136 68.8854 25.4708C68.8854 25.4708 74.1877 29.821 68.13 37.7964Z" fill="#499C37"/>
<path d="M70.6786 49.2625C70.6786 49.2625 70.1393 41.7724 77.6284 38.8616C77.6284 38.8616 80.0347 45.1367 70.6786 49.2625Z" fill="#499C37"/>
<path d="M129.526 81.9421C129.526 81.9421 123.161 77.5577 125.6 70.1822C125.6 70.1822 132.182 72.4151 129.526 81.9421Z" fill="#499C37"/>
<path d="M131.702 74.6599C131.702 74.6599 127.409 68.3771 132.457 62.3343C132.457 62.3343 137.759 66.6835 131.702 74.6599Z" fill="#499C37"/>
<path d="M134.249 86.126C134.249 86.126 133.711 78.636 141.2 75.7251C141.2 75.7251 143.606 82.0002 134.249 86.126Z" fill="#499C37"/>
<path d="M81.3316 94.9299C81.3316 94.9299 74.9651 90.5444 77.4056 83.1689C77.4056 83.1689 83.9871 85.4018 81.3316 94.9299Z" fill="#2D612B"/>
<path d="M83.5086 87.6458C83.5086 87.6458 79.2143 81.3641 84.2629 75.3212C84.2629 75.3212 89.5662 79.6704 83.5086 87.6458Z" fill="#2D612B"/>
<path d="M86.0549 99.1121C86.0549 99.1121 85.5167 91.6242 93.0058 88.7123C93.0058 88.7123 95.4132 94.9863 86.0549 99.1121Z" fill="#2D612B"/>
<path d="M36.6595 104.359C36.6595 104.359 30.2942 99.9758 32.7347 92.6003C32.7347 92.6003 39.315 94.8321 36.6595 104.359Z" fill="#499C37"/>
<path d="M38.8366 97.0774C38.8366 97.0774 34.5423 90.7946 39.5909 84.7529C39.5909 84.7529 44.8942 89.101 38.8366 97.0774Z" fill="#499C37"/>
<path d="M41.3828 108.543C41.3828 108.543 40.8446 101.053 48.3337 98.1432C48.3337 98.1432 50.7411 104.417 41.3828 108.543Z" fill="#499C37"/>
<path d="M105.386 133.507C105.386 133.507 99.0195 129.124 101.46 121.747C101.46 121.747 108.042 123.98 105.386 133.507Z" fill="#499C37"/>
<path d="M107.562 126.224C107.562 126.224 103.27 119.942 108.317 113.9C108.317 113.9 113.619 118.249 107.562 126.224Z" fill="#499C37"/>
<path d="M110.11 137.691C110.11 137.691 109.571 130.201 117.06 127.29C117.06 127.29 119.466 133.565 110.11 137.691Z" fill="#2D612B"/>
<path d="M157.802 35.0295C157.683 34.881 157.561 34.717 157.444 34.5398C157.513 34.5101 157.579 34.4782 157.645 34.4452C157.686 34.6444 157.738 34.8392 157.802 35.0295Z" fill="#2D612B"/>
<path d="M158.902 36.0959C158.902 36.0959 158.363 35.724 157.802 35.0296C157.738 34.8392 157.686 34.6444 157.645 34.4452C157.579 34.4782 157.513 34.5101 157.444 34.5398C156.753 33.4867 156.205 31.9295 156.854 29.964C156.854 29.964 160.286 31.1283 158.902 36.0959Z" fill="#499C37"/>
<path d="M160.036 32.2993C160.036 32.2993 157.797 29.0231 160.43 25.8724C160.43 25.8724 163.194 28.1394 160.036 32.2993Z" fill="#499C37"/>
<path d="M161.365 38.2771C161.365 38.2771 161.364 38.2627 161.363 38.2349C161.385 38.2393 161.406 38.2449 161.428 38.2493C161.407 38.2582 161.386 38.2682 161.365 38.2771Z" fill="#2D612B"/>
<path d="M161.428 38.2498C161.406 38.2454 161.385 38.2399 161.363 38.2354C161.346 37.8107 161.322 34.2791 164.989 32.854C164.989 32.854 166.233 36.0972 161.428 38.2498Z" fill="#499C37"/>
<path d="M138.61 12.3606C138.324 12.2538 138.024 12.1713 137.715 12.1185C137.761 11.7938 137.839 11.4549 137.956 11.1038C137.956 11.1038 138.293 11.2183 138.713 11.5286C138.656 11.7982 138.621 12.0767 138.61 12.3606Z" fill="#2D612B"/>
<path d="M140.001 17.2356C140.001 17.2356 137.261 15.3482 137.715 12.1183C138.024 12.1711 138.324 12.2536 138.61 12.3604C138.621 12.0765 138.656 11.798 138.713 11.5284C139.634 12.2085 140.952 13.8262 140.001 17.2356Z" fill="#499C37"/>
<path d="M140.565 8.63965C140.766 8.1048 141.074 7.55676 141.53 7.01202C141.53 7.01202 141.875 7.29484 142.182 7.84509C141.59 8.00906 141.043 8.28088 140.565 8.63965Z" fill="#2D612B"/>
<path d="M141.136 13.439C141.136 13.439 139.604 11.1972 140.565 8.63968C141.044 8.28091 141.591 8.00909 142.182 7.84512C142.744 8.85098 143.18 10.7493 141.136 13.439Z" fill="#499C37"/>
<path d="M142.464 19.418C142.464 19.418 142.184 15.5123 146.089 13.9947C146.089 13.9947 147.343 17.2654 142.464 19.418Z" fill="#499C37"/>
<path d="M26.4013 156.673C26.4013 156.673 23.083 154.387 24.3546 150.541C24.3546 150.541 27.7864 151.704 26.4013 156.673Z" fill="#499C37"/>
<path d="M27.5371 152.875C27.5371 152.875 25.2974 149.599 27.9297 146.449C27.9297 146.449 30.6955 148.717 27.5371 152.875Z" fill="#499C37"/>
<path d="M28.8652 158.854C28.8652 158.854 28.5839 154.95 32.4889 153.432C32.4889 153.432 33.7439 156.703 28.8652 158.854Z" fill="#499C37"/>
</svg>
