<svg width="173" height="222" viewBox="0 0 173 222" fill="none" xmlns="http://www.w3.org/2000/svg">
<path d="M88.6444 87.4639C87.1612 87.4639 85.6922 87.4562 84.2322 87.4419C83.6852 85.2343 83.2573 82.9936 82.9805 80.7464C82.1854 76.0219 81.9416 71.1742 82.2725 66.2495C82.3563 65.0015 82.0001 64.0331 81.3936 63.342C84.037 63.2914 86.7255 63.266 89.4472 63.266C90.9603 63.266 92.459 63.2737 93.9488 63.2892C93.9621 63.4245 93.9808 63.561 94.0062 63.6996C95.098 69.7238 95.3759 75.8514 94.8686 81.9041C94.9193 83.7486 94.916 85.5875 94.819 87.4199C92.7832 87.4496 90.7254 87.4639 88.6444 87.4639ZM75.6337 87.2647C74.4901 87.2295 73.3586 87.1888 72.2349 87.1447C73.964 81.5311 73.245 75.2098 71.5302 69.6005C70.8828 67.4798 69.1989 66.5609 67.5083 66.5609C64.9421 66.5609 62.3571 68.6783 63.3485 71.9215C64.7359 76.4611 65.7394 81.749 63.4875 86.1961C63.4048 86.359 63.3177 86.5207 63.2262 86.6781C60.3181 86.491 57.496 86.2731 54.7776 86.0266C54.4413 82.4929 54.4369 78.9218 54.6431 75.4519C54.8096 72.6489 52.775 71.2513 50.6554 71.2513C48.5325 71.2513 46.3247 72.6533 46.1582 75.4519C46.0579 77.1522 46.0104 78.8744 46.0226 80.6044L45.9355 80.6551C45.0389 81.2295 44.0486 81.4992 43.0638 81.4992C41.3147 81.4992 39.58 80.6518 38.3967 79.1518C35.8813 75.968 36.6709 71.4472 38.0174 67.974C38.1641 67.5965 38.2567 67.2333 38.3019 66.8889C48.151 65.2095 60.7801 64.0111 74.8937 63.517C74.2816 64.1938 73.8637 65.105 73.7865 66.2495C73.309 73.3697 73.9497 80.4515 75.6337 87.2647ZM102.704 87.2306C103.827 79.4236 103.78 71.4571 102.54 63.4685C106.96 63.6072 111.238 63.8141 115.34 64.0826C115.452 69.8217 115.572 75.5608 115.674 81.3C115.704 83.0343 115.75 84.8007 115.73 86.567C111.565 86.8553 107.21 87.0787 102.704 87.2306ZM124.204 85.8681C124.204 85.8373 124.205 85.8065 124.205 85.7768C124.272 78.7754 124.005 71.7553 123.843 64.7517C127.297 65.072 130.581 65.4384 133.673 65.8467C134.496 71.0697 135.009 77.0289 132.518 81.8524C131.832 83.1818 130.906 84.3517 129.817 85.2651C128.004 85.4808 126.131 85.6811 124.204 85.8681ZM141.043 83.6253C142.992 78.497 142.994 72.7381 142.36 67.1981C151.477 68.8621 157.97 70.9574 160.706 73.2861C161.128 73.8308 161.345 74.3866 161.345 74.9512C161.345 78.3187 153.614 81.3759 141.043 83.6253ZM30.3717 82.4346C21.3079 80.348 15.9428 77.7574 15.9428 74.9512C15.9428 74.8301 15.9527 74.7091 15.9725 74.588C16.0145 74.6276 16.0564 74.6661 16.0983 74.7058L17.0246 74.7212C18.0723 72.5675 22.2861 70.5701 28.8631 68.8643C27.8507 73.4094 28.2047 78.3836 30.3717 82.4346Z" fill="#A78F8F"/>
<path d="M141.79 63.1267C140.896 57.5966 132.719 59.9429 133.609 65.4476C134.469 70.7652 135.072 76.906 132.518 81.8528C130.816 85.1488 127.647 87.461 124.173 87.33C124.187 86.8117 124.2 86.2944 124.205 85.7772C124.279 77.9944 123.943 70.1897 123.793 62.408C123.684 56.7977 115.199 56.779 115.308 62.408C115.429 68.7062 115.563 75.0022 115.674 81.3003C115.764 86.5145 116.004 92.0148 114.128 96.9638C111.192 104.714 103.7 109.319 95.9019 109.543C96.1545 109.243 96.3828 108.887 96.5713 108.457C103.17 93.5533 105.108 77.486 102.188 61.3791C101.189 55.8633 93.0104 58.1997 94.0063 63.7C95.098 69.7242 95.3759 75.8518 94.8686 81.9045C95.0252 87.6139 94.6613 93.2727 92.6421 98.8192C92.5263 99.1329 92.3642 99.3893 92.169 99.5929C91.5922 101.081 89.4429 101.804 88.629 99.9935C85.9845 94.1025 83.8054 87.4554 82.9805 80.7468C82.1854 76.0223 81.9417 71.1746 82.2725 66.2499C82.6475 60.6428 74.1615 60.667 73.7865 66.2499C72.9528 78.6712 75.5223 90.9738 81.0992 101.939V114.997C73.8461 115.551 66.3504 111.485 61.8698 105.74C60.3689 103.818 59.158 101.737 58.1699 99.5544C62.6516 99.0162 66.8037 96.4333 69.5827 92.5442C74.3357 85.8894 73.8251 77.1085 71.5302 69.6009C69.8992 64.2602 61.7043 66.5415 63.3486 71.9219C64.7359 76.4614 65.7395 81.7493 63.4876 86.1965C61.9194 89.2955 58.7819 91.3512 55.4592 90.8373C54.4899 85.7827 54.3421 80.5091 54.6432 75.4523C54.9762 69.8408 46.4902 69.8617 46.1583 75.4523C46.0579 77.1526 46.0105 78.8748 46.0226 80.6048L45.9355 80.6555C43.4498 82.2479 40.2473 81.4973 38.3968 79.1522C35.8813 75.9684 36.6709 71.4476 38.0174 67.9744C40.0411 62.7558 31.8374 60.4899 29.8358 65.6534C27.2597 72.296 27.7527 80.7908 33.0086 85.9797C36.65 89.5728 41.9489 91.0497 46.7097 89.7434C48.0055 98.7169 51.2796 107.344 57.5799 113.874C63.9033 120.429 72.4896 124.015 81.0992 123.539V212.54C81.0992 216.562 84.2984 219.854 88.2055 219.854C92.1149 219.854 95.3142 216.562 95.3142 212.54V165.713C98.6534 162.258 101.994 158.802 105.334 155.347C109.19 151.358 103.191 145.183 99.3339 149.174C97.994 150.56 96.6541 151.947 95.3142 153.333V118.311C105.422 118.514 115.399 112.727 120.405 103.625C121.722 101.229 122.603 98.685 123.183 96.0603C129.156 96.572 134.971 93.3233 138.568 88.2753C143.748 81.0098 143.152 71.5411 141.79 63.1267Z" fill="#582C2D"/>
<path d="M158.734 43.2668C152.89 37.1734 142.382 35.7427 136.191 41.4609C134.113 30.3106 131.496 18.3779 123.305 10.7712C113.008 1.20786 95.5148 2.17298 85.4949 12.0423C84.4439 13.0779 83.5021 14.2059 82.6276 15.3845C81.0859 14.7627 79.4152 14.4095 77.6595 14.4095C74.8165 14.4095 72.1775 15.3075 69.9929 16.8383C68.4743 14.1861 66.6503 11.7485 64.3885 9.64762C54.0906 0.0853576 36.5992 1.0505 26.5781 10.9198C16.5582 20.7891 14.5544 37.7709 20.9914 50.4135C17.4426 49.3878 13.3578 48.9762 10.3108 51.1112C6.53487 53.7557 5.86106 59.4761 7.55385 63.8429C9.24553 68.2086 12.7248 71.5354 16.0983 74.706L17.0246 74.7214C20.1466 68.3065 51.3678 63.2663 89.4473 63.2663C129.6 63.2663 162.149 68.8689 162.149 75.779C162.149 76.283 161.956 76.7793 161.62 77.2679L162.216 77.2778L164.527 67.2039C166.163 58.8114 164.576 49.3603 158.734 43.2668Z" fill="#D8B638"/>
<path d="M22.21 32.5662C22.21 32.5662 13.0039 24.0406 13.9236 14.5675C14.8444 5.09546 23.4275 14.7182 22.21 32.5662Z" fill="#D8B638"/>
<path d="M21.5229 22.8811C21.5229 22.8811 17.1349 10.9627 22.1725 2.97631C27.2078 -5.01003 30.5515 7.59183 21.5229 22.8811Z" fill="#D8B638"/>
<path d="M137.52 45.6152C137.52 45.6152 133.135 33.6968 138.171 25.7115C143.208 17.7252 146.551 30.326 137.52 45.6152Z" fill="#D8B638"/>
<path d="M138.277 43.2939C138.277 43.2939 140.558 30.7669 148.897 26.6433C157.236 22.5209 153.72 35.071 138.277 43.2939Z" fill="#D8B638"/>
<path d="M161.554 72.0691C161.554 72.0691 161.158 59.3319 168.436 53.4563C175.716 47.5796 174.912 60.6151 161.554 72.0691Z" fill="#D8B638"/>
<path d="M99.9832 155.704C99.9832 155.704 99.5873 142.966 106.866 137.09C114.145 131.215 113.34 144.25 99.9832 155.704Z" fill="#D8B638"/>
<path d="M99.896 155.493C99.896 155.493 107.798 145.678 117.033 146.236C126.27 146.794 117.277 156.013 99.896 155.493Z" fill="#D8B638"/>
<path d="M10.2832 66.8086C10.2832 66.8086 0.397793 59.1315 0.522409 49.6122C0.644819 40.0928 10.002 48.9199 10.2832 66.8086Z" fill="#D8B638"/>
<path d="M111.267 214.513C109.901 207.455 106.219 200.528 106.219 200.528C105.787 202.175 105.49 203.753 105.3 205.263C104.104 200.75 102.645 197.523 102.645 197.523C100.031 200.736 98.223 203.827 96.9956 206.745C96.9195 205.137 96.7773 203.553 96.5942 202.042C96.614 201.381 96.613 200.997 96.613 200.997L96.4806 201.147C95.7131 195.37 94.4526 190.902 94.4526 190.902C90.6546 198.375 89.5363 205.19 89.5551 210.693C88.3564 208.303 86.926 206 85.4913 203.927C84.587 201.853 83.8845 200.528 83.8845 200.528C83.8051 200.828 83.7423 201.119 83.6717 201.413C80.7945 197.599 78.3298 195.037 78.3298 195.037C78.3562 196.677 78.461 198.242 78.6286 199.739C76.895 202.162 75.6014 204.505 74.6597 206.745C74.2682 198.533 72.1166 190.902 72.1166 190.902C68.3186 198.375 67.2004 205.19 67.2191 210.693C63.0351 202.354 55.9949 195.037 55.9949 195.037C56.1956 207.933 61.1824 216.414 65.0433 221.074H68.6902H70.2441H72.3967C72.5004 220.878 72.5941 220.67 72.6912 220.466C72.7198 220.669 72.743 220.876 72.775 221.074H83.9584C84.0885 220.494 84.1889 219.904 84.2683 219.31C84.4811 219.94 84.7039 220.529 84.9288 221.074H87.3793H87.8954H89.3378H91.0262H92.2922H92.58H94.7316C94.8364 220.878 94.9301 220.67 95.0271 220.466C95.0547 220.669 95.079 220.876 95.1109 221.074H106.294C106.424 220.494 106.525 219.904 106.604 219.31C106.817 219.94 107.04 220.529 107.265 221.074H110.231H111.674H114.628C118.985 213.904 118.949 200.997 118.949 200.997C114.613 205.675 112.383 210.454 111.267 214.513Z" fill="#D8B638"/>
<path d="M31.4292 54.9849C31.4292 54.9849 25.0639 50.6005 27.5044 43.2249C27.5044 43.2249 34.0848 45.4578 31.4292 54.9849Z" fill="#E9E35E"/>
<path d="M33.6062 47.7014C33.6062 47.7014 29.3119 41.4187 34.3605 35.3769C34.3605 35.3769 39.6638 39.7261 33.6062 47.7014Z" fill="#E9E35E"/>
<path d="M36.1525 59.1689C36.1525 59.1689 35.6143 51.6789 43.1034 48.7681C43.1034 48.7681 45.5108 55.0421 36.1525 59.1689Z" fill="#E9E35E"/>
<path d="M41.4316 28.5825C41.4316 28.5825 35.0651 24.1981 37.5056 16.8214C37.5056 16.8214 44.0882 19.0544 41.4316 28.5825Z" fill="#E9E35E"/>
<path d="M43.6074 21.2993C43.6074 21.2993 39.3153 15.0166 44.3628 8.9737C44.3628 8.9737 49.665 13.3229 43.6074 21.2993Z" fill="#E9E35E"/>
<path d="M46.156 32.7656C46.156 32.7656 45.6156 25.2756 53.1047 22.3648C53.1047 22.3648 55.5121 28.6398 46.156 32.7656Z" fill="#E9E35E"/>
<path d="M94.252 50.9041C94.252 50.9041 87.8845 46.5196 90.325 39.143C90.325 39.143 96.9076 41.3759 94.252 50.9041Z" fill="#E9E35E"/>
<path d="M96.4281 43.6211C96.4281 43.6211 92.1349 37.3383 97.1824 31.2966C97.1824 31.2966 102.486 35.6458 96.4281 43.6211Z" fill="#E9E35E"/>
<path d="M98.9756 55.0872C98.9756 55.0872 98.4363 47.5982 105.925 44.6874C105.925 44.6874 108.332 50.9614 98.9756 55.0872Z" fill="#E9E35E"/>
<path d="M111.229 30.5227C111.229 30.5227 104.863 26.1383 107.304 18.7628C107.304 18.7628 113.886 20.9957 111.229 30.5227Z" fill="#E9E35E"/>
<path d="M113.406 23.2397C113.406 23.2397 109.112 16.957 114.161 10.9153C114.161 10.9153 119.463 15.2644 113.406 23.2397Z" fill="#E9E35E"/>
<path d="M115.954 34.7056C115.954 34.7056 115.414 27.2166 122.903 24.3058C122.903 24.3058 125.31 30.5798 115.954 34.7056Z" fill="#E9E35E"/>
<path d="M139.592 60.7046C139.592 60.7046 133.226 56.3213 135.667 48.9446C135.667 48.9446 142.247 51.1775 139.592 60.7046Z" fill="#E9E35E"/>
<path d="M141.768 53.4221C141.768 53.4221 137.474 47.1394 142.523 41.0965C142.523 41.0965 147.826 45.4457 141.768 53.4221Z" fill="#E9E35E"/>
<path d="M144.315 64.8872C144.315 64.8872 143.777 57.3983 151.266 54.4875C151.266 54.4875 153.673 60.7625 144.315 64.8872Z" fill="#E9E35E"/>
<path d="M87.4006 206.849C87.1094 206.375 86.8128 205.909 86.515 205.451L84.401 120.299C84.2025 120.301 84.0029 120.305 83.8055 120.305C74.0733 120.305 66.2633 117.127 60.5784 110.849C48.0717 97.0408 50.1328 72.5953 50.1548 72.3499L51.1584 72.4468C51.1418 72.6185 50.1218 84.8087 53.9231 96.6798C55.135 96.5687 61.5467 95.7433 65.3988 90.4235C68.652 85.9301 69.2817 79.4515 67.2702 71.1702L68.2472 70.9182C70.337 79.523 69.6489 86.2966 66.1983 91.0519C62.2745 96.463 56.0757 97.4986 54.2605 97.6901C55.8 102.158 58.0431 106.532 61.3173 110.146C66.8092 116.208 74.3733 119.262 83.8386 119.261C84.0172 119.261 84.1958 119.26 84.3756 119.258L83.9224 100.984C74.7714 86.2933 77.0939 65.3408 77.3277 63.4392C77.5956 63.4315 77.8647 63.4249 78.1338 63.4172L78.3422 63.4469C78.3124 63.667 75.4143 85.5461 84.8454 100.543L84.9215 100.666L84.9259 100.811L85.2645 114.495C88.4714 112.785 103.753 102.472 97.9565 63.9047L98.9523 63.7462C103.073 91.1696 96.8669 104.525 91.4688 110.751H91.9419V196.773C91.5515 197.892 91.2174 198.99 90.9339 200.064V111.342C88.3567 114.126 86.0651 115.3 85.2931 115.64L87.5572 206.844L87.4006 206.849Z" fill="#8A6A6B"/>
<path d="M77.3275 63.4387C77.3374 63.3573 77.344 63.3111 77.3451 63.3012L78.1336 63.4167C77.8646 63.4244 77.5955 63.431 77.3275 63.4387Z" fill="#E4CD6E"/>
<path d="M86.5504 206.871L86.5151 205.451C86.8129 205.909 87.1095 206.375 87.4007 206.849L86.5504 206.871ZM91.9419 201.443H90.934V200.064C91.2174 198.99 91.5516 197.892 91.9419 196.773V201.443Z" fill="#E4CD6E"/>
<path d="M92.5121 115.332C92.3797 115.332 92.3059 115.33 92.2959 115.33L92.3334 114.293C92.3434 114.294 92.4316 114.298 92.5882 114.298C94.4122 114.298 105.572 113.854 113.155 104.795C120.245 96.3253 122.214 83.0279 119.008 65.2746L119.998 65.0842C121.763 74.8545 121.962 83.3008 120.634 90.3881C120.715 90.3892 120.817 90.3914 120.941 90.3914C122.874 90.3914 129.85 90.0282 134.3 85.033C137.739 81.1724 138.935 75.43 137.861 67.962L138.857 67.8102C139.98 75.6061 138.695 81.638 135.037 85.7395C130.354 90.99 123.292 91.4324 121.047 91.4324C120.759 91.4324 120.555 91.4258 120.44 91.4203C119.254 97.0021 117.077 101.701 113.91 105.483C105.96 114.968 94.2413 115.332 92.5121 115.332Z" fill="#8A6A6B"/>
<path d="M46.5762 85.4163C42.3117 85.4163 38.9768 84.1936 36.6356 81.7648C31.941 76.8973 32.9832 69.0397 33.0306 68.7073L34.1168 68.868C34.1058 68.9439 33.1089 76.5121 37.4186 80.9746C39.547 83.1789 42.6216 84.2849 46.5839 84.2849C47.701 84.2849 48.8876 84.198 50.1437 84.0219L50.2926 85.1389C48.9847 85.3238 47.7451 85.4163 46.5762 85.4163Z" fill="#8A6A6B"/>
</svg>
