<svg width="134" height="222" viewBox="0 0 134 222" fill="none" xmlns="http://www.w3.org/2000/svg">
<path d="M114.819 29.0999C114.557 35.2242 115.874 59.8699 104.729 57.1055C104.472 48.5766 103.516 39.9871 104.447 31.532C105.015 26.3827 97.0917 26.4246 96.5287 31.532C95.1355 44.1767 98.2276 56.9558 96.3219 69.5444C96.1474 70.6966 95.907 71.8588 95.6064 73.0132C89.2696 73.6042 88.1099 63.6523 87.9902 59.1634C87.796 51.8693 87.8145 44.5608 87.7326 37.2623C87.674 32.0778 79.7558 32.0635 79.8141 37.2623C79.8765 42.8375 79.939 48.4148 80.0019 53.9899C80.0566 58.8597 79.8993 63.9209 81.2257 68.6508C82.8467 74.4318 87.0938 79.3202 92.5392 80.6562C89.1982 86.4955 83.8474 90.7654 76.5389 90.1987L76.4919 90.1459C76.4919 64.9961 76.4919 39.8474 76.4919 14.6976C76.4919 9.50985 68.5742 9.50215 68.5742 14.6976C68.5742 26.1913 68.5742 37.686 68.5742 49.1785C63.1399 47.4045 59.4016 43.8378 57.7173 37.522C55.653 29.7822 55.2123 21.4349 54.7961 13.4595C54.5265 8.29819 46.6066 8.26518 46.878 13.4595C47.3841 23.155 47.6905 34.1094 51.2573 43.2369C54.3425 51.1341 60.7039 55.7772 68.5742 57.5402C68.5742 67.5338 68.5742 77.5286 68.5742 87.5234C68.3398 87.5751 68.1085 87.6345 67.8823 87.705C67.5622 83.4922 66.683 79.3598 64.8134 75.4761C60.8702 67.284 52.7891 63.6138 45.4181 59.3274C30.2732 50.5189 20.3162 34.8181 17.9861 17.3003C17.3054 12.1819 9.67467 14.362 10.3506 19.4441C12.5626 36.0738 21.4517 51.4104 34.5155 61.6065C40.9569 66.6347 49.6346 69.2385 55.1813 75.3298C60.3424 80.9974 60.5362 89.1884 59.9918 96.7213C51.5455 95.9212 42.8597 94.3024 36.3286 88.6129C28.5105 81.8018 25.5919 69.6061 23.2257 59.8446C22.0049 54.8087 14.3671 56.9415 15.5901 61.9884C18.4023 73.5899 22.1909 87.312 31.6982 95.1322C40.0545 102.006 50.5293 103.901 60.9391 104.855C61.2668 105.075 61.6382 105.233 62.0289 105.337V207.009H68.0137H73.9221L78.6302 207.008V98.328C90.4103 98.1299 99.5816 88.0021 102.81 76.9211C103.93 73.0771 104.464 69.1868 104.674 65.269C110.839 65.8214 116.834 61.415 119.458 55.7287C123.16 47.705 122.367 37.7465 122.739 29.0999C122.96 23.9121 115.042 23.9231 114.819 29.0999Z" fill="#582C2D"/>
<path d="M10.2656 74.5688C14.6127 74.2892 17.9749 71.4466 17.7741 68.22C17.5738 64.9933 13.8872 62.6041 9.53936 62.8847C5.19194 63.1643 2.03046 69.2335 2.03046 69.2335C2.03046 69.2335 5.91781 74.8483 10.2656 74.5688Z" fill="#F14857"/>
<path d="M9.94823 74.5789C6.34736 74.5789 3.12643 70.6853 2.26056 69.5463C3.12987 70.6897 6.35123 74.5778 9.94866 74.5789C10.0542 74.5789 10.1593 74.5756 10.2657 74.569C10.1597 74.5756 10.0533 74.5789 9.94823 74.5789ZM10.4475 74.5558C10.4535 74.5547 10.4604 74.5546 10.4665 74.5535C10.4604 74.5546 10.454 74.5547 10.4475 74.5558ZM10.4992 74.5513C10.5048 74.5502 10.5108 74.5502 10.516 74.5491C10.5104 74.5502 10.5048 74.5502 10.4992 74.5513ZM10.5742 74.5447C10.5798 74.5436 10.5858 74.5436 10.5914 74.5425C10.5858 74.5425 10.5798 74.5436 10.5742 74.5447ZM10.7249 74.5293C10.7288 74.5282 10.7327 74.5282 10.7366 74.5282C10.7331 74.5282 10.7288 74.5282 10.7249 74.5293ZM10.7495 74.526C10.7529 74.526 10.7568 74.526 10.7602 74.5249C10.7568 74.526 10.7534 74.526 10.7495 74.526ZM10.7749 74.5238C10.7775 74.5227 10.7805 74.5227 10.7831 74.5227C10.7805 74.5227 10.7779 74.5227 10.7749 74.5238ZM10.7999 74.5205C10.802 74.5205 10.8038 74.5205 10.8059 74.5205C10.8042 74.5205 10.802 74.5205 10.7999 74.5205Z" fill="#BFACAB"/>
<path d="M9.94866 74.5789C6.35123 74.5778 3.12987 70.6897 2.26056 69.5463L17.7725 68.547C17.7359 71.4964 14.7527 74.0583 10.8275 74.5172C10.8266 74.5172 10.8257 74.5172 10.8253 74.5183C10.8188 74.5183 10.8124 74.5194 10.8059 74.5205C10.8038 74.5205 10.802 74.5205 10.7999 74.5205C10.7943 74.5216 10.7887 74.5216 10.7831 74.5227C10.7805 74.5227 10.7775 74.5227 10.7749 74.5238C10.7702 74.5238 10.7654 74.5249 10.7602 74.5249C10.7568 74.526 10.7529 74.526 10.7495 74.526C10.7452 74.5271 10.7409 74.5271 10.7366 74.5282C10.7327 74.5282 10.7288 74.5282 10.7249 74.5293C10.7206 74.5293 10.7172 74.5304 10.7129 74.5304C10.7086 74.5304 10.7038 74.5315 10.6995 74.5315C10.6961 74.5326 10.6926 74.5326 10.6892 74.5326C10.6844 74.5337 10.6793 74.5337 10.6745 74.5348C10.6711 74.5348 10.6681 74.5348 10.6646 74.5348C10.6594 74.5359 10.6539 74.5359 10.6487 74.537C10.6461 74.537 10.6435 74.537 10.6409 74.5381C10.6353 74.5381 10.6297 74.5392 10.6237 74.5392C10.6211 74.5392 10.6185 74.5403 10.6159 74.5403C10.6103 74.5403 10.6043 74.5414 10.5987 74.5414C10.5961 74.5425 10.594 74.5425 10.5914 74.5425C10.5858 74.5436 10.5798 74.5436 10.5742 74.5447C10.5711 74.5447 10.569 74.5447 10.5664 74.5447C10.5604 74.5458 10.5548 74.5458 10.5487 74.5469C10.5462 74.5469 10.544 74.5469 10.5414 74.5469C10.5358 74.548 10.5298 74.548 10.5246 74.5491C10.5216 74.5491 10.519 74.5491 10.516 74.5491C10.5108 74.5502 10.5048 74.5502 10.4992 74.5513C10.4966 74.5513 10.494 74.5513 10.4914 74.5513C10.4854 74.5524 10.4798 74.5524 10.4738 74.5535C10.4716 74.5535 10.469 74.5535 10.4665 74.5535C10.4604 74.5546 10.4535 74.5547 10.4475 74.5558C10.4458 74.5558 10.4436 74.5558 10.4419 74.5558C10.4354 74.5558 10.429 74.5569 10.4225 74.5569C10.4204 74.5569 10.4186 74.558 10.4165 74.558C10.4105 74.558 10.404 74.5591 10.3975 74.5591C10.3954 74.5591 10.3937 74.5591 10.3915 74.5602C10.3855 74.5602 10.3786 74.5601 10.3725 74.5612C10.3704 74.5612 10.3687 74.5612 10.3661 74.5612C10.3601 74.5623 10.3536 74.5623 10.3471 74.5634C10.345 74.5634 10.3433 74.5634 10.3411 74.5634C10.3338 74.5634 10.3269 74.5646 10.3196 74.5646C10.3187 74.5646 10.317 74.5646 10.3161 74.5646C10.3088 74.5657 10.3015 74.5657 10.2937 74.5668C10.2929 74.5668 10.292 74.5668 10.2907 74.5668C10.2825 74.5679 10.2739 74.5679 10.2657 74.569C10.1593 74.5756 10.0542 74.5789 9.94866 74.5789Z" fill="#BB424C"/>
<path d="M9.85342 72.0884L9.53852 71.6669L12.6892 69.2216L6.60879 69.6145L6.57605 69.0851L12.7039 68.6911L9.48812 66.6497L9.76295 66.2007L13.5965 68.6328L17.7607 68.3643L17.7939 68.8925L13.6248 69.161L9.85342 72.0884Z" fill="white"/>
<path d="M16.0058 81.8355C18.9296 81.6462 21.1907 79.7346 21.0558 77.5644C20.9215 75.3942 18.4419 73.7875 15.5178 73.9768C12.5941 74.165 10.4673 78.2467 10.4673 78.2467C10.4673 78.2467 13.0818 82.0237 16.0058 81.8355Z" fill="#F14857"/>
<path d="M15.793 81.8423C15.7818 81.8423 15.771 81.8423 15.7603 81.8423C15.771 81.8423 15.7822 81.8423 15.793 81.8423C15.8111 81.8423 15.8283 81.8423 15.846 81.8423C15.8283 81.8423 15.8107 81.8423 15.793 81.8423ZM15.7431 81.8423C14.122 81.8181 12.6194 80.6306 11.636 79.627C12.6194 80.6306 14.1224 81.8181 15.7431 81.8423ZM16.0692 81.8313C16.0699 81.8313 16.0713 81.8313 16.0721 81.8313C16.0708 81.8313 16.0699 81.8313 16.0692 81.8313Z" fill="#BFACAB"/>
<path d="M15.793 81.8423C15.7822 81.8423 15.7709 81.8423 15.7602 81.8423C15.7598 81.8423 15.7598 81.8423 15.7594 81.8423C15.7542 81.8423 15.7486 81.8423 15.7434 81.8423C15.7434 81.8423 15.7434 81.8423 15.743 81.8423C14.1224 81.8181 12.6194 80.6306 11.6359 79.627H11.6355C11.6338 79.6248 11.6321 79.6237 11.6303 79.6215C11.1599 79.1406 10.8093 78.7037 10.6219 78.4571L21.0549 77.7847C21.0295 79.8339 18.8899 81.6035 16.1212 81.8269C16.1207 81.8269 16.1207 81.8269 16.1207 81.8269C16.1156 81.828 16.11 81.828 16.1049 81.8291C16.1044 81.8291 16.104 81.8291 16.1035 81.8291C16.0984 81.8291 16.0932 81.8291 16.0884 81.8302C16.088 81.8302 16.0877 81.8302 16.0872 81.8302C16.0825 81.8302 16.0769 81.8313 16.0721 81.8313C16.0712 81.8313 16.0699 81.8313 16.0691 81.8313C16.0644 81.8313 16.0601 81.8324 16.0553 81.8324C16.0545 81.8324 16.0536 81.8324 16.0527 81.8324C16.0423 81.8335 16.0325 81.8335 16.0222 81.8346C16.0165 81.8346 16.0109 81.8357 16.0057 81.8357C15.9523 81.839 15.899 81.8412 15.8459 81.8423C15.8283 81.8423 15.8111 81.8423 15.793 81.8423Z" fill="#BB424C"/>
<path d="M15.7288 80.166L15.5168 79.8832L17.6362 78.2379L13.5465 78.5021L13.5244 78.1466L17.6457 77.8814L15.4828 76.5091L15.668 76.2075L18.2462 77.8429L21.0467 77.6624L21.0686 78.0178L18.2652 78.1983L15.7288 80.166Z" fill="white"/>
<path d="M32.9126 64.7924C30.7181 68.6232 26.7159 70.4094 23.9734 68.7806C21.2307 67.1519 20.7875 62.7256 22.9814 58.8937C25.1762 55.0617 31.9214 54.9044 31.9214 54.9044C31.9214 54.9044 35.1073 60.9604 32.9126 64.7924Z" fill="#F14857"/>
<path d="M32.1738 65.918C32.437 65.5658 32.6848 65.1894 32.9126 64.7922C32.6848 65.1905 32.437 65.5658 32.1738 65.918ZM32.923 64.7745C32.9234 64.7734 32.9234 64.7723 32.9242 64.7712C32.9237 64.7723 32.923 64.7734 32.923 64.7745ZM33.0375 64.5599C33.038 64.5588 33.0388 64.5577 33.0392 64.5566C33.0388 64.5577 33.0384 64.5588 33.0375 64.5599ZM33.0478 64.539C33.0482 64.539 33.0487 64.5379 33.0491 64.5368C33.0487 64.5379 33.0482 64.5379 33.0478 64.539ZM33.0668 64.5016C33.0672 64.5005 33.0681 64.4983 33.0685 64.4972C33.0681 64.4994 33.0672 64.5005 33.0668 64.5016ZM33.0948 64.4433C33.0957 64.4411 33.097 64.4389 33.0974 64.4378C33.0965 64.44 33.0957 64.4411 33.0948 64.4433ZM33.1142 64.4026C33.1155 64.3993 33.1164 64.3971 33.1176 64.3949C33.1164 64.3971 33.1151 64.4004 33.1142 64.4026ZM33.1219 64.3861C33.1237 64.3817 33.1259 64.3773 33.1275 64.3729C33.1259 64.3773 33.1241 64.3817 33.1219 64.3861ZM33.1564 64.309C33.6186 63.2625 33.737 62.086 33.6643 60.9294L33.6647 60.9305C33.737 62.086 33.619 63.2625 33.1564 64.309Z" fill="#BFACAB"/>
<path d="M33.6647 60.9302L33.6643 60.9291C33.579 59.5755 33.2318 58.2472 32.8695 57.1841C33.2318 58.2472 33.5795 59.5755 33.6647 60.9302Z" fill="#582C2D"/>
<path d="M26.238 69.3745C25.5458 69.3745 24.876 69.2293 24.2617 68.9255L32.092 55.254C32.2742 55.6403 32.5766 56.3259 32.8695 57.1843C33.2317 58.2473 33.579 59.5756 33.6642 60.9293C33.737 62.0859 33.6186 63.2623 33.1564 64.3089C33.156 64.31 33.156 64.31 33.156 64.31C33.153 64.3166 33.1499 64.3243 33.1469 64.3309C33.146 64.332 33.1456 64.3331 33.1452 64.3342C33.1439 64.3375 33.1422 64.3408 33.1404 64.3441C33.14 64.3452 33.1396 64.3463 33.1392 64.3474C33.1366 64.354 33.1336 64.3595 33.1309 64.3661C33.1302 64.3683 33.1288 64.3705 33.1275 64.3727C33.1259 64.3771 33.1237 64.3815 33.1219 64.3859C33.1207 64.3881 33.1189 64.3914 33.1176 64.3947C33.1164 64.3969 33.1155 64.3991 33.1142 64.4025C33.1121 64.4069 33.1094 64.4113 33.1073 64.4168C33.1064 64.419 33.1056 64.4212 33.1047 64.4223C33.1021 64.4278 33.0999 64.4322 33.0974 64.4377C33.097 64.4388 33.0956 64.441 33.0948 64.4432C33.0931 64.4476 33.0909 64.452 33.0888 64.4564C33.0879 64.4575 33.0875 64.4597 33.0866 64.4608C33.0841 64.4663 33.0814 64.4707 33.0789 64.4762C33.078 64.4784 33.0771 64.4795 33.0762 64.4817C33.0737 64.4872 33.0711 64.4927 33.0685 64.4971C33.0681 64.4982 33.0672 64.5004 33.0668 64.5015C33.0642 64.507 33.0612 64.5125 33.0581 64.5191C33.0552 64.5246 33.0522 64.5312 33.0491 64.5367C33.0487 64.5378 33.0482 64.5389 33.0478 64.5389C33.0452 64.5444 33.0423 64.551 33.0392 64.5565C33.0387 64.5576 33.038 64.5587 33.0375 64.5598C33.0344 64.5653 33.0315 64.5719 33.0285 64.5774V64.5785C33.025 64.584 33.022 64.5906 33.0186 64.5972C33.0186 64.5972 33.0186 64.5972 33.0181 64.5972C33.0151 64.6038 33.0116 64.6104 33.0086 64.6159C33.0082 64.617 33.0082 64.617 33.0078 64.617C33.0048 64.6236 33.0014 64.6303 32.9983 64.6358C32.9978 64.6369 32.9978 64.6369 32.9974 64.638C32.991 64.6501 32.984 64.6622 32.9776 64.6754C32.9772 64.6754 32.9772 64.6754 32.9768 64.6765C32.9738 64.682 32.9703 64.6886 32.9668 64.6941C32.9668 64.6952 32.9664 64.6952 32.966 64.6963C32.963 64.7018 32.9596 64.7084 32.956 64.7139L32.9557 64.715C32.9522 64.7216 32.9487 64.7271 32.9453 64.7337C32.9419 64.7403 32.9384 64.7458 32.9354 64.7513C32.9345 64.7524 32.9341 64.7535 32.9336 64.7546C32.9307 64.7601 32.9272 64.7656 32.9242 64.7711C32.9234 64.7722 32.9234 64.7733 32.9229 64.7744C32.9194 64.7799 32.916 64.7854 32.9126 64.792C32.6847 65.1893 32.4369 65.5657 32.1738 65.9178C30.5394 68.1023 28.2877 69.3745 26.238 69.3745Z" fill="#BB424C"/>
<path d="M30.9198 63.3054L30.691 62.8299L27.1329 64.6017L30.2021 59.2423L29.7529 58.976L26.6594 64.3761L26.3105 60.5354L25.7923 60.5827L26.2088 65.163L24.1066 68.8332L24.5555 69.1006L26.6603 65.426L30.9198 63.3054Z" fill="white"/>
<path d="M9.7651 58.0529C11.6855 62.0345 15.5522 64.1067 18.4018 62.6816C21.2514 61.2564 22.0048 56.872 20.0844 52.8915C18.164 48.9099 11.4473 48.2628 11.4473 48.2628C11.4473 48.2628 7.84468 54.0702 9.7651 58.0529Z" fill="#F14857"/>
<path d="M9.75697 58.0351C9.7561 58.034 9.75567 58.0318 9.75481 58.0307C9.75567 58.0318 9.7561 58.0329 9.75697 58.0351ZM9.74706 58.0142C9.74663 58.0131 9.74577 58.0109 9.74491 58.0098C9.74577 58.0109 9.7462 58.0131 9.74706 58.0142ZM9.71992 57.9559C9.71906 57.9537 9.71777 57.9503 9.71648 57.9481C9.71777 57.9514 9.71906 57.9537 9.71992 57.9559ZM9.70312 57.9184C9.70096 57.914 9.69881 57.9085 9.69666 57.9041C9.69881 57.9096 9.70096 57.914 9.70312 57.9184ZM9.68417 57.8766C9.68288 57.8722 9.68116 57.8689 9.67943 57.8645C9.68116 57.8689 9.68245 57.8722 9.68417 57.8766ZM9.66866 57.8403C8.56673 55.2629 9.64281 51.9999 10.5345 50.0256C9.64281 52.001 8.56716 55.264 9.66866 57.8403Z" fill="#BFACAB"/>
<path d="M16.4534 63.1218C14.3279 63.1218 12.0302 61.6879 10.4686 59.2998C10.2132 58.9091 9.97753 58.492 9.76515 58.0529C9.76256 58.0463 9.75955 58.0408 9.75697 58.0353C9.7561 58.0331 9.75567 58.032 9.75481 58.0309C9.75223 58.0254 9.75007 58.0199 9.74705 58.0144C9.74619 58.0133 9.74576 58.0111 9.7449 58.01C9.74231 58.0045 9.74016 57.999 9.73758 57.9935C9.73672 57.9924 9.73585 57.9902 9.73499 57.9891C9.73327 57.9847 9.73112 57.9803 9.7294 57.9759C9.72853 57.9748 9.72767 57.9726 9.72681 57.9704C9.72423 57.966 9.72206 57.9616 9.71991 57.9561C9.71905 57.9539 9.71776 57.9517 9.71647 57.9484C9.71474 57.944 9.71259 57.9396 9.71044 57.9352C9.70915 57.9319 9.70785 57.9297 9.70656 57.9264C9.70527 57.9242 9.70441 57.9209 9.70312 57.9187C9.70096 57.9142 9.69881 57.9098 9.69666 57.9043C9.6958 57.9021 9.69494 57.8999 9.69363 57.8977C9.69062 57.8911 9.68804 57.8845 9.68502 57.8779C9.68459 57.8768 9.68459 57.8768 9.68416 57.8768C9.68244 57.8724 9.68115 57.8691 9.67942 57.8647C9.67899 57.8647 9.67899 57.8636 9.67899 57.8636C9.67555 57.8559 9.67253 57.8493 9.66952 57.8416C9.66909 57.8416 9.66909 57.8405 9.66866 57.8405C8.56715 55.2642 9.64281 52.0013 10.5345 50.0259C10.818 49.3986 11.082 48.9022 11.2526 48.5985L18.1046 62.8049C17.5782 63.0195 17.0216 63.1218 16.4534 63.1218Z" fill="#BB424C"/>
<path d="M11.8578 56.7144L12.1189 56.2566L15.544 58.2826L12.8576 52.7141L13.3247 52.4796L16.0317 58.0933L16.6489 54.2867L17.1625 54.3725L16.4263 58.9099L18.2657 62.7242L17.7987 62.9575L15.9572 59.1399L11.8578 56.7144Z" fill="white"/>
<path d="M6.60967 15.8274C8.53051 19.8101 12.3972 21.8824 15.2468 20.4572C18.0963 19.0321 18.8498 14.6488 16.9298 10.6672C15.009 6.68555 8.29229 6.03846 8.29229 6.03846C8.29229 6.03846 4.68968 11.8469 6.60967 15.8274Z" fill="#F14857"/>
<path d="M6.60063 15.8087C6.6002 15.8087 6.6002 15.8076 6.59975 15.8076C6.6002 15.8076 6.6002 15.8076 6.60063 15.8087ZM6.18492 14.5618C6.18449 14.5596 6.18449 14.5585 6.18406 14.5574C6.18449 14.5585 6.18492 14.5596 6.18492 14.5618ZM6.17242 14.5002C6.17156 14.4958 6.1707 14.4914 6.17027 14.4881C6.17113 14.4914 6.17156 14.4958 6.17242 14.5002ZM6.16855 14.4782C6.16769 14.4749 6.16683 14.4705 6.16597 14.4661C6.16683 14.4705 6.16769 14.4738 6.16855 14.4782ZM6.16597 14.4661C5.727 12.1748 6.57952 9.60078 7.33209 7.90821C6.57952 9.60188 5.72743 12.176 6.16597 14.4661Z" fill="#BFACAB"/>
<path d="M13.2984 20.8975C11.1393 20.8975 8.80229 19.4184 7.23985 16.961C7.0124 16.6033 6.80133 16.2247 6.60963 15.8275C6.60661 15.822 6.6036 15.8153 6.60059 15.8087C6.60016 15.8076 6.60016 15.8076 6.59972 15.8076C6.41233 15.4137 6.27793 15.0021 6.18919 14.5806H6.18876C6.18747 14.574 6.18617 14.5674 6.18488 14.5619C6.18488 14.5597 6.18445 14.5586 6.18402 14.5575C6.18273 14.5509 6.18144 14.5454 6.18058 14.5399C6.18015 14.5377 6.17972 14.5366 6.17928 14.5344C6.17842 14.53 6.17756 14.5245 6.1767 14.5201C6.17584 14.5168 6.17541 14.5135 6.17455 14.5113C6.17412 14.5069 6.17326 14.5036 6.17238 14.5003C6.17152 14.4959 6.17109 14.4914 6.17023 14.4881C6.16937 14.4848 6.16894 14.4815 6.16851 14.4782C6.16765 14.4738 6.16679 14.4705 6.16593 14.4661C5.7274 12.176 6.57948 9.60192 7.33205 7.90825C7.33291 7.90605 7.33334 7.90494 7.3342 7.90274C7.33506 7.90164 7.33549 7.89943 7.33635 7.89833C7.63532 7.22593 7.91834 6.69439 8.09754 6.37524L14.9495 20.5805C14.4236 20.7951 13.867 20.8975 13.2984 20.8975Z" fill="#BB424C"/>
<path d="M8.70245 14.4903L8.96393 14.0325L12.3894 16.0596L9.70272 10.4899L10.1697 10.2566L12.8767 15.8692L13.4944 12.0626L14.0075 12.1484L13.2712 16.6869L15.1107 20.5001L14.6438 20.7334L12.8022 16.9158L8.70245 14.4903Z" fill="white"/>
<path d="M31.3316 32.2383C28.5018 35.6102 24.2513 36.6425 21.8372 34.5416C19.4236 32.4419 19.7604 28.0057 22.5897 24.6327C25.4196 21.2608 32.0837 22.3293 32.0837 22.3293C32.0837 22.3293 34.1605 28.8652 31.3316 32.2383Z" fill="#F14857"/>
<path d="M31.3592 32.2052C31.3596 32.2041 31.3601 32.2041 31.361 32.203C31.3601 32.203 31.3596 32.2041 31.3592 32.2052ZM31.5483 31.9609C31.5483 31.9609 31.5488 31.9598 31.5492 31.9598L31.5483 31.9609ZM31.5866 31.9069C31.5866 31.9069 31.587 31.9058 31.5875 31.9058L31.5866 31.9069ZM31.6121 31.8706C31.6125 31.8706 31.6125 31.8706 31.6125 31.8706H31.6121ZM31.6233 31.8552C31.6241 31.8541 31.6245 31.853 31.6259 31.8508C31.625 31.8519 31.6236 31.8541 31.6233 31.8552ZM31.6586 31.8024C31.6607 31.8002 31.6625 31.7969 31.6647 31.7936C31.6629 31.7969 31.6607 31.8002 31.6586 31.8024ZM31.6819 31.7683C31.6844 31.7639 31.6871 31.7606 31.69 31.7562C31.6875 31.7595 31.6844 31.7639 31.6819 31.7683ZM31.6926 31.7518C31.6965 31.7452 31.7004 31.7397 31.7043 31.7342C31.7004 31.7397 31.6965 31.7463 31.6926 31.7518ZM31.7051 31.7331C33.626 28.7782 32.5567 24.0571 32.1915 22.7034C32.5559 24.0527 33.6281 28.7749 31.7051 31.7331Z" fill="#BFACAB"/>
<path d="M24.9264 35.6233C23.8787 35.6233 22.9004 35.3361 22.0957 34.7363L32.1914 22.7034C32.5567 24.057 33.626 28.7782 31.7051 31.733C31.7051 31.733 31.7047 31.733 31.7042 31.7341C31.7004 31.7396 31.6965 31.7451 31.6925 31.7517C31.6918 31.7528 31.6909 31.7539 31.69 31.7561C31.687 31.7605 31.6844 31.7638 31.6818 31.7682C31.6801 31.7704 31.6784 31.7737 31.6767 31.7759C31.6745 31.7792 31.6728 31.7814 31.671 31.7847C31.6689 31.788 31.6667 31.7902 31.6646 31.7935C31.6624 31.7968 31.6607 31.8002 31.6586 31.8024C31.6564 31.8057 31.6543 31.809 31.6525 31.8123C31.6509 31.8145 31.6495 31.8167 31.6478 31.8189C31.6452 31.8233 31.6417 31.8277 31.6387 31.8321C31.6378 31.8332 31.6366 31.8354 31.6357 31.8365C31.6323 31.842 31.6288 31.8464 31.6258 31.8508C31.6245 31.853 31.6241 31.8541 31.6233 31.8552C31.6193 31.8607 31.6159 31.8651 31.6125 31.8706C31.6125 31.8706 31.6125 31.8706 31.612 31.8706C31.6086 31.8761 31.6048 31.8816 31.6008 31.8871C31.6 31.8882 31.5996 31.8882 31.5991 31.8893C31.5953 31.8948 31.5913 31.9003 31.5874 31.9058C31.587 31.9058 31.5866 31.9069 31.5866 31.9069C31.5741 31.9245 31.5621 31.9421 31.5492 31.9597C31.5487 31.9597 31.5483 31.9608 31.5483 31.9608C31.5311 31.9839 31.5138 32.007 31.4961 32.0301V32.0313C31.4656 32.072 31.4342 32.1116 31.4018 32.1523C31.4018 32.1523 31.4018 32.1523 31.4014 32.1523C31.3924 32.1644 31.3833 32.1754 31.3738 32.1864C31.3695 32.1919 31.3652 32.1974 31.3609 32.2029C31.36 32.204 31.3596 32.204 31.3592 32.2051C31.3549 32.2095 31.3506 32.215 31.3463 32.2205C31.3458 32.2205 31.3454 32.2216 31.3449 32.2216C31.3402 32.2271 31.3363 32.2326 31.3316 32.2381C29.4964 34.4248 27.0664 35.6233 24.9264 35.6233Z" fill="#BB424C"/>
<path d="M29.63 30.4124L29.4883 29.904L25.6768 31.0023L29.6343 26.2845L29.2393 25.9411L25.2507 30.6953L25.5785 26.8512L25.0608 26.805L24.6696 31.3875L21.9592 34.6186L22.3546 34.9619L25.0681 31.7286L29.63 30.4124Z" fill="white"/>
<path d="M24.8308 21.7306C23.1244 23.7643 20.5604 24.3872 19.1053 23.1194C17.6493 21.8539 17.8525 19.1774 19.5589 17.1448C21.2652 15.11 25.2848 15.7538 25.2848 15.7538C25.2848 15.7538 26.537 19.6958 24.8308 21.7306Z" fill="#F14857"/>
<path d="M24.8717 21.681C24.8733 21.6777 24.8755 21.6754 24.8773 21.6732C24.8751 21.6754 24.8733 21.6777 24.8717 21.681ZM24.9104 21.6314C24.9126 21.6281 24.9147 21.6259 24.9164 21.6226C24.9143 21.6259 24.9126 21.6281 24.9104 21.6314ZM24.9194 21.6193C24.9212 21.616 24.9238 21.6138 24.9259 21.6105C24.9238 21.6138 24.9216 21.616 24.9194 21.6193ZM24.9733 21.5467C25.9813 20.1424 25.769 17.991 25.5256 16.743C25.769 17.9899 25.9817 20.1413 24.9733 21.5467Z" fill="#BFACAB"/>
<path d="M20.9679 23.7717C20.336 23.7717 19.7458 23.5978 19.2608 23.2369L25.3494 15.9802C25.396 16.1529 25.4618 16.4171 25.5257 16.7428C25.769 17.9908 25.9813 20.1423 24.9734 21.5465H24.9729C24.9699 21.5509 24.9673 21.5542 24.9643 21.5586C24.9643 21.5586 24.9639 21.5586 24.9639 21.5597C24.9549 21.5718 24.9458 21.5839 24.9368 21.596C24.9368 21.596 24.9363 21.5971 24.9359 21.5971C24.9332 21.6004 24.9307 21.6037 24.9282 21.6081C24.9273 21.6081 24.9264 21.6092 24.926 21.6103C24.9239 21.6136 24.9212 21.6158 24.9195 21.6191C24.9182 21.6202 24.9174 21.6213 24.9165 21.6224C24.9147 21.6257 24.9126 21.6279 24.9104 21.6312C24.9096 21.6323 24.9083 21.6334 24.9074 21.6345C24.9053 21.6379 24.9031 21.64 24.9009 21.6433C24.9002 21.6444 24.8993 21.6456 24.8984 21.6467C24.8959 21.65 24.8923 21.6544 24.8898 21.6577C24.8893 21.6577 24.8893 21.6577 24.8889 21.6588C24.8864 21.6621 24.8833 21.6654 24.8807 21.6687C24.8794 21.6709 24.8781 21.672 24.8773 21.6731C24.8756 21.6753 24.8734 21.6775 24.8717 21.6808C24.8704 21.6819 24.8691 21.683 24.8678 21.6852C24.8661 21.6874 24.864 21.6896 24.8622 21.6918C24.8609 21.6929 24.8596 21.6951 24.8588 21.6962C24.8566 21.6984 24.8549 21.7006 24.8527 21.7028C24.8514 21.705 24.8505 21.7061 24.8493 21.7072C24.8471 21.7105 24.8455 21.7127 24.8433 21.7149C24.8419 21.716 24.8412 21.7182 24.8398 21.7193C24.8367 21.7226 24.8338 21.7259 24.8308 21.7303C23.7241 23.0487 22.2586 23.7717 20.9679 23.7717Z" fill="#BB424C"/>
<path d="M23.8041 20.63L23.7193 20.3229L21.4207 20.9855L23.8072 18.1407L23.5685 17.9338L21.1631 20.7995L21.3612 18.4818L21.0489 18.4543L20.8124 21.2177L19.1785 23.1667L19.4167 23.3735L21.0532 21.4234L23.8041 20.63Z" fill="white"/>
<path d="M36.3385 77.878C33.7232 80.9946 29.7945 81.9477 27.5645 80.0075C25.3334 78.0673 25.6449 73.9679 28.2598 70.8502C30.8749 67.7336 37.0342 68.7207 37.0342 68.7207C37.0342 68.7207 38.9533 74.7614 36.3385 77.878Z" fill="#F14857"/>
<path d="M36.364 77.8473C36.3644 77.8473 36.3649 77.8473 36.3649 77.8462C36.3649 77.8462 36.3644 77.8473 36.364 77.8473ZM36.6083 77.5237C36.6087 77.5226 36.609 77.5226 36.6099 77.5215C36.609 77.5226 36.609 77.5226 36.6083 77.5237ZM36.6315 77.4907C36.6319 77.4885 36.6332 77.4874 36.6341 77.4863C36.6332 77.4874 36.6323 77.4885 36.6315 77.4907ZM36.6642 77.4412C36.6655 77.439 36.6673 77.4368 36.6689 77.4335C36.6673 77.4368 36.6659 77.439 36.6642 77.4412ZM36.684 77.4104C38.1952 75.085 37.7037 71.5777 37.3156 69.8147C37.7037 71.5766 38.1965 75.0839 36.684 77.4104Z" fill="#BFACAB"/>
<path d="M30.4188 81.0066C29.4508 81.0066 28.5466 80.7414 27.8031 80.1878L37.1328 69.0661C37.1832 69.2521 37.2479 69.5063 37.3156 69.8145C37.7036 71.5775 38.1952 75.0848 36.684 77.4101C36.6831 77.4112 36.6823 77.4135 36.6815 77.4146C36.6788 77.419 36.6758 77.4234 36.6732 77.4267C36.672 77.4289 36.6702 77.4322 36.6689 77.4333C36.6672 77.4366 36.6655 77.4388 36.6642 77.441C36.6616 77.4443 36.6591 77.4487 36.6564 77.452C36.6551 77.4542 36.6539 77.4564 36.6526 77.4586C36.65 77.463 36.647 77.4663 36.6444 77.4707C36.6435 77.4718 36.6422 77.474 36.6413 77.4751C36.6392 77.4784 36.6366 77.4828 36.634 77.4861C36.6332 77.4872 36.6318 77.4883 36.6315 77.4905C36.628 77.4949 36.625 77.4993 36.622 77.5037C36.6211 77.5048 36.6203 77.5059 36.6194 77.507C36.6164 77.5114 36.613 77.5169 36.6099 77.5213C36.609 77.5224 36.6087 77.5224 36.6082 77.5235C36.6009 77.5345 36.5936 77.5444 36.5862 77.5554C36.5862 77.5554 36.5862 77.5554 36.5859 77.5554C36.5703 77.5774 36.5548 77.5994 36.5389 77.6214C36.4833 77.6985 36.4255 77.7722 36.3649 77.846C36.3649 77.8471 36.3644 77.8471 36.364 77.8471C36.3601 77.8526 36.3558 77.8569 36.3518 77.8625C36.3515 77.8625 36.3511 77.8625 36.3506 77.8636C36.3468 77.868 36.3424 77.8735 36.3385 77.8779C34.6425 79.8995 32.3969 81.0066 30.4188 81.0066Z" fill="#BB424C"/>
<path d="M34.7663 76.1923L34.6353 75.7213L31.1124 76.7371L34.7697 72.3769L34.4048 72.0588L30.7182 76.452L31.0219 72.9007L30.5434 72.8589L30.1814 77.0925L27.6769 80.0782L28.0422 80.3962L30.5498 77.4084L34.7663 76.1923Z" fill="white"/>
<path d="M59.2764 197.934C62.6358 200.153 64.0192 203.969 62.3671 206.458C60.7144 208.947 56.652 209.165 53.2927 206.946C49.9324 204.728 50.2009 198.423 50.2009 198.423C50.2009 198.423 55.9161 195.715 59.2764 197.934Z" fill="#F14857"/>
<path d="M50.7141 207.644C50.7158 207.644 50.718 207.644 50.7197 207.644C50.718 207.644 50.7162 207.644 50.7141 207.644ZM50.7693 207.64C53.1143 207.441 55.0731 205.432 56.2862 203.814C55.074 205.431 53.1157 207.441 50.7693 207.64ZM56.2866 203.814C56.2884 203.812 56.2901 203.809 56.2918 203.806C56.2901 203.809 56.2884 203.811 56.2866 203.814Z" fill="#582C2D"/>
<path d="M59.8263 198.325C62.6744 200.498 63.8328 203.853 62.5174 206.195L50.5297 198.279C50.9179 198.116 51.6245 197.839 52.5001 197.592C52.5031 197.591 52.5063 197.589 52.509 197.589L52.5094 197.589C54.4553 197.038 57.2314 196.629 59.2159 197.895C59.2169 197.895 59.2181 197.895 59.2189 197.896C59.2229 197.899 59.2274 197.902 59.2326 197.905C59.2346 197.906 59.2367 197.908 59.2384 197.909C59.2417 197.91 59.2437 197.911 59.2461 197.913C59.2496 197.916 59.2541 197.918 59.2578 197.921C59.2592 197.922 59.261 197.924 59.2623 197.925C59.2676 197.927 59.272 197.93 59.2765 197.934C59.4664 198.059 59.6492 198.19 59.8263 198.325Z" fill="#BB424C"/>
<path d="M57.7984 199.73L57.3507 199.923L58.7495 203.323L54.0507 200.22L53.7803 200.627L58.5152 203.756L54.9915 203.912L55.005 204.397L59.2057 204.211L62.423 206.336L62.6941 205.929L59.4726 203.801L57.7984 199.73Z" fill="white"/>
<path d="M68.4168 204.911C70.8028 206.155 71.977 208.586 71.0399 210.343C70.1018 212.099 67.407 212.515 65.0214 211.271C62.6361 210.027 62.3989 205.84 62.3989 205.84C62.3989 205.84 66.0312 203.667 68.4168 204.911Z" fill="#F14857"/>
<path d="M69.5694 205.676C69.2265 205.391 68.8407 205.132 68.4167 204.911C68.841 205.132 69.2274 205.391 69.5694 205.676ZM66.5751 204.528C66.5724 204.528 66.5694 204.528 66.5672 204.528C66.5696 204.529 66.572 204.528 66.5751 204.528ZM66.5614 204.529C66.558 204.528 66.555 204.528 66.5507 204.529C66.555 204.528 66.5583 204.529 66.5614 204.529Z" fill="#BFACAB"/>
<path d="M65.4275 204.666C64.1746 204.926 63.0588 205.48 62.6088 205.723L62.6085 205.722C63.0563 205.48 64.1728 204.926 65.4275 204.666Z" fill="#582C2D"/>
<path d="M69.9214 205.995C71.1852 207.232 71.697 208.856 71.1217 210.159L62.609 205.722C63.059 205.48 64.1748 204.925 65.4277 204.666C65.7899 204.59 66.1618 204.541 66.5335 204.529C66.5338 204.529 66.5338 204.529 66.5342 204.529C66.5387 204.529 66.5432 204.529 66.5478 204.529C66.5494 204.529 66.5503 204.528 66.5508 204.529C66.5551 204.528 66.5581 204.528 66.5615 204.528C66.5633 204.528 66.5658 204.528 66.5673 204.528C66.5695 204.528 66.5725 204.528 66.5752 204.528C67.2062 204.514 67.833 204.613 68.3929 204.899C68.3932 204.899 68.3935 204.899 68.3938 204.9C68.3974 204.901 68.4012 204.903 68.4045 204.905C68.4091 204.907 68.4131 204.909 68.4168 204.911C68.8408 205.132 69.2266 205.391 69.5695 205.676C69.6921 205.779 69.8099 205.885 69.9214 205.995Z" fill="#BB424C"/>
<path d="M67.5504 206.197L67.2643 206.355L68.4207 208.511L65.0845 206.771L64.9302 207.059L68.2934 208.812L65.955 209.149L65.9949 209.471L68.7829 209.068L71.0687 210.258L71.2218 209.971L68.9342 208.779L67.5504 206.197Z" fill="white"/>
<path d="M81.5177 210.937C77.8061 212.525 73.8757 211.58 72.7394 208.825C71.6025 206.071 73.6905 202.55 77.4021 200.962C81.1132 199.374 86.1805 203.074 86.1805 203.074C86.1805 203.074 85.2289 209.349 81.5177 210.937Z" fill="#F14857"/>
<path d="M68.9642 221.271C68.9668 221.269 68.9698 221.269 68.9728 221.269C68.9698 221.269 68.9668 221.269 68.9642 221.271ZM68.9909 221.264C69.4587 221.143 69.9296 220.982 70.3965 220.783C69.9296 220.984 69.4587 221.143 68.9909 221.264ZM70.4306 220.768C70.4331 220.767 70.4353 220.767 70.4374 220.766C70.4353 220.767 70.4327 220.768 70.4306 220.768ZM70.4832 220.745C71.4084 220.327 72.1593 219.614 72.7645 218.786C72.7654 218.786 72.7636 218.786 72.765 218.786C72.1597 219.614 71.4088 220.325 70.4832 220.745Z" fill="#BFACAB"/>
<path d="M72.7645 218.786C73.6261 217.605 74.192 216.186 74.5466 215.04C74.1925 216.186 73.6269 217.605 72.7649 218.786C72.7636 218.786 72.7654 218.786 72.7645 218.786Z" fill="#582C2D"/>
<path d="M77.9001 211.706C75.6514 211.706 73.7168 210.772 72.8729 209.095L86.1159 203.43C86.0427 203.801 85.9013 204.438 85.6679 205.195C85.3133 206.34 84.7474 207.759 83.8857 208.94C83.2805 209.768 82.5296 210.48 81.6044 210.898C81.604 210.898 81.604 210.898 81.6035 210.9C81.597 210.902 81.5909 210.905 81.585 210.907C81.5832 210.908 81.5815 210.908 81.5798 210.909C81.5759 210.912 81.5716 210.913 81.5677 210.915C81.5647 210.916 81.5617 210.917 81.5586 210.919C81.5565 210.921 81.5543 210.921 81.5518 210.922C81.5471 210.924 81.5428 210.926 81.538 210.928C81.5367 210.928 81.535 210.929 81.5337 210.931C81.5281 210.933 81.5229 210.935 81.5177 210.937C81.0508 211.136 80.5799 211.297 80.1121 211.418C80.1061 211.419 80.1001 211.42 80.094 211.422C80.091 211.423 80.0881 211.423 80.0854 211.424C79.3419 211.614 78.6052 211.706 77.9001 211.706Z" fill="#BB424C"/>
<path d="M80.8569 208.71L80.9473 208.231L77.3525 207.525L82.5438 205.305L82.3578 204.853L77.1259 207.093L78.9649 204.057L78.5557 203.8L76.3639 207.419L72.8091 208.938L72.9952 209.39L76.5539 207.867L80.8569 208.71Z" fill="white"/>
<path d="M39.4514 25.7902C43.7859 26.2304 47.5552 23.9799 47.8706 20.762C48.1854 17.5453 44.9265 14.5805 40.5921 14.1403C36.2576 13.7001 32.1734 19.1685 32.1734 19.1685C32.1734 19.1685 35.1164 25.35 39.4514 25.7902Z" fill="#F14857"/>
<path d="M39.4298 25.7881H39.4294C39.4298 25.7881 39.4294 25.7881 39.4298 25.7881ZM37.7093 25.2973C37.7088 25.2973 37.7084 25.2962 37.7075 25.2962C37.7079 25.2962 37.7088 25.2973 37.7093 25.2973ZM37.6933 25.2896C37.6912 25.2885 37.689 25.2874 37.6873 25.2863C37.689 25.2874 37.6916 25.2885 37.6933 25.2896ZM37.6408 25.2642C35.2435 24.1153 33.461 21.4543 32.6536 20.06C33.4626 21.4565 35.2447 24.1164 37.6408 25.2642Z" fill="#BFACAB"/>
<path d="M40.5279 25.8452C40.1742 25.8452 39.8149 25.8276 39.4513 25.7902C39.4439 25.7902 39.4367 25.7891 39.4298 25.788C39.4294 25.788 39.4298 25.788 39.4294 25.788C38.8353 25.7253 38.2672 25.5536 37.7291 25.306C37.7287 25.306 37.7282 25.306 37.7278 25.306C37.7217 25.3027 37.7158 25.3005 37.7093 25.2972C37.7088 25.2972 37.7079 25.2961 37.7075 25.2961C37.7027 25.2939 37.698 25.2917 37.6933 25.2895C37.6916 25.2884 37.689 25.2873 37.6873 25.2862C37.683 25.2851 37.6783 25.2829 37.674 25.2807C37.6709 25.2796 37.6679 25.2774 37.6649 25.2763C37.6632 25.2752 37.6614 25.274 37.6597 25.274C37.6537 25.2707 37.6473 25.2674 37.6412 25.2652L37.6408 25.2641C35.2447 24.1163 33.4626 21.4564 32.6536 20.0599C32.5287 19.8442 32.4271 19.6593 32.3503 19.514L47.8161 21.0844C47.3337 23.8621 44.2485 25.8452 40.5279 25.8452Z" fill="#BB424C"/>
<path d="M39.4393 23.2732L39.1955 22.8055L42.6933 20.9137L36.6302 20.2974L36.6819 19.7714L42.792 20.391L39.9429 17.8477L40.2853 17.4493L43.682 20.4812L47.8343 20.9027L47.7826 21.4299L43.626 21.0084L39.4393 23.2732Z" fill="white"/>
<path d="M43.9611 33.9066C46.8762 34.2026 49.4113 32.6895 49.6233 30.5248C49.8352 28.3612 47.6439 26.3682 44.7283 26.071C41.8128 25.7761 39.0662 29.4529 39.0662 29.4529C39.0662 29.4529 41.0456 33.6106 43.9611 33.9066Z" fill="#F14857"/>
<path d="M44.6857 33.9438C44.4475 33.9438 44.2058 33.9317 43.9611 33.9064C43.9556 33.9064 43.9495 33.9053 43.9439 33.9053C43.9499 33.9053 43.9551 33.9064 43.9611 33.9064C44.2054 33.9317 44.4479 33.9438 44.6862 33.9438C44.7667 33.9438 44.8468 33.9427 44.9265 33.9394C44.8468 33.9427 44.7662 33.9438 44.6857 33.9438ZM43.9434 33.9053C42.204 33.7193 40.7993 32.1599 39.9519 30.9384C40.7993 32.1599 42.204 33.7182 43.9434 33.9053Z" fill="#BFACAB"/>
<path d="M44.6862 33.9438C44.4479 33.9438 44.2054 33.9317 43.9612 33.9064C43.9552 33.9064 43.95 33.9053 43.944 33.9053H43.9435C42.2041 33.7182 40.7993 32.1599 39.952 30.9384C39.9502 30.9362 39.949 30.934 39.9472 30.9318C39.9463 30.9307 39.9459 30.9296 39.9454 30.9296C39.5836 30.4068 39.3244 29.9468 39.1852 29.6849L49.5867 30.7414C49.274 32.544 47.3329 33.8481 44.9507 33.9383C44.9494 33.9383 44.9477 33.9383 44.946 33.9383C44.9439 33.9383 44.9417 33.9394 44.9391 33.9394C44.936 33.9394 44.933 33.9394 44.9301 33.9394C44.9287 33.9394 44.9274 33.9394 44.9265 33.9394C44.8469 33.9427 44.7667 33.9438 44.6862 33.9438Z" fill="#BB424C"/>
<path d="M43.9534 32.2139L43.7893 31.9002L46.1418 30.6269L42.064 30.2131L42.0985 29.8588L46.208 30.2748L44.2916 28.5657L44.522 28.2972L46.8069 30.3364L49.5991 30.6192L49.5643 30.9736L46.7689 30.6897L43.9534 32.2139Z" fill="white"/>
<path d="M63.354 19.8738C60.5793 23.2942 56.3456 24.3969 53.8984 22.3378C51.4511 20.2777 51.7165 15.8361 54.4911 12.4168C57.2662 8.99756 63.9472 9.95389 63.9472 9.95389C63.9472 9.95389 66.1286 16.4546 63.354 19.8738Z" fill="#F14857"/>
<path d="M63.3945 19.8232C63.3958 19.8221 63.3971 19.821 63.3983 19.8188C63.3971 19.8199 63.3958 19.8221 63.3945 19.8232ZM63.4578 19.7417C65.0525 17.6376 64.8846 14.4604 64.5106 12.3012C64.885 14.4593 65.0534 17.6365 63.4578 19.7417Z" fill="#BFACAB"/>
<path d="M56.9092 23.3669C55.8977 23.3669 54.9491 23.0951 54.1599 22.5273L64.06 10.326C64.1755 10.7288 64.3599 11.4331 64.5106 12.3014C64.8846 14.4606 65.0525 17.6377 63.4578 19.7419C63.4573 19.743 63.457 19.743 63.4561 19.7441C63.4523 19.7496 63.448 19.7551 63.444 19.7595C63.4428 19.7617 63.4419 19.7628 63.4406 19.765C63.438 19.7683 63.435 19.7716 63.4324 19.7749C63.4302 19.7782 63.4277 19.7815 63.4255 19.7837C63.4234 19.787 63.4216 19.7892 63.42 19.7914C63.4173 19.7947 63.4148 19.798 63.4121 19.8013C63.41 19.8035 63.4078 19.8068 63.4057 19.809C63.4031 19.8123 63.401 19.8156 63.3983 19.8189C63.3971 19.8211 63.3958 19.8222 63.3945 19.8233C63.3911 19.8288 63.3872 19.8332 63.3838 19.8376C63.3825 19.8387 63.3816 19.8398 63.3798 19.842C63.3764 19.8464 63.373 19.8508 63.3691 19.8552C63.3682 19.8563 63.3669 19.8585 63.3665 19.8585C63.3622 19.864 63.3579 19.8695 63.354 19.874C61.5279 22.1245 59.0725 23.368 56.9092 23.3669Z" fill="#BB424C"/>
<path d="M61.6235 18.0782L61.4735 17.572L57.6802 18.7342L61.5614 13.9503L61.1604 13.6135L57.249 18.4337L57.5156 14.5852L56.9965 14.5478L56.679 19.1358L54.022 22.4109L54.4226 22.7488L57.0831 19.4693L61.6235 18.0782Z" fill="white"/>
<path d="M41.5824 9.40936C42.8446 13.6551 46.3314 16.3359 49.37 15.4005C52.4083 14.4629 53.8484 10.2622 52.5862 6.01761C51.324 1.77077 44.799 0.0253828 44.799 0.0253828C44.799 0.0253828 40.3203 5.16363 41.5824 9.40936Z" fill="#F14857"/>
<path d="M41.5768 9.3894C41.5763 9.3883 41.576 9.3872 41.576 9.3861C41.5763 9.3872 41.5763 9.3883 41.5768 9.3894ZM41.553 9.30577C41.5527 9.30356 41.5518 9.30027 41.551 9.29807C41.5518 9.30137 41.5527 9.30356 41.553 9.30577ZM41.5423 9.26615C41.541 9.26065 41.5397 9.25624 41.5385 9.25074C41.5397 9.25624 41.541 9.26175 41.5423 9.26615ZM41.5367 9.24414C40.5937 5.64 43.6492 1.45919 44.5526 0.32457C43.6467 1.46359 40.595 5.6444 41.5367 9.24414Z" fill="#BFACAB"/>
<path d="M48.1208 15.5764C45.4302 15.5764 42.6745 13.0816 41.5825 9.40921C41.5807 9.40261 41.579 9.396 41.5768 9.3894C41.5764 9.3883 41.5764 9.38719 41.5761 9.38609C41.5743 9.37949 41.5725 9.374 41.5709 9.36849C41.5704 9.36629 41.57 9.36519 41.5696 9.36299C41.5674 9.35748 41.5661 9.35198 41.5644 9.34648C41.5639 9.34428 41.5635 9.34208 41.5631 9.34098C41.5618 9.33658 41.5605 9.33218 41.5592 9.32778C41.5588 9.32558 41.5579 9.32337 41.5575 9.32117C41.5562 9.31676 41.5549 9.31126 41.5531 9.30576C41.5528 9.30356 41.5519 9.30136 41.551 9.29806C41.5497 9.29366 41.5485 9.28816 41.5472 9.28375C41.5463 9.28045 41.5454 9.27824 41.545 9.27494C41.5441 9.27164 41.5433 9.26944 41.5424 9.26614C41.5411 9.26174 41.5398 9.25624 41.5386 9.25073C41.5381 9.24853 41.5373 9.24634 41.5368 9.24414C40.5951 5.6444 43.6468 1.46358 44.5532 0.324563L49.0565 15.4719C48.7476 15.5423 48.4345 15.5764 48.1208 15.5764Z" fill="#BB424C"/>
<path d="M43.8603 8.43294L44.1907 8.02465L47.2488 10.5888L45.4831 4.65052L45.9806 4.49754L47.7606 10.481L48.9745 6.8273L49.4669 6.99678L48.0195 11.3526L49.2282 15.4189L48.7307 15.573L47.5202 11.5022L43.8603 8.43294Z" fill="white"/>
<path d="M64.6545 33.3528C61.5787 35.9984 57.5505 36.2912 55.6577 34.0087C53.7649 31.7263 54.7238 27.7315 57.8 25.087C60.8752 22.4414 66.7968 24.4311 66.7968 24.4311C66.7968 24.4311 67.7307 30.7083 64.6545 33.3528Z" fill="#F14857"/>
<path d="M64.1939 33.7261C64.2 33.7228 64.2052 33.7184 64.2108 33.714C64.2052 33.7184 64.1995 33.7228 64.1939 33.7261ZM64.6838 33.3277C64.6845 33.3266 64.6859 33.3266 64.6868 33.3255C64.6854 33.3266 64.685 33.3266 64.6838 33.3277ZM64.7001 33.3134C64.7005 33.3134 64.701 33.3123 64.7014 33.3123C64.701 33.3134 64.7005 33.3134 64.7001 33.3134ZM64.7152 33.3002C64.7152 33.3002 64.7156 33.3002 64.7161 33.2991C64.7156 33.3002 64.7156 33.3002 64.7152 33.3002ZM64.7453 33.2727C64.7457 33.2727 64.7462 33.2727 64.7466 33.2716C64.7462 33.2727 64.7462 33.2727 64.7453 33.2727ZM64.7751 33.2463C64.7755 33.2463 64.776 33.2452 64.7763 33.2452C64.776 33.2452 64.7755 33.2452 64.7751 33.2463ZM64.8492 33.1758C64.8495 33.1758 64.8504 33.1747 64.8504 33.1747C64.85 33.1747 64.8495 33.1758 64.8492 33.1758ZM64.9069 33.1197C64.9077 33.1186 64.9082 33.1175 64.9091 33.1175C64.9086 33.1175 64.9073 33.1186 64.9069 33.1197ZM64.9202 33.1065C64.9211 33.1054 64.9215 33.1043 64.9224 33.1043C64.922 33.1043 64.9211 33.1054 64.9202 33.1065ZM64.9625 33.0636C64.9638 33.0625 64.965 33.0603 64.9663 33.0592C64.965 33.0603 64.9638 33.0614 64.9625 33.0636ZM65.0025 33.0218C65.0051 33.0184 65.0081 33.0163 65.0103 33.013C65.0077 33.0163 65.0056 33.0184 65.0025 33.0218ZM65.0697 32.9491C67.2559 30.5467 66.9737 26.0798 66.8393 24.7889H66.8397C66.9737 26.0743 67.2576 30.5445 65.0697 32.9491Z" fill="#BFACAB"/>
<path d="M59.259 35.542C57.9236 35.542 56.7165 35.1073 55.8645 34.2247L66.8398 24.789C66.9738 26.0799 67.256 30.5468 65.0698 32.9492C65.0694 32.9503 65.0685 32.9503 65.0681 32.9514C65.0638 32.9558 65.0599 32.9602 65.0556 32.9646C65.0543 32.9657 65.053 32.9679 65.0521 32.969C65.0491 32.9723 65.0457 32.9756 65.0426 32.9789C65.041 32.9811 65.0387 32.9822 65.0371 32.9844C65.0349 32.9877 65.0328 32.9899 65.0306 32.9921C65.0285 32.9943 65.0267 32.9954 65.025 32.9976C65.022 33.0009 65.019 33.0042 65.0159 33.0075C65.0143 33.0097 65.0121 33.0108 65.0104 33.013C65.0082 33.0163 65.0052 33.0185 65.0026 33.0218C65 33.024 64.9974 33.0262 64.9953 33.0296C64.9935 33.0307 64.9919 33.0328 64.9901 33.035C64.9867 33.0383 64.9832 33.0416 64.9802 33.0449C64.9784 33.0471 64.9772 33.0483 64.9759 33.0494C64.9729 33.0527 64.9694 33.056 64.9664 33.0593C64.9651 33.0604 64.9639 33.0626 64.9625 33.0637C64.9591 33.067 64.956 33.0703 64.9526 33.0736C64.9513 33.0747 64.9501 33.0758 64.9488 33.0769C64.9449 33.0813 64.9415 33.0846 64.9375 33.089C64.9367 33.0901 64.9354 33.0912 64.9345 33.0923C64.9307 33.0956 64.9264 33.1 64.9225 33.1044C64.9216 33.1044 64.9212 33.1055 64.9203 33.1066C64.9169 33.1099 64.913 33.1132 64.9092 33.1176C64.9083 33.1176 64.9078 33.1187 64.907 33.1198C64.9031 33.1242 64.8988 33.1275 64.8949 33.1319C64.8941 33.133 64.8927 33.1341 64.8919 33.1352C64.8876 33.1385 64.8837 33.1429 64.8794 33.1473C64.879 33.1473 64.8781 33.1484 64.8776 33.1484C64.8686 33.1572 64.86 33.166 64.8505 33.1748C64.8505 33.1748 64.8496 33.1759 64.8493 33.1759C64.845 33.1803 64.8406 33.1847 64.8363 33.1891C64.8355 33.1891 64.8346 33.1902 64.8342 33.1913C64.8294 33.1946 64.8251 33.199 64.8204 33.2034C64.8157 33.2078 64.8109 33.2122 64.8062 33.2177C64.8062 33.2177 64.8057 33.2177 64.8053 33.2177C64.8005 33.2221 64.7962 33.2265 64.7915 33.2309C64.7911 33.2309 64.7906 33.232 64.7902 33.232C64.7859 33.2364 64.7811 33.2408 64.7764 33.2452C64.7761 33.2452 64.7756 33.2463 64.7752 33.2463C64.7657 33.2552 64.7562 33.264 64.7467 33.2717C64.7463 33.2728 64.7458 33.2728 64.7454 33.2728C64.7407 33.2772 64.7364 33.2816 64.7316 33.286C64.7312 33.286 64.7307 33.2871 64.7303 33.2871C64.7256 33.2915 64.7209 33.2959 64.7162 33.2992C64.7157 33.3003 64.7153 33.3003 64.7153 33.3003C64.7106 33.3047 64.7058 33.3091 64.7015 33.3124C64.7011 33.3124 64.7006 33.3135 64.7002 33.3135C64.6959 33.3179 64.6912 33.3212 64.6869 33.3256C64.686 33.3267 64.6846 33.3267 64.6839 33.3278C64.6796 33.3322 64.6752 33.3355 64.6709 33.3399C64.6701 33.3399 64.6692 33.341 64.6683 33.341C64.664 33.3454 64.6593 33.3498 64.6545 33.3531C64.5097 33.4785 64.3628 33.5974 64.2139 33.7119C64.213 33.7119 64.2117 33.713 64.2109 33.7141C64.2053 33.7185 64.2001 33.7229 64.194 33.7262C62.62 34.9279 60.8481 35.542 59.259 35.542Z" fill="#BB424C"/>
<path d="M63.3707 31.4293L63.3165 30.944L59.679 31.3655L63.9816 27.6656L63.6714 27.2925L59.3356 31.0199L60.1994 27.5654L59.7333 27.4433L58.7037 31.5624L55.7571 34.0958L56.0674 34.47L59.0173 31.9344L63.3707 31.4293Z" fill="white"/>
<path d="M83.8634 27.78C80.7872 30.4245 76.7595 30.7194 74.8662 28.4359C72.9734 26.1524 73.9327 22.1586 77.0079 19.513C80.0837 16.8685 86.0052 18.8571 86.0052 18.8571C86.0052 18.8571 86.9391 25.1355 83.8634 27.78Z" fill="#F14857"/>
<path d="M83.8935 27.7536C83.8939 27.7536 83.8948 27.7525 83.8953 27.7525C83.8944 27.7525 83.8939 27.7536 83.8935 27.7536ZM84.4026 27.2341C84.4031 27.233 84.4035 27.233 84.404 27.233C84.4035 27.233 84.4035 27.233 84.4026 27.2341ZM84.4871 27.1307C84.4905 27.1263 84.494 27.1219 84.4975 27.1186C84.494 27.123 84.4905 27.1263 84.4871 27.1307ZM84.5138 27.0977C86.3816 24.7217 86.1921 20.7225 86.0607 19.3424C86.1921 20.7192 86.3834 24.7206 84.5138 27.0977Z" fill="#BFACAB"/>
<path d="M78.4679 29.969C77.132 29.969 75.925 29.5354 75.0729 28.6528L86.0478 19.216C86.0521 19.2556 86.0564 19.2974 86.0607 19.3426C86.1922 20.7226 86.3816 24.7218 84.5138 27.0978C84.513 27.0989 84.513 27.0989 84.5125 27.0989C84.5082 27.1044 84.5039 27.1099 84.5001 27.1154C84.4992 27.1165 84.4983 27.1176 84.4975 27.1187C84.494 27.122 84.4906 27.1264 84.4872 27.1308C84.4858 27.133 84.4845 27.1341 84.4833 27.1363C84.4811 27.1385 84.4793 27.1407 84.4772 27.144C84.4747 27.1473 84.472 27.1506 84.4695 27.1539C84.4673 27.1561 84.466 27.1572 84.4643 27.1594C84.4617 27.1627 84.4596 27.1649 84.4574 27.1682C84.4557 27.1704 84.4544 27.1726 84.4522 27.1737C84.4497 27.177 84.4467 27.1814 84.444 27.1847C84.4427 27.1858 84.4419 27.1869 84.4406 27.1891C84.4372 27.1924 84.4337 27.1968 84.4307 27.2012C84.4294 27.2023 84.4286 27.2034 84.4273 27.2045C84.4238 27.2089 84.4203 27.2133 84.4165 27.2177C84.416 27.2177 84.4156 27.2188 84.4151 27.2199C84.4113 27.2243 84.4074 27.2287 84.404 27.2331C84.4036 27.2331 84.4031 27.2331 84.4027 27.2342C84.3988 27.2387 84.3945 27.2442 84.3907 27.2486C84.3902 27.2486 84.3902 27.2486 84.3898 27.2497C84.3855 27.2541 84.3816 27.2596 84.3773 27.264C84.2287 27.4378 84.0684 27.6007 83.8953 27.7526C83.8948 27.7526 83.894 27.7537 83.8935 27.7537C83.8888 27.7581 83.8845 27.7625 83.8797 27.7658C83.8789 27.7669 83.8784 27.7669 83.878 27.768C83.8728 27.7713 83.8685 27.7757 83.8634 27.7801C83.3236 28.2445 82.7545 28.6363 82.1726 28.9543C82.1682 28.9565 82.1639 28.9587 82.1592 28.9609C82.1575 28.962 82.1557 28.9631 82.1541 28.9642C80.928 29.63 79.6478 29.969 78.4679 29.969Z" fill="#BB424C"/>
<path d="M82.5792 25.8575L82.5254 25.3711L78.8874 25.7926L83.1896 22.0938L82.8799 21.7196L78.5436 25.4481L79.4082 21.9914L78.9425 21.8715L77.9122 25.9907L74.9665 28.524L75.2762 28.8982L78.2257 26.3615L82.5792 25.8575Z" fill="white"/>
<path d="M88.6916 42.3227C93.026 42.7629 96.7953 40.5113 97.1107 37.2945C97.4256 34.0788 94.1667 31.113 89.8326 30.6739C85.4978 30.2326 81.4136 35.701 81.4136 35.701C81.4136 35.701 84.3566 41.8825 88.6916 42.3227Z" fill="#F14857"/>
<path d="M87.4936 42.0511C87.4918 42.0511 87.4892 42.05 87.4871 42.0489C87.4892 42.05 87.4914 42.0511 87.4936 42.0511ZM87.4733 42.0445C87.4703 42.0434 87.4672 42.0423 87.4647 42.0412C87.4672 42.0423 87.4706 42.0434 87.4733 42.0445ZM87.4152 42.0236C85.4176 41.2896 83.8004 39.4473 82.7507 37.9396C83.8009 39.4473 85.4184 41.2896 87.4152 42.0236Z" fill="#582C2D"/>
<path d="M89.7702 42.3782C89.4156 42.3782 89.0559 42.3595 88.6915 42.3231C88.6841 42.322 88.6777 42.3209 88.6703 42.3209C88.6699 42.3209 88.6696 42.3209 88.6691 42.3209C88.6622 42.3198 88.6553 42.3187 88.648 42.3187L88.6475 42.3176C88.2852 42.278 87.9333 42.1977 87.5917 42.0854C87.5853 42.0832 87.5784 42.081 87.5718 42.0788C87.5715 42.0788 87.5715 42.0788 87.5711 42.0788C87.565 42.0766 87.5585 42.0744 87.5526 42.0722C87.5517 42.0722 87.5503 42.0711 87.5495 42.0711C87.5435 42.0689 87.5379 42.0667 87.5318 42.0656C87.5305 42.0645 87.5288 42.0645 87.5275 42.0634C87.5223 42.0623 87.5171 42.0601 87.512 42.0579C87.5103 42.0579 87.5085 42.0568 87.5073 42.0568C87.5026 42.0546 87.4982 42.0535 87.4935 42.0513C87.4913 42.0513 87.4891 42.0502 87.487 42.0491C87.4827 42.048 87.478 42.0458 87.4733 42.0447C87.4706 42.0436 87.4672 42.0425 87.4647 42.0414C87.4616 42.0403 87.4586 42.0392 87.4556 42.0381C87.4513 42.037 87.4466 42.0348 87.4418 42.0337C87.4401 42.0326 87.4384 42.0326 87.4362 42.0315C87.4297 42.0293 87.4229 42.026 87.4159 42.0238C87.4159 42.0238 87.4155 42.0238 87.4151 42.0238C85.4184 41.2898 83.8008 39.4475 82.7507 37.9399C82.1971 37.1453 81.8011 36.4443 81.5905 36.0481L97.0568 37.6174C96.5738 40.3951 93.4895 42.3782 89.7702 42.3782Z" fill="#BB424C"/>
<path d="M88.6794 39.8074L88.4356 39.3397L91.9335 37.4468L85.8704 36.8305L85.9221 36.3034L92.0322 36.9241L89.183 34.3808L89.5255 33.9835L92.9222 37.0143L97.0744 37.4358L97.0228 37.9629L92.8662 37.5414L88.6794 39.8074Z" fill="white"/>
<path d="M93.2007 50.4403C96.1168 50.7353 98.6514 49.221 98.8638 47.0574C99.0753 44.8949 96.8835 42.9008 93.9684 42.6048C91.0529 42.3087 88.3063 45.9866 88.3063 45.9866C88.3063 45.9866 90.2857 50.1432 93.2007 50.4403Z" fill="#F14857"/>
<path d="M93.9259 50.4768C93.6876 50.4768 93.446 50.4647 93.2008 50.4405C93.1953 50.4394 93.1897 50.4394 93.1841 50.4383C93.1901 50.4394 93.1953 50.4394 93.2008 50.4405C93.4455 50.4647 93.688 50.4768 93.9259 50.4768ZM94.6001 50.4438C94.6035 50.4438 94.6066 50.4438 94.61 50.4438C94.6069 50.4438 94.603 50.4438 94.6001 50.4438ZM94.6164 50.4427C94.6177 50.4427 94.6186 50.4427 94.6195 50.4427C94.6186 50.4427 94.6173 50.4427 94.6164 50.4427ZM93.1836 50.4383C91.1939 50.2259 89.6431 48.2175 88.8625 46.9728C89.6435 48.2175 91.1947 50.2248 93.1836 50.4383Z" fill="#BFACAB"/>
<path d="M93.9259 50.4768C93.688 50.4768 93.4455 50.4647 93.2008 50.4405C93.1953 50.4394 93.1901 50.4394 93.1841 50.4383H93.1836C91.1947 50.2248 89.6435 48.2175 88.8625 46.9728C88.8612 46.9706 88.8599 46.9684 88.8586 46.9662C88.6644 46.6559 88.5183 46.394 88.4253 46.219L98.8277 47.2755C98.5335 48.968 96.803 50.2215 94.6195 50.4427C94.6186 50.4427 94.6177 50.4427 94.6164 50.4427C94.6143 50.4427 94.6125 50.4427 94.61 50.4438C94.6066 50.4438 94.6035 50.4438 94.6001 50.4438C94.3795 50.4658 94.1546 50.4768 93.9259 50.4768Z" fill="#BB424C"/>
<path d="M93.1936 48.7478L93.0295 48.4331L95.382 47.1598L91.3042 46.7449L91.3392 46.3916L95.4483 46.8087L93.5317 45.0974L93.7622 44.83L96.0471 46.8692L98.8394 47.1521L98.8045 47.5075L96.0092 47.2236L93.1936 48.7478Z" fill="white"/>
<path d="M75.6881 48.2737C78.2856 49.6526 81.1917 49.208 82.179 47.281C83.1659 45.3529 81.8602 42.671 79.2627 41.291C76.6646 39.912 72.7716 42.2858 72.7716 42.2858C72.7716 42.2858 73.0895 46.8936 75.6881 48.2737Z" fill="#F14857"/>
<path d="M67.4495 203.844C67.431 203.009 65.8694 131.834 65.4236 101.998C64.279 102.115 63.1448 102.181 62.0307 102.181C41.7656 102.181 26.6159 83.9699 26.4553 83.7751L27.0342 83.2831C27.1919 83.4757 42.1305 101.405 62.0294 101.404C63.1412 101.403 64.2707 101.348 65.4119 101.229C65.3452 96.6333 65.3055 93.0842 65.3055 91.0384C65.3055 76.1761 54.1901 68.9293 54.0773 68.8578L54.5421 68.1017C54.6583 68.1754 66.1822 75.6875 66.1822 91.0384C66.1822 97.2551 66.5418 117.297 66.9661 138.797C71.0671 136.653 72.7145 104.636 71.3726 52.5219C71.3437 51.4203 71.3265 50.7446 71.3265 50.574H72.2035C72.2035 50.7424 72.22 51.4104 72.2487 52.4999C72.6145 66.6876 72.8311 81.8954 72.6606 95.5779C75.5946 95.151 87.5586 92.8894 94.7979 83.741C99.5533 77.7311 101.393 69.9231 100.269 60.5325L101.187 60.418C102.345 70.0738 100.435 78.1229 95.5138 84.3374C89.5992 91.8076 80.6567 94.8109 75.704 95.9532L74.2321 203.149L73.4787 203.139L74.9481 96.1194C73.9314 96.3351 73.1391 96.4616 72.6481 96.531C72.3242 119.896 70.8406 138.586 66.9851 139.75C67.5886 170.226 68.3137 203.258 68.3261 203.826L67.4495 203.844Z" fill="#805D5E"/>
<path d="M76.4919 48.6401C76.2221 48.5367 75.9534 48.4145 75.6876 48.2737C73.4601 47.0906 72.9087 43.536 72.7966 42.5467C72.9094 43.5404 73.4622 47.0917 75.688 48.2737C75.9534 48.4145 76.2221 48.5367 76.4919 48.6401Z" fill="#582C2D"/>
<path d="M78.7474 49.074C78.3502 49.074 77.9388 49.0311 77.5223 48.9441C77.5214 48.9441 77.5214 48.9441 77.521 48.9441C77.514 48.943 77.5076 48.9408 77.5007 48.9397C77.1664 48.8682 76.8283 48.7691 76.4919 48.6404C76.2221 48.5369 75.9534 48.4148 75.688 48.2739C73.4622 47.092 72.9094 43.5407 72.7971 42.5469L82.0661 47.4683C81.4255 48.5171 80.1797 49.074 78.7474 49.074Z" fill="#BB424C"/>
<path d="M76.2985 46.6998L76.2614 46.3454L78.9102 46.0549L75.2762 44.1246L75.4377 43.8098L79.1002 45.7544L77.9462 43.4401L78.258 43.2794L79.634 46.0373L82.1221 47.359L81.9602 47.6748L79.469 46.352L76.2985 46.6998Z" fill="white"/>
<path d="M16.4382 45.2877C19.1272 44.1025 20.6185 41.524 19.7699 39.5288C18.9222 37.5336 16.0545 36.8777 13.366 38.063C10.6775 39.2482 10.0339 43.8219 10.0339 43.8219C10.0339 43.8219 13.7497 46.473 16.4382 45.2877Z" fill="#F14857"/>
<path d="M14.8901 45.5928C13.7227 45.5928 12.5295 45.1647 11.6183 44.73C12.5299 45.1647 13.7231 45.5928 14.891 45.5928C15.4216 45.5928 15.9472 45.5047 16.4383 45.2879C16.7743 45.1394 17.0914 44.9699 17.3878 44.7828C17.0918 44.9699 16.7748 45.1394 16.4383 45.2879C15.9472 45.5047 15.4213 45.5928 14.8901 45.5928ZM17.3903 44.7806C17.3938 44.7784 17.3969 44.7762 17.4003 44.774C17.3973 44.7762 17.3933 44.7784 17.3903 44.7806Z" fill="#BFACAB"/>
<path d="M14.891 45.5928C13.7231 45.5928 12.5299 45.1647 11.6183 44.73C11.0002 44.435 10.5121 44.1357 10.2493 43.9662L19.8423 39.7359C20.42 41.4384 19.3896 43.5018 17.4123 44.7663C17.4111 44.7674 17.4098 44.7685 17.408 44.7696C17.4055 44.7707 17.4028 44.7729 17.4003 44.774C17.3969 44.7762 17.3938 44.7784 17.3903 44.7806C17.3895 44.7817 17.3886 44.7817 17.3878 44.7828C17.0914 44.9699 16.7743 45.1394 16.4383 45.2879C15.9472 45.5047 15.4216 45.5928 14.891 45.5928Z" fill="#BB424C"/>
<path d="M15.6233 43.8132L15.3295 43.6195L16.7769 41.3415L13.0162 43L12.877 42.6731L16.667 41.0025L14.1754 40.4567L14.2491 40.1089L17.2188 40.7593L19.7945 39.6236L19.9332 39.9494L17.355 41.0873L15.6233 43.8132Z" fill="white"/>
<path d="M112.594 36.4079C109.82 39.8272 105.586 40.9299 103.139 38.8697C100.691 36.8107 100.957 32.3702 103.732 28.9498C106.506 25.5305 113.187 26.4869 113.187 26.4869C113.187 26.4869 115.369 32.9875 112.594 36.4079Z" fill="#F14857"/>
<path d="M112.661 36.3232C112.662 36.3221 112.663 36.3199 112.664 36.3188C112.663 36.321 112.662 36.3221 112.661 36.3232ZM112.7 36.2737C112.702 36.2704 112.703 36.2682 112.705 36.266C112.703 36.2682 112.701 36.2704 112.7 36.2737ZM112.725 36.2396C112.728 36.2352 112.731 36.2319 112.734 36.2275C112.731 36.2308 112.727 36.2352 112.725 36.2396ZM112.774 36.1725C114.278 34.0815 114.12 30.9979 113.757 28.8751C114.121 30.9968 114.279 34.0804 112.774 36.1725Z" fill="#BFACAB"/>
<path d="M106.149 39.9009C105.138 39.9009 104.189 39.6291 103.4 39.0612L112.399 27.9703C112.488 28.054 112.583 28.1321 112.681 28.2058C112.681 28.2069 112.681 28.2069 112.681 28.2069C112.685 28.2091 112.689 28.2124 112.693 28.2157C112.693 28.2157 112.694 28.2168 112.695 28.2168C112.699 28.2201 112.702 28.2224 112.705 28.2246C112.71 28.2279 112.714 28.2312 112.719 28.2345C113.056 28.481 113.404 28.6945 113.757 28.875C114.12 30.9978 114.278 34.0814 112.774 36.1724C112.766 36.1834 112.759 36.1933 112.752 36.2032C112.75 36.2043 112.75 36.2043 112.75 36.2054C112.746 36.2109 112.742 36.2164 112.737 36.2219C112.736 36.2241 112.735 36.2252 112.734 36.2274C112.731 36.2318 112.728 36.2351 112.725 36.2395C112.723 36.2417 112.722 36.2439 112.72 36.2472C112.717 36.2494 112.715 36.2516 112.714 36.2549C112.711 36.2582 112.707 36.2615 112.705 36.2659C112.703 36.2681 112.702 36.2703 112.7 36.2736C112.698 36.2758 112.695 36.2791 112.693 36.2813C112.691 36.2846 112.689 36.2868 112.687 36.2901C112.684 36.2934 112.682 36.2967 112.679 36.3C112.678 36.3022 112.677 36.3033 112.674 36.3055C112.671 36.3099 112.668 36.3143 112.664 36.3187C112.663 36.3198 112.662 36.322 112.661 36.3231C112.658 36.3286 112.653 36.3331 112.65 36.3375C112.649 36.3386 112.648 36.3397 112.647 36.3419C112.644 36.3452 112.64 36.3496 112.637 36.354C112.637 36.3551 112.636 36.3562 112.635 36.3562C112.631 36.3617 112.627 36.3661 112.624 36.3716C112.623 36.3727 112.621 36.3738 112.62 36.3749C112.617 36.3793 112.613 36.3848 112.609 36.3892C112.608 36.3903 112.607 36.3914 112.607 36.3925C112.603 36.3969 112.598 36.4024 112.594 36.4079C110.768 38.6584 108.313 39.9009 106.149 39.9009Z" fill="#BB424C"/>
<path d="M110.864 34.6118L110.714 34.1045L106.92 35.2677L110.802 30.4838L110.401 30.146L106.49 34.9662L106.756 31.1177L106.237 31.0814L105.919 35.6694L103.262 38.9434L103.663 39.2812L106.323 36.0029L110.864 34.6118Z" fill="white"/>
<path d="M90.8226 25.9423C92.0847 30.1869 95.5715 32.8699 98.6102 31.9323C101.649 30.9969 103.089 26.7951 101.826 22.5494C100.564 18.3048 94.0392 16.5594 94.0392 16.5594C94.0392 16.5594 89.5604 21.6976 90.8226 25.9423Z" fill="#F14857"/>
<path d="M90.8168 25.9223C90.8164 25.9212 90.8164 25.9212 90.816 25.9201C90.816 25.9212 90.8164 25.9212 90.8168 25.9223ZM90.7983 25.8585C90.7983 25.8574 90.7979 25.8563 90.7979 25.8563C90.7979 25.8574 90.7983 25.8574 90.7983 25.8585ZM90.7402 25.6285C89.9179 22.0595 92.9018 17.9767 93.7927 16.8574C92.8988 17.9811 89.9183 22.0628 90.7402 25.6285Z" fill="#BFACAB"/>
<path d="M97.3613 32.1094C94.9878 32.1094 92.5637 30.1692 91.2757 27.1912C91.1034 26.7929 90.9513 26.3758 90.8225 25.9422C90.8208 25.9356 90.8187 25.929 90.8169 25.9224C90.8165 25.9213 90.816 25.9213 90.816 25.9202C90.8144 25.9136 90.8122 25.907 90.8105 25.9015C90.8101 25.9004 90.8101 25.8981 90.8096 25.897C90.8079 25.8915 90.8062 25.8849 90.8044 25.8794C90.804 25.8783 90.8036 25.8772 90.8036 25.8761C90.8019 25.8706 90.8001 25.864 90.7984 25.8585C90.7984 25.8574 90.7979 25.8574 90.7979 25.8563C90.7963 25.8497 90.7945 25.8442 90.7927 25.8376C90.7924 25.8365 90.792 25.8343 90.7915 25.8332C90.7898 25.8266 90.7884 25.8211 90.7868 25.8156C90.7864 25.8145 90.7859 25.8123 90.7855 25.8112C90.7841 25.8057 90.7825 25.8002 90.7812 25.7947C90.7807 25.7936 90.7803 25.7914 90.7798 25.7903C90.7786 25.7848 90.7773 25.7793 90.7755 25.7749C90.7751 25.7727 90.7747 25.7705 90.7743 25.7694C90.773 25.7639 90.7717 25.7584 90.7699 25.7529C90.7696 25.7507 90.7691 25.7485 90.7687 25.7463C90.7669 25.7408 90.7661 25.7364 90.7648 25.7309C90.764 25.7287 90.7635 25.7254 90.7626 25.7232C90.7618 25.7199 90.7609 25.7155 90.7601 25.7122C90.7592 25.7089 90.7583 25.7056 90.7575 25.7023C90.7561 25.6979 90.7554 25.6946 90.7545 25.6902C90.754 25.6869 90.7532 25.6836 90.7523 25.6814C90.7514 25.677 90.7506 25.6748 90.7502 25.6704C90.7489 25.6659 90.7475 25.6615 90.7468 25.6571C90.7463 25.6549 90.7459 25.6538 90.7454 25.6516C90.7437 25.645 90.7423 25.6384 90.7407 25.6318C90.7407 25.6307 90.7403 25.6296 90.7403 25.6285C89.9183 22.0629 92.8989 17.9811 93.7932 16.8575L98.2969 32.0059C97.9881 32.0753 97.675 32.1094 97.3613 32.1094Z" fill="#BB424C"/>
<path d="M93.1005 24.966L93.4309 24.5577L96.489 27.1219L94.7232 21.1836L95.2208 21.0306L97.0007 27.0152L98.2147 23.3593L98.7075 23.5299L97.2596 27.8867L98.4684 31.9531L97.9708 32.1072L96.7604 28.0353L93.1005 24.966Z" fill="white"/>
<path d="M75.6183 6.86282C73.4093 10.6871 73.8361 15.1144 76.5719 16.7541C79.3079 18.395 83.3167 16.6243 85.5266 12.8022C87.7361 8.97908 84.5733 2.90982 84.5733 2.90982C84.5733 2.90982 77.8277 3.03968 75.6183 6.86282Z" fill="#F14857"/>
<path d="M75.1715 7.71917C75.1737 7.71476 75.1754 7.71036 75.1776 7.70706C75.1758 7.71036 75.1737 7.71476 75.1715 7.71917ZM75.1918 7.67626C75.1952 7.66966 75.1986 7.66195 75.2021 7.65534C75.1982 7.66195 75.1952 7.66966 75.1918 7.67626Z" fill="#BFACAB"/>
<path d="M76.307 16.5691C74.0165 14.947 73.5518 11.2217 75.1521 7.76067C75.153 7.75957 75.1534 7.75738 75.1543 7.75628C75.1568 7.75078 75.1595 7.74527 75.162 7.73977C75.1633 7.73647 75.1642 7.73427 75.1654 7.73207C75.1676 7.72767 75.1694 7.72325 75.1715 7.71885C75.1737 7.71445 75.1758 7.71005 75.1776 7.70675C75.1789 7.70345 75.1801 7.70015 75.1819 7.69685C75.1844 7.69134 75.1875 7.68584 75.19 7.68034C75.1905 7.67814 75.1913 7.67704 75.1918 7.67594C75.1952 7.66934 75.1982 7.66163 75.202 7.65503V7.65393C75.3288 7.3887 75.4675 7.12459 75.6182 6.86267C75.6221 6.85607 75.6255 6.85056 75.6294 6.84396C77.533 3.58317 82.7403 3.02302 84.1902 2.92948L76.307 16.5691Z" fill="#BB424C"/>
<path d="M77.8665 7.90738L78.3856 7.87766L78.6073 11.9055L81.6978 6.55816L82.1462 6.82668L79.0317 12.2147L82.4935 10.6476L82.7045 11.1307L78.5777 13.0005L76.4616 16.6619L76.0137 16.3933L78.1318 12.7276L77.8665 7.90738Z" fill="white"/>
<path d="M113.895 49.886C110.819 52.5305 106.791 52.8254 104.898 50.5419C103.005 48.2583 103.964 44.2635 107.04 41.619C110.116 38.9745 116.037 40.9631 116.037 40.9631C116.037 40.9631 116.971 47.2414 113.895 49.886Z" fill="#F14857"/>
<path d="M112.269 51.0239C112.477 50.9084 112.682 50.7829 112.886 50.6487C112.682 50.7829 112.476 50.9084 112.269 51.0239Z" fill="#BFACAB"/>
<path d="M113.921 49.8624C116.458 47.6482 116.236 42.9458 116.092 41.4381C116.236 42.9414 116.459 47.6471 113.921 49.8624Z" fill="#582C2D"/>
<path d="M108.499 52.075C107.164 52.0739 105.956 51.6403 105.105 50.7588L116.08 41.322C116.083 41.3583 116.088 41.3968 116.092 41.4386C116.236 42.9463 116.458 47.6487 113.921 49.8629C113.917 49.8662 113.915 49.8684 113.913 49.8706C113.911 49.8717 113.908 49.8739 113.907 49.875C113.903 49.8784 113.899 49.8827 113.895 49.8861C113.568 50.1667 113.23 50.4209 112.886 50.6487C112.682 50.783 112.477 50.9084 112.269 51.024C111.017 51.7206 109.706 52.075 108.499 52.075Z" fill="#BB424C"/>
<path d="M112.61 47.9633L112.556 47.4769L108.919 47.8984L113.221 44.1996L112.911 43.8255L108.576 47.554L109.439 44.0973L108.974 43.9773L107.944 48.0965L104.998 50.6299L105.308 51.0029L108.257 48.4674L112.61 47.9633Z" fill="white"/>
<path d="M126.049 55.9946C122.086 56.7111 118.456 54.9073 117.944 51.9657C117.431 49.0241 120.227 46.0582 124.191 45.3418C128.155 44.6243 132.298 49.3707 132.298 49.3707C132.298 49.3707 130.013 55.2771 126.049 55.9946Z" fill="#F14857"/>
<path d="M124.32 56.1509C124.275 56.1509 124.231 56.1509 124.187 56.1498C124.231 56.1509 124.274 56.1509 124.318 56.1509C124.881 56.1509 125.462 56.1003 126.049 55.9946C125.462 56.1003 124.883 56.1509 124.32 56.1509ZM126.065 55.9913C126.067 55.9913 126.07 55.9902 126.072 55.9902C126.07 55.9902 126.067 55.9902 126.065 55.9913ZM126.076 55.9891C128.316 55.5698 130.016 53.4965 131.069 51.7808C130.017 53.4965 128.316 55.5709 126.076 55.9891Z" fill="#BFACAB"/>
<path d="M124.318 56.1509C124.274 56.1509 124.231 56.1509 124.187 56.1498C124.185 56.1498 124.182 56.1498 124.18 56.1498C124.178 56.1498 124.175 56.1498 124.172 56.1498C121.129 56.1014 118.597 54.5629 118.016 52.2595L132.158 49.7019C131.975 50.1212 131.609 50.9004 131.075 51.772C131.073 51.7742 131.071 51.7764 131.07 51.7786C131.07 51.7786 131.069 51.7797 131.069 51.7808C130.016 53.4965 128.316 55.5698 126.076 55.9891C126.075 55.9891 126.074 55.9891 126.073 55.9902C126.07 55.9902 126.067 55.9913 126.065 55.9913C126.059 55.9924 126.055 55.9935 126.049 55.9946C125.462 56.1003 124.881 56.1509 124.318 56.1509Z" fill="#BB424C"/>
<path d="M125.886 53.6748L126.079 53.2269L122.724 51.7335L128.268 50.7299L128.184 50.2489L122.598 51.2592L125.047 48.7104L124.703 48.3693L121.783 51.4067L117.986 52.0934L118.071 52.5743L121.871 51.8876L125.886 53.6748Z" fill="white"/>
<path d="M112.07 67.4158C110.195 64.6491 110.28 61.2772 112.261 59.8861C114.24 58.494 117.366 59.6099 119.242 62.3755C121.116 65.1432 119.05 69.9051 119.05 69.9051C119.05 69.9051 113.945 70.1824 112.07 67.4158Z" fill="#F14857"/>
<path d="M118.661 69.9128C117.822 69.9128 115.77 69.8226 114.058 69.0236C115.769 69.8226 117.821 69.9128 118.661 69.9128Z" fill="#BFACAB"/>
<path d="M118.661 69.9128C117.821 69.9128 115.769 69.8226 114.058 69.0236C114.055 69.0214 114.051 69.0192 114.047 69.0181C114.046 69.017 114.045 69.017 114.044 69.017C113.266 68.6506 112.559 68.1355 112.07 67.4158C110.259 64.7427 110.282 61.5116 112.07 60.0402L118.76 69.9128C118.729 69.9128 118.697 69.9128 118.661 69.9128Z" fill="#BB424C"/>
<path d="M113.713 66.5011L114.107 66.4956L114.058 63.4384L116.681 67.3088L117.006 67.081L114.363 63.1809L117.064 64.1735L117.198 63.7949L113.978 62.6119L112.183 59.9619L111.857 60.1897L113.656 62.843L113.713 66.5011Z" fill="white"/>
<path d="M79.0375 205.817C76.4199 207.848 73.062 207.949 71.5381 206.042C70.0133 204.135 70.8999 200.943 73.518 198.911C76.137 196.881 81.0183 198.687 81.0183 198.687C81.0183 198.687 81.6556 203.785 79.0375 205.817Z" fill="#F14857"/>
<path d="M88.5257 208.847C87.8166 208.847 87.1141 208.719 86.4774 208.393C86.4718 208.39 86.4657 208.388 86.4601 208.385C86.4657 208.388 86.4714 208.39 86.4774 208.393C87.1141 208.719 87.8158 208.847 88.5253 208.847C90.1955 208.847 91.906 208.139 92.9028 207.641C91.9069 208.139 90.1963 208.847 88.5257 208.847ZM86.4377 208.374C86.4339 208.372 86.4304 208.369 86.4266 208.367C86.43 208.369 86.4339 208.372 86.4377 208.374ZM86.3864 208.346C86.3826 208.344 86.3792 208.343 86.3757 208.341C86.3792 208.343 86.383 208.344 86.3864 208.346ZM86.3683 208.338C86.3654 208.335 86.362 208.333 86.3589 208.332C86.3624 208.334 86.3654 208.335 86.3683 208.338ZM86.3516 208.328C86.3486 208.326 86.3451 208.324 86.3421 208.323C86.3455 208.324 86.3486 208.326 86.3516 208.328ZM86.3344 208.319C86.3317 208.318 86.3283 208.316 86.3258 208.314C86.3288 208.316 86.3313 208.318 86.3344 208.319ZM86.3175 208.31C86.3145 208.308 86.312 208.307 86.3089 208.306C86.312 208.307 86.315 208.309 86.3175 208.31ZM86.3007 208.3C86.2978 208.299 86.2951 208.298 86.2926 208.297C86.2951 208.298 86.2982 208.299 86.3007 208.3ZM86.2668 208.282C86.2646 208.281 86.262 208.279 86.2603 208.278C86.2624 208.279 86.2646 208.281 86.2668 208.282ZM86.2159 208.254C86.2146 208.254 86.2133 208.253 86.212 208.252C86.2133 208.253 86.2146 208.253 86.2159 208.254ZM92.9157 207.634C92.9166 207.634 92.9175 207.633 92.9179 207.633C92.9171 207.633 92.9166 207.634 92.9157 207.634Z" fill="#582C2D"/>
<path d="M80.317 204.155C80.0159 204.797 79.6026 205.378 79.0374 205.817C79.0322 205.821 79.0278 205.825 79.0223 205.829C79.022 205.829 79.0202 205.83 79.0189 205.831C79.0151 205.834 79.0111 205.837 79.0072 205.841C79.0053 205.842 79.0036 205.842 79.0026 205.844C78.9991 205.847 78.9955 205.849 78.9921 205.852C78.99 205.853 78.9883 205.855 78.9862 205.856C78.984 205.859 78.9804 205.861 78.977 205.864C78.9751 205.865 78.973 205.866 78.9723 205.867C78.9688 205.87 78.9653 205.872 78.9616 205.875C78.9601 205.876 78.9579 205.878 78.956 205.879C78.9526 205.881 78.9502 205.884 78.9468 205.886C78.9445 205.888 78.9425 205.89 78.9405 205.892C78.9374 205.893 78.9349 205.896 78.9314 205.898C78.9297 205.9 78.9275 205.901 78.9244 205.903C78.9221 205.905 78.9188 205.907 78.9165 205.909C78.9144 205.911 78.9113 205.913 78.909 205.914C78.9069 205.917 78.9039 205.918 78.9014 205.92C78.8982 205.922 78.8962 205.924 78.894 205.926C78.8918 205.928 78.8886 205.93 78.8865 205.932C78.8835 205.933 78.8811 205.936 78.878 205.937C78.8758 205.939 78.8737 205.941 78.8714 205.943C78.8683 205.945 78.8658 205.947 78.8625 205.949C78.8606 205.951 78.8586 205.952 78.8555 205.954C78.8532 205.956 78.8501 205.958 78.8476 205.96C78.8455 205.962 78.8427 205.963 78.841 205.964C78.8381 205.967 78.8349 205.969 78.8313 205.972C78.8295 205.973 78.8278 205.974 78.8258 205.975C78.8223 205.978 78.8196 205.981 78.816 205.983C78.8145 205.984 78.8129 205.985 78.8115 205.986C78.8077 205.989 78.8038 205.991 78.7999 205.994C78.7987 205.995 78.7981 205.996 78.7964 205.997C78.7925 206 78.7888 206.003 78.785 206.006C78.7835 206.006 78.7832 206.007 78.782 206.007C78.778 206.011 78.7741 206.014 78.7691 206.016C78.7687 206.017 78.7685 206.018 78.7671 206.018C76.2842 207.787 73.2384 207.873 71.7043 206.224L81.0462 198.977C81.0463 198.985 81.0473 198.993 81.0476 199C81.0479 199.003 81.048 199.004 81.0486 199.006C81.0485 199.007 81.0485 199.007 81.0483 199.007C81.0606 199.172 81.0738 199.395 81.0818 199.662C81.0816 199.662 81.082 199.664 81.0816 199.664C81.0817 199.669 81.0819 199.674 81.0819 199.679C81.1105 200.793 81.0256 202.642 80.317 204.155Z" fill="#BB424C"/>
<path d="M78.012 204.221L77.9782 203.827L74.9415 204.043L78.6033 201.203L78.3545 200.891L74.6631 203.753L75.4591 200.993L75.0749 200.88L74.1262 204.17L71.6191 206.116L71.8684 206.428L74.3783 204.48L78.012 204.221Z" fill="white"/>
<path d="M112.719 28.2346C115.241 30.0779 118.354 30.0559 119.674 28.1851C120.994 26.3131 120.02 23.3021 117.498 21.4577C114.976 19.6133 110.543 21.5072 110.543 21.5072C110.543 21.5072 110.197 26.3901 112.719 28.2346Z" fill="#F14857"/>
<path d="M111.291 26.3528C111.29 26.3506 111.29 26.3495 111.289 26.3484C111.29 26.3495 111.29 26.3517 111.291 26.3528ZM111.269 26.3011C111.267 26.2967 111.266 26.2934 111.264 26.289C111.265 26.2934 111.267 26.2978 111.269 26.3011Z" fill="#BFACAB"/>
<path d="M116.601 29.6003C115.784 29.6003 114.905 29.4044 114.045 29.0138C113.949 28.9697 113.853 28.9235 113.757 28.8751C113.404 28.6946 113.056 28.4811 112.718 28.2346C112.714 28.2313 112.71 28.228 112.705 28.2247C112.702 28.2225 112.699 28.2203 112.695 28.217C112.694 28.217 112.693 28.2159 112.693 28.2159C112.689 28.2126 112.685 28.2093 112.681 28.2071C112.681 28.2071 112.681 28.2071 112.681 28.206C112.067 27.7449 111.627 27.1022 111.31 26.3957C111.31 26.3957 111.31 26.3957 111.31 26.3946C111.308 26.3902 111.306 26.3869 111.305 26.3825C111.304 26.3814 111.304 26.3803 111.304 26.3792C111.301 26.3759 111.299 26.3715 111.298 26.3671C111.297 26.366 111.297 26.366 111.297 26.3649C111.297 26.3649 111.297 26.3649 111.297 26.3638C111.295 26.3605 111.293 26.3561 111.291 26.3528C111.29 26.3517 111.29 26.3495 111.289 26.3484C111.287 26.344 111.285 26.3384 111.283 26.3329C111.282 26.3296 111.279 26.3263 111.278 26.3219C111.277 26.3208 111.277 26.3186 111.276 26.3175C111.274 26.3131 111.273 26.3098 111.27 26.3054C111.27 26.3043 111.269 26.3021 111.269 26.301C111.267 26.2977 111.265 26.2933 111.264 26.2889C111.264 26.2878 111.263 26.2867 111.262 26.2856C111.261 26.2801 111.258 26.2757 111.256 26.2713C111.256 26.2702 111.256 26.2702 111.255 26.2691C110.88 25.381 110.694 24.4049 110.605 23.5685C110.604 23.5685 110.604 23.5674 110.604 23.5663C110.604 23.563 110.603 23.5586 110.603 23.5542C110.521 22.7827 110.522 22.1334 110.531 21.7846L119.527 28.3645C118.849 29.1877 117.79 29.6003 116.601 29.6003Z" fill="#BB424C"/>
<path d="M113.592 26.6773L113.604 26.2999L116.425 26.4L112.899 23.8204L113.114 23.5145L116.67 26.1128L115.801 23.5101L116.152 23.389L117.187 26.4925L119.602 28.2577L119.386 28.5647L116.969 26.7962L113.592 26.6773Z" fill="white"/>
<path d="M67.0152 11.6139C68.7108 12.8541 70.8056 12.8398 71.6935 11.5809C72.5809 10.323 71.9258 8.29697 70.2302 7.0567C68.5338 5.81644 65.5519 7.08861 65.5519 7.08861C65.5519 7.08861 65.3197 10.3736 67.0152 11.6139Z" fill="#F14857"/>
<path d="M66.9855 11.5918C65.9107 10.7796 65.626 9.13654 65.5596 8.07676C65.6263 9.13764 65.911 10.7796 66.9855 11.5918Z" fill="#BFACAB"/>
<path d="M69.6275 12.5327C68.7887 12.5327 67.854 12.2268 67.0152 11.6138C67.0122 11.6116 67.0088 11.6094 67.0057 11.6072C67.0053 11.6072 67.0048 11.6061 67.0045 11.6061C67.0014 11.6039 66.9989 11.6017 66.9958 11.5995C66.9954 11.5995 66.995 11.5995 66.995 11.5995C66.9919 11.5973 66.9889 11.5951 66.986 11.5929C66.9855 11.5918 66.986 11.5918 66.9855 11.5918C65.9111 10.7796 65.6263 9.13765 65.5596 8.07677C65.5381 7.73231 65.5393 7.44839 65.5441 7.27562L71.5949 11.7018C71.1386 12.2543 70.427 12.5327 69.6275 12.5327Z" fill="#BB424C"/>
<path d="M67.6023 10.5661L67.611 10.313L69.5086 10.3801L67.1363 8.6457L67.2819 8.43991L69.6727 10.1875L69.0877 8.4366L69.3242 8.35517L70.0208 10.4417L71.6453 11.6303L71.4996 11.8372L69.8734 10.6475L67.6023 10.5661Z" fill="white"/>
<path d="M66.5645 22.6284C68.2601 23.8687 70.3549 23.8533 71.2428 22.5954C72.1302 21.3365 71.475 19.3115 69.779 18.0713C68.0831 16.831 65.1008 18.1043 65.1008 18.1043C65.1008 18.1043 64.869 21.3882 66.5645 22.6284Z" fill="#F14857"/>
<path d="M66.5481 22.6164C66.5477 22.6164 66.5477 22.6164 66.5472 22.6164C66.5477 22.6164 66.5481 22.6164 66.5481 22.6164ZM65.4372 20.9227C65.4363 20.9194 65.435 20.9161 65.4341 20.9128C65.4354 20.9161 65.4363 20.9194 65.4372 20.9227ZM65.2454 20.1777C65.245 20.1766 65.245 20.1744 65.2446 20.1722C65.2446 20.1744 65.245 20.1766 65.2454 20.1777Z" fill="#BFACAB"/>
<path d="M69.1759 23.5476C68.5014 23.5476 67.7642 23.3495 67.0651 22.9533C67.0643 22.9522 67.0634 22.9522 67.0621 22.9511C67.0565 22.9478 67.0509 22.9445 67.0453 22.9423C66.8825 22.8488 66.7218 22.7442 66.5645 22.6287C66.5615 22.6265 66.5586 22.6243 66.5559 22.6221C66.5534 22.621 66.5507 22.6188 66.5482 22.6166C66.5482 22.6166 66.5478 22.6166 66.5473 22.6166C66.0149 22.2193 65.6746 21.6195 65.4583 20.9856C65.4574 20.9834 65.4565 20.9801 65.4553 20.9768L65.4549 20.9757C65.454 20.9724 65.4527 20.9702 65.4518 20.9669C65.4518 20.9658 65.4515 20.9647 65.451 20.9636C65.4501 20.9614 65.4497 20.9592 65.4488 20.957C65.4479 20.9559 65.4475 20.9537 65.4471 20.9515C65.4463 20.9504 65.4458 20.9482 65.4454 20.9471C65.4428 20.9394 65.4402 20.9317 65.438 20.9251C65.4377 20.924 65.4377 20.924 65.4372 20.9229C65.4364 20.9196 65.4355 20.9163 65.4342 20.913C65.4337 20.913 65.4337 20.9119 65.4337 20.9119C65.4325 20.9086 65.4316 20.9053 65.4303 20.902C65.4303 20.9009 65.4299 20.8998 65.4299 20.8998C65.4285 20.8965 65.4278 20.8932 65.4264 20.8899C65.4264 20.8888 65.4264 20.8888 65.4264 20.8888C65.3537 20.661 65.2959 20.4299 65.2507 20.2032L65.2502 20.2021C65.2498 20.1988 65.249 20.1966 65.2486 20.1933C65.2486 20.1922 65.2481 20.1911 65.2477 20.1889C65.2472 20.1867 65.2468 20.1845 65.2464 20.1823C65.2459 20.1812 65.2459 20.179 65.2455 20.1779C65.245 20.1768 65.2447 20.1746 65.2447 20.1724C65.0874 19.3679 65.0843 18.6251 65.0934 18.2916L71.1442 22.7156C70.688 23.2692 69.9759 23.5476 69.1759 23.5476Z" fill="#BB424C"/>
<path d="M67.1514 21.5811L67.16 21.328L69.0576 21.3951L66.6857 19.6607L66.8308 19.4538L69.2221 21.2025L68.6371 19.4527L68.8736 19.3702L69.5701 21.4578L71.1942 22.6453L71.049 22.8511L69.4228 21.6614L67.1514 21.5811Z" fill="white"/>
<path d="M129.542 33.2526C126.633 34.3564 123.634 33.5024 122.845 31.3432C122.054 29.1841 123.772 26.5396 126.68 25.4357C129.589 24.3308 133.378 27.3451 133.378 27.3451C133.378 27.3451 132.451 32.1499 129.542 33.2526Z" fill="#F14857"/>
<path d="M128.896 33.4663C128.898 33.4663 128.9 33.4652 128.903 33.4641C128.9 33.4652 128.899 33.4663 128.896 33.4663Z" fill="#BFACAB"/>
<path d="M126.997 33.7349C125.149 33.7349 123.567 32.9425 122.939 31.5559L133.318 27.6161C133.074 28.6362 132.049 32.2624 129.587 33.2363C129.586 33.2363 129.586 33.2363 129.585 33.2374C129.58 33.2385 129.576 33.2396 129.573 33.2418C129.571 33.2418 129.569 33.2429 129.568 33.244C129.564 33.2451 129.561 33.2462 129.557 33.2473C129.553 33.2495 129.547 33.2517 129.542 33.2528C129.333 33.3321 129.124 33.4014 128.915 33.4608C128.911 33.4619 128.907 33.463 128.903 33.4641C128.9 33.4652 128.898 33.4663 128.896 33.4663C128.251 33.6479 127.609 33.7349 126.997 33.7349Z" fill="#BB424C"/>
<path d="M129.102 31.5172L129.187 31.1497L126.44 30.4916L130.508 28.9465L130.378 28.5932L126.279 30.1493L127.788 27.8702L127.482 27.66L125.681 30.376L122.894 31.4336L123.023 31.7869L125.813 30.7293L129.102 31.5172Z" fill="white"/>
<path d="M92.133 58.955C89.2239 60.0588 86.2253 59.2048 85.4352 57.0456C84.6447 54.8864 86.3623 52.2408 89.2713 51.1359C92.1804 50.0332 95.9695 53.0475 95.9695 53.0475C95.9695 53.0475 95.042 57.8512 92.133 58.955Z" fill="#F14857"/>
<path d="M91.5868 59.1387C91.7685 59.0847 91.9512 59.0242 92.133 58.9549C91.9507 59.0242 91.769 59.0847 91.5868 59.1387ZM92.1588 58.945C92.1601 58.945 92.1615 58.9439 92.1627 58.9439C92.1615 58.9439 92.1601 58.9439 92.1588 58.945Z" fill="#BFACAB"/>
<path d="M89.5875 59.436C87.7399 59.436 86.1581 58.6437 85.5296 57.257L95.9092 53.3183C95.6649 54.3385 94.6392 57.9647 92.1769 58.9375C92.1765 58.9386 92.176 58.9386 92.1757 58.9386C92.1713 58.9397 92.167 58.9419 92.1627 58.9441C92.1615 58.9441 92.1601 58.9452 92.1588 58.9452C92.155 58.9463 92.1515 58.9474 92.1481 58.9496C92.1429 58.9507 92.1378 58.9529 92.133 58.9551C91.9512 59.0244 91.7685 59.085 91.5868 59.1389C91.585 59.14 91.5829 59.14 91.5812 59.1411C91.5764 59.1422 91.5717 59.1433 91.5669 59.1455C90.894 59.3425 90.2251 59.436 89.5875 59.436Z" fill="#BB424C"/>
<path d="M91.6927 57.2181L91.778 56.8516L89.03 56.1924L93.0988 54.6484L92.9691 54.2951L88.8685 55.8512L90.3796 53.571L90.0721 53.3608L88.2714 56.0779L85.4852 57.1355L85.6144 57.4888L88.4037 56.4301L91.6927 57.2181Z" fill="white"/>
<path d="M32.4003 44.3259C29.4917 45.4308 26.4926 44.5757 25.7022 42.4165C24.9126 40.2584 26.6296 37.6117 29.5387 36.509C32.4477 35.4052 36.2365 38.4184 36.2365 38.4184C36.2365 38.4184 35.3094 43.222 32.4003 44.3259Z" fill="#F14857"/>
<path d="M32.4188 44.3193C32.424 44.3171 32.4287 44.3149 32.4339 44.3127C32.4287 44.3149 32.4236 44.3171 32.4188 44.3193ZM32.4516 44.3061C34.8153 43.3663 35.8535 39.9778 36.1455 38.8135C35.8544 39.9756 34.8166 43.3663 32.4516 44.3061Z" fill="#BFACAB"/>
<path d="M29.8541 44.8081C28.0069 44.8081 26.4255 44.0158 25.7974 42.6291L36.1762 38.6893C36.1671 38.7278 36.1572 38.7686 36.1455 38.8137C35.8535 39.978 34.8153 43.3665 32.4516 44.3063H32.4512C32.446 44.3085 32.4409 44.3107 32.4353 44.3129C32.4349 44.3129 32.4349 44.3129 32.434 44.3129C32.4288 44.3151 32.424 44.3173 32.4189 44.3195C32.4181 44.3195 32.4177 44.3195 32.4172 44.3195C32.4116 44.3217 32.406 44.3239 32.4003 44.3261C32.3909 44.3294 32.3815 44.3338 32.372 44.3371C31.5199 44.6562 30.6618 44.8081 29.8541 44.8081Z" fill="#BB424C"/>
<path d="M31.9601 42.5907L32.0451 42.2232L29.2976 41.564L33.3658 40.0199L33.237 39.6667L29.1364 41.2228L30.6467 38.9437L30.34 38.7324L28.5385 41.4495L25.7526 42.5071L25.8819 42.8604L28.6712 41.8017L31.9601 42.5907Z" fill="white"/>
<path d="M119.766 18.8966C119.059 21.9736 120.273 24.8943 122.476 25.4182C124.68 25.9431 127.037 23.872 127.744 20.7939C128.45 17.7147 125.034 14.2701 125.034 14.2701C125.034 14.2701 120.471 15.8174 119.766 18.8966Z" fill="#F14857"/>
<path d="M119.812 18.7151C119.813 18.7118 119.813 18.7085 119.814 18.7063C119.813 18.7096 119.813 18.7118 119.812 18.7151ZM119.823 18.6777C119.824 18.6733 119.825 18.67 119.826 18.6667C119.825 18.67 119.824 18.6744 119.823 18.6777ZM119.828 18.659C119.83 18.6557 119.83 18.6524 119.831 18.6502C119.83 18.6535 119.83 18.6557 119.828 18.659ZM119.833 18.6425C119.834 18.6392 119.835 18.637 119.836 18.6337C119.835 18.6359 119.834 18.6392 119.833 18.6425ZM119.86 18.5556C119.862 18.5523 119.864 18.5479 119.865 18.5446C119.864 18.5479 119.863 18.5512 119.86 18.5556ZM119.867 18.538C119.868 18.5347 119.869 18.5314 119.87 18.5292C119.869 18.5325 119.868 18.5347 119.867 18.538ZM119.896 18.4543C119.898 18.4499 119.899 18.4455 119.901 18.44C119.899 18.4444 119.898 18.4499 119.896 18.4543ZM119.915 18.4037C119.917 18.3982 119.919 18.3938 119.921 18.3883C119.919 18.3938 119.917 18.3993 119.915 18.4037ZM119.921 18.3883C119.93 18.3652 119.939 18.3421 119.948 18.3201C119.939 18.3432 119.93 18.3652 119.921 18.3883ZM119.948 18.3201C120.449 17.082 121.562 16.1279 122.619 15.4577C121.562 16.1279 120.449 17.0831 119.948 18.3201Z" fill="#BFACAB"/>
<path d="M122.258 25.3501C120.194 24.6887 119.083 21.8703 119.765 18.8968C119.767 18.8913 119.768 18.8857 119.769 18.8791C119.77 18.878 119.77 18.8758 119.771 18.8736C119.771 18.8703 119.772 18.8659 119.773 18.8626C119.773 18.8604 119.774 18.8582 119.774 18.856C119.775 18.8527 119.776 18.8494 119.778 18.8461C119.778 18.8439 119.779 18.8417 119.779 18.8384C119.78 18.8351 119.781 18.8318 119.781 18.8285C119.782 18.8263 119.782 18.8241 119.783 18.8219C119.784 18.8186 119.784 18.8153 119.785 18.812C119.786 18.8098 119.786 18.8076 119.787 18.8054C119.789 18.801 119.79 18.7977 119.79 18.7944C119.791 18.79 119.792 18.7867 119.793 18.7823C119.794 18.779 119.795 18.7757 119.795 18.7724C119.796 18.7702 119.797 18.7669 119.797 18.7647C119.798 18.7614 119.8 18.7592 119.801 18.7559C119.801 18.7537 119.802 18.7504 119.802 18.7482C119.803 18.7449 119.804 18.7427 119.805 18.7394C119.805 18.7372 119.806 18.7339 119.807 18.7317C119.807 18.7284 119.808 18.7262 119.81 18.7229C119.811 18.7196 119.811 18.7174 119.812 18.7152C119.813 18.7119 119.813 18.7097 119.814 18.7064C119.815 18.7042 119.815 18.7009 119.816 18.6987C119.817 18.6943 119.818 18.691 119.819 18.6877C119.821 18.6844 119.822 18.6811 119.823 18.6778C119.824 18.6745 119.825 18.6701 119.826 18.6668C119.826 18.6635 119.827 18.6612 119.828 18.659C119.829 18.6557 119.829 18.6535 119.83 18.6502C119.832 18.648 119.833 18.6447 119.833 18.6425C119.834 18.6392 119.835 18.6359 119.836 18.6337C119.836 18.6315 119.837 18.6282 119.838 18.626C119.839 18.6227 119.84 18.6194 119.84 18.6172C119.841 18.615 119.843 18.6117 119.843 18.6095C119.844 18.6062 119.845 18.6029 119.846 18.5996C119.847 18.5974 119.848 18.5952 119.848 18.593C119.85 18.5886 119.851 18.5842 119.853 18.5787C119.854 18.5776 119.854 18.5776 119.854 18.5765C119.856 18.571 119.857 18.5666 119.859 18.5611C119.859 18.5589 119.86 18.5567 119.86 18.5556C119.862 18.5512 119.864 18.5479 119.865 18.5446C119.865 18.5424 119.866 18.5402 119.867 18.538C119.868 18.5347 119.869 18.5325 119.87 18.5292C119.87 18.5259 119.871 18.5248 119.872 18.5215C119.873 18.5182 119.875 18.5149 119.876 18.5116C119.876 18.5094 119.877 18.5083 119.878 18.5061C119.879 18.5017 119.88 18.4973 119.882 18.494C119.882 18.4929 119.882 18.4907 119.883 18.4896C119.887 18.4786 119.891 18.4676 119.894 18.4566C119.896 18.4555 119.896 18.4554 119.896 18.4543C119.898 18.4499 119.899 18.4444 119.901 18.44C119.901 18.4389 119.902 18.4378 119.902 18.4367C119.903 18.4323 119.905 18.4279 119.907 18.4246C119.908 18.4224 119.908 18.4213 119.909 18.4202C119.91 18.4158 119.912 18.4114 119.913 18.407C119.914 18.4059 119.914 18.4048 119.914 18.4037C119.916 18.3993 119.919 18.3938 119.921 18.3883C119.93 18.3652 119.939 18.3432 119.947 18.3201C120.449 17.0831 121.562 16.1279 122.618 15.4577C122.622 15.4555 122.626 15.4533 122.629 15.4511C122.629 15.45 122.63 15.45 122.63 15.45C122.635 15.4478 122.638 15.4445 122.643 15.4423C123.527 14.8843 124.37 14.5256 124.776 14.366L122.258 25.3501Z" fill="#BB424C"/>
<path d="M121.512 19.1202L121.86 18.9882L122.85 21.68L123.837 17.3737L124.198 17.4596L123.203 21.7988L125.231 19.9841L125.476 20.268L123.059 22.4316L122.381 25.3799L122.021 25.294L122.698 22.3414L121.512 19.1202Z" fill="white"/>
<path d="M125.629 42.0444C122.806 42.5605 120.217 41.2806 119.847 39.1852C119.477 37.0899 121.466 34.9714 124.29 34.4553C127.115 33.9392 130.072 37.3144 130.072 37.3144C130.072 37.3144 128.453 41.5271 125.629 42.0444Z" fill="#F14857"/>
<path d="M124.459 42.1592C124.841 42.1537 125.232 42.1174 125.629 42.0447C125.232 42.1174 124.841 42.1548 124.459 42.1592ZM125.662 42.0381C128.063 41.5726 129.586 38.4428 129.974 37.5514C129.587 38.4395 128.065 41.5726 125.662 42.0381Z" fill="#BFACAB"/>
<path d="M124.383 42.1592C122.174 42.1592 120.322 41.0587 119.899 39.3947L129.974 37.5514C129.586 38.4428 128.063 41.5726 125.662 42.0381C125.656 42.0392 125.651 42.0403 125.646 42.0414H125.645C125.64 42.0425 125.634 42.0436 125.629 42.0447C125.232 42.1174 124.84 42.1537 124.459 42.1592C124.433 42.1592 124.408 42.1592 124.383 42.1592Z" fill="#BB424C"/>
<path d="M125.51 40.3931L125.647 40.0728L123.254 39.013L127.203 38.2911L127.143 37.9467L123.162 38.6752L124.904 36.8561L124.66 36.6117L122.582 38.7819L119.878 39.2761L119.937 39.6205L122.646 39.1242L125.51 40.3931Z" fill="white"/>
<path d="M9.95591 36.3805C14.1913 35.346 17.025 31.9587 16.2845 28.8145C15.544 25.6715 11.5097 23.9613 7.27388 24.9969C3.03804 26.0303 0.944885 32.5618 0.944885 32.5618C0.944885 32.5618 5.71964 37.415 9.95591 36.3805Z" fill="#F14857"/>
<path d="M8.72132 36.5259C5.67744 36.5259 2.62149 34.0839 1.44891 33.034C2.62408 34.085 5.68002 36.5248 8.72218 36.5259C8.98065 36.5259 9.23825 36.5083 9.495 36.4709C9.23825 36.5083 8.97979 36.5259 8.72132 36.5259ZM9.75735 36.4246C9.82368 36.4114 9.89002 36.3971 9.95593 36.3806C10.229 36.3146 10.4957 36.2376 10.7568 36.1517C10.4961 36.2376 10.2286 36.3146 9.95593 36.3806C9.88959 36.3971 9.82368 36.4114 9.75735 36.4246ZM10.758 36.1517C10.7649 36.1495 10.7723 36.1473 10.7791 36.1451C10.7723 36.1473 10.7654 36.1495 10.758 36.1517ZM10.8115 36.1341C10.8158 36.133 10.8201 36.1308 10.8239 36.1297C10.8196 36.1308 10.8158 36.133 10.8115 36.1341Z" fill="#BFACAB"/>
<path d="M8.72219 36.5259C5.68003 36.5248 2.62409 34.085 1.44893 33.034C1.36363 32.9581 1.28868 32.8887 1.22406 32.8293L16.3379 29.1371C16.7825 31.9489 14.4614 34.8828 10.8912 36.1066C10.8899 36.1077 10.8882 36.1077 10.8868 36.1088C10.8808 36.111 10.8748 36.1132 10.8688 36.1143C10.8666 36.1154 10.8649 36.1165 10.8627 36.1165C10.8571 36.1187 10.852 36.1209 10.8468 36.122C10.8438 36.1231 10.8408 36.1242 10.8377 36.1253C10.833 36.1264 10.8287 36.1286 10.824 36.1297C10.8201 36.1308 10.8158 36.133 10.8115 36.1341C10.8085 36.1352 10.8054 36.1363 10.8024 36.1374C10.7964 36.1385 10.7908 36.1407 10.7852 36.1429C10.7835 36.1429 10.7813 36.144 10.7792 36.1451C10.7723 36.1473 10.7649 36.1495 10.7581 36.1517C10.7576 36.1517 10.7572 36.1517 10.7568 36.1517C10.4957 36.2376 10.2291 36.3146 9.95594 36.3806C9.89003 36.3971 9.82369 36.4114 9.75736 36.4246C9.67034 36.4422 9.58245 36.4576 9.49501 36.4709C9.23826 36.5083 8.98066 36.5259 8.72219 36.5259Z" fill="#BB424C"/>
<path d="M9.13274 34.0078L8.7515 33.648L11.4439 30.6887L5.51894 32.137L5.39789 31.6219L11.3689 30.1638L7.85678 28.7144L8.05234 28.2236L12.2382 29.9514L16.2957 28.9598L16.4172 29.4749L12.3554 30.4664L9.13274 34.0078Z" fill="white"/>
</svg>
