<svg width="128" height="220" viewBox="0 0 128 220" fill="none" xmlns="http://www.w3.org/2000/svg">
<path d="M125.728 118.869C125.728 126.211 98.3529 132.162 64.5838 132.162C30.8141 132.162 3.4386 126.211 3.4386 118.869C3.4386 111.528 30.8141 105.576 64.5838 105.576C98.3529 105.576 125.728 111.528 125.728 118.869Z" fill="#285B29"/>
<path d="M64.7759 213.652H64.1238C59.2478 213.652 55.2587 209.672 55.2587 204.806V95.4659C55.2587 90.6006 59.2478 86.6201 64.1238 86.6201H64.7759C69.6519 86.6201 73.6401 90.6006 73.6401 95.4659V204.806C73.6401 209.672 69.6519 213.652 64.7759 213.652Z" fill="#582C2D"/>
<path d="M3.43861 118.869C3.43861 111.528 30.8141 105.576 64.5838 105.576C98.3529 105.576 125.728 111.528 125.728 118.869C125.728 119.052 125.698 119.234 125.665 119.415C127.161 116.62 127.971 113.677 127.971 110.637C127.971 101.783 121.192 93.7527 110.188 87.8441C111.681 84.6692 112.496 81.2862 112.496 77.7723C112.496 67.7511 105.931 58.7842 95.5921 52.7568C97.3436 49.9593 98.3163 46.8801 98.3163 43.6446C98.3163 35.6561 92.4043 28.6129 83.411 24.4475C85.8099 21.9813 87.2109 19.0209 87.2109 15.8361C87.2109 7.23785 77.0198 0.267247 64.4493 0.267247C51.8788 0.267247 41.6887 7.23785 41.6887 15.8361C41.6887 19.0209 43.0892 21.9813 45.4887 24.4475C36.4953 28.6129 30.5832 35.6561 30.5832 43.6446C30.5832 46.8801 31.556 49.9593 33.3075 52.7568C22.9688 58.7842 16.4037 67.7511 16.4037 77.7723C16.4037 81.2862 17.2184 84.6692 18.7114 87.8441C7.70806 93.7527 0.928894 101.783 0.928894 110.637C0.928894 114.146 2.00326 117.525 3.97235 120.696H4.02792C3.64969 120.099 3.43861 119.489 3.43861 118.869Z" fill="#499535"/>
<path d="M125.728 118.811C125.728 118.808 125.727 118.802 125.727 118.799C125.727 118.803 125.728 118.807 125.728 118.811ZM125.727 118.798C125.669 116.4 122.676 114.155 117.512 112.217C117.512 112.215 117.512 112.212 117.512 112.209C122.686 114.148 125.669 116.398 125.727 118.798Z" fill="#439D39"/>
<path d="M125.665 119.415C125.698 119.234 125.728 119.052 125.728 118.869C125.728 118.865 125.728 118.861 125.728 118.856C125.728 118.855 125.728 118.854 125.728 118.853C125.728 118.85 125.728 118.846 125.728 118.843C125.728 118.842 125.728 118.841 125.728 118.84C125.728 118.831 125.728 118.822 125.728 118.813C125.728 118.812 125.728 118.812 125.728 118.811C125.728 118.807 125.727 118.803 125.727 118.799C125.727 118.798 125.727 118.798 125.727 118.798C125.669 116.398 122.686 114.148 117.512 112.209C117.56 111.688 117.593 111.165 117.593 110.637C117.593 101.783 110.815 93.7527 99.8111 87.8441C101.304 84.6692 102.119 81.2862 102.119 77.7723C102.119 67.7511 95.5538 58.7842 85.2151 52.7568C86.9671 49.9593 87.9394 46.8801 87.9394 43.6446C87.9394 35.6561 82.0274 28.6129 73.034 24.4475C75.4335 21.9813 76.8339 19.0209 76.8339 15.8361C76.8339 8.45942 69.331 2.28556 59.2611 0.678824C60.902 0.416905 62.6088 0.271666 64.3642 0.267264C64.365 0.267264 64.3663 0.267264 64.3672 0.267264C64.3784 0.267264 64.3895 0.267264 64.4008 0.267264C64.4038 0.267264 64.4067 0.267264 64.4098 0.267264C64.4232 0.267264 64.4365 0.267264 64.4494 0.267264C77.0199 0.267264 87.211 7.23787 87.211 15.8361C87.211 19.0209 85.81 21.9813 83.4111 24.4475C92.4043 28.6129 98.3164 35.6561 98.3164 43.6446C98.3164 46.8801 97.3437 49.9593 95.5922 52.7568C105.931 58.7842 112.496 67.7511 112.496 77.7723C112.496 81.2862 111.681 84.6692 110.188 87.8441C121.192 93.7527 127.971 101.783 127.971 110.637C127.971 113.677 127.161 116.62 125.665 119.415Z" fill="#7BCC4E"/>
<path d="M61.3973 201.247L60.5919 200.926C62.259 197.314 62.2327 137.831 61.9853 106.883L62.8621 106.877C62.875 108.512 63.0145 126.591 62.9727 146.511C63.1614 146.592 63.4359 146.678 63.764 146.678C64.032 146.678 64.3357 146.621 64.6584 146.46C67.0948 145.241 70.8241 138.395 68.4186 106.245L69.2931 106.188C71.6133 137.209 68.2696 145.605 65.0546 147.186C64.5925 147.413 64.1543 147.494 63.7658 147.494C63.4664 147.494 63.2002 147.444 62.9706 147.378C62.912 171.817 62.5764 198.694 61.3973 201.247Z" fill="#957778"/>
<path d="M31.5547 213.581C29.7674 210.643 29.2655 206.717 31.447 204.017C33.629 201.318 38.9469 201.107 40.5533 204.134C40.2659 198.145 41.9576 191.777 46.6122 187.62C51.2667 183.466 59.2852 182.342 64.2288 186.198C68.8442 189.8 69.456 196.074 69.7229 201.667C73.0456 198.892 78.3023 198.34 82.2087 200.356C86.115 202.372 88.3848 206.808 87.6003 210.892C90.2414 207.713 95.5378 206.772 99.2576 208.821C102.977 210.869 104.626 215.637 102.885 219.312H36.115L31.5547 213.581Z" fill="#499535"/>
<path d="M30.2778 100.379C30.2778 100.379 22.4954 96.1638 24.4407 87.735C24.4407 87.735 32.2236 89.5409 30.2778 100.379Z" fill="#285B29"/>
<path d="M32.9396 88.2874C32.9396 88.2874 27.8288 81.3993 33.4535 74.5388C33.4535 74.5388 39.6683 79.2489 32.9396 88.2874Z" fill="#285B29"/>
<path d="M69.1767 59.6663C69.1767 59.6663 61.8625 54.7811 64.6665 46.5637C64.6665 46.5637 72.2274 49.0508 69.1767 59.6663Z" fill="#285B29"/>
<path d="M57.5026 20.5315C57.5026 20.5315 50.1884 15.6464 52.9923 7.42891C52.9923 7.42891 60.5538 9.91605 57.5026 20.5315Z" fill="#285B29"/>
<path d="M61.8664 18.3638C61.8664 18.3638 57.7051 10.9453 64.1939 4.77918C64.1939 4.77918 69.7389 10.1617 61.8664 18.3638Z" fill="#285B29"/>
<path d="M71.6761 51.5527C71.6761 51.5527 66.7441 44.5524 72.5437 37.8207C72.5437 37.8207 78.6358 42.6662 71.6761 51.5527Z" fill="#285B29"/>
<path d="M74.6032 64.3274C74.6032 64.3274 73.9842 55.9834 82.5882 52.7402C82.5882 52.7402 85.3525 59.7317 74.6032 64.3274Z" fill="#285B29"/>
<path d="M36.6555 95.4285C36.6555 95.4285 36.5233 87.0646 45.3025 84.2562C45.3025 84.2562 47.6568 91.3764 36.6555 95.4285Z" fill="#285B29"/>
</svg>
