<svg width="396" height="218" viewBox="0 0 396 218" fill="none" xmlns="http://www.w3.org/2000/svg">
<path d="M34.8799 163.241C34.8799 163.241 9.64343 172.776 2.352 153.709C-4.93943 134.639 9.64344 121.74 22.5423 121.181C22.5423 121.181 17.4943 98.7471 38.8053 86.9689C60.1164 75.1927 82.5501 95.9424 82.5501 95.9424C82.5501 95.9424 92.6461 81.9227 107.227 94.8216C107.227 94.8216 105.545 70.7059 132.464 54.4429C159.382 38.178 177.89 58.3683 177.89 58.3683C177.89 58.3683 180.695 38.97 202.567 48.1088C202.567 48.1088 210.418 7.8935 255.845 1.1634C301.272 -5.56671 308.561 30.8885 305.758 53.3203C305.758 53.3203 333.238 58.253 323.704 82.9877C323.704 82.9877 361.279 79.1181 353.429 117.815C353.429 117.815 394.198 105.018 387.077 146.417C387.077 146.417 405.024 166.607 389.882 182.87C374.74 199.135 355.111 182.87 355.111 182.87C355.111 182.87 356.793 207.423 328.19 190.098C328.19 190.098 320.339 209.23 300.71 192.405C300.71 192.405 296.785 218.203 262.014 217.644C227.242 217.082 213.223 196.331 213.223 196.331C213.223 196.331 199.201 218.203 177.329 196.892C177.329 196.892 163.869 218.203 133.023 213.716C102.179 209.23 99.9357 183.993 99.9357 183.993C99.9357 183.993 84.7934 194.649 77.502 180.068C77.502 180.068 42.7308 200.817 34.8799 163.241Z" fill="white"/>
<path d="M77.502 180.068C84.7934 194.649 99.9357 183.993 99.9357 183.993C99.9357 183.993 102.179 209.23 133.023 213.716C163.869 218.203 177.329 196.892 177.329 196.892C199.201 218.203 213.223 196.331 213.223 196.331C213.223 196.331 227.242 217.082 262.014 217.644C296.785 218.203 300.71 192.405 300.71 192.405C320.339 209.23 328.19 190.098 328.19 190.098C356.793 207.423 355.111 182.87 355.111 182.87C355.111 182.87 374.74 199.135 389.882 182.87C405.024 166.607 387.077 146.417 387.077 146.417C360.57 118.495 338.944 133.626 338.944 133.626C345.73 112.947 323.111 110.362 323.111 110.362C323.111 110.362 315.68 77.4033 291.445 76.4325C267.21 75.4637 263.01 100.99 263.01 100.99C263.01 100.99 243.946 90.9731 233.928 96.4671C223.911 101.961 221.973 114.885 221.973 114.885C221.973 114.885 203.555 73.526 175.766 83.2184C147.979 92.9128 146.685 117.471 146.685 117.471C113.081 93.5586 98.863 129.749 98.863 129.749C85.6142 107.13 71.3966 129.749 71.3966 129.749C54.0975 94.7159 35.0606 97.2822 24.3608 102.811C20.5527 112.319 22.5423 121.181 22.5423 121.181C9.64344 121.74 -4.93943 134.639 2.352 153.709C9.64343 172.776 34.8799 163.241 34.8799 163.241C42.7308 200.817 77.502 180.068 77.502 180.068Z" fill="#DEF4FA"/>
<path d="M213.223 196.331C213.223 196.331 227.242 217.082 262.014 217.644C296.785 218.203 300.71 192.405 300.71 192.405C320.339 209.23 328.19 190.098 328.19 190.098C356.792 207.423 355.11 182.87 355.11 182.87C355.11 182.87 374.739 199.135 389.882 182.87C396.139 176.15 396.739 168.761 395.297 162.401C383.04 191.408 351.185 170.035 351.185 170.035C346.768 198.255 327.831 174.962 327.831 174.962C316.631 199.599 291.996 178.547 291.996 178.547C268.703 231.85 214.953 178.995 214.953 178.995C191.214 211.692 176.879 170.933 176.879 170.933C133.88 221.548 108.796 163.316 108.796 163.316C87.744 189.297 80.5776 159.285 80.5776 159.285C50.1181 191.536 34.8893 149.431 34.8893 149.431C21.4887 157.597 9.75476 154.745 1.05426 149.393C1.3676 150.794 1.78667 152.23 2.35184 153.709C9.64327 172.776 34.8798 163.241 34.8798 163.241C42.7306 200.817 77.5018 180.068 77.5018 180.068C84.7933 194.649 99.9355 183.993 99.9355 183.993C99.9355 183.993 102.179 209.23 133.023 213.716C163.869 218.203 177.329 196.892 177.329 196.892C199.201 218.203 213.223 196.331 213.223 196.331Z" fill="#BBE9FB"/>
<path d="M22.8038 139.798C22.8038 139.798 29.6857 166.9 56.7869 153.132C56.7869 153.132 36.2794 153.501 22.8038 139.798Z" fill="#BBE9FB"/>
<path d="M154.434 160.877C154.434 160.877 164.711 195.289 198.502 167.328C198.502 167.328 180.243 176.361 154.434 160.877Z" fill="#BBE9FB"/>
<path d="M267.998 178.278C267.998 178.278 289.076 198.732 303.701 174.21C303.701 174.21 284.344 182.774 267.998 178.278Z" fill="#BBE9FB"/>
</svg>
