<svg width="387" height="226" viewBox="0 0 387 226" fill="none" xmlns="http://www.w3.org/2000/svg">
<path d="M233.641 168.075C233.641 168.075 227.27 182.424 210.819 180.988C194.369 179.552 189.819 163.466 189.819 163.466C189.819 163.466 177.366 200.944 141.831 205.867C106.295 210.789 84.9297 187.283 80.6459 169.768C80.6459 169.768 69.9224 182.861 52.2598 176.023C34.5967 169.182 40.637 155.808 40.637 155.808C40.637 155.808 25.7148 162.054 16.7073 154.014C7.70094 145.976 19.2862 129.049 37.4949 129.776C37.4949 129.776 23.7211 110.791 35.5587 95.6851C47.3953 80.5796 66.9665 97.8352 66.9665 97.8352C66.9665 97.8352 58.9817 63.6506 92.8273 43.1759C126.673 22.6993 154.099 43.0455 156.891 59.839C156.891 59.839 181.687 41.082 193.815 64.9395C193.815 64.9395 205.911 34.94 245.037 42.5219C284.162 50.1019 279.67 81.3702 279.67 81.3702C279.67 81.3702 302.351 70.7993 314.101 91.9247C314.101 91.9247 334.124 78.9337 344.898 99.7302C344.898 99.7302 361.151 86.3352 373.117 102.322C385.083 118.309 371.83 129.896 363.439 129.664C363.439 129.664 369.783 152.002 347.853 154.576C325.921 157.15 311.32 148.958 311.32 148.958C311.32 148.958 311.969 180.442 291.123 187.508C270.278 194.574 240.329 186.187 233.641 168.075Z" fill="white"/>
<path d="M374.211 103.881C349.087 95.7743 336.909 117.142 336.909 117.142C336.909 117.142 334.766 110.955 323.959 109.623C313.154 108.29 305.933 116.56 305.933 116.56C305.933 116.56 295.088 101.004 284.169 105.82C273.251 110.637 268.384 117.322 268.384 117.322C268.384 117.322 265.798 87.0395 242.077 80.7547C218.356 74.4699 200.17 94.1988 200.17 94.1988C177.174 62.9482 162.758 102.923 162.758 102.923C147.159 92.5313 137.575 109.308 137.575 109.308C137.575 109.308 127.735 80.0969 103.771 85.9911C79.8063 91.8853 77.5442 115.049 77.5442 115.049C76.5911 105.848 66.9665 97.8352 66.9665 97.8352C66.9665 97.8352 47.3968 80.5794 35.5594 95.685C23.7211 110.791 37.4949 129.776 37.4949 129.776C19.2862 129.049 7.70094 145.976 16.7073 154.014C25.7148 162.054 40.637 155.808 40.637 155.808C40.637 155.808 34.5967 169.182 52.2598 176.023C69.9224 182.861 80.6459 169.768 80.6459 169.768C84.9297 187.283 106.295 210.789 141.831 205.867C177.366 200.944 189.819 163.466 189.819 163.466C189.819 163.466 194.369 179.552 210.819 180.988C227.27 182.424 233.641 168.075 233.641 168.075C240.329 186.187 270.278 194.574 291.123 187.508C311.969 180.442 311.322 148.957 311.322 148.957C311.322 148.957 325.921 157.15 347.853 154.576C369.783 152.002 363.439 129.664 363.439 129.664C371.554 129.888 384.214 119.057 374.211 103.881Z" fill="#DEF4FA"/>
<path d="M357.166 121.248C357.166 121.248 358.996 134.458 337.962 140.158C316.927 145.859 302.164 129.795 302.164 129.795C302.164 129.795 298.837 162.758 271.818 168.824C244.798 174.889 238.293 144.68 238.293 144.68C238.293 144.68 237.592 156.384 218.051 162.806C198.51 169.227 184.308 143.799 184.308 143.799C184.308 143.799 178.97 175.648 135.485 183.53C92.0015 191.41 88.7399 147.752 88.7399 147.752C88.7399 147.752 82.369 162.1 64.2231 161.828C46.0765 161.555 50.729 138.158 50.729 138.158C36.7636 150.359 23.2136 151.15 13.8782 149.421C14.305 151.115 15.2199 152.688 16.7071 154.014C25.7146 162.054 40.6368 155.808 40.6368 155.808C40.6368 155.808 34.5965 169.182 52.2596 176.023C69.9222 182.861 80.6458 169.768 80.6458 169.768C84.9295 187.283 106.295 210.789 141.831 205.867C177.366 200.944 189.819 163.466 189.819 163.466C189.819 163.466 194.369 179.552 210.818 180.988C227.269 182.424 233.641 168.075 233.641 168.075C240.328 186.187 270.278 194.574 291.122 187.508C311.968 180.442 311.321 148.957 311.321 148.957C311.321 148.957 325.92 157.15 347.853 154.576C369.783 152.002 363.438 129.664 363.438 129.664C370.855 129.869 382.062 120.834 376.295 107.69C371.392 123.106 357.166 121.248 357.166 121.248Z" fill="#BBE9FB"/>
<path d="M67.1325 135.886C67.1325 135.886 89.6937 169.574 112.155 136.588C112.155 136.588 94.35 150.66 67.1325 135.886Z" fill="#BBE9FB"/>
<path d="M219.851 126.341C219.851 126.341 221.003 143.366 237.358 145.017C253.716 146.67 260.187 134.621 260.187 134.621C260.187 134.621 238.821 149.036 219.851 126.341Z" fill="#BBE9FB"/>
</svg>
