<svg width="185" height="144" viewBox="0 0 185 144" fill="none" xmlns="http://www.w3.org/2000/svg">
<path d="M21.9169 90.7599C21.9169 90.7599 -1.68058 89.0329 1.19777 61.4079C4.07613 33.7795 26.5219 35.5065 38.0332 42.4125C38.0332 42.4125 36.8815 15.3621 62.2057 3.27594C87.5298 -8.80818 101.343 29.177 101.343 29.177C101.343 29.177 136.451 9.6075 151.991 50.4729C151.991 50.4729 172.71 46.4407 182.495 67.7372C192.277 89.0329 169.832 95.3647 169.832 95.3647C169.832 95.3647 181.343 125.292 150.839 139.106C120.335 152.919 96.7376 126.444 96.7376 126.444C96.7376 126.444 85.2263 143.135 65.084 137.953C44.9396 132.773 42.0613 116.659 42.0613 116.659C42.0613 116.659 0.0460085 119.537 21.9169 90.7599Z" fill="white"/>
<path d="M183.533 84.399C170.522 61.1865 148.796 78.3468 148.796 78.3468C148.796 78.3468 149.526 63.7584 131.778 60.1131C114.028 56.4653 104.548 69.8728 104.548 69.8728C104.548 69.8728 100.414 50.6303 81.4485 51.8459C62.4848 53.0616 54.9477 76.161 54.9477 76.161C54.9477 76.161 45.7068 51.7361 17.9902 51.7636C8.07728 51.7741 1.31358 60.5122 1.31358 60.5122C1.27843 60.8141 1.23086 61.097 1.19777 61.4079C-1.68058 89.0329 21.9169 90.7599 21.9169 90.7599C0.0460085 119.537 42.0613 116.659 42.0613 116.659C42.0613 116.659 44.9396 132.773 65.084 137.953C85.2263 143.135 96.7376 126.444 96.7376 126.444C96.7376 126.444 120.335 152.919 150.839 139.106C181.343 125.292 169.832 95.3647 169.832 95.3647C169.832 95.3647 179.765 92.5523 183.533 84.399Z" fill="#DEF4FA"/>
<path d="M134.21 132.324C102.844 137.916 97.0106 107.773 97.0106 107.773C97.0106 107.773 84.852 127.703 67.1043 124.785C49.3544 121.87 58.5933 99.5069 58.5933 99.5069C58.5933 99.5069 51.0562 108.253 33.0644 108.253C15.0727 108.253 21.917 90.7599 21.917 90.7599C0.0460506 119.537 42.0613 116.659 42.0613 116.659C42.0613 116.659 44.9397 132.773 65.084 137.953C85.2263 143.135 96.7377 126.444 96.7377 126.444C96.7377 126.444 120.335 152.919 150.839 139.106C181.343 125.292 169.832 95.3647 169.832 95.3647C170.2 111.406 165.574 126.733 134.21 132.324Z" fill="#BBE9FB"/>
<path d="M50.0844 87.5091C50.0844 87.5091 50.8143 107.189 70.5079 97.9514C70.5079 97.9514 56.6496 98.2187 50.0844 87.5091Z" fill="#BBE9FB"/>
<path d="M83.6362 105.47C83.6362 105.47 95.3068 119.086 114.758 105.47C114.758 105.47 96.7666 110.819 83.6362 105.47Z" fill="#BBE9FB"/>
</svg>
