<svg width="233" height="144" viewBox="0 0 233 144" fill="none" xmlns="http://www.w3.org/2000/svg">
<path d="M22.2446 63.4508C22.2446 63.4508 2.40026 46.7641 13.2257 19.2525C24.0491 -8.25726 60.5798 -6.45269 79.9729 32.3319C79.9729 32.3319 94.8547 13.3897 110.19 42.2533C110.19 42.2533 112.895 17.9011 152.581 11.5851C192.27 5.27304 189.114 36.8413 179.191 47.2135C179.191 47.2135 194.074 41.8015 207.152 47.2135C220.233 52.627 201.289 58.0365 201.289 58.0365C201.289 58.0365 217.977 58.939 226.547 65.255C235.114 71.567 236.017 81.039 212.114 80.5883C212.114 80.5883 231.507 85.9994 230.154 94.118C228.8 102.235 211.663 99.9816 211.663 99.9816C211.663 99.9816 225.193 111.254 217.526 121.628C209.858 132.001 193.623 130.198 181.897 118.921C181.897 118.921 178.29 137.414 162.955 126.139C162.955 126.139 157.544 141.923 137.699 143.277C117.855 144.629 106.58 132.902 100.266 118.019C100.266 118.019 82.6778 135.158 79.5218 113.961C79.5218 113.961 63.2847 135.158 45.2449 126.589C27.2071 118.019 24.9514 107.648 25.8537 100.43C25.8537 100.43 14.5772 105.844 6.46054 95.9229C-1.65803 85.9994 12.3234 81.039 12.3234 81.039C12.3234 81.039 3.30255 79.1952 0.597666 72.0004C-2.10918 64.8019 14.128 62.099 22.2446 63.4508Z" fill="white"/>
<path d="M230.154 94.118C231.507 85.9994 212.114 80.5883 212.114 80.5883C194.541 78.0021 184.343 83.5543 184.343 83.5543C184.343 83.5543 192.153 71.9324 178.626 70.5982C165.1 69.2647 155.954 80.3143 155.954 80.3143C155.954 80.3143 156.526 46.5924 132.901 52.4164C109.278 58.2418 99.37 85.2694 99.37 85.2694C99.37 85.2694 90.4156 60.8807 77.4614 63.9314C64.5053 66.9799 62.982 81.0765 62.982 81.0765C54.7892 62.2163 40.6906 51.3575 30.4022 52.4981C20.1139 53.6408 22.2446 63.4508 22.2446 63.4508C14.128 62.099 -2.10918 64.8019 0.597666 72.0004C3.30255 79.1952 12.3234 81.039 12.3234 81.039C12.3234 81.039 -1.65803 85.9994 6.46054 95.9229C14.5791 105.844 25.8537 100.43 25.8537 100.43C24.9514 107.648 27.2071 118.019 45.2449 126.589C63.2847 135.158 79.5218 113.961 79.5218 113.961C82.6778 135.158 100.266 118.019 100.266 118.019C106.58 132.902 117.857 144.629 137.699 143.277C157.544 141.923 162.955 126.139 162.955 126.139C178.29 137.414 181.897 118.921 181.897 118.921C193.623 130.198 209.858 132.001 217.526 121.628C225.193 111.254 211.663 99.9816 211.663 99.9816C211.663 99.9816 228.8 102.235 230.154 94.118Z" fill="#DEF4FA"/>
<path d="M137.699 143.277C157.544 141.923 162.955 126.139 162.955 126.139C178.29 137.414 181.897 118.921 181.897 118.921C193.623 130.198 209.858 132.001 217.526 121.628C225.193 111.254 211.663 99.9816 211.663 99.9816C211.663 99.9816 218.036 116.576 204.41 120.921C190.784 125.264 178.935 109.664 178.935 109.664C178.935 109.664 178.737 119.142 172.418 121.71C166.1 124.276 159.977 111.836 159.977 111.836C159.977 111.836 158.594 130.004 133.516 133.954C108.436 137.905 103.696 104.729 103.696 104.729C103.696 104.729 97.376 114.798 90.4644 116.576C83.5527 118.353 81.5783 103.147 81.5783 103.147C81.5783 103.147 69.5322 120.921 48.0084 117.365C26.4825 113.812 34.7769 89.324 34.7769 89.324C18.9108 102.001 8.90174 94.0379 4.25948 87.976C3.53883 90.1267 3.88451 92.7745 6.46051 95.9229C14.5791 105.844 25.8537 100.43 25.8537 100.43C24.9514 107.648 27.2071 118.019 45.2449 126.589C63.2847 135.158 79.5218 113.961 79.5218 113.961C82.6778 135.158 100.266 118.019 100.266 118.019C106.58 132.902 117.857 144.629 137.699 143.277Z" fill="#BBE9FB"/>
<path d="M73.2839 98.2113C73.2839 98.2113 76.2466 112.627 90.4644 102.16C90.4644 102.16 82.3673 104.53 73.2839 98.2113Z" fill="#BBE9FB"/>
<path d="M148.326 110.058C148.326 110.058 159.188 115.704 166.889 105.968C166.889 105.968 167.086 126.449 148.326 110.058Z" fill="#BBE9FB"/>
</svg>
