<svg width="262" height="214" viewBox="0 0 262 214" fill="none" xmlns="http://www.w3.org/2000/svg">
<path d="M84.73 74.1727C84.73 74.1727 62.4393 58.4488 57.4999 83.2825C57.4999 83.2825 38.333 71.2438 21.76 95.2393C5.18694 119.235 27.9121 141.911 41.9587 142.888C41.9587 142.888 33.3159 153.822 39.1431 162.754C44.9697 171.686 58.7258 166.138 58.7258 166.138C58.7258 166.138 55.0495 177.776 67.2569 183.154C79.4644 188.532 87.9582 171.497 87.9582 171.497C87.9582 171.497 100.178 188.225 116.49 184.661C132.803 181.096 141.153 162.217 141.153 162.217C141.153 162.217 147.12 170.155 156.338 166.599C165.556 163.042 163.989 156.943 163.989 156.943C163.989 156.943 181.312 170.544 194.199 148.256C194.199 148.256 218.148 167.519 241.627 142.952C265.105 118.383 245.781 91.7344 222.649 86.2245C222.649 86.2245 222.756 55.4359 186.165 67.6775C186.165 67.6775 176.634 44.8453 152.813 57.073C152.813 57.073 136.466 29.425 110.652 35.695C84.8368 41.967 81.0318 64.5288 84.73 74.1727Z" fill="white"/>
<path d="M251.396 112.499C223.002 82.7044 205.62 107.3 205.62 107.3C205.62 107.3 205.168 92.934 193.416 94.6894C181.666 96.4442 177.761 107.549 177.761 107.549C177.761 107.549 168.926 89.8185 156.96 94.185C144.995 98.5511 142.289 112.157 142.289 112.157C139.658 94.5298 121.894 71.8053 104.603 83.0337C87.3135 94.2602 92.7787 116.02 92.7787 116.02C70.4412 90.4718 64.3778 117.902 64.3778 117.902C58.9268 109.201 37.4779 99.3218 25.7346 107.605C20.915 111.004 18.3341 115.61 16.9653 119.861C20.5524 132.829 33.0091 142.266 41.9588 142.888C41.9588 142.888 33.316 153.823 39.1432 162.754C44.9699 171.686 58.7259 166.139 58.7259 166.139C58.7259 166.139 55.0496 177.776 67.257 183.154C79.4646 188.533 87.9583 171.497 87.9583 171.497C87.9583 171.497 100.178 188.226 116.49 184.661C132.803 181.096 141.153 162.217 141.153 162.217C141.153 162.217 147.12 170.155 156.338 166.6C165.556 163.042 163.989 156.944 163.989 156.944C163.989 156.944 181.313 170.544 194.199 148.256C194.199 148.256 218.148 167.52 241.627 142.952C251.53 132.588 253.8 121.859 251.396 112.499Z" fill="#DEF4FA"/>
<path d="M223.183 146.783C204.739 150.615 189.541 132.999 189.541 132.999C189.541 132.999 191.73 143.88 180.746 151.182C169.764 158.487 158.758 145.113 158.758 145.113C158.758 145.113 158.768 154.907 152.895 157.96C147.021 161.015 138.301 147.964 138.301 147.964C138.301 147.964 131.36 169.518 116.784 175.846C102.209 182.174 89.451 158.138 89.451 158.138C89.451 158.138 79.5657 174.146 71.0752 172.632C62.5855 171.117 66.5925 152.723 66.5925 152.723C51.0802 167.18 41.8873 162.199 37.159 156.39C37.243 158.512 37.7935 160.686 39.1431 162.754C44.9697 171.686 58.7258 166.139 58.7258 166.139C58.7258 166.139 55.0495 177.776 67.2569 183.154C79.4644 188.533 87.9582 171.497 87.9582 171.497C87.9582 171.497 100.178 188.226 116.49 184.661C132.803 181.096 141.153 162.217 141.153 162.217C141.153 162.217 147.12 170.155 156.338 166.6C165.556 163.042 163.989 156.944 163.989 156.944C163.989 156.944 181.312 170.544 194.199 148.256C194.199 148.256 218.148 167.52 241.627 142.952C248.843 135.401 251.992 127.658 252.247 120.389C246.688 134.353 238.738 143.552 223.183 146.783Z" fill="#BBE9FB"/>
<path d="M78.7787 151.185C78.7787 151.185 83.6992 172.401 98.7006 157.584C98.7006 157.584 88.0399 161.513 78.7787 151.185Z" fill="#BBE9FB"/>
<path d="M177.107 133.795C177.107 133.795 194.507 147.839 202.235 125.388C202.235 125.388 194.492 136.951 177.107 133.795Z" fill="#BBE9FB"/>
</svg>
