<svg width="62" height="52" viewBox="0 0 62 52" fill="none" xmlns="http://www.w3.org/2000/svg">
<path d="M61.7999 17.9448C61.7999 40.4031 31 51.9531 31 51.9531C31 51.9531 0.199951 40.4031 0.199951 17.9448C0.199951 8.37113 7.64108 0.619793 16.832 0.619793C22.8195 0.619793 28.0678 3.91803 31 8.85879C33.9321 3.91803 39.1804 0.619793 45.1679 0.619793C54.3588 0.619793 61.7999 8.37113 61.7999 17.9448Z" fill="#EE2748"/>
<path d="M61.8 17.9441C61.8 40.4031 31 51.9531 31 51.9531C31 51.9531 18.6521 47.3229 9.59253 38.2237C40.0435 47.2158 51.0933 29.2785 51.0933 15.8731C51.0933 5.49499 43.7057 2.33432 40.174 1.41619C41.7507 0.898457 43.4285 0.619793 45.168 0.619793C54.3581 0.619793 61.8 8.37113 61.8 17.9441Z" fill="#CF1D44"/>
<path d="M19.1257 4.76571C13.8074 4.23888 2.75534 4.88921 4.3081 19.7888C4.36823 20.3671 5.17504 20.4548 5.36072 19.9039C6.68498 15.973 10.312 8.50014 19.2336 5.82303C19.8011 5.65275 19.7153 4.82408 19.1257 4.76571Z" fill="#F3597F"/>
</svg>
